<?xml version="1.0" encoding="UTF-8" standalone="no"?>
<!DOCTYPE svg PUBLIC "-//W3C//DTD SVG 1.0//EN" "http://www.w3.org/TR/2001/PR-SVG-20010719/DTD/svg10.dtd">
<svg width="37cm" height="22cm" viewBox="-57 -113 738 426" xmlns="http://www.w3.org/2000/svg" xmlns:xlink="http://www.w3.org/1999/xlink">
  <g>
    <rect style="fill: #f6e0e0" x="0" y="-111" width="561.083" height="51"/>
    <rect style="fill: none; fill-opacity:0; stroke-width: 2; stroke: #000000" x="0" y="-111" width="561.083" height="51"/>
  </g>
  <g>
    <rect style="fill: #d8e5e5" x="500" y="-40" width="80" height="338"/>
    <rect style="fill: none; fill-opacity:0; stroke-width: 2; stroke: #000000" x="500" y="-40" width="80" height="338"/>
  </g>
  <g>
    <rect style="fill: #d8e5e5" x="380" y="-40" width="80" height="338"/>
    <rect style="fill: none; fill-opacity:0; stroke-width: 2; stroke: #000000" x="380" y="-40" width="80" height="338"/>
  </g>
  <g>
    <rect style="fill: #d8e5e5" x="260" y="-40" width="80" height="338"/>
    <rect style="fill: none; fill-opacity:0; stroke-width: 2; stroke: #000000" x="260" y="-40" width="80" height="338"/>
  </g>
  <g>
    <rect style="fill: #d8e5e5" x="140" y="-40" width="80" height="340"/>
    <rect style="fill: none; fill-opacity:0; stroke-width: 2; stroke: #000000" x="140" y="-40" width="80" height="340"/>
  </g>
  <g>
    <rect style="fill: #d8e5e5" x="17.083" y="-34.8" width="84" height="338"/>
    <rect style="fill: none; fill-opacity:0; stroke-width: 2; stroke: #000000" x="17.083" y="-34.8" width="84" height="338"/>
  </g>
  <g>
    <rect style="fill: #e6e6fa" x="20" y="254.5" width="660" height="45.5"/>
    <rect style="fill: none; fill-opacity:0; stroke-width: 2; stroke: #000000" x="20" y="254.5" width="660" height="45.5"/>
  </g>
  <g>
    <rect style="fill: #e6e6fa" x="20" y="193.5" width="660" height="46.5"/>
    <rect style="fill: none; fill-opacity:0; stroke-width: 2; stroke: #000000" x="20" y="193.5" width="660" height="46.5"/>
  </g>
  <g>
    <rect style="fill: #e6e6fa" x="20" y="134.5" width="660" height="45.5"/>
    <rect style="fill: none; fill-opacity:0; stroke-width: 2; stroke: #000000" x="20" y="134.5" width="660" height="45.5"/>
  </g>
  <g>
    <rect style="fill: #e6e6fa" x="20" y="74.5" width="660" height="45.5"/>
    <rect style="fill: none; fill-opacity:0; stroke-width: 2; stroke: #000000" x="20" y="74.5" width="660" height="45.5"/>
  </g>
  <g>
    <rect style="fill: #e6e6fa" x="20" y="15.5" width="660" height="44.5"/>
    <rect style="fill: none; fill-opacity:0; stroke-width: 2; stroke: #000000" x="20" y="15.5" width="660" height="44.5"/>
  </g>
  <g>
    <path style="fill: none; fill-opacity:0; stroke-width: 2; stroke: #000000" d="M 9.40741 279.966 C -129.998,319 672.002,328 576,277"/>
    <polygon style="fill: #000000" points="10.7556,284.781 19.037,277.27 8.05924,275.151 "/>
    <polygon style="fill: none; fill-opacity:0; stroke-width: 2; stroke: #000000" points="10.7556,284.781 19.037,277.27 8.05924,275.151 "/>
  </g>
  <text style="fill: #000000;text-anchor:start;font-size:18.0622;font-family:sanserif;font-style:normal;font-weight:normal" x="33.083" y="6.0004">
    <tspan x="33.083" y="6.0004"></tspan>
  </text>
  <text style="fill: #000000;text-anchor:start;font-size:18.0622;font-family:sanserif;font-style:normal;font-weight:normal" x="223" y="263">
    <tspan x="223" y="263"></tspan>
  </text>
  <g>
    <line style="fill: none; fill-opacity:0; stroke-width: 2; stroke: #000000" x1="129" y1="37" x2="96" y2="37"/>
    <polygon style="fill: #000000" points="129,42 139,37 129,32 "/>
    <polygon style="fill: none; fill-opacity:0; stroke-width: 2; stroke: #000000" points="129,42 139,37 129,32 "/>
  </g>
  <g>
    <line style="fill: none; fill-opacity:0; stroke-width: 2; stroke: #000000" x1="249" y1="97" x2="216" y2="97"/>
    <polygon style="fill: #000000" points="249,102 259,97 249,92 "/>
    <polygon style="fill: none; fill-opacity:0; stroke-width: 2; stroke: #000000" points="249,102 259,97 249,92 "/>
  </g>
  <g>
    <g>
      <rect style="fill: #ffffff" x="20" y="20" width="76" height="34"/>
      <rect style="fill: none; fill-opacity:0; stroke-width: 2; stroke: #000000" x="20" y="20" width="76" height="34"/>
    </g>
    <text style="fill: #000000;text-anchor:start;font-size:18.0622;font-family:sanserif;font-style:normal;font-weight:normal" x="31" y="41">
      <tspan x="31" y="41">Head0</tspan>
    </text>
  </g>
  <g>
    <line style="fill: none; fill-opacity:0; stroke-width: 2; stroke: #000000" x1="369" y1="157" x2="336" y2="157"/>
    <polygon style="fill: #000000" points="369,162 379,157 369,152 "/>
    <polygon style="fill: none; fill-opacity:0; stroke-width: 2; stroke: #000000" points="369,162 379,157 369,152 "/>
  </g>
  <g>
    <line style="fill: none; fill-opacity:0; stroke-width: 2; stroke: #000000" x1="489" y1="217" x2="456" y2="217"/>
    <polygon style="fill: #000000" points="489,222 499,217 489,212 "/>
    <polygon style="fill: none; fill-opacity:0; stroke-width: 2; stroke: #000000" points="489,222 499,217 489,212 "/>
  </g>
  <text style="fill: #000000;text-anchor:start;font-size:18.0622;font-family:sanserif;font-style:normal;font-weight:normal" x="140" y="-20">
    <tspan x="140" y="-20">Physical</tspan>
    <tspan x="140" y="2.57778">Brick 1</tspan>
  </text>
  <text style="fill: #000000;text-anchor:start;font-size:18.0622;font-family:sanserif;font-style:normal;font-weight:normal" x="20" y="-20">
    <tspan x="20" y="-20">Physical</tspan>
    <tspan x="20" y="2.57778">Brick 0</tspan>
  </text>
  <text style="fill: #000000;text-anchor:start;font-size:18.0622;font-family:sanserif;font-style:normal;font-weight:normal" x="260" y="-20">
    <tspan x="260" y="-20">Physical</tspan>
    <tspan x="260" y="2.57778">Brick 2</tspan>
  </text>
  <text style="fill: #000000;text-anchor:start;font-size:18.0622;font-family:sanserif;font-style:normal;font-weight:normal" x="380" y="-20">
    <tspan x="380" y="-20">Physical</tspan>
    <tspan x="380" y="2.57778">Brick 3</tspan>
  </text>
  <text style="fill: #000000;text-anchor:start;font-size:18.0622;font-family:sanserif;font-style:normal;font-weight:normal" x="500" y="-20">
    <tspan x="500" y="-20">Physical</tspan>
    <tspan x="500" y="2.57778">Brick 4</tspan>
  </text>
  <text style="fill: #000000;text-anchor:start;font-size:18.0622;font-family:sanserif;font-style:normal;font-weight:normal" x="600" y="40">
    <tspan x="600" y="40">Chain 0</tspan>
  </text>
  <text style="fill: #000000;text-anchor:start;font-size:18.0622;font-family:sanserif;font-style:normal;font-weight:normal" x="600" y="100">
    <tspan x="600" y="100">Chain 1</tspan>
  </text>
  <text style="fill: #000000;text-anchor:start;font-size:18.0622;font-family:sanserif;font-style:normal;font-weight:normal" x="600" y="160">
    <tspan x="600" y="160">Chain 2</tspan>
  </text>
  <text style="fill: #000000;text-anchor:start;font-size:18.0622;font-family:sanserif;font-style:normal;font-weight:normal" x="600" y="220">
    <tspan x="600" y="220">Chain 3</tspan>
  </text>
  <text style="fill: #000000;text-anchor:start;font-size:18.0622;font-family:sanserif;font-style:normal;font-weight:normal" x="600" y="280">
    <tspan x="600" y="280">Chain 4</tspan>
  </text>
  <g>
    <path style="fill: none; fill-opacity:0; stroke-width: 2; stroke: #000000" d="M 11.083 267 C -77.917,267 -80,-80 18.083,-85"/>
    <polygon style="fill: #000000" points="11.083,272 21.083,267 11.083,262 "/>
    <polygon style="fill: none; fill-opacity:0; stroke-width: 2; stroke: #000000" points="11.083,272 21.083,267 11.083,262 "/>
  </g>
  <g>
    <path style="fill: none; fill-opacity:0; stroke-width: 2; stroke: #000000" d="M 9 216.75 C -80,216.75 -60,-80 18.083,-85"/>
    <polygon style="fill: #000000" points="9,221.75 19,216.75 9,211.75 "/>
    <polygon style="fill: none; fill-opacity:0; stroke-width: 2; stroke: #000000" points="9,221.75 19,216.75 9,211.75 "/>
  </g>
  <g>
    <path style="fill: none; fill-opacity:0; stroke-width: 2; stroke: #000000" d="M 9.06972 156.014 C -94.917,144.25 -21.917,-85 18.083,-85"/>
    <polygon style="fill: #000000" points="8.50768,160.982 19.0063,157.138 9.63176,151.045 "/>
    <polygon style="fill: none; fill-opacity:0; stroke-width: 2; stroke: #000000" points="8.50768,160.982 19.0063,157.138 9.63176,151.045 "/>
  </g>
  <g>
    <path style="fill: none; fill-opacity:0; stroke-width: 2; stroke: #000000" d="M 9.07549 98.5365 C -64.917,107.25 -22.917,-78 18.083,-85"/>
    <polygon style="fill: #000000" points="9.66026,103.502 19.0069,97.367 8.49072,93.5708 "/>
    <polygon style="fill: none; fill-opacity:0; stroke-width: 2; stroke: #000000" points="9.66026,103.502 19.0069,97.367 8.49072,93.5708 "/>
  </g>
  <g>
    <path style="fill: none; fill-opacity:0; stroke-width: 2; stroke: #000000" d="M 9.047 38.0157 C -33.917,42 -24.917,-59 18.083,-85"/>
    <polygon style="fill: #000000" points="9.50869,42.9944 19.0043,37.0923 8.5853,33.0371 "/>
    <polygon style="fill: none; fill-opacity:0; stroke-width: 2; stroke: #000000" points="9.50869,42.9944 19.0043,37.0923 8.5853,33.0371 "/>
  </g>
  <g>
    <g>
      <rect style="fill: #ffffff" x="18.083" y="-100" width="61.917" height="30"/>
      <rect style="fill: none; fill-opacity:0; stroke-width: 2; stroke: #000000" x="18.083" y="-100" width="61.917" height="30"/>
    </g>
    <text style="fill: #000000;text-anchor:start;font-size:18.0622;font-family:sanserif;font-style:normal;font-weight:normal" x="20" y="-80">
      <tspan x="20" y="-80">Client</tspan>
    </text>
  </g>
  <text style="fill: #000000;text-anchor:start;font-size:18.0622;font-family:sanserif;font-style:normal;font-weight:normal" x="89.083" y="-80">
    <tspan x="89.083" y="-80">Consistent hashing by client: {Table, Key} -&gt; Chain</tspan>
  </text>
  <g>
    <g>
      <rect style="fill: #ffffff" x="140" y="20" width="76" height="34"/>
      <rect style="fill: none; fill-opacity:0; stroke-width: 2; stroke: #000000" x="140" y="20" width="76" height="34"/>
    </g>
    <text style="fill: #000000;text-anchor:start;font-size:18.0622;font-family:sanserif;font-style:normal;font-weight:normal" x="158" y="41">
      <tspan x="158" y="41">Tail0</tspan>
    </text>
  </g>
  <g>
    <g>
      <rect style="fill: #ffffff" x="140" y="80" width="76" height="34"/>
      <rect style="fill: none; fill-opacity:0; stroke-width: 2; stroke: #000000" x="140" y="80" width="76" height="34"/>
    </g>
    <text style="fill: #000000;text-anchor:start;font-size:18.0622;font-family:sanserif;font-style:normal;font-weight:normal" x="154" y="102">
      <tspan x="154" y="102">Head1</tspan>
    </text>
  </g>
  <g>
    <g>
      <rect style="fill: #ffffff" x="260" y="80" width="76" height="34"/>
      <rect style="fill: none; fill-opacity:0; stroke-width: 2; stroke: #000000" x="260" y="80" width="76" height="34"/>
    </g>
    <text style="fill: #000000;text-anchor:start;font-size:18.0622;font-family:sanserif;font-style:normal;font-weight:normal" x="279" y="103">
      <tspan x="279" y="103">Tail1</tspan>
    </text>
  </g>
  <g>
    <g>
      <rect style="fill: #ffffff" x="260" y="140" width="76" height="34"/>
      <rect style="fill: none; fill-opacity:0; stroke-width: 2; stroke: #000000" x="260" y="140" width="76" height="34"/>
    </g>
    <text style="fill: #000000;text-anchor:start;font-size:18.0622;font-family:sanserif;font-style:normal;font-weight:normal" x="267" y="162">
      <tspan x="267" y="162">Head2</tspan>
    </text>
  </g>
  <g>
    <g>
      <rect style="fill: #ffffff" x="380" y="140" width="76" height="34"/>
      <rect style="fill: none; fill-opacity:0; stroke-width: 2; stroke: #000000" x="380" y="140" width="76" height="34"/>
    </g>
    <text style="fill: #000000;text-anchor:start;font-size:18.0622;font-family:sanserif;font-style:normal;font-weight:normal" x="398" y="164">
      <tspan x="398" y="164">Tail2</tspan>
    </text>
  </g>
  <g>
    <g>
      <rect style="fill: #ffffff" x="380" y="200" width="76" height="34"/>
      <rect style="fill: none; fill-opacity:0; stroke-width: 2; stroke: #000000" x="380" y="200" width="76" height="34"/>
    </g>
    <text style="fill: #000000;text-anchor:start;font-size:18.0622;font-family:sanserif;font-style:normal;font-weight:normal" x="393" y="222">
      <tspan x="393" y="222">Head3</tspan>
    </text>
  </g>
  <g>
    <g>
      <rect style="fill: #ffffff" x="500" y="200" width="76" height="34"/>
      <rect style="fill: none; fill-opacity:0; stroke-width: 2; stroke: #000000" x="500" y="200" width="76" height="34"/>
    </g>
    <text style="fill: #000000;text-anchor:start;font-size:18.0622;font-family:sanserif;font-style:normal;font-weight:normal" x="519" y="224">
      <tspan x="519" y="224">Tail3</tspan>
    </text>
  </g>
  <g>
    <g>
      <rect style="fill: #ffffff" x="500" y="260" width="76" height="34"/>
      <rect style="fill: none; fill-opacity:0; stroke-width: 2; stroke: #000000" x="500" y="260" width="76" height="34"/>
    </g>
    <text style="fill: #000000;text-anchor:start;font-size:18.0622;font-family:sanserif;font-style:normal;font-weight:normal" x="508" y="281">
      <tspan x="508" y="281">Head4</tspan>
    </text>
  </g>
  <g>
    <g>
      <rect style="fill: #ffffff" x="20" y="260" width="76" height="34"/>
      <rect style="fill: none; fill-opacity:0; stroke-width: 2; stroke: #000000" x="20" y="260" width="76" height="34"/>
    </g>
    <text style="fill: #000000;text-anchor:start;font-size:18.0622;font-family:sanserif;font-style:normal;font-weight:normal" x="38" y="282">
      <tspan x="38" y="282">Tail4</tspan>
    </text>
  </g>
</svg>
