<?xml version="1.0" encoding="UTF-8" standalone="no"?>
<!DOCTYPE svg PUBLIC "-//W3C//DTD SVG 1.0//EN" "http://www.w3.org/TR/2001/PR-SVG-20010719/DTD/svg10.dtd">
<svg width="33cm" height="23cm" viewBox="15 2 641 442" xmlns="http://www.w3.org/2000/svg" xmlns:xlink="http://www.w3.org/1999/xlink">
  <g>
    <rect style="fill: #ffffff" x="36" y="123" width="179" height="77"/>
    <rect style="fill: none; fill-opacity:0; stroke-width: 2; stroke: #000000" x="36" y="123" width="179" height="77"/>
  </g>
  <text font-size="18.0622" style="fill: #000000;text-anchor:start;font-family:sans-serif;font-style:normal;font-weight:normal" x="40" y="160">
    <tspan x="40" y="160">Node</tspan>
    <tspan x="40" y="182.578">gdss1@machine1</tspan>
    <tspan x="40" y="205.156"></tspan>
  </text>
  <g>
    <rect style="fill: #ffffff" x="404" y="121" width="179" height="78"/>
    <rect style="fill: none; fill-opacity:0; stroke-width: 2; stroke: #000000" x="404" y="121" width="179" height="78"/>
  </g>
  <text font-size="18.0622" style="fill: #000000;text-anchor:start;font-family:sans-serif;font-style:normal;font-weight:normal" x="420" y="160">
    <tspan x="420" y="160">Node</tspan>
    <tspan x="420" y="182.578">gdss1@machine2</tspan>
  </text>
  <g>
    <rect style="fill: #ffffff" x="240" y="20" width="123" height="60"/>
    <rect style="fill: none; fill-opacity:0; stroke-width: 2; stroke: #000000" x="240" y="20" width="123" height="60"/>
  </g>
  <text font-size="18.0622" style="fill: #000000;text-anchor:start;font-family:sans-serif;font-style:normal;font-weight:normal" x="260" y="40">
    <tspan x="260" y="40">Network A</tspan>
    <tspan x="260" y="62.5778">switch</tspan>
  </text>
  <g>
    <rect style="fill: #ffffff" x="240" y="260" width="121" height="60"/>
    <rect style="fill: none; fill-opacity:0; stroke-width: 2; stroke: #000000" x="240" y="260" width="121" height="60"/>
  </g>
  <text font-size="18.0622" style="fill: #000000;text-anchor:start;font-family:sans-serif;font-style:normal;font-weight:normal" x="260" y="280">
    <tspan x="260" y="280">Network B</tspan>
    <tspan x="260" y="302.578">switch</tspan>
    <tspan x="260" y="325.156"></tspan>
  </text>
  <polyline style="fill: none; fill-opacity:0; stroke-width: 2; stroke: #000000" points="493.5,199 493.5,290 361,290 "/>
  <polyline style="fill: none; fill-opacity:0; stroke-width: 2; stroke: #000000" points="125.5,200 125.5,291 202,291 202,291 240,291 240,290 "/>
  <polyline style="fill: none; fill-opacity:0; stroke-width: 2; stroke: #000000" points="493.5,121 493.5,51 435,51 435,51 363,51 363,50 "/>
  <polyline style="fill: none; fill-opacity:0; stroke-width: 2; stroke: #000000" points="125.5,123 125.5,50 240,50 "/>
  <line style="fill: none; fill-opacity:0; stroke-width: 2; stroke-dasharray: 20 8 4 8; stroke: #000000" x1="17" y1="162" x2="36" y2="161.5"/>
  <line style="fill: none; fill-opacity:0; stroke-width: 2; stroke-dasharray: 20 8 4 8; stroke: #000000" x1="215" y1="161.5" x2="404" y2="160"/>
  <line style="fill: none; fill-opacity:0; stroke-width: 2; stroke-dasharray: 20 8 4 8; stroke: #000000" x1="583" y1="160" x2="655" y2="161"/>
  <text font-size="18.0622" style="fill: #000000;text-anchor:start;font-family:sans-serif;font-style:normal;font-weight:normal" x="31" y="19">
    <tspan x="31" y="19">Network A</tspan>
  </text>
  <text font-size="18.0622" style="fill: #000000;text-anchor:start;font-family:sans-serif;font-style:normal;font-weight:normal" x="34" y="326">
    <tspan x="34" y="326">Network B</tspan>
  </text>
  <text font-size="18.0622" style="fill: #000000;text-anchor:start;font-family:sans-serif;font-style:normal;font-weight:normal" x="215" y="45">
    <tspan x="215" y="45">A3</tspan>
  </text>
  <text font-size="18.0622" style="fill: #000000;text-anchor:start;font-family:sans-serif;font-style:normal;font-weight:normal" x="366" y="46">
    <tspan x="366" y="46">A3</tspan>
  </text>
  <text font-size="18.0622" style="fill: #000000;text-anchor:start;font-family:sans-serif;font-style:normal;font-weight:normal" x="133" y="116">
    <tspan x="133" y="116">A1, A2</tspan>
  </text>
  <text font-size="18.0622" style="fill: #000000;text-anchor:start;font-family:sans-serif;font-style:normal;font-weight:normal" x="432" y="115">
    <tspan x="432" y="115">A1, A2</tspan>
  </text>
  <text font-size="18.0622" style="fill: #000000;text-anchor:start;font-family:sans-serif;font-style:normal;font-weight:normal" x="130" y="220">
    <tspan x="130" y="220">B1, B2</tspan>
  </text>
  <text font-size="18.0622" style="fill: #000000;text-anchor:start;font-family:sans-serif;font-style:normal;font-weight:normal" x="432" y="216">
    <tspan x="432" y="216">B1, B2</tspan>
  </text>
  <text font-size="18.0622" style="fill: #000000;text-anchor:start;font-family:sans-serif;font-style:normal;font-weight:normal" x="319" y="349">
    <tspan x="319" y="349">A1 = network_a_address</tspan>
    <tspan x="319" y="371.578">A2 = network_a_broadcast_address</tspan>
    <tspan x="319" y="394.156">A3 = network_a_tiebreaker</tspan>
    <tspan x="319" y="416.733">B1 = network_b_address</tspan>
    <tspan x="319" y="439.311">B2 = network_b_broadcast_address</tspan>
  </text>
</svg>
