<?xml version="1.0" encoding="UTF-8" standalone="no"?>
<!DOCTYPE svg PUBLIC "-//W3C//DTD SVG 1.1//EN"
 "http://www.w3.org/Graphics/SVG/1.1/DTD/svg11.dtd">
<!-- Generated by graphviz version 2.38.0 (20140413.2041)
 -->
<!-- Title: data_flow Pages: 1 -->
<svg width="584pt" height="397pt"
 viewBox="0.00 0.00 584.47 397.17" xmlns="http://www.w3.org/2000/svg" xmlns:xlink="http://www.w3.org/1999/xlink">
<g id="graph0" class="graph" transform="scale(1 1) rotate(0) translate(4 393.174)">
<title>data_flow</title>
<polygon fill="white" stroke="none" points="-4,4 -4,-393.174 580.468,-393.174 580.468,4 -4,4"/>
<!-- CLIENT -->
<g id="node1" class="node"><title>CLIENT</title>
<ellipse fill="none" stroke="black" cx="113.468" cy="-362.304" rx="66.4361" ry="26.7407"/>
<text text-anchor="middle" x="113.468" y="-366.104" font-family="Times,serif" font-size="14.00">Data Center 1</text>
<text text-anchor="middle" x="113.468" y="-351.104" font-family="Times,serif" font-size="14.00">Client</text>
</g>
<!-- HEAD -->
<g id="node2" class="node"><title>HEAD</title>
<ellipse fill="none" stroke="black" cx="66.468" cy="-257.563" rx="66.4361" ry="26.7407"/>
<text text-anchor="middle" x="66.468" y="-261.363" font-family="Times,serif" font-size="14.00">Data Center 1</text>
<text text-anchor="middle" x="66.468" y="-246.363" font-family="Times,serif" font-size="14.00">Head Brick</text>
</g>
<!-- CLIENT&#45;&gt;HEAD -->
<g id="edge1" class="edge"><title>CLIENT&#45;&gt;HEAD</title>
<path fill="none" stroke="black" d="M80.362,-338.726C73.9178,-332.628 68.0554,-325.46 64.468,-317.434 61.3056,-310.358 60.191,-302.312 60.1888,-294.49"/>
<polygon fill="black" stroke="black" points="63.6871,-294.617 60.7481,-284.438 56.6979,-294.228 63.6871,-294.617"/>
<text text-anchor="middle" x="106.468" y="-306.234" font-family="Times,serif" font-size="14.00">Update request</text>
</g>
<!-- MIDDLE -->
<g id="node3" class="node"><title>MIDDLE</title>
<ellipse fill="none" stroke="black" cx="68.468" cy="-152.823" rx="66.4361" ry="26.7407"/>
<text text-anchor="middle" x="68.468" y="-156.623" font-family="Times,serif" font-size="14.00">Data Center 1</text>
<text text-anchor="middle" x="68.468" y="-141.623" font-family="Times,serif" font-size="14.00">Middle Brick</text>
</g>
<!-- HEAD&#45;&gt;MIDDLE -->
<g id="edge2" class="edge"><title>HEAD&#45;&gt;MIDDLE</title>
<path fill="none" stroke="black" d="M66.9727,-230.638C67.212,-218.348 67.5018,-203.46 67.7623,-190.075"/>
<polygon fill="black" stroke="black" points="71.2681,-189.807 67.9635,-179.741 64.2695,-189.671 71.2681,-189.807"/>
<text text-anchor="middle" x="100.468" y="-201.493" font-family="Times,serif" font-size="14.00">Replication</text>
</g>
<!-- TAIL -->
<g id="node4" class="node"><title>TAIL</title>
<ellipse fill="none" stroke="black" cx="162.468" cy="-37.4767" rx="66.4361" ry="37.4533"/>
<text text-anchor="middle" x="162.468" y="-48.7767" font-family="Times,serif" font-size="14.00">Data Center 1</text>
<text text-anchor="middle" x="162.468" y="-33.7767" font-family="Times,serif" font-size="14.00">Tail Brick</text>
<text text-anchor="middle" x="162.468" y="-18.7767" font-family="Times,serif" font-size="14.00">+Official Tail</text>
</g>
<!-- MIDDLE&#45;&gt;TAIL -->
<g id="edge3" class="edge"><title>MIDDLE&#45;&gt;TAIL</title>
<path fill="none" stroke="black" d="M71.5404,-125.812C73.7952,-114.912 77.7019,-102.567 84.468,-92.9533 90.5194,-84.3549 98.3841,-76.6642 106.786,-69.9616"/>
<polygon fill="black" stroke="black" points="109.056,-72.6347 114.965,-63.8407 104.861,-67.0304 109.056,-72.6347"/>
<text text-anchor="middle" x="116.468" y="-96.7533" font-family="Times,serif" font-size="14.00">Replication</text>
</g>
<!-- TAIL&#45;&gt;CLIENT -->
<g id="edge4" class="edge"><title>TAIL&#45;&gt;CLIENT</title>
<path fill="none" stroke="black" d="M167.566,-75.1399C173.668,-129.887 179.532,-235.346 148.468,-317.434 147.035,-321.221 145.144,-324.935 142.983,-328.499"/>
<polygon fill="black" stroke="black" points="139.919,-326.78 137.158,-337.009 145.695,-330.734 139.919,-326.78"/>
<text text-anchor="middle" x="206.968" y="-201.493" font-family="Times,serif" font-size="14.00">Update reply</text>
</g>
<!-- TAIL&#45;&gt;TAIL -->
<g id="edge5" class="edge"><title>TAIL&#45;&gt;TAIL</title>
<path fill="none" stroke="black" d="M226.193,-48.5454C238.344,-47.2209 246.936,-43.5313 246.936,-37.4767 246.936,-33.3141 242.875,-30.2693 236.388,-28.3425"/>
<polygon fill="black" stroke="black" points="236.67,-24.8337 226.193,-26.4079 235.365,-31.711 236.67,-24.8337"/>
<text text-anchor="middle" x="292.436" y="-41.2767" font-family="Times,serif" font-size="14.00">Write to</text>
<text text-anchor="middle" x="292.436" y="-26.2767" font-family="Times,serif" font-size="14.00">async update log</text>
</g>
<!-- HEAD2 -->
<g id="node5" class="node"><title>HEAD2</title>
<ellipse fill="none" stroke="black" cx="399.468" cy="-257.563" rx="66.4361" ry="26.7407"/>
<text text-anchor="middle" x="399.468" y="-261.363" font-family="Times,serif" font-size="14.00">Data Center 2</text>
<text text-anchor="middle" x="399.468" y="-246.363" font-family="Times,serif" font-size="14.00">Head Brick</text>
</g>
<!-- TAIL&#45;&gt;HEAD2 -->
<g id="edge10" class="edge"><title>TAIL&#45;&gt;HEAD2</title>
<path fill="none" stroke="black" d="M179.977,-73.9003C196.606,-104.792 224.003,-149.297 257.468,-179.693 282.543,-202.47 315.586,-220.872 343.486,-233.954"/>
<polygon fill="black" stroke="black" points="342.183,-237.206 352.732,-238.185 345.096,-230.841 342.183,-237.206"/>
<text text-anchor="middle" x="293.468" y="-156.623" font-family="Times,serif" font-size="14.00">Replay async</text>
<text text-anchor="middle" x="293.468" y="-141.623" font-family="Times,serif" font-size="14.00">update log</text>
</g>
<!-- MIDDLE2 -->
<g id="node6" class="node"><title>MIDDLE2</title>
<ellipse fill="none" stroke="black" cx="404.468" cy="-152.823" rx="66.4361" ry="26.7407"/>
<text text-anchor="middle" x="404.468" y="-156.623" font-family="Times,serif" font-size="14.00">Data Center 2</text>
<text text-anchor="middle" x="404.468" y="-141.623" font-family="Times,serif" font-size="14.00">Middle Brick</text>
</g>
<!-- HEAD2&#45;&gt;MIDDLE2 -->
<g id="edge6" class="edge"><title>HEAD2&#45;&gt;MIDDLE2</title>
<path fill="none" stroke="black" d="M400.73,-230.638C401.328,-218.348 402.052,-203.46 402.704,-190.075"/>
<polygon fill="black" stroke="black" points="406.216,-189.899 403.207,-179.741 399.225,-189.559 406.216,-189.899"/>
<text text-anchor="middle" x="434.468" y="-201.493" font-family="Times,serif" font-size="14.00">Replication</text>
</g>
<!-- TAIL2 -->
<g id="node7" class="node"><title>TAIL2</title>
<ellipse fill="none" stroke="black" cx="460.468" cy="-37.4767" rx="66.4361" ry="37.4533"/>
<text text-anchor="middle" x="460.468" y="-48.7767" font-family="Times,serif" font-size="14.00">Data Center 2</text>
<text text-anchor="middle" x="460.468" y="-33.7767" font-family="Times,serif" font-size="14.00">Tail Brick</text>
<text text-anchor="middle" x="460.468" y="-18.7767" font-family="Times,serif" font-size="14.00">+Official Tail</text>
</g>
<!-- MIDDLE2&#45;&gt;TAIL2 -->
<g id="edge7" class="edge"><title>MIDDLE2&#45;&gt;TAIL2</title>
<path fill="none" stroke="black" d="M409.346,-125.876C411.875,-115.344 415.499,-103.256 420.468,-92.9533 422.526,-88.6862 424.93,-84.4101 427.519,-80.2338"/>
<polygon fill="black" stroke="black" points="430.471,-82.1147 433.043,-71.8368 424.623,-78.2674 430.471,-82.1147"/>
<text text-anchor="middle" x="452.468" y="-96.7533" font-family="Times,serif" font-size="14.00">Replication</text>
</g>
<!-- CLIENT2 -->
<g id="node8" class="node"><title>CLIENT2</title>
<ellipse fill="none" stroke="black" cx="448.468" cy="-362.304" rx="66.4361" ry="26.7407"/>
<text text-anchor="middle" x="448.468" y="-366.104" font-family="Times,serif" font-size="14.00">Data Center 2</text>
<text text-anchor="middle" x="448.468" y="-351.104" font-family="Times,serif" font-size="14.00">Client</text>
</g>
<!-- TAIL2&#45;&gt;CLIENT2 -->
<g id="edge9" class="edge"><title>TAIL2&#45;&gt;CLIENT2</title>
<path fill="none" stroke="black" d="M478.536,-73.8156C480.992,-80.0473 483.127,-86.582 484.468,-92.9533 505.021,-190.582 518.077,-223.496 484.468,-317.434 483.049,-321.399 481.1,-325.264 478.838,-328.951"/>
<polygon fill="black" stroke="black" points="475.939,-326.989 473.092,-337.194 481.682,-330.991 475.939,-326.989"/>
<text text-anchor="middle" x="540.968" y="-201.493" font-family="Times,serif" font-size="14.00">Update reply</text>
</g>
<!-- CLIENT2&#45;&gt;HEAD2 -->
<g id="edge8" class="edge"><title>CLIENT2&#45;&gt;HEAD2</title>
<path fill="none" stroke="black" d="M415.879,-338.338C409.659,-332.299 403.995,-325.255 400.468,-317.434 397.283,-310.371 395.897,-302.331 395.522,-294.51"/>
<polygon fill="black" stroke="black" points="399.022,-294.466 395.548,-284.457 392.022,-294.448 399.022,-294.466"/>
<text text-anchor="middle" x="442.468" y="-306.234" font-family="Times,serif" font-size="14.00">Update request</text>
</g>
</g>
</svg>
