<?xml version="1.0" encoding="UTF-8" standalone="no"?>
<!DOCTYPE svg PUBLIC "-//W3C//DTD SVG 1.1//EN"
 "http://www.w3.org/Graphics/SVG/1.1/DTD/svg11.dtd">
<!-- Generated by graphviz version 2.28.0 (20120122.0658)
 -->
<!-- Title: data_flow Pages: 1 -->
<svg width="592pt" height="434pt"
 viewBox="0.00 0.00 591.69 434.00" xmlns="http://www.w3.org/2000/svg" xmlns:xlink="http://www.w3.org/1999/xlink">
<g id="graph1" class="graph" transform="scale(1 1) rotate(0) translate(4 430)">
<title>data_flow</title>
<polygon fill="white" stroke="white" points="-4,5 -4,-430 588.693,-430 588.693,5 -4,5"/>
<!-- CLIENT -->
<g id="node1" class="node"><title>CLIENT</title>
<ellipse fill="none" stroke="black" cx="113" cy="-396" rx="65.9328" ry="29.3315"/>
<text text-anchor="middle" x="113" y="-398.8" font-family="Times,serif" font-size="14.00">Data Center 1</text>
<text text-anchor="middle" x="113" y="-382" font-family="Times,serif" font-size="14.00">Client</text>
</g>
<!-- HEAD -->
<g id="node2" class="node"><title>HEAD</title>
<ellipse fill="none" stroke="black" cx="66" cy="-282" rx="65.9328" ry="29.3315"/>
<text text-anchor="middle" x="66" y="-284.8" font-family="Times,serif" font-size="14.00">Data Center 1</text>
<text text-anchor="middle" x="66" y="-268" font-family="Times,serif" font-size="14.00">Head Brick</text>
</g>
<!-- CLIENT&#45;&gt;HEAD -->
<g id="edge5" class="edge"><title>CLIENT&#45;&gt;HEAD</title>
<path fill="none" stroke="black" d="M79.6182,-370.481C73.1289,-363.963 67.2337,-356.374 63.6445,-348 60.1594,-339.869 59.028,-330.627 59.1361,-321.715"/>
<polygon fill="black" stroke="black" points="62.6443,-321.689 59.7656,-311.492 55.6575,-321.258 62.6443,-321.689"/>
<text text-anchor="middle" x="106.178" y="-333.4" font-family="Times,serif" font-size="14.00">Update request</text>
</g>
<!-- MIDDLE -->
<g id="node3" class="node"><title>MIDDLE</title>
<ellipse fill="none" stroke="black" cx="68" cy="-168" rx="65.9328" ry="29.3315"/>
<text text-anchor="middle" x="68" y="-170.8" font-family="Times,serif" font-size="14.00">Data Center 1</text>
<text text-anchor="middle" x="68" y="-154" font-family="Times,serif" font-size="14.00">Middle Brick</text>
</g>
<!-- HEAD&#45;&gt;MIDDLE -->
<g id="edge7" class="edge"><title>HEAD&#45;&gt;MIDDLE</title>
<path fill="none" stroke="black" d="M66.5099,-252.448C66.752,-238.888 67.0451,-222.476 67.307,-207.808"/>
<polygon fill="black" stroke="black" points="70.8119,-207.561 67.4911,-197.5 63.813,-207.436 70.8119,-207.561"/>
<text text-anchor="middle" x="100.269" y="-219.4" font-family="Times,serif" font-size="14.00">Replication</text>
</g>
<!-- TAIL -->
<g id="node4" class="node"><title>TAIL</title>
<ellipse fill="none" stroke="black" cx="162" cy="-42" rx="65.9328" ry="41.0911"/>
<text text-anchor="middle" x="162" y="-53.2" font-family="Times,serif" font-size="14.00">Data Center 1</text>
<text text-anchor="middle" x="162" y="-36.4" font-family="Times,serif" font-size="14.00">Tail Brick</text>
<text text-anchor="middle" x="162" y="-19.6" font-family="Times,serif" font-size="14.00">+Official Tail</text>
</g>
<!-- MIDDLE&#45;&gt;TAIL -->
<g id="edge9" class="edge"><title>MIDDLE&#45;&gt;TAIL</title>
<path fill="none" stroke="black" d="M70.4707,-138.429C72.5615,-126.42 76.4056,-112.77 83.4619,-102 89.4727,-92.826 97.4202,-84.5378 105.952,-77.2693"/>
<polygon fill="black" stroke="black" points="108.301,-79.8716 113.912,-70.8847 103.922,-74.4109 108.301,-79.8716"/>
<text text-anchor="middle" x="116.269" y="-105.4" font-family="Times,serif" font-size="14.00">Replication</text>
</g>
<!-- TAIL&#45;&gt;CLIENT -->
<g id="edge11" class="edge"><title>TAIL&#45;&gt;CLIENT</title>
<path fill="none" stroke="black" d="M167.461,-83.4262C173.939,-143.226 180.176,-257.895 148,-348 146.557,-352.042 144.638,-356.028 142.441,-359.867"/>
<polygon fill="black" stroke="black" points="139.348,-358.207 136.9,-368.515 145.242,-361.984 139.348,-358.207"/>
<text text-anchor="middle" x="208.347" y="-219.4" font-family="Times,serif" font-size="14.00">Update reply</text>
</g>
<!-- TAIL&#45;&gt;TAIL -->
<g id="edge13" class="edge"><title>TAIL&#45;&gt;TAIL</title>
<path fill="none" stroke="black" d="M225.372,-54.1399C237.455,-52.6873 246,-48.6406 246,-42 246,-37.4346 241.961,-34.0952 235.511,-31.9819"/>
<polygon fill="black" stroke="black" points="235.877,-28.4828 225.372,-29.8601 234.443,-35.3344 235.877,-28.4828"/>
<text text-anchor="middle" x="293.042" y="-44.8" font-family="Times,serif" font-size="14.00">Write to</text>
<text text-anchor="middle" x="293.042" y="-28" font-family="Times,serif" font-size="14.00">async update log</text>
</g>
<!-- HEAD2 -->
<g id="node5" class="node"><title>HEAD2</title>
<ellipse fill="none" stroke="black" cx="404" cy="-282" rx="65.9328" ry="29.3315"/>
<text text-anchor="middle" x="404" y="-284.8" font-family="Times,serif" font-size="14.00">Data Center 2</text>
<text text-anchor="middle" x="404" y="-268" font-family="Times,serif" font-size="14.00">Head Brick</text>
</g>
<!-- TAIL&#45;&gt;HEAD2 -->
<g id="edge24" class="edge"><title>TAIL&#45;&gt;HEAD2</title>
<path fill="none" stroke="black" d="M179.623,-82.0687C196.344,-115.868 224.075,-164.45 258.969,-198 284.538,-222.585 318.766,-242.619 347.549,-256.841"/>
<polygon fill="black" stroke="black" points="346.158,-260.056 356.685,-261.253 349.202,-253.753 346.158,-260.056"/>
<text text-anchor="middle" x="296.516" y="-170.8" font-family="Times,serif" font-size="14.00">Replay async</text>
<text text-anchor="middle" x="296.516" y="-154" font-family="Times,serif" font-size="14.00">update log</text>
</g>
<!-- MIDDLE2 -->
<g id="node6" class="node"><title>MIDDLE2</title>
<ellipse fill="none" stroke="black" cx="409" cy="-168" rx="65.9328" ry="29.3315"/>
<text text-anchor="middle" x="409" y="-170.8" font-family="Times,serif" font-size="14.00">Data Center 2</text>
<text text-anchor="middle" x="409" y="-154" font-family="Times,serif" font-size="14.00">Middle Brick</text>
</g>
<!-- HEAD2&#45;&gt;MIDDLE2 -->
<g id="edge16" class="edge"><title>HEAD2&#45;&gt;MIDDLE2</title>
<path fill="none" stroke="black" d="M405.275,-252.448C405.88,-238.888 406.613,-222.476 407.268,-207.808"/>
<polygon fill="black" stroke="black" points="410.778,-207.646 407.728,-197.5 403.785,-207.334 410.778,-207.646"/>
<text text-anchor="middle" x="439.269" y="-219.4" font-family="Times,serif" font-size="14.00">Replication</text>
</g>
<!-- TAIL2 -->
<g id="node7" class="node"><title>TAIL2</title>
<ellipse fill="none" stroke="black" cx="464" cy="-42" rx="65.9328" ry="41.0911"/>
<text text-anchor="middle" x="464" y="-53.2" font-family="Times,serif" font-size="14.00">Data Center 2</text>
<text text-anchor="middle" x="464" y="-36.4" font-family="Times,serif" font-size="14.00">Tail Brick</text>
<text text-anchor="middle" x="464" y="-19.6" font-family="Times,serif" font-size="14.00">+Official Tail</text>
</g>
<!-- MIDDLE2&#45;&gt;TAIL2 -->
<g id="edge18" class="edge"><title>MIDDLE2&#45;&gt;TAIL2</title>
<path fill="none" stroke="black" d="M413.498,-138.455C415.91,-126.842 419.446,-113.479 424.462,-102 426.478,-97.3869 428.856,-92.7446 431.43,-88.1997"/>
<polygon fill="black" stroke="black" points="434.438,-89.9894 436.578,-79.6129 428.434,-86.3901 434.438,-89.9894"/>
<text text-anchor="middle" x="457.269" y="-105.4" font-family="Times,serif" font-size="14.00">Replication</text>
</g>
<!-- CLIENT2 -->
<g id="node8" class="node"><title>CLIENT2</title>
<ellipse fill="none" stroke="black" cx="453" cy="-396" rx="65.9328" ry="29.3315"/>
<text text-anchor="middle" x="453" y="-398.8" font-family="Times,serif" font-size="14.00">Data Center 2</text>
<text text-anchor="middle" x="453" y="-382" font-family="Times,serif" font-size="14.00">Client</text>
</g>
<!-- TAIL2&#45;&gt;CLIENT2 -->
<g id="edge22" class="edge"><title>TAIL2&#45;&gt;CLIENT2</title>
<path fill="none" stroke="black" d="M482.946,-81.6492C485.453,-88.2949 487.627,-95.2407 489,-102 510.764,-209.145 524.099,-244.454 489,-348 487.608,-352.107 485.697,-356.136 483.476,-360.002"/>
<polygon fill="black" stroke="black" points="480.346,-358.396 477.829,-368.687 486.215,-362.211 480.346,-358.396"/>
<text text-anchor="middle" x="547.347" y="-219.4" font-family="Times,serif" font-size="14.00">Update reply</text>
</g>
<!-- CLIENT2&#45;&gt;HEAD2 -->
<g id="edge20" class="edge"><title>CLIENT2&#45;&gt;HEAD2</title>
<path fill="none" stroke="black" d="M420.344,-370.352C413.984,-363.84 408.194,-356.286 404.645,-348 401.163,-339.873 399.752,-330.633 399.47,-321.722"/>
<polygon fill="black" stroke="black" points="402.973,-321.543 399.602,-311.499 395.973,-321.453 402.973,-321.543"/>
<text text-anchor="middle" x="447.178" y="-333.4" font-family="Times,serif" font-size="14.00">Update request</text>
</g>
</g>
</svg>
