<?xml version="1.0" encoding="UTF-8" standalone="no"?>
<!DOCTYPE svg PUBLIC "-//W3C//DTD SVG 1.1//EN"
 "http://www.w3.org/Graphics/SVG/1.1/DTD/svg11.dtd">
<!-- Generated by graphviz version 2.26.3 (20100126.1600)
 -->
<!-- Title: data_flow Pages: 1 -->
<svg width="608pt" height="402pt"
 viewBox="0.00 0.00 608.00 402.00" xmlns="http://www.w3.org/2000/svg" xmlns:xlink="http://www.w3.org/1999/xlink">
<g id="graph1" class="graph" transform="scale(1 1) rotate(0) translate(4 398)">
<title>data_flow</title>
<polygon fill="white" stroke="white" points="-4,5 -4,-398 605,-398 605,5 -4,5"/>
<!-- CLIENT -->
<g id="node1" class="node"><title>CLIENT</title>
<ellipse fill="none" stroke="black" cx="116" cy="-367" rx="67.8823" ry="26.8701"/>
<text text-anchor="middle" x="116" y="-369.4" font-family="Times,serif" font-size="14.00">Data Center 1</text>
<text text-anchor="middle" x="116" y="-354.4" font-family="Times,serif" font-size="14.00">Client</text>
</g>
<!-- HEAD -->
<g id="node2" class="node"><title>HEAD</title>
<ellipse fill="none" stroke="black" cx="68" cy="-261" rx="67.8823" ry="26.8701"/>
<text text-anchor="middle" x="68" y="-263.4" font-family="Times,serif" font-size="14.00">Data Center 1</text>
<text text-anchor="middle" x="68" y="-248.4" font-family="Times,serif" font-size="14.00">Head Brick</text>
</g>
<!-- CLIENT&#45;&gt;HEAD -->
<g id="edge5" class="edge"><title>CLIENT&#45;&gt;HEAD</title>
<path fill="none" stroke="black" d="M81.9593,-343.569C75.4846,-337.368 69.611,-330.108 66,-322 62.7264,-314.65 61.571,-306.293 61.565,-298.173"/>
<polygon fill="black" stroke="black" points="65.0641,-298.28 62.0993,-288.108 58.074,-297.909 65.0641,-298.28"/>
<text text-anchor="middle" x="109.5" y="-308.9" font-family="Times,serif" font-size="14.00">Update request</text>
</g>
<!-- MIDDLE -->
<g id="node3" class="node"><title>MIDDLE</title>
<ellipse fill="none" stroke="black" cx="70" cy="-155" rx="67.8823" ry="26.8701"/>
<text text-anchor="middle" x="70" y="-157.4" font-family="Times,serif" font-size="14.00">Data Center 1</text>
<text text-anchor="middle" x="70" y="-142.4" font-family="Times,serif" font-size="14.00">Middle Brick</text>
</g>
<!-- HEAD&#45;&gt;MIDDLE -->
<g id="edge7" class="edge"><title>HEAD&#45;&gt;MIDDLE</title>
<path fill="none" stroke="black" d="M68.5099,-233.977C68.7478,-221.367 69.0349,-206.149 69.2934,-192.452"/>
<polygon fill="black" stroke="black" points="72.7948,-192.406 69.4841,-182.342 65.796,-192.274 72.7948,-192.406"/>
<text text-anchor="middle" x="103" y="-202.9" font-family="Times,serif" font-size="14.00">Replication</text>
</g>
<!-- TAIL -->
<g id="node4" class="node"><title>TAIL</title>
<ellipse fill="none" stroke="black" cx="167" cy="-38" rx="67.8823" ry="37.4767"/>
<text text-anchor="middle" x="167" y="-47.9" font-family="Times,serif" font-size="14.00">Data Center 1</text>
<text text-anchor="middle" x="167" y="-32.9" font-family="Times,serif" font-size="14.00">Tail Brick</text>
<text text-anchor="middle" x="167" y="-17.9" font-family="Times,serif" font-size="14.00">+Official Tail</text>
</g>
<!-- MIDDLE&#45;&gt;TAIL -->
<g id="edge9" class="edge"><title>MIDDLE&#45;&gt;TAIL</title>
<path fill="none" stroke="black" d="M73.464,-127.741C75.8923,-116.522 80.0135,-103.871 87,-94 93.224,-85.2063 101.288,-77.3277 109.894,-70.4518"/>
<polygon fill="black" stroke="black" points="112.024,-73.2291 117.913,-64.4215 107.817,-67.6344 112.024,-73.2291"/>
<text text-anchor="middle" x="120" y="-96.9" font-family="Times,serif" font-size="14.00">Replication</text>
</g>
<!-- TAIL&#45;&gt;CLIENT -->
<g id="edge11" class="edge"><title>TAIL&#45;&gt;CLIENT</title>
<path fill="none" stroke="black" d="M172.391,-75.3839C178.867,-131.194 185.203,-238.653 153,-322 151.483,-325.927 149.481,-329.767 147.191,-333.444"/>
<polygon fill="black" stroke="black" points="144.286,-331.492 141.422,-341.693 150.022,-335.504 144.286,-331.492"/>
<text text-anchor="middle" x="215" y="-202.9" font-family="Times,serif" font-size="14.00">Update reply</text>
</g>
<!-- TAIL&#45;&gt;TAIL -->
<g id="edge13" class="edge"><title>TAIL&#45;&gt;TAIL</title>
<path fill="none" stroke="black" d="M231.881,-49.4258C244.252,-48.0586 253,-44.25 253,-38 253,-33.6055 248.675,-30.4179 241.807,-28.4374"/>
<polygon fill="black" stroke="black" points="242.355,-24.9793 231.881,-26.5742 241.063,-31.8591 242.355,-24.9793"/>
<text text-anchor="middle" x="301.5" y="-40.4" font-family="Times,serif" font-size="14.00">Write to</text>
<text text-anchor="middle" x="301.5" y="-25.4" font-family="Times,serif" font-size="14.00">async update log</text>
</g>
<!-- HEAD2 -->
<g id="node5" class="node"><title>HEAD2</title>
<ellipse fill="none" stroke="black" cx="415" cy="-261" rx="67.8823" ry="26.8701"/>
<text text-anchor="middle" x="415" y="-263.4" font-family="Times,serif" font-size="14.00">Data Center 2</text>
<text text-anchor="middle" x="415" y="-248.4" font-family="Times,serif" font-size="14.00">Head Brick</text>
</g>
<!-- TAIL&#45;&gt;HEAD2 -->
<g id="edge24" class="edge"><title>TAIL&#45;&gt;HEAD2</title>
<path fill="none" stroke="black" d="M185.641,-74.1424C203.283,-105.657 232.207,-151.047 267,-182 293.41,-205.495 328.043,-224.469 357.166,-237.927"/>
<polygon fill="black" stroke="black" points="355.856,-241.176 366.41,-242.102 358.737,-234.796 355.856,-241.176"/>
<text text-anchor="middle" x="305.5" y="-157.4" font-family="Times,serif" font-size="14.00">Replay async</text>
<text text-anchor="middle" x="305.5" y="-142.4" font-family="Times,serif" font-size="14.00">update log</text>
</g>
<!-- MIDDLE2 -->
<g id="node6" class="node"><title>MIDDLE2</title>
<ellipse fill="none" stroke="black" cx="421" cy="-155" rx="67.8823" ry="26.8701"/>
<text text-anchor="middle" x="421" y="-157.4" font-family="Times,serif" font-size="14.00">Data Center 2</text>
<text text-anchor="middle" x="421" y="-142.4" font-family="Times,serif" font-size="14.00">Middle Brick</text>
</g>
<!-- HEAD2&#45;&gt;MIDDLE2 -->
<g id="edge16" class="edge"><title>HEAD2&#45;&gt;MIDDLE2</title>
<path fill="none" stroke="black" d="M416.53,-233.977C417.243,-221.367 418.105,-206.149 418.88,-192.452"/>
<polygon fill="black" stroke="black" points="422.382,-192.524 419.452,-182.342 415.393,-192.128 422.382,-192.524"/>
<text text-anchor="middle" x="451" y="-202.9" font-family="Times,serif" font-size="14.00">Replication</text>
</g>
<!-- TAIL2 -->
<g id="node7" class="node"><title>TAIL2</title>
<ellipse fill="none" stroke="black" cx="476" cy="-38" rx="67.8823" ry="37.4767"/>
<text text-anchor="middle" x="476" y="-47.9" font-family="Times,serif" font-size="14.00">Data Center 2</text>
<text text-anchor="middle" x="476" y="-32.9" font-family="Times,serif" font-size="14.00">Tail Brick</text>
<text text-anchor="middle" x="476" y="-17.9" font-family="Times,serif" font-size="14.00">+Official Tail</text>
</g>
<!-- MIDDLE2&#45;&gt;TAIL2 -->
<g id="edge18" class="edge"><title>MIDDLE2&#45;&gt;TAIL2</title>
<path fill="none" stroke="black" d="M425.962,-127.871C428.49,-117.038 432.091,-104.637 437,-94 438.975,-89.7207 441.278,-85.4191 443.76,-81.2054"/>
<polygon fill="black" stroke="black" points="446.733,-83.0523 449.055,-72.7152 440.793,-79.3476 446.733,-83.0523"/>
<text text-anchor="middle" x="470" y="-96.9" font-family="Times,serif" font-size="14.00">Replication</text>
</g>
<!-- CLIENT2 -->
<g id="node8" class="node"><title>CLIENT2</title>
<ellipse fill="none" stroke="black" cx="466" cy="-367" rx="67.8823" ry="26.8701"/>
<text text-anchor="middle" x="466" y="-369.4" font-family="Times,serif" font-size="14.00">Data Center 2</text>
<text text-anchor="middle" x="466" y="-354.4" font-family="Times,serif" font-size="14.00">Client</text>
</g>
<!-- TAIL2&#45;&gt;CLIENT2 -->
<g id="edge22" class="edge"><title>TAIL2&#45;&gt;CLIENT2</title>
<path fill="none" stroke="black" d="M496.185,-73.8861C499.005,-80.3988 501.461,-87.2659 503,-94 525.572,-192.787 537.182,-226.606 503,-322 501.58,-325.963 499.643,-329.827 497.396,-333.52"/>
<polygon fill="black" stroke="black" points="494.487,-331.573 491.684,-341.79 500.247,-335.551 494.487,-331.573"/>
<text text-anchor="middle" x="562" y="-202.9" font-family="Times,serif" font-size="14.00">Update reply</text>
</g>
<!-- CLIENT2&#45;&gt;HEAD2 -->
<g id="edge20" class="edge"><title>CLIENT2&#45;&gt;HEAD2</title>
<path fill="none" stroke="black" d="M432.058,-343.524C425.578,-337.326 419.677,-330.078 416,-322 412.668,-314.68 411.224,-306.335 410.842,-298.217"/>
<polygon fill="black" stroke="black" points="414.342,-298.159 410.864,-288.151 407.342,-298.144 414.342,-298.159"/>
<text text-anchor="middle" x="459.5" y="-308.9" font-family="Times,serif" font-size="14.00">Update request</text>
</g>
</g>
</svg>
