<?xml version="1.0" encoding="UTF-8" standalone="no"?>
<!DOCTYPE svg PUBLIC "-//W3C//DTD SVG 1.1//EN"
 "http://www.w3.org/Graphics/SVG/1.1/DTD/svg11.dtd">
<!-- Generated by graphviz version 2.26.0 (20091210.2329)
 -->
<!-- Title: data_flow Pages: 1 -->
<svg width="581pt" height="466pt"
 viewBox="0.00 0.00 581.00 466.00" xmlns="http://www.w3.org/2000/svg" xmlns:xlink="http://www.w3.org/1999/xlink">
<g id="graph1" class="graph" transform="scale(1 1) rotate(0) translate(4 462)">
<title>data_flow</title>
<polygon fill="white" stroke="white" points="-4,5 -4,-462 578,-462 578,5 -4,5"/>
<!-- CLIENT -->
<g id="node1" class="node"><title>CLIENT</title>
<ellipse fill="none" stroke="black" cx="112" cy="-425" rx="65.0538" ry="32.5269"/>
<text text-anchor="middle" x="112" y="-431.4" font-family="Times Roman,serif" font-size="14.00">Data Center 1</text>
<text text-anchor="middle" x="112" y="-412.4" font-family="Times Roman,serif" font-size="14.00">Client</text>
</g>
<!-- HEAD -->
<g id="node2" class="node"><title>HEAD</title>
<ellipse fill="none" stroke="black" cx="65" cy="-303" rx="65.0538" ry="32.5269"/>
<text text-anchor="middle" x="65" y="-309.4" font-family="Times Roman,serif" font-size="14.00">Data Center 1</text>
<text text-anchor="middle" x="65" y="-290.4" font-family="Times Roman,serif" font-size="14.00">Head Brick</text>
</g>
<!-- CLIENT&#45;&gt;HEAD -->
<g id="edge5" class="edge"><title>CLIENT&#45;&gt;HEAD</title>
<path fill="none" stroke="black" d="M78.743,-397.003C72.727,-390.154 67.3169,-382.364 64,-374 60.4957,-365.164 59.1932,-355.209 59.084,-345.611"/>
<polygon fill="black" stroke="black" points="62.5886,-345.506 59.3862,-335.407 55.5917,-345.299 62.5886,-345.506"/>
<text text-anchor="middle" x="105" y="-360.9" font-family="Times Roman,serif" font-size="14.00">Update request</text>
</g>
<!-- MIDDLE -->
<g id="node3" class="node"><title>MIDDLE</title>
<ellipse fill="none" stroke="black" cx="67" cy="-181" rx="65.0538" ry="32.5269"/>
<text text-anchor="middle" x="67" y="-187.4" font-family="Times Roman,serif" font-size="14.00">Data Center 1</text>
<text text-anchor="middle" x="67" y="-168.4" font-family="Times Roman,serif" font-size="14.00">Middle Brick</text>
</g>
<!-- HEAD&#45;&gt;MIDDLE -->
<g id="edge7" class="edge"><title>HEAD&#45;&gt;MIDDLE</title>
<path fill="none" stroke="black" d="M65.536,-270.306C65.7691,-256.084 66.0455,-239.224 66.295,-224.005"/>
<polygon fill="black" stroke="black" points="69.7981,-223.84 66.4626,-213.784 62.799,-223.725 69.7981,-223.84"/>
<text text-anchor="middle" x="98.5" y="-238.9" font-family="Times Roman,serif" font-size="14.00">Replication</text>
</g>
<!-- TAIL -->
<g id="node4" class="node"><title>TAIL</title>
<ellipse fill="none" stroke="black" cx="160" cy="-46" rx="65.0538" ry="45.9619"/>
<text text-anchor="middle" x="160" y="-61.9" font-family="Times Roman,serif" font-size="14.00">Data Center 1</text>
<text text-anchor="middle" x="160" y="-42.9" font-family="Times Roman,serif" font-size="14.00">Tail Brick</text>
<text text-anchor="middle" x="160" y="-23.9" font-family="Times Roman,serif" font-size="14.00">+Official Tail</text>
</g>
<!-- MIDDLE&#45;&gt;TAIL -->
<g id="edge9" class="edge"><title>MIDDLE&#45;&gt;TAIL</title>
<path fill="none" stroke="black" d="M69.8377,-148.202C72.0597,-135.558 76.0051,-121.422 83,-110 88.7689,-100.58 96.4184,-91.8929 104.659,-84.1556"/>
<polygon fill="black" stroke="black" points="107.202,-86.579 112.357,-77.3231 102.555,-81.3439 107.202,-86.579"/>
<text text-anchor="middle" x="114.5" y="-116.9" font-family="Times Roman,serif" font-size="14.00">Replication</text>
</g>
<!-- TAIL&#45;&gt;CLIENT -->
<g id="edge11" class="edge"><title>TAIL&#45;&gt;CLIENT</title>
<path fill="none" stroke="black" d="M165.656,-91.9319C171.942,-156.65 177.464,-277.549 146,-374 144.701,-377.983 142.996,-381.948 141.043,-385.805"/>
<polygon fill="black" stroke="black" points="137.965,-384.139 136.105,-394.569 144.063,-387.575 137.965,-384.139"/>
<text text-anchor="middle" x="205.5" y="-238.9" font-family="Times Roman,serif" font-size="14.00">Update reply</text>
</g>
<!-- TAIL&#45;&gt;TAIL -->
<g id="edge13" class="edge"><title>TAIL&#45;&gt;TAIL</title>
<path fill="none" stroke="black" d="M222.258,-59.2576C234.387,-57.718 243,-53.2988 243,-46 243,-40.9821 238.929,-37.3252 232.443,-35.0294"/>
<polygon fill="black" stroke="black" points="232.782,-31.5184 222.258,-32.7424 231.249,-38.3483 232.782,-31.5184"/>
<text text-anchor="middle" x="289" y="-52.4" font-family="Times Roman,serif" font-size="14.00">Write to</text>
<text text-anchor="middle" x="289" y="-33.4" font-family="Times Roman,serif" font-size="14.00">async update log</text>
</g>
<!-- HEAD2 -->
<g id="node5" class="node"><title>HEAD2</title>
<ellipse fill="none" stroke="black" cx="398" cy="-303" rx="65.0538" ry="32.5269"/>
<text text-anchor="middle" x="398" y="-309.4" font-family="Times Roman,serif" font-size="14.00">Data Center 2</text>
<text text-anchor="middle" x="398" y="-290.4" font-family="Times Roman,serif" font-size="14.00">Head Brick</text>
</g>
<!-- TAIL&#45;&gt;HEAD2 -->
<g id="edge24" class="edge"><title>TAIL&#45;&gt;HEAD2</title>
<path fill="none" stroke="black" d="M177.807,-90.6267C193.934,-126.963 220.448,-177.963 255,-214 279.47,-239.522 312.726,-260.79 341.01,-276.128"/>
<polygon fill="black" stroke="black" points="339.526,-279.303 350.001,-280.898 342.807,-273.119 339.526,-279.303"/>
<text text-anchor="middle" x="291.5" y="-187.4" font-family="Times Roman,serif" font-size="14.00">Replay async</text>
<text text-anchor="middle" x="291.5" y="-168.4" font-family="Times Roman,serif" font-size="14.00">update log</text>
</g>
<!-- MIDDLE2 -->
<g id="node6" class="node"><title>MIDDLE2</title>
<ellipse fill="none" stroke="black" cx="402" cy="-181" rx="65.0538" ry="32.5269"/>
<text text-anchor="middle" x="402" y="-187.4" font-family="Times Roman,serif" font-size="14.00">Data Center 2</text>
<text text-anchor="middle" x="402" y="-168.4" font-family="Times Roman,serif" font-size="14.00">Middle Brick</text>
</g>
<!-- HEAD2&#45;&gt;MIDDLE2 -->
<g id="edge16" class="edge"><title>HEAD2&#45;&gt;MIDDLE2</title>
<path fill="none" stroke="black" d="M399.072,-270.306C399.538,-256.084 400.091,-239.224 400.59,-224.005"/>
<polygon fill="black" stroke="black" points="404.095,-223.893 400.925,-213.784 397.099,-223.664 404.095,-223.893"/>
<text text-anchor="middle" x="431.5" y="-238.9" font-family="Times Roman,serif" font-size="14.00">Replication</text>
</g>
<!-- TAIL2 -->
<g id="node7" class="node"><title>TAIL2</title>
<ellipse fill="none" stroke="black" cx="456" cy="-46" rx="65.0538" ry="45.9619"/>
<text text-anchor="middle" x="456" y="-61.9" font-family="Times Roman,serif" font-size="14.00">Data Center 2</text>
<text text-anchor="middle" x="456" y="-42.9" font-family="Times Roman,serif" font-size="14.00">Tail Brick</text>
<text text-anchor="middle" x="456" y="-23.9" font-family="Times Roman,serif" font-size="14.00">+Official Tail</text>
</g>
<!-- MIDDLE2&#45;&gt;TAIL2 -->
<g id="edge18" class="edge"><title>MIDDLE2&#45;&gt;TAIL2</title>
<path fill="none" stroke="black" d="M407.085,-148.546C409.59,-136.217 413.141,-122.21 418,-110 419.685,-105.766 421.627,-101.484 423.723,-97.2473"/>
<polygon fill="black" stroke="black" points="426.983,-98.5652 428.518,-88.0821 420.781,-95.3204 426.983,-98.5652"/>
<text text-anchor="middle" x="449.5" y="-116.9" font-family="Times Roman,serif" font-size="14.00">Replication</text>
</g>
<!-- CLIENT2 -->
<g id="node8" class="node"><title>CLIENT2</title>
<ellipse fill="none" stroke="black" cx="446" cy="-425" rx="65.0538" ry="32.5269"/>
<text text-anchor="middle" x="446" y="-431.4" font-family="Times Roman,serif" font-size="14.00">Data Center 2</text>
<text text-anchor="middle" x="446" y="-412.4" font-family="Times Roman,serif" font-size="14.00">Client</text>
</g>
<!-- TAIL2&#45;&gt;CLIENT2 -->
<g id="edge22" class="edge"><title>TAIL2&#45;&gt;CLIENT2</title>
<path fill="none" stroke="black" d="M475.67,-90.1322C477.871,-96.6803 479.763,-103.435 481,-110 502.721,-225.305 515.756,-261.932 481,-374 479.748,-378.039 478.052,-382.041 476.08,-385.924"/>
<polygon fill="black" stroke="black" points="472.974,-384.305 471.054,-394.725 479.053,-387.777 472.974,-384.305"/>
<text text-anchor="middle" x="537.5" y="-238.9" font-family="Times Roman,serif" font-size="14.00">Update reply</text>
</g>
<!-- CLIENT2&#45;&gt;HEAD2 -->
<g id="edge20" class="edge"><title>CLIENT2&#45;&gt;HEAD2</title>
<path fill="none" stroke="black" d="M413.275,-396.593C407.475,-389.82 402.255,-382.165 399,-374 395.513,-365.254 394.018,-355.407 393.637,-345.895"/>
<polygon fill="black" stroke="black" points="397.136,-345.765 393.618,-335.772 390.136,-345.778 397.136,-345.765"/>
<text text-anchor="middle" x="440" y="-360.9" font-family="Times Roman,serif" font-size="14.00">Update request</text>
</g>
</g>
</svg>
