<?xml version="1.0" encoding="UTF-8" standalone="no"?>
<!DOCTYPE svg PUBLIC "-//W3C//DTD SVG 1.1//EN"
 "http://www.w3.org/Graphics/SVG/1.1/DTD/svg11.dtd">
<!-- Generated by graphviz version 2.26.3 (20100126.1600)
 -->
<!-- Title: data_flow Pages: 1 -->
<svg width="236pt" height="332pt"
 viewBox="0.00 0.00 236.28 332.00" xmlns="http://www.w3.org/2000/svg" xmlns:xlink="http://www.w3.org/1999/xlink">
<g id="graph1" class="graph" transform="scale(1 1) rotate(0) translate(4 328)">
<title>data_flow</title>
<polygon fill="white" stroke="white" points="-4,5 -4,-328 233.281,-328 233.281,5 -4,5"/>
<!-- start -->
<g id="node2" class="node"><title>start</title>
<ellipse fill="none" stroke="black" cx="39.2811" cy="-306" rx="28.0958" ry="18"/>
<text text-anchor="middle" x="39.2811" y="-300.9" font-family="Times,serif" font-size="14.00">Start</text>
</g>
<!-- unknown -->
<g id="node3" class="node"><title>unknown</title>
<ellipse fill="none" stroke="black" cx="134.281" cy="-306" rx="48.8967" ry="18"/>
<text text-anchor="middle" x="134.281" y="-300.9" font-family="Times,serif" font-size="14.00">Unknown</text>
</g>
<!-- start&#45;&gt;unknown -->
<g id="edge3" class="edge"><title>start&#45;&gt;unknown</title>
<path fill="none" stroke="black" d="M67.4842,-306C69.9793,-306 72.4744,-306 74.9695,-306"/>
<polygon fill="black" stroke="black" points="75.2272,-309.5 85.2271,-306 75.2271,-302.5 75.2272,-309.5"/>
</g>
<!-- pre_init -->
<g id="node4" class="node"><title>pre_init</title>
<ellipse fill="none" stroke="black" cx="134.281" cy="-234" rx="39.7989" ry="18"/>
<text text-anchor="middle" x="134.281" y="-228.9" font-family="Times,serif" font-size="14.00">Pre_init</text>
</g>
<!-- unknown&#45;&gt;pre_init -->
<g id="edge5" class="edge"><title>unknown&#45;&gt;pre_init</title>
<path fill="none" stroke="black" d="M128.329,-287.831C127.567,-280.012 127.351,-270.692 127.681,-262.022"/>
<polygon fill="black" stroke="black" points="131.181,-262.124 128.354,-251.913 124.197,-261.659 131.181,-262.124"/>
</g>
<!-- pre_init&#45;&gt;unknown -->
<g id="edge11" class="edge"><title>pre_init&#45;&gt;unknown</title>
<path fill="none" stroke="black" d="M140.208,-251.913C140.982,-259.699 141.21,-269.01 140.892,-277.694"/>
<polygon fill="black" stroke="black" points="137.389,-277.625 140.233,-287.831 144.375,-278.079 137.389,-277.625"/>
</g>
<!-- repairing -->
<g id="node5" class="node"><title>repairing</title>
<ellipse fill="none" stroke="black" cx="62.2811" cy="-162" rx="48.0957" ry="18"/>
<text text-anchor="middle" x="62.2811" y="-156.9" font-family="Times,serif" font-size="14.00">Repairing</text>
</g>
<!-- pre_init&#45;&gt;repairing -->
<g id="edge7" class="edge"><title>pre_init&#45;&gt;repairing</title>
<path fill="none" stroke="black" d="M117.582,-217.301C108.356,-208.075 96.7281,-196.447 86.5186,-186.238"/>
<polygon fill="black" stroke="black" points="88.9357,-183.705 79.3897,-179.109 83.9859,-188.655 88.9357,-183.705"/>
</g>
<!-- ok -->
<g id="node6" class="node"><title>ok</title>
<ellipse fill="none" stroke="black" cx="92.2811" cy="-90" rx="27" ry="18"/>
<text text-anchor="middle" x="92.2811" y="-84.9" font-family="Times,serif" font-size="14.00">OK</text>
</g>
<!-- pre_init&#45;&gt;ok -->
<g id="edge9" class="edge"><title>pre_init&#45;&gt;ok</title>
<path fill="none" stroke="black" d="M132.842,-215.692C131.019,-197.233 127.119,-168.103 119.281,-144 116.187,-134.484 111.645,-124.555 107.166,-115.846"/>
<polygon fill="black" stroke="black" points="110.209,-114.113 102.402,-106.95 104.038,-117.418 110.209,-114.113"/>
</g>
<!-- repairing&#45;&gt;unknown -->
<g id="edge15" class="edge"><title>repairing&#45;&gt;unknown</title>
<path fill="none" stroke="black" d="M64.3005,-180.186C66.9811,-199.063 72.9038,-228.992 85.2811,-252 91.1257,-262.865 99.6213,-273.283 107.903,-282.02"/>
<polygon fill="black" stroke="black" points="105.528,-284.596 115.053,-289.234 110.499,-279.668 105.528,-284.596"/>
</g>
<!-- repairing&#45;&gt;ok -->
<g id="edge13" class="edge"><title>repairing&#45;&gt;ok</title>
<path fill="none" stroke="black" d="M69.6968,-144.202C73.1372,-135.945 77.3,-125.954 81.1097,-116.811"/>
<polygon fill="black" stroke="black" points="84.4387,-117.922 85.0542,-107.345 77.9772,-115.229 84.4387,-117.922"/>
</g>
<!-- ok&#45;&gt;unknown -->
<g id="edge19" class="edge"><title>ok&#45;&gt;unknown</title>
<path fill="none" stroke="black" d="M67.7844,-97.6473C46.9966,-105.585 18.5032,-120.231 5.28108,-144 -2.49694,-157.982 -0.287191,-165 5.28108,-180 22.4601,-226.277 67.4145,-263.347 99.4125,-284.996"/>
<polygon fill="black" stroke="black" points="97.7828,-288.114 108.06,-290.688 101.632,-282.267 97.7828,-288.114"/>
</g>
<!-- disk_error -->
<g id="node7" class="node"><title>disk_error</title>
<ellipse fill="none" stroke="black" cx="176.281" cy="-18" rx="51.9954" ry="18"/>
<text text-anchor="middle" x="176.281" y="-12.9" font-family="Times,serif" font-size="14.00">Disk_error</text>
</g>
<!-- ok&#45;&gt;disk_error -->
<g id="edge17" class="edge"><title>ok&#45;&gt;disk_error</title>
<path fill="none" stroke="black" d="M108.877,-75.7751C120.28,-66.0008 135.686,-52.7961 148.89,-41.4778"/>
<polygon fill="black" stroke="black" points="151.457,-43.8872 156.772,-34.7219 146.902,-38.5724 151.457,-43.8872"/>
</g>
<!-- disk_error&#45;&gt;unknown -->
<g id="edge23" class="edge"><title>disk_error&#45;&gt;unknown</title>
<path fill="none" stroke="black" d="M181.421,-36.1097C191.921,-76.5023 212.484,-176.359 183.281,-252 178.873,-263.418 170.806,-273.913 162.472,-282.554"/>
<polygon fill="black" stroke="black" points="159.902,-280.171 155.165,-289.648 164.778,-285.194 159.902,-280.171"/>
</g>
<!-- disk_error&#45;&gt;pre_init -->
<g id="edge21" class="edge"><title>disk_error&#45;&gt;pre_init</title>
<path fill="none" stroke="black" d="M172.753,-36.1451C165.417,-73.8741 148.474,-161.008 139.726,-205.996"/>
<polygon fill="black" stroke="black" points="136.263,-205.471 137.79,-215.955 143.134,-206.807 136.263,-205.471"/>
</g>
</g>
</svg>
