<?xml version="1.0" encoding="UTF-8" standalone="no"?>
<!DOCTYPE svg PUBLIC "-//W3C//DTD SVG 1.1//EN"
 "http://www.w3.org/Graphics/SVG/1.1/DTD/svg11.dtd">
<!-- Generated by graphviz version 2.28.0 (20120122.0658)
 -->
<!-- Title: data_flow Pages: 1 -->
<svg width="642pt" height="356pt"
 viewBox="0.00 0.00 642.00 356.00" xmlns="http://www.w3.org/2000/svg" xmlns:xlink="http://www.w3.org/1999/xlink">
<g id="graph1" class="graph" transform="scale(1 1) rotate(0) translate(4 352)">
<title>data_flow</title>
<polygon fill="white" stroke="white" points="-4,5 -4,-352 639,-352 639,5 -4,5"/>
<!-- brick_sup -->
<g id="node2" class="node"><title>brick_sup</title>
<ellipse fill="none" stroke="black" cx="437" cy="-330" rx="49.1832" ry="18"/>
<text text-anchor="middle" x="437" y="-324.4" font-family="Times,serif" font-size="14.00">brick_sup</text>
</g>
<!-- brick_admin_sup -->
<g id="node3" class="node"><title>brick_admin_sup</title>
<ellipse fill="none" stroke="black" cx="326" cy="-256" rx="78.1323" ry="18"/>
<text text-anchor="middle" x="326" y="-250.4" font-family="Times,serif" font-size="14.00">brick_admin_sup</text>
</g>
<!-- brick_sup&#45;&gt;brick_admin_sup -->
<g id="edge3" class="edge"><title>brick_sup&#45;&gt;brick_admin_sup</title>
<path fill="none" stroke="black" stroke-dasharray="1,5" d="M414.001,-314.082C398.319,-303.91 377.292,-290.271 359.724,-278.875"/>
<polygon fill="black" stroke="black" points="361.194,-275.657 350.9,-273.151 357.385,-281.53 361.194,-275.657"/>
</g>
<!-- brick_data_sup -->
<g id="node9" class="node"><title>brick_data_sup</title>
<ellipse fill="none" stroke="black" cx="510" cy="-256" rx="70.0516" ry="18"/>
<text text-anchor="middle" x="510" y="-250.4" font-family="Times,serif" font-size="14.00">brick_data_sup</text>
</g>
<!-- brick_sup&#45;&gt;brick_data_sup -->
<g id="edge5" class="edge"><title>brick_sup&#45;&gt;brick_data_sup</title>
<path fill="none" stroke="black" stroke-dasharray="1,5" d="M453.565,-312.662C463.111,-303.247 475.281,-291.244 485.874,-280.796"/>
<polygon fill="black" stroke="black" points="488.586,-283.037 493.248,-273.522 483.671,-278.053 488.586,-283.037"/>
</g>
<!-- brick_mon_sup -->
<g id="node4" class="node"><title>brick_mon_sup</title>
<ellipse fill="none" stroke="black" cx="218" cy="-182" rx="71.1785" ry="18"/>
<text text-anchor="middle" x="218" y="-176.4" font-family="Times,serif" font-size="14.00">brick_mon_sup</text>
</g>
<!-- brick_admin_sup&#45;&gt;brick_mon_sup -->
<g id="edge7" class="edge"><title>brick_admin_sup&#45;&gt;brick_mon_sup</title>
<path fill="none" stroke="black" stroke-dasharray="1,5" d="M301.763,-238.842C286.755,-228.837 267.287,-215.858 250.897,-204.932"/>
<polygon fill="black" stroke="black" points="252.418,-201.739 242.156,-199.104 248.535,-207.564 252.418,-201.739"/>
</g>
<!-- brick_sb -->
<g id="node5" class="node"><title>brick_sb</title>
<ellipse fill="none" stroke="black" cx="228" cy="-18" rx="43.942" ry="18"/>
<text text-anchor="middle" x="228" y="-12.4" font-family="Times,serif" font-size="14.00">brick_sb</text>
</g>
<!-- brick_admin_sup&#45;&gt;brick_sb -->
<g id="edge9" class="edge"><title>brick_admin_sup&#45;&gt;brick_sb</title>
<path fill="none" stroke="black" stroke-dasharray="1,5" d="M325.208,-237.578C323.342,-206.853 317.259,-141.427 298,-90 291.424,-72.4398 288.708,-67.7881 276,-54 271.21,-48.8028 265.545,-43.88 259.816,-39.4571"/>
<polygon fill="black" stroke="black" points="261.611,-36.4342 251.472,-33.3609 257.482,-42.0864 261.611,-36.4342"/>
</g>
<!-- brick_admin -->
<g id="node6" class="node"><title>brick_admin</title>
<ellipse fill="none" stroke="black" cx="405" cy="-182" rx="59.2684" ry="18"/>
<text text-anchor="middle" x="405" y="-176.4" font-family="Times,serif" font-size="14.00">brick_admin</text>
</g>
<!-- brick_admin_sup&#45;&gt;brick_admin -->
<g id="edge11" class="edge"><title>brick_admin_sup&#45;&gt;brick_admin</title>
<path fill="none" stroke="black" stroke-dasharray="1,5" d="M344.323,-238.301C354.766,-228.782 368.014,-216.708 379.465,-206.272"/>
<polygon fill="black" stroke="black" points="382.016,-208.683 387.049,-199.36 377.3,-203.51 382.016,-208.683"/>
</g>
<!-- chainmon_XXX -->
<g id="node7" class="node"><title>chainmon_XXX</title>
<ellipse fill="none" stroke="black" cx="74" cy="-108" rx="74.3024" ry="18"/>
<text text-anchor="middle" x="74" y="-102.4" font-family="Times,serif" font-size="14.00">chainmon_XXX</text>
</g>
<!-- brick_mon_sup&#45;&gt;chainmon_XXX -->
<g id="edge13" class="edge"><title>brick_mon_sup&#45;&gt;chainmon_XXX</title>
<path fill="none" stroke="black" stroke-dasharray="1,5" d="M187.461,-165.731C166.128,-155.064 137.429,-140.714 114.232,-129.116"/>
<polygon fill="black" stroke="black" points="115.501,-125.837 104.991,-124.496 112.37,-132.098 115.501,-125.837"/>
</g>
<!-- pinger_YYY -->
<g id="node8" class="node"><title>pinger_YYY</title>
<ellipse fill="none" stroke="black" cx="228" cy="-108" rx="61.1861" ry="18"/>
<text text-anchor="middle" x="228" y="-102.4" font-family="Times,serif" font-size="14.00">pinger_YYY</text>
</g>
<!-- brick_mon_sup&#45;&gt;pinger_YYY -->
<g id="edge15" class="edge"><title>brick_mon_sup&#45;&gt;pinger_YYY</title>
<path fill="none" stroke="black" stroke-dasharray="1,5" d="M220.37,-163.937C221.511,-155.719 222.908,-145.66 224.194,-136.406"/>
<polygon fill="black" stroke="black" points="227.669,-136.827 225.578,-126.441 220.735,-135.864 227.669,-136.827"/>
</g>
<!-- chainmon_XXX&#45;&gt;brick_sb -->
<g id="edge21" class="edge"><title>chainmon_XXX&#45;&gt;brick_sb</title>
<path fill="none" stroke="black" d="M101.532,-91.2674C127.571,-76.3879 166.699,-54.0292 194.529,-38.1264"/>
<polygon fill="black" stroke="black" points="196.553,-41.0011 203.499,-33.0008 193.08,-34.9234 196.553,-41.0011"/>
<text text-anchor="middle" x="187.166" y="-57.4" font-family="Times,serif" font-size="14.00">monitor</text>
</g>
<!-- pinger_YYY&#45;&gt;brick_sb -->
<g id="edge23" class="edge"><title>pinger_YYY&#45;&gt;brick_sb</title>
<path fill="none" stroke="black" d="M228,-89.614C228,-77.2403 228,-60.3686 228,-46.2198"/>
<polygon fill="black" stroke="black" points="231.5,-46.0504 228,-36.0504 224.5,-46.0504 231.5,-46.0504"/>
<text text-anchor="middle" x="250.166" y="-57.4" font-family="Times,serif" font-size="14.00">monitor</text>
</g>
<!-- brick_brick_sup -->
<g id="node10" class="node"><title>brick_brick_sup</title>
<ellipse fill="none" stroke="black" cx="557" cy="-182" rx="73.1904" ry="18"/>
<text text-anchor="middle" x="557" y="-176.4" font-family="Times,serif" font-size="14.00">brick_brick_sup</text>
</g>
<!-- brick_data_sup&#45;&gt;brick_brick_sup -->
<g id="edge17" class="edge"><title>brick_data_sup&#45;&gt;brick_brick_sup</title>
<path fill="none" stroke="black" stroke-dasharray="1,5" d="M521.138,-237.937C526.875,-229.15 533.984,-218.258 540.357,-208.496"/>
<polygon fill="black" stroke="black" points="543.406,-210.228 545.942,-199.941 537.545,-206.401 543.406,-210.228"/>
</g>
<!-- bootstrap_copyN -->
<g id="node11" class="node"><title>bootstrap_copyN</title>
<ellipse fill="none" stroke="black" cx="557" cy="-108" rx="77.3258" ry="18"/>
<text text-anchor="middle" x="557" y="-102.4" font-family="Times,serif" font-size="14.00">bootstrap_copyN</text>
</g>
<!-- brick_brick_sup&#45;&gt;bootstrap_copyN -->
<g id="edge19" class="edge"><title>brick_brick_sup&#45;&gt;bootstrap_copyN</title>
<path fill="none" stroke="black" stroke-dasharray="1,5" d="M557,-163.937C557,-155.807 557,-145.876 557,-136.705"/>
<polygon fill="black" stroke="black" points="560.5,-136.441 557,-126.441 553.5,-136.441 560.5,-136.441"/>
</g>
</g>
</svg>
