<?xml version="1.0" encoding="UTF-8" standalone="no"?>
<!DOCTYPE svg PUBLIC "-//W3C//DTD SVG 1.1//EN"
 "http://www.w3.org/Graphics/SVG/1.1/DTD/svg11.dtd">
<!-- Generated by graphviz version 2.38.0 (20140413.2041)
 -->
<!-- Title: data_flow Pages: 1 -->
<svg width="1563pt" height="358pt"
 viewBox="0.00 0.00 1563.21 358.00" xmlns="http://www.w3.org/2000/svg" xmlns:xlink="http://www.w3.org/1999/xlink">
<g id="graph0" class="graph" transform="scale(1 1) rotate(0) translate(4 354)">
<title>data_flow</title>
<polygon fill="white" stroke="none" points="-4,4 -4,-354 1559.21,-354 1559.21,4 -4,4"/>
<!-- pinger_YYY -->
<g id="node1" class="node"><title>pinger_YYY</title>
<ellipse fill="none" stroke="black" cx="1298.21" cy="-332" rx="55.7903" ry="18"/>
<text text-anchor="middle" x="1298.21" y="-328.3" font-family="Times,serif" font-size="14.00">pinger_YYY</text>
</g>
<!-- pingee_YYY -->
<g id="node6" class="node"><title>pingee_YYY</title>
<ellipse fill="grey" stroke="grey" cx="1354.21" cy="-176" rx="55.7903" ry="18"/>
<text text-anchor="middle" x="1354.21" y="-172.3" font-family="Times,serif" font-size="14.00">pingee_YYY</text>
</g>
<!-- pinger_YYY&#45;&gt;pingee_YYY -->
<g id="edge9" class="edge"><title>pinger_YYY&#45;&gt;pingee_YYY</title>
<path fill="none" stroke="black" stroke-dasharray="5,2" d="M1326.3,-316.055C1333.68,-310.729 1340.8,-304.022 1345.21,-296 1360.86,-267.57 1360.73,-229.384 1358.27,-204.022"/>
<polygon fill="black" stroke="black" points="1361.74,-203.535 1357.11,-194.003 1354.78,-204.338 1361.74,-203.535"/>
<text text-anchor="middle" x="1455.71" y="-284.8" font-family="Times,serif" font-size="14.00">polling</text>
<text text-anchor="middle" x="1455.71" y="-269.8" font-family="Times,serif" font-size="14.00">get_brick_{repair_state,start_time}</text>
</g>
<!-- brick_sb -->
<g id="node10" class="node"><title>brick_sb</title>
<ellipse fill="none" stroke="black" cx="873.211" cy="-230" rx="41.6928" ry="18"/>
<text text-anchor="middle" x="873.211" y="-226.3" font-family="Times,serif" font-size="14.00">brick_sb</text>
</g>
<!-- pinger_YYY&#45;&gt;brick_sb -->
<g id="edge8" class="edge"><title>pinger_YYY&#45;&gt;brick_sb</title>
<path fill="none" stroke="black" d="M1269.84,-316.39C1233.49,-297.716 1174.49,-267.589 1169.21,-266 1086.24,-241.038 985.17,-233.757 925.177,-231.706"/>
<polygon fill="black" stroke="black" points="924.93,-228.197 914.828,-231.391 924.717,-235.194 924.93,-228.197"/>
<text text-anchor="middle" x="1283.71" y="-277.3" font-family="Times,serif" font-size="14.00">report_brick_status</text>
</g>
<!-- chainmon_XXX -->
<g id="node2" class="node"><title>chainmon_XXX</title>
<ellipse fill="none" stroke="black" cx="1019.21" cy="-332" rx="69.5877" ry="18"/>
<text text-anchor="middle" x="1019.21" y="-328.3" font-family="Times,serif" font-size="14.00">chainmon_XXX</text>
</g>
<!-- chainmon_XXX&#45;&gt;brick_sb -->
<g id="edge5" class="edge"><title>chainmon_XXX&#45;&gt;brick_sb</title>
<path fill="none" stroke="black" stroke-dasharray="5,2" d="M958.327,-323.249C924.799,-317.636 887.865,-308.77 877.211,-296 868.611,-285.691 867.128,-270.959 868.011,-258.127"/>
<polygon fill="black" stroke="black" points="871.518,-258.272 869.205,-247.933 864.565,-257.458 871.518,-258.272"/>
<text text-anchor="middle" x="957.211" y="-284.8" font-family="Times,serif" font-size="14.00">polling</text>
<text text-anchor="middle" x="957.211" y="-269.8" font-family="Times,serif" font-size="14.00">get_multiple_statuses(brick)</text>
</g>
<!-- chainmon_XXX&#45;&gt;brick_sb -->
<g id="edge6" class="edge"><title>chainmon_XXX&#45;&gt;brick_sb</title>
<path fill="none" stroke="black" d="M1033.4,-314.24C1043.57,-300.113 1053.62,-280.017 1042.21,-266 1027.51,-247.946 968.388,-238.914 924.188,-234.603"/>
<polygon fill="black" stroke="black" points="924.437,-231.111 914.159,-233.679 923.795,-238.082 924.437,-231.111"/>
<text text-anchor="middle" x="1104.21" y="-277.3" font-family="Times,serif" font-size="14.00">report_chain_status</text>
</g>
<!-- application -->
<g id="node3" class="node"><title>application</title>
<ellipse fill="none" stroke="black" cx="66.2114" cy="-332" rx="50.8918" ry="18"/>
<text text-anchor="middle" x="66.2114" y="-328.3" font-family="Times,serif" font-size="14.00">application</text>
</g>
<!-- brick_server_YYY -->
<g id="node5" class="node"><title>brick_server_YYY</title>
<polygon fill="grey" stroke="grey" points="1025.21,-0.5 1025.21,-36.5 1145.21,-36.5 1145.21,-0.5 1025.21,-0.5"/>
<text text-anchor="middle" x="1085.21" y="-14.8" font-family="Times,serif" font-size="14.00">brick_server_YYY</text>
</g>
<!-- application&#45;&gt;brick_server_YYY -->
<g id="edge18" class="edge"><title>application&#45;&gt;brick_server_YYY</title>
<path fill="none" stroke="black" d="M116.842,-330.712C306.246,-329.429 964.027,-323.037 999.211,-296 1004.76,-291.733 1071.06,-61.665 1073.21,-55 1074.11,-52.2137 1075.06,-49.31 1076.02,-46.4163"/>
<polygon fill="black" stroke="black" points="1079.39,-47.3958 1079.25,-36.8018 1072.75,-45.1666 1079.39,-47.3958"/>
<text text-anchor="middle" x="1117.21" y="-172.3" font-family="Times,serif" font-size="14.00">gen_server:call(..{do, ...}..)</text>
</g>
<!-- brick_simple_ZZZ -->
<g id="node8" class="node"><title>brick_simple_ZZZ</title>
<polygon fill="orange" stroke="orange" points="126.211,-0.5 126.211,-36.5 248.211,-36.5 248.211,-0.5 126.211,-0.5"/>
<text text-anchor="middle" x="187.211" y="-14.8" font-family="Times,serif" font-size="14.00">brick_simple_ZZZ</text>
</g>
<!-- application&#45;&gt;brick_simple_ZZZ -->
<g id="edge16" class="edge"><title>application&#45;&gt;brick_simple_ZZZ</title>
<path fill="none" stroke="black" d="M61.3509,-314.051C53.1252,-282.2 39.2889,-211.774 60.2114,-158 79.1603,-109.298 124.12,-67.3169 155.12,-42.7143"/>
<polygon fill="black" stroke="black" points="157.316,-45.4403 163.068,-36.5426 153.023,-39.9115 157.316,-45.4403"/>
<text text-anchor="middle" x="169.711" y="-172.3" font-family="Times,serif" font-size="14.00">! {current_gh_version, Tab, self(), Ref}</text>
</g>
<!-- application&#45;&gt;brick_simple_ZZZ -->
<g id="edge17" class="edge"><title>application&#45;&gt;brick_simple_ZZZ</title>
<path fill="none" stroke="black" d="M52.6712,-314.628C28.8542,-283.738 -16.003,-214.85 6.2114,-158 28.877,-99.9949 50.1181,-90.6061 101.211,-55 108.802,-49.71 117.302,-45.0099 125.924,-40.9007"/>
<polygon fill="black" stroke="black" points="127.615,-43.9775 135.29,-36.6737 124.735,-37.5972 127.615,-43.9775"/>
<text text-anchor="middle" x="24.7114" y="-172.3" font-family="Times,serif" font-size="14.00">get_gh</text>
</g>
<!-- bootstrap_copyN -->
<g id="node4" class="node"><title>bootstrap_copyN</title>
<polygon fill="none" stroke="black" points="706.711,-0.5 706.711,-36.5 817.711,-36.5 817.711,-0.5 706.711,-0.5"/>
<text text-anchor="middle" x="762.211" y="-14.8" font-family="Times,serif" font-size="14.00">bootstrap_copyN</text>
</g>
<!-- brick_server_YYY&#45;&gt;pingee_YYY -->
<g id="edge1" class="edge"><title>brick_server_YYY&#45;&gt;pingee_YYY</title>
<path fill="none" stroke="black" d="M1114.86,-36.6367C1164.86,-65.5409 1265.72,-123.846 1319.15,-154.733"/>
<polygon fill="black" stroke="black" points="1317.52,-157.832 1327.93,-159.807 1321.02,-151.772 1317.52,-157.832"/>
<text text-anchor="middle" x="1416.21" y="-117.8" font-family="Times,serif" font-size="14.00">set_{chain_ok_time,start_time,repair_state}</text>
</g>
<!-- brick_server_yyy -->
<g id="node7" class="node"><title>brick_server_yyy</title>
<polygon fill="grey" stroke="grey" points="1077.71,-103.5 1077.71,-139.5 1188.71,-139.5 1188.71,-103.5 1077.71,-103.5"/>
<text text-anchor="middle" x="1133.21" y="-117.8" font-family="Times,serif" font-size="14.00">brick_server_yyy</text>
</g>
<!-- brick_server_YYY&#45;&gt;brick_server_yyy -->
<g id="edge2" class="edge"><title>brick_server_YYY&#45;&gt;brick_server_yyy</title>
<path fill="none" stroke="black" d="M1082.25,-36.6343C1080.72,-50.4622 1080.52,-70.0124 1088.21,-85 1090.31,-89.0942 1093.12,-92.8678 1096.32,-96.3029"/>
<polygon fill="black" stroke="black" points="1094.1,-99.0194 1103.8,-103.276 1098.87,-93.8979 1094.1,-99.0194"/>
<text text-anchor="middle" x="1091.71" y="-66.3" font-family="Times,serif" font-size="14.00">*</text>
</g>
<!-- brick_server_yyy&#45;&gt;brick_server_YYY -->
<g id="edge3" class="edge"><title>brick_server_yyy&#45;&gt;brick_server_YYY</title>
<path fill="none" stroke="black" d="M1125.07,-103.367C1117.62,-87.6961 1106.49,-64.2665 1097.88,-46.1514"/>
<polygon fill="black" stroke="black" points="1100.85,-44.2469 1093.39,-36.7173 1094.53,-47.2516 1100.85,-44.2469"/>
<text text-anchor="middle" x="1120.71" y="-66.3" font-family="Times,serif" font-size="14.00">*</text>
</g>
<!-- clientmon_ZZZ -->
<g id="node9" class="node"><title>clientmon_ZZZ</title>
<ellipse fill="orange" stroke="orange" cx="339.211" cy="-230" rx="69.5877" ry="18"/>
<text text-anchor="middle" x="339.211" y="-226.3" font-family="Times,serif" font-size="14.00">clientmon_ZZZ</text>
</g>
<!-- clientmon_ZZZ&#45;&gt;brick_simple_ZZZ -->
<g id="edge4" class="edge"><title>clientmon_ZZZ&#45;&gt;brick_simple_ZZZ</title>
<path fill="none" stroke="black" stroke-dasharray="5,2" d="M327.03,-212.21C300.469,-175.602 237.209,-88.4112 205.701,-44.9845"/>
<polygon fill="black" stroke="black" points="208.369,-42.7017 199.664,-36.663 202.703,-46.8125 208.369,-42.7017"/>
<text text-anchor="middle" x="310.211" y="-125.3" font-family="Times,serif" font-size="14.00">polling</text>
<text text-anchor="middle" x="310.211" y="-110.3" font-family="Times,serif" font-size="14.00">check_status</text>
</g>
<!-- brick_admin -->
<g id="node11" class="node"><title>brick_admin</title>
<ellipse fill="none" stroke="black" cx="616.211" cy="-121.5" rx="56.59" ry="18"/>
<text text-anchor="middle" x="616.211" y="-117.8" font-family="Times,serif" font-size="14.00">brick_admin</text>
</g>
<!-- clientmon_ZZZ&#45;&gt;brick_admin -->
<g id="edge7" class="edge"><title>clientmon_ZZZ&#45;&gt;brick_admin</title>
<path fill="none" stroke="black" d="M346.389,-211.908C354.316,-195.286 368.725,-170.735 389.211,-158 415.616,-141.585 494.038,-131.998 551.334,-127.01"/>
<polygon fill="black" stroke="black" points="551.74,-130.488 561.41,-126.161 551.152,-123.513 551.74,-130.488"/>
<text text-anchor="middle" x="491.711" y="-172.3" font-family="Times,serif" font-size="14.00">event==up &#45;&gt; spam_gh_to_all_nodes</text>
</g>
<!-- brick_sb&#45;&gt;bootstrap_copyN -->
<g id="edge10" class="edge"><title>brick_sb&#45;&gt;bootstrap_copyN</title>
<path fill="none" stroke="black" d="M881.016,-212.078C895.273,-178.363 920.934,-102.014 885.211,-55 871.627,-37.1214 849.608,-27.8252 827.928,-23.1219"/>
<polygon fill="black" stroke="black" points="828.495,-19.6674 818.022,-21.2698 827.209,-26.5482 828.495,-19.6674"/>
<text text-anchor="middle" x="933.711" y="-125.3" font-family="Times,serif" font-size="14.00">squorom</text>
<text text-anchor="middle" x="933.711" y="-110.3" font-family="Times,serif" font-size="14.00">operations</text>
</g>
<!-- brick_sb&#45;&gt;brick_admin -->
<g id="edge11" class="edge"><title>brick_sb&#45;&gt;brick_admin</title>
<path fill="none" stroke="black" d="M831.462,-229.784C764.891,-230.038 639.32,-226.114 611.211,-194 600.69,-181.98 601.978,-164.035 605.878,-149.131"/>
<polygon fill="black" stroke="black" points="609.274,-149.995 608.881,-139.408 602.586,-147.929 609.274,-149.995"/>
<text text-anchor="middle" x="667.711" y="-172.3" font-family="Times,serif" font-size="14.00">load_bootstrap_data</text>
</g>
<!-- brick_sb&#45;&gt;brick_admin -->
<g id="edge12" class="edge"><title>brick_sb&#45;&gt;brick_admin</title>
<path fill="none" stroke="black" d="M836.358,-221.634C814.573,-216.196 787.064,-207.38 765.211,-194 745.914,-182.185 748.562,-169.728 729.211,-158 711.99,-147.562 691.408,-139.915 672.558,-134.451"/>
<polygon fill="black" stroke="black" points="673.455,-131.068 662.884,-131.79 671.598,-137.817 673.455,-131.068"/>
<text text-anchor="middle" x="823.211" y="-172.3" font-family="Times,serif" font-size="14.00">chain_status_change</text>
</g>
<!-- brick_admin&#45;&gt;bootstrap_copyN -->
<g id="edge13" class="edge"><title>brick_admin&#45;&gt;bootstrap_copyN</title>
<path fill="none" stroke="black" d="M611.551,-103.512C608.674,-89.0182 607.34,-68.4485 618.211,-55 628.406,-42.3877 663.435,-33.592 696.389,-27.9107"/>
<polygon fill="black" stroke="black" points="697.219,-31.3213 706.519,-26.2467 696.084,-24.4138 697.219,-31.3213"/>
<text text-anchor="middle" x="647.711" y="-73.8" font-family="Times,serif" font-size="14.00">squorom</text>
<text text-anchor="middle" x="647.711" y="-58.8" font-family="Times,serif" font-size="14.00">operations</text>
</g>
<!-- brick_admin&#45;&gt;brick_server_YYY -->
<g id="edge15" class="edge"><title>brick_admin&#45;&gt;brick_server_YYY</title>
<path fill="none" stroke="black" d="M652.794,-107.65C695.745,-92.9996 769.366,-69.2416 834.211,-55 894.635,-41.7297 964.378,-32.3294 1014.99,-26.5501"/>
<polygon fill="black" stroke="black" points="1015.62,-30.0013 1025.17,-25.4071 1014.84,-23.045 1015.62,-30.0013"/>
<text text-anchor="middle" x="914.211" y="-66.3" font-family="Times,serif" font-size="14.00">chain_hack_set_global_hash</text>
</g>
<!-- brick_admin&#45;&gt;brick_simple_ZZZ -->
<g id="edge14" class="edge"><title>brick_admin&#45;&gt;brick_simple_ZZZ</title>
<path fill="none" stroke="black" d="M571.917,-110.072C497.633,-92.5829 347.34,-57.1992 258.182,-36.2087"/>
<polygon fill="black" stroke="black" points="258.956,-32.7953 248.42,-33.9105 257.352,-39.6091 258.956,-32.7953"/>
<text text-anchor="middle" x="483.711" y="-66.3" font-family="Times,serif" font-size="14.00">set_gh</text>
</g>
</g>
</svg>
