<?xml version="1.0" encoding="UTF-8" standalone="no"?>
<!DOCTYPE svg PUBLIC "-//W3C//DTD SVG 1.1//EN"
 "http://www.w3.org/Graphics/SVG/1.1/DTD/svg11.dtd">
<!-- Generated by graphviz version 2.38.0 (20140413.2041)
 -->
<!-- Title: data_flow Pages: 1 -->
<svg width="230pt" height="332pt"
 viewBox="0.00 0.00 230.27 332.00" xmlns="http://www.w3.org/2000/svg" xmlns:xlink="http://www.w3.org/1999/xlink">
<g id="graph0" class="graph" transform="scale(1 1) rotate(0) translate(4 328)">
<title>data_flow</title>
<polygon fill="white" stroke="none" points="-4,4 -4,-328 226.27,-328 226.27,4 -4,4"/>
<!-- start -->
<g id="node1" class="node"><title>start</title>
<ellipse fill="none" stroke="black" cx="38.2249" cy="-306" rx="28.6953" ry="18"/>
<text text-anchor="middle" x="38.2249" y="-302.3" font-family="Times,serif" font-size="14.00">Start</text>
</g>
<!-- unknown -->
<g id="node2" class="node"><title>unknown</title>
<ellipse fill="none" stroke="black" cx="131.225" cy="-306" rx="46.2923" ry="18"/>
<text text-anchor="middle" x="131.225" y="-302.3" font-family="Times,serif" font-size="14.00">Unknown</text>
</g>
<!-- start&#45;&gt;unknown -->
<g id="edge1" class="edge"><title>start&#45;&gt;unknown</title>
<path fill="none" stroke="black" d="M66.9241,-306C69.5615,-306 72.1988,-306 74.8361,-306"/>
<polygon fill="black" stroke="black" points="75.0088,-309.5 85.0087,-306 75.0087,-302.5 75.0088,-309.5"/>
</g>
<!-- pre_init -->
<g id="node3" class="node"><title>pre_init</title>
<ellipse fill="none" stroke="black" cx="131.225" cy="-234" rx="40.0939" ry="18"/>
<text text-anchor="middle" x="131.225" y="-230.3" font-family="Times,serif" font-size="14.00">Pre_init</text>
</g>
<!-- unknown&#45;&gt;pre_init -->
<g id="edge2" class="edge"><title>unknown&#45;&gt;pre_init</title>
<path fill="none" stroke="black" d="M125.347,-288.055C124.529,-280.346 124.286,-271.027 124.62,-262.364"/>
<polygon fill="black" stroke="black" points="128.119,-262.491 125.312,-252.275 121.136,-262.012 128.119,-262.491"/>
</g>
<!-- pre_init&#45;&gt;unknown -->
<g id="edge5" class="edge"><title>pre_init&#45;&gt;unknown</title>
<path fill="none" stroke="black" d="M137.138,-252.275C137.939,-260.03 138.165,-269.362 137.815,-278.005"/>
<polygon fill="black" stroke="black" points="134.319,-277.832 137.103,-288.055 141.302,-278.327 134.319,-277.832"/>
</g>
<!-- repairing -->
<g id="node4" class="node"><title>repairing</title>
<ellipse fill="none" stroke="black" cx="60.2249" cy="-162" rx="46.2923" ry="18"/>
<text text-anchor="middle" x="60.2249" y="-158.3" font-family="Times,serif" font-size="14.00">Repairing</text>
</g>
<!-- pre_init&#45;&gt;repairing -->
<g id="edge3" class="edge"><title>pre_init&#45;&gt;repairing</title>
<path fill="none" stroke="black" d="M115.114,-217.116C105.895,-208.027 94.1608,-196.458 83.9098,-186.351"/>
<polygon fill="black" stroke="black" points="86.3432,-183.835 76.7649,-179.307 81.4287,-188.82 86.3432,-183.835"/>
</g>
<!-- ok -->
<g id="node5" class="node"><title>ok</title>
<ellipse fill="none" stroke="black" cx="89.2249" cy="-90" rx="27" ry="18"/>
<text text-anchor="middle" x="89.2249" y="-86.3" font-family="Times,serif" font-size="14.00">OK</text>
</g>
<!-- pre_init&#45;&gt;ok -->
<g id="edge4" class="edge"><title>pre_init&#45;&gt;ok</title>
<path fill="none" stroke="black" d="M129.582,-215.924C127.507,-197.748 123.201,-168.315 115.225,-144 112.161,-134.66 107.744,-124.88 103.417,-116.3"/>
<polygon fill="black" stroke="black" points="106.393,-114.439 98.6477,-107.21 100.195,-117.692 106.393,-114.439"/>
</g>
<!-- repairing&#45;&gt;unknown -->
<g id="edge7" class="edge"><title>repairing&#45;&gt;unknown</title>
<path fill="none" stroke="black" d="M61.9089,-180.318C64.2959,-198.958 69.842,-229.021 82.2249,-252 88.1102,-262.921 96.7715,-273.322 105.182,-281.971"/>
<polygon fill="black" stroke="black" points="102.844,-284.581 112.432,-289.09 107.749,-279.587 102.844,-284.581"/>
</g>
<!-- repairing&#45;&gt;ok -->
<g id="edge6" class="edge"><title>repairing&#45;&gt;ok</title>
<path fill="none" stroke="black" d="M67.245,-144.055C70.5934,-135.973 74.6746,-126.121 78.4072,-117.112"/>
<polygon fill="black" stroke="black" points="81.6755,-118.367 82.2695,-107.789 75.2085,-115.688 81.6755,-118.367"/>
</g>
<!-- ok&#45;&gt;unknown -->
<g id="edge9" class="edge"><title>ok&#45;&gt;unknown</title>
<path fill="none" stroke="black" d="M65.1656,-98.7705C45.1219,-106.667 17.8818,-121.048 5.22491,-144 -2.5015,-158.011 -0.221899,-164.956 5.22491,-180 22.0043,-226.345 67.0093,-263.578 98.4152,-284.99"/>
<polygon fill="black" stroke="black" points="96.6101,-287.993 106.878,-290.605 100.48,-282.16 96.6101,-287.993"/>
</g>
<!-- disk_error -->
<g id="node6" class="node"><title>disk_error</title>
<ellipse fill="none" stroke="black" cx="172.225" cy="-18" rx="50.0912" ry="18"/>
<text text-anchor="middle" x="172.225" y="-14.3" font-family="Times,serif" font-size="14.00">Disk_error</text>
</g>
<!-- ok&#45;&gt;disk_error -->
<g id="edge8" class="edge"><title>ok&#45;&gt;disk_error</title>
<path fill="none" stroke="black" d="M105.623,-75.1703C117.047,-65.5355 132.536,-52.4723 145.703,-41.3682"/>
<polygon fill="black" stroke="black" points="148.155,-43.8783 153.543,-34.7557 143.642,-38.5273 148.155,-43.8783"/>
</g>
<!-- disk_error&#45;&gt;unknown -->
<g id="edge11" class="edge"><title>disk_error&#45;&gt;unknown</title>
<path fill="none" stroke="black" d="M177.28,-36.1526C188.035,-75.8101 209.879,-176.242 180.225,-252 175.703,-263.552 167.35,-274.096 158.806,-282.683"/>
<polygon fill="black" stroke="black" points="156.229,-280.303 151.34,-289.702 161.023,-285.403 156.229,-280.303"/>
</g>
<!-- disk_error&#45;&gt;pre_init -->
<g id="edge10" class="edge"><title>disk_error&#45;&gt;pre_init</title>
<path fill="none" stroke="black" d="M168.923,-36.2325C161.802,-73.4027 144.952,-161.352 136.399,-205.996"/>
<polygon fill="black" stroke="black" points="132.955,-205.369 134.511,-215.849 139.83,-206.686 132.955,-205.369"/>
</g>
</g>
</svg>
