<?xml version="1.0" encoding="UTF-8" standalone="no"?>
<!DOCTYPE svg PUBLIC "-//W3C//DTD SVG 1.1//EN"
 "http://www.w3.org/Graphics/SVG/1.1/DTD/svg11.dtd">
<!-- Generated by graphviz version 2.26.0 (20091210.2329)
 -->
<!-- Title: data_flow Pages: 1 -->
<svg width="1535pt" height="382pt"
 viewBox="0.00 0.00 1535.15 382.00" xmlns="http://www.w3.org/2000/svg" xmlns:xlink="http://www.w3.org/1999/xlink">
<g id="graph1" class="graph" transform="scale(1 1) rotate(0) translate(4 378)">
<title>data_flow</title>
<polygon fill="white" stroke="white" points="-4,5 -4,-378 1532.15,-378 1532.15,5 -4,5"/>
<!-- pinger_YYY -->
<g id="node2" class="node"><title>pinger_YYY</title>
<ellipse fill="none" stroke="black" cx="1291.15" cy="-355" rx="61.0181" ry="19.0919"/>
<text text-anchor="middle" x="1291.15" y="-351.9" font-family="Times Roman,serif" font-size="14.00">pinger_YYY</text>
</g>
<!-- pingee_YYY -->
<g id="node10" class="node"><title>pingee_YYY</title>
<ellipse fill="grey" stroke="grey" cx="1335.15" cy="-187" rx="62.9325" ry="19.0919"/>
<text text-anchor="middle" x="1335.15" y="-183.9" font-family="Times Roman,serif" font-size="14.00">pingee_YYY</text>
</g>
<!-- pinger_YYY&#45;&gt;pingee_YYY -->
<g id="edge24" class="edge"><title>pinger_YYY&#45;&gt;pingee_YYY</title>
<path fill="none" stroke="black" stroke-dasharray="5,2" d="M1311.61,-336.718C1316.54,-331.207 1321.23,-324.8 1324.15,-318 1338.24,-285.237 1339.22,-243.664 1337.86,-216.242"/>
<polygon fill="black" stroke="black" points="1341.34,-215.881 1337.21,-206.123 1334.36,-216.326 1341.34,-215.881"/>
<text text-anchor="middle" x="1430.65" y="-305.4" font-family="Times Roman,serif" font-size="14.00">polling</text>
<text text-anchor="middle" x="1430.65" y="-286.4" font-family="Times Roman,serif" font-size="14.00">get_brick_{repair_state,start_time}</text>
</g>
<!-- brick_sb -->
<g id="node21" class="node"><title>brick_sb</title>
<ellipse fill="none" stroke="black" cx="866.15" cy="-243" rx="44.0472" ry="19.0919"/>
<text text-anchor="middle" x="866.15" y="-239.9" font-family="Times Roman,serif" font-size="14.00">brick_sb</text>
</g>
<!-- pinger_YYY&#45;&gt;brick_sb -->
<g id="edge22" class="edge"><title>pinger_YYY&#45;&gt;brick_sb</title>
<path fill="none" stroke="black" d="M1256.25,-339.215C1242.91,-332.929 1227.67,-325.429 1214.15,-318 1186.16,-302.616 1183.23,-290.732 1153.15,-280 1111.38,-265.098 990.699,-253.151 919.832,-247.172"/>
<polygon fill="black" stroke="black" points="920.009,-243.675 909.753,-246.333 919.429,-250.65 920.009,-243.675"/>
<text text-anchor="middle" x="1266.65" y="-295.9" font-family="Times Roman,serif" font-size="14.00">report_brick_status</text>
</g>
<!-- chainmon_XXX -->
<g id="node3" class="node"><title>chainmon_XXX</title>
<ellipse fill="none" stroke="black" cx="939.15" cy="-355" rx="75.1594" ry="19.0919"/>
<text text-anchor="middle" x="939.15" y="-351.9" font-family="Times Roman,serif" font-size="14.00">chainmon_XXX</text>
</g>
<!-- chainmon_XXX&#45;&gt;brick_sb -->
<g id="edge16" class="edge"><title>chainmon_XXX&#45;&gt;brick_sb</title>
<path fill="none" stroke="black" stroke-dasharray="5,2" d="M895.143,-339.421C885.763,-334.064 876.948,-327.055 871.15,-318 862.6,-304.646 861.04,-287.073 861.76,-272.294"/>
<polygon fill="black" stroke="black" points="865.265,-272.386 862.621,-262.126 858.29,-271.795 865.265,-272.386"/>
<text text-anchor="middle" x="948.65" y="-305.4" font-family="Times Roman,serif" font-size="14.00">polling</text>
<text text-anchor="middle" x="948.65" y="-286.4" font-family="Times Roman,serif" font-size="14.00">get_multiple_statuses(brick)</text>
</g>
<!-- chainmon_XXX&#45;&gt;brick_sb -->
<g id="edge18" class="edge"><title>chainmon_XXX&#45;&gt;brick_sb</title>
<path fill="none" stroke="black" d="M997.926,-343.168C1010.97,-337.697 1023.25,-329.697 1031.15,-318 1040.61,-304.006 1041.71,-293.184 1031.15,-280 1017.26,-262.655 962.115,-252.886 919.352,-247.798"/>
<polygon fill="black" stroke="black" points="919.665,-244.311 909.334,-246.663 918.876,-251.267 919.665,-244.311"/>
<text text-anchor="middle" x="1091.15" y="-295.9" font-family="Times Roman,serif" font-size="14.00">report_chain_status</text>
</g>
<!-- application -->
<g id="node4" class="node"><title>application</title>
<ellipse fill="none" stroke="black" cx="64.1501" cy="-355" rx="53.9477" ry="19.0919"/>
<text text-anchor="middle" x="64.1501" y="-351.9" font-family="Times Roman,serif" font-size="14.00">application</text>
</g>
<!-- brick_server_YYY -->
<g id="node9" class="node"><title>brick_server_YYY</title>
<polygon fill="grey" stroke="grey" points="1013.15,-1 1013.15,-37 1133.15,-37 1133.15,-1 1013.15,-1"/>
<text text-anchor="middle" x="1073.15" y="-15.9" font-family="Times Roman,serif" font-size="14.00">brick_server_YYY</text>
</g>
<!-- application&#45;&gt;brick_server_YYY -->
<g id="edge42" class="edge"><title>application&#45;&gt;brick_server_YYY</title>
<path fill="none" stroke="black" d="M118.053,-353.698C313.026,-348.879 971.047,-331.637 988.15,-318 1082.48,-242.79 1021.98,-170.776 1059.15,-56 1060.11,-53.025 1061.18,-49.9378 1062.27,-46.8725"/>
<polygon fill="black" stroke="black" points="1065.62,-47.9121 1065.82,-37.3191 1059.06,-45.479 1065.62,-47.9121"/>
<text text-anchor="middle" x="1121.65" y="-183.9" font-family="Times Roman,serif" font-size="14.00">gen_server:call(..{do, ...}..)</text>
</g>
<!-- brick_simple_ZZZ -->
<g id="node17" class="node"><title>brick_simple_ZZZ</title>
<polygon fill="orange" stroke="orange" points="125.65,-1 125.65,-37 244.65,-37 244.65,-1 125.65,-1"/>
<text text-anchor="middle" x="185.15" y="-15.9" font-family="Times Roman,serif" font-size="14.00">brick_simple_ZZZ</text>
</g>
<!-- application&#45;&gt;brick_simple_ZZZ -->
<g id="edge38" class="edge"><title>application&#45;&gt;brick_simple_ZZZ</title>
<path fill="none" stroke="black" d="M59.5298,-335.963C52.046,-301.315 40.1125,-226.167 61.1501,-168 79.6955,-116.724 124.435,-70.6695 154.785,-43.7664"/>
<polygon fill="black" stroke="black" points="157.293,-46.2233 162.547,-37.0228 152.702,-40.9389 157.293,-46.2233"/>
<text text-anchor="middle" x="170.65" y="-183.9" font-family="Times Roman,serif" font-size="14.00">! {current_gh_version, Tab, self(), Ref}</text>
</g>
<!-- application&#45;&gt;brick_simple_ZZZ -->
<g id="edge40" class="edge"><title>application&#45;&gt;brick_simple_ZZZ</title>
<path fill="none" stroke="black" d="M50.4475,-336.523C27.181,-302.776 -15.5148,-229.021 6.1501,-168 27.6091,-107.559 45.8306,-94.4693 97.1501,-56 104.454,-50.5249 112.689,-45.693 121.115,-41.4811"/>
<polygon fill="black" stroke="black" points="122.746,-44.5819 130.299,-37.1528 119.761,-38.2499 122.746,-44.5819"/>
<text text-anchor="middle" x="24.6501" y="-183.9" font-family="Times Roman,serif" font-size="14.00">get_gh</text>
</g>
<!-- bootstrap_copyN -->
<g id="node6" class="node"><title>bootstrap_copyN</title>
<polygon fill="none" stroke="black" points="702.15,-1 702.15,-37 812.15,-37 812.15,-1 702.15,-1"/>
<text text-anchor="middle" x="757.15" y="-15.9" font-family="Times Roman,serif" font-size="14.00">bootstrap_copyN</text>
</g>
<!-- brick_server_YYY&#45;&gt;pingee_YYY -->
<g id="edge6" class="edge"><title>brick_server_YYY&#45;&gt;pingee_YYY</title>
<path fill="none" stroke="black" d="M1101.24,-37.0113C1149.18,-67.7504 1246.7,-130.287 1299.42,-164.088"/>
<polygon fill="black" stroke="black" points="1297.79,-167.202 1308.1,-169.654 1301.57,-161.31 1297.79,-167.202"/>
<text text-anchor="middle" x="1394.15" y="-127.9" font-family="Times Roman,serif" font-size="14.00">set_{chain_ok_time,start_time,repair_state}</text>
</g>
<!-- brick_server_yyy -->
<g id="node11" class="node"><title>brick_server_yyy</title>
<polygon fill="grey" stroke="grey" points="1065.65,-113 1065.65,-149 1176.65,-149 1176.65,-113 1065.65,-113"/>
<text text-anchor="middle" x="1121.15" y="-127.9" font-family="Times Roman,serif" font-size="14.00">brick_server_yyy</text>
</g>
<!-- brick_server_YYY&#45;&gt;brick_server_yyy -->
<g id="edge8" class="edge"><title>brick_server_YYY&#45;&gt;brick_server_yyy</title>
<path fill="none" stroke="black" d="M1069.87,-37.2948C1067.93,-53.1483 1067.33,-76.263 1076.15,-94 1078.29,-98.3021 1081.18,-102.281 1084.48,-105.91"/>
<polygon fill="black" stroke="black" points="1082.06,-108.442 1091.69,-112.856 1086.92,-103.399 1082.06,-108.442"/>
<text text-anchor="middle" x="1079.65" y="-71.9" font-family="Times Roman,serif" font-size="14.00">*</text>
</g>
<!-- brick_server_yyy&#45;&gt;brick_server_YYY -->
<g id="edge10" class="edge"><title>brick_server_yyy&#45;&gt;brick_server_YYY</title>
<path fill="none" stroke="black" d="M1113.22,-112.505C1105.54,-94.5651 1093.77,-67.1202 1084.98,-46.5973"/>
<polygon fill="black" stroke="black" points="1088.09,-44.9631 1080.93,-37.1504 1081.65,-47.7206 1088.09,-44.9631"/>
<text text-anchor="middle" x="1107.65" y="-71.9" font-family="Times Roman,serif" font-size="14.00">*</text>
</g>
<!-- clientmon_ZZZ -->
<g id="node18" class="node"><title>clientmon_ZZZ</title>
<ellipse fill="orange" stroke="orange" cx="337.15" cy="-243" rx="72.832" ry="19.0919"/>
<text text-anchor="middle" x="337.15" y="-239.9" font-family="Times Roman,serif" font-size="14.00">clientmon_ZZZ</text>
</g>
<!-- clientmon_ZZZ&#45;&gt;brick_simple_ZZZ -->
<g id="edge14" class="edge"><title>clientmon_ZZZ&#45;&gt;brick_simple_ZZZ</title>
<path fill="none" stroke="black" stroke-dasharray="5,2" d="M324.452,-224.287C297.495,-184.561 234.469,-91.6811 203.285,-45.7251"/>
<polygon fill="black" stroke="black" points="206.004,-43.4987 197.493,-37.1892 200.212,-47.4293 206.004,-43.4987"/>
<text text-anchor="middle" x="309.15" y="-137.4" font-family="Times Roman,serif" font-size="14.00">polling</text>
<text text-anchor="middle" x="309.15" y="-118.4" font-family="Times Roman,serif" font-size="14.00">check_status</text>
</g>
<!-- brick_admin -->
<g id="node24" class="node"><title>brick_admin</title>
<ellipse fill="none" stroke="black" cx="614.15" cy="-131" rx="60.8112" ry="19.0919"/>
<text text-anchor="middle" x="614.15" y="-127.9" font-family="Times Roman,serif" font-size="14.00">brick_admin</text>
</g>
<!-- clientmon_ZZZ&#45;&gt;brick_admin -->
<g id="edge20" class="edge"><title>clientmon_ZZZ&#45;&gt;brick_admin</title>
<path fill="none" stroke="black" d="M344.532,-223.995C352.368,-206.498 366.494,-181.303 387.15,-168 412.643,-151.581 487.788,-141.621 544.696,-136.235"/>
<polygon fill="black" stroke="black" points="545.096,-139.713 554.735,-135.314 544.457,-132.742 545.096,-139.713"/>
<text text-anchor="middle" x="489.65" y="-183.9" font-family="Times Roman,serif" font-size="14.00">event==up &#45;&gt; spam_gh_to_all_nodes</text>
</g>
<!-- brick_sb&#45;&gt;bootstrap_copyN -->
<g id="edge26" class="edge"><title>brick_sb&#45;&gt;bootstrap_copyN</title>
<path fill="none" stroke="black" d="M874.246,-224.315C888.631,-187.911 913.773,-106.623 876.15,-56 869.061,-46.4613 846.14,-38.2953 822.281,-32.0806"/>
<polygon fill="black" stroke="black" points="822.954,-28.6415 812.405,-29.6245 821.265,-35.4346 822.954,-28.6415"/>
<text text-anchor="middle" x="923.65" y="-137.4" font-family="Times Roman,serif" font-size="14.00">squorom</text>
<text text-anchor="middle" x="923.65" y="-118.4" font-family="Times Roman,serif" font-size="14.00">operations</text>
</g>
<!-- brick_sb&#45;&gt;brick_admin -->
<g id="edge28" class="edge"><title>brick_sb&#45;&gt;brick_admin</title>
<path fill="none" stroke="black" d="M822.652,-239.812C753.021,-234.262 622.912,-221.885 609.15,-206 598.356,-193.54 599.432,-175.114 603.292,-159.644"/>
<polygon fill="black" stroke="black" points="606.666,-160.579 606.134,-149.997 599.951,-158.601 606.666,-160.579"/>
<text text-anchor="middle" x="664.15" y="-183.9" font-family="Times Roman,serif" font-size="14.00">load_bootstrap_data</text>
</g>
<!-- brick_sb&#45;&gt;brick_admin -->
<g id="edge30" class="edge"><title>brick_sb&#45;&gt;brick_admin</title>
<path fill="none" stroke="black" d="M827.106,-234.174C806.154,-228.291 780.526,-219.18 760.15,-206 740.616,-193.365 743.756,-180.524 724.15,-168 708.891,-158.253 690.791,-150.79 673.724,-145.208"/>
<polygon fill="black" stroke="black" points="674.412,-141.757 663.824,-142.136 672.337,-148.442 674.412,-141.757"/>
<text text-anchor="middle" x="816.15" y="-183.9" font-family="Times Roman,serif" font-size="14.00">chain_status_change</text>
</g>
<!-- brick_admin&#45;&gt;bootstrap_copyN -->
<g id="edge32" class="edge"><title>brick_admin&#45;&gt;bootstrap_copyN</title>
<path fill="none" stroke="black" d="M608.538,-111.963C604.905,-95.4094 602.862,-71.683 615.15,-56 625.046,-43.3695 659.586,-34.2103 692.12,-28.1644"/>
<polygon fill="black" stroke="black" points="692.889,-31.5826 702.123,-26.3876 691.665,-24.6905 692.889,-31.5826"/>
<text text-anchor="middle" x="643.65" y="-81.4" font-family="Times Roman,serif" font-size="14.00">squorom</text>
<text text-anchor="middle" x="643.65" y="-62.4" font-family="Times Roman,serif" font-size="14.00">operations</text>
</g>
<!-- brick_admin&#45;&gt;brick_server_YYY -->
<g id="edge36" class="edge"><title>brick_admin&#45;&gt;brick_server_YYY</title>
<path fill="none" stroke="black" d="M650.823,-115.689C692.759,-98.7486 763.807,-71.7647 827.15,-56 885.67,-41.4358 953.536,-31.7519 1003.14,-25.9572"/>
<polygon fill="black" stroke="black" points="1003.59,-29.429 1013.13,-24.8146 1002.8,-22.4744 1003.59,-29.429"/>
<text text-anchor="middle" x="905.15" y="-71.9" font-family="Times Roman,serif" font-size="14.00">chain_hack_set_global_hash</text>
</g>
<!-- brick_admin&#45;&gt;brick_simple_ZZZ -->
<g id="edge34" class="edge"><title>brick_admin&#45;&gt;brick_simple_ZZZ</title>
<path fill="none" stroke="black" d="M568.313,-118.365C513.095,-103.217 417.476,-77.2165 335.15,-56 308.896,-49.2339 279.988,-42.0424 254.616,-35.8163"/>
<polygon fill="black" stroke="black" points="255.259,-32.3704 244.714,-33.3912 253.594,-39.1695 255.259,-32.3704"/>
<text text-anchor="middle" x="491.15" y="-71.9" font-family="Times Roman,serif" font-size="14.00">set_gh</text>
</g>
</g>
</svg>
