<?xml version="1.0" encoding="UTF-8" standalone="no"?>
<!DOCTYPE svg PUBLIC "-//W3C//DTD SVG 1.1//EN"
 "http://www.w3.org/Graphics/SVG/1.1/DTD/svg11.dtd">
<!-- Generated by graphviz version 2.28.0 (20120122.0658)
 -->
<!-- Title: data_flow Pages: 1 -->
<svg width="1564pt" height="368pt"
 viewBox="0.00 0.00 1564.35 368.00" xmlns="http://www.w3.org/2000/svg" xmlns:xlink="http://www.w3.org/1999/xlink">
<g id="graph1" class="graph" transform="scale(1 1) rotate(0) translate(4 364)">
<title>data_flow</title>
<polygon fill="white" stroke="white" points="-4,5 -4,-364 1561.35,-364 1561.35,5 -4,5"/>
<!-- pinger_YYY -->
<g id="node2" class="node"><title>pinger_YYY</title>
<ellipse fill="none" stroke="black" cx="1313.26" cy="-342" rx="61.1861" ry="18"/>
<text text-anchor="middle" x="1313.26" y="-336.4" font-family="Times,serif" font-size="14.00">pinger_YYY</text>
</g>
<!-- pingee_YYY -->
<g id="node10" class="node"><title>pingee_YYY</title>
<ellipse fill="grey" stroke="grey" cx="1358.26" cy="-182" rx="62.2914" ry="18"/>
<text text-anchor="middle" x="1358.26" y="-176.4" font-family="Times,serif" font-size="14.00">pingee_YYY</text>
</g>
<!-- pinger_YYY&#45;&gt;pingee_YYY -->
<g id="edge24" class="edge"><title>pinger_YYY&#45;&gt;pingee_YYY</title>
<path fill="none" stroke="black" stroke-dasharray="5,2" d="M1334.22,-324.79C1339.72,-319.429 1345.01,-313.019 1348.26,-306 1362.34,-275.544 1362.94,-236.314 1361.27,-210.446"/>
<polygon fill="black" stroke="black" points="1364.74,-209.931 1360.46,-200.242 1357.77,-210.49 1364.74,-209.931"/>
<text text-anchor="middle" x="1457.3" y="-291.8" font-family="Times,serif" font-size="14.00">polling</text>
<text text-anchor="middle" x="1457.3" y="-275" font-family="Times,serif" font-size="14.00">get_brick_{repair_state,start_time}</text>
</g>
<!-- brick_sb -->
<g id="node21" class="node"><title>brick_sb</title>
<ellipse fill="none" stroke="black" cx="881.256" cy="-236" rx="43.942" ry="18"/>
<text text-anchor="middle" x="881.256" y="-230.4" font-family="Times,serif" font-size="14.00">brick_sb</text>
</g>
<!-- pinger_YYY&#45;&gt;brick_sb -->
<g id="edge22" class="edge"><title>pinger_YYY&#45;&gt;brick_sb</title>
<path fill="none" stroke="black" d="M1279.93,-326.769C1265.98,-320.631 1249.67,-313.215 1235.17,-306 1207.07,-292.012 1203.15,-281.599 1173.26,-272 1093.23,-246.302 995.385,-239.181 935.726,-237.372"/>
<polygon fill="black" stroke="black" points="935.493,-233.865 925.405,-237.1 935.309,-240.862 935.493,-233.865"/>
<text text-anchor="middle" x="1289.3" y="-283.4" font-family="Times,serif" font-size="14.00">report_brick_status</text>
</g>
<!-- chainmon_XXX -->
<g id="node3" class="node"><title>chainmon_XXX</title>
<ellipse fill="none" stroke="black" cx="956.256" cy="-342" rx="74.3024" ry="18"/>
<text text-anchor="middle" x="956.256" y="-336.4" font-family="Times,serif" font-size="14.00">chainmon_XXX</text>
</g>
<!-- chainmon_XXX&#45;&gt;brick_sb -->
<g id="edge16" class="edge"><title>chainmon_XXX&#45;&gt;brick_sb</title>
<path fill="none" stroke="black" stroke-dasharray="5,2" d="M910.06,-327.753C899.795,-322.617 890.114,-315.583 883.849,-306 875.929,-293.887 874.903,-277.853 876.029,-264.291"/>
<polygon fill="black" stroke="black" points="879.54,-264.422 877.303,-254.066 872.593,-263.556 879.54,-264.422"/>
<text text-anchor="middle" x="963.96" y="-291.8" font-family="Times,serif" font-size="14.00">polling</text>
<text text-anchor="middle" x="963.96" y="-275" font-family="Times,serif" font-size="14.00">get_multiple_statuses(brick)</text>
</g>
<!-- chainmon_XXX&#45;&gt;brick_sb -->
<g id="edge18" class="edge"><title>chainmon_XXX&#45;&gt;brick_sb</title>
<path fill="none" stroke="black" d="M1014.48,-330.65C1027.7,-325.462 1040.2,-317.677 1048.26,-306 1056.83,-293.559 1057.78,-283.73 1048.26,-272 1034.08,-254.544 977.977,-245.482 934.667,-240.998"/>
<polygon fill="black" stroke="black" points="934.819,-237.497 924.525,-240.006 934.137,-244.463 934.819,-237.497"/>
<text text-anchor="middle" x="1110.07" y="-283.4" font-family="Times,serif" font-size="14.00">report_chain_status</text>
</g>
<!-- application -->
<g id="node4" class="node"><title>application</title>
<ellipse fill="none" stroke="black" cx="65.2562" cy="-342" rx="53.4122" ry="18"/>
<text text-anchor="middle" x="65.2562" y="-336.4" font-family="Times,serif" font-size="14.00">application</text>
</g>
<!-- brick_server_YYY -->
<g id="node9" class="node"><title>brick_server_YYY</title>
<polygon fill="grey" stroke="grey" points="1030.61,-1 1030.61,-37 1153.9,-37 1153.9,-1 1030.61,-1"/>
<text text-anchor="middle" x="1092.26" y="-13.4" font-family="Times,serif" font-size="14.00">brick_server_YYY</text>
</g>
<!-- application&#45;&gt;brick_server_YYY -->
<g id="edge42" class="edge"><title>application&#45;&gt;brick_server_YYY</title>
<path fill="none" stroke="black" d="M118.919,-340.719C313.171,-339.482 970.104,-333.289 1005.26,-306 1016.7,-297.118 1074.74,-69.7621 1079.26,-56 1080.24,-53.003 1081.31,-49.8797 1082.39,-46.7799"/>
<polygon fill="black" stroke="black" points="1085.76,-47.7362 1085.83,-37.1416 1079.17,-45.3807 1085.76,-47.7362"/>
<text text-anchor="middle" x="1127.14" y="-176.4" font-family="Times,serif" font-size="14.00">gen_server:call(..{do, ...}..)</text>
</g>
<!-- brick_simple_ZZZ -->
<g id="node17" class="node"><title>brick_simple_ZZZ</title>
<polygon fill="orange" stroke="orange" points="127.38,-1 127.38,-37 249.132,-37 249.132,-1 127.38,-1"/>
<text text-anchor="middle" x="188.256" y="-13.4" font-family="Times,serif" font-size="14.00">brick_simple_ZZZ</text>
</g>
<!-- application&#45;&gt;brick_simple_ZZZ -->
<g id="edge38" class="edge"><title>application&#45;&gt;brick_simple_ZZZ</title>
<path fill="none" stroke="black" d="M60.763,-323.696C53.1962,-291.168 40.6674,-219.212 61.5053,-164 80.5594,-113.514 126.266,-69.2528 157.256,-43.5593"/>
<polygon fill="black" stroke="black" points="159.625,-46.1449 165.182,-37.1249 155.213,-40.7103 159.625,-46.1449"/>
<text text-anchor="middle" x="173.132" y="-176.4" font-family="Times,serif" font-size="14.00">! {current_gh_version, Tab, self(), Ref}</text>
</g>
<!-- application&#45;&gt;brick_simple_ZZZ -->
<g id="edge40" class="edge"><title>application&#45;&gt;brick_simple_ZZZ</title>
<path fill="none" stroke="black" d="M51.9019,-324.255C28.4134,-292.659 -15.8174,-222.193 6.15273,-164 28.7429,-104.164 49.2237,-93.1917 101.256,-56 109.053,-50.4267 117.843,-45.518 126.761,-41.2617"/>
<polygon fill="black" stroke="black" points="128.39,-44.3663 136.064,-37.0618 125.51,-37.9862 128.39,-44.3663"/>
<text text-anchor="middle" x="25.308" y="-176.4" font-family="Times,serif" font-size="14.00">get_gh</text>
</g>
<!-- bootstrap_copyN -->
<g id="node6" class="node"><title>bootstrap_copyN</title>
<polygon fill="none" stroke="black" points="713.042,-1 713.042,-37 825.47,-37 825.47,-1 713.042,-1"/>
<text text-anchor="middle" x="769.256" y="-13.4" font-family="Times,serif" font-size="14.00">bootstrap_copyN</text>
</g>
<!-- brick_server_YYY&#45;&gt;pingee_YYY -->
<g id="edge6" class="edge"><title>brick_server_YYY&#45;&gt;pingee_YYY</title>
<path fill="none" stroke="black" d="M1120.47,-37.0774C1169.66,-66.8499 1270.93,-128.143 1324.04,-160.288"/>
<polygon fill="black" stroke="black" points="1322.38,-163.379 1332.75,-165.563 1326.01,-157.39 1322.38,-163.379"/>
<text text-anchor="middle" x="1419.99" y="-121.4" font-family="Times,serif" font-size="14.00">set_{chain_ok_time,start_time,repair_state}</text>
</g>
<!-- brick_server_yyy -->
<g id="node11" class="node"><title>brick_server_yyy</title>
<polygon fill="grey" stroke="grey" points="1083.27,-109 1083.27,-145 1197.24,-145 1197.24,-109 1083.27,-109"/>
<text text-anchor="middle" x="1140.26" y="-121.4" font-family="Times,serif" font-size="14.00">brick_server_yyy</text>
</g>
<!-- brick_server_YYY&#45;&gt;brick_server_yyy -->
<g id="edge8" class="edge"><title>brick_server_YYY&#45;&gt;brick_server_yyy</title>
<path fill="none" stroke="black" d="M1089.2,-37.1076C1087.4,-51.9249 1086.89,-73.511 1095.26,-90 1097.46,-94.3442 1100.45,-98.3381 1103.86,-101.958"/>
<polygon fill="black" stroke="black" points="1101.58,-104.622 1111.29,-108.855 1106.34,-99.4888 1101.58,-104.622"/>
<text text-anchor="middle" x="1098.76" y="-67.4" font-family="Times,serif" font-size="14.00">*</text>
</g>
<!-- brick_server_yyy&#45;&gt;brick_server_YYY -->
<g id="edge10" class="edge"><title>brick_server_yyy&#45;&gt;brick_server_YYY</title>
<path fill="none" stroke="black" d="M1132.54,-108.969C1124.93,-92.1476 1113.16,-66.1728 1104.31,-46.6237"/>
<polygon fill="black" stroke="black" points="1107.42,-45.0064 1100.11,-37.3406 1101.05,-47.894 1107.42,-45.0064"/>
<text text-anchor="middle" x="1127.76" y="-67.4" font-family="Times,serif" font-size="14.00">*</text>
</g>
<!-- clientmon_ZZZ -->
<g id="node18" class="node"><title>clientmon_ZZZ</title>
<ellipse fill="orange" stroke="orange" cx="341.256" cy="-236" rx="72.27" ry="18"/>
<text text-anchor="middle" x="341.256" y="-230.4" font-family="Times,serif" font-size="14.00">clientmon_ZZZ</text>
</g>
<!-- clientmon_ZZZ&#45;&gt;brick_simple_ZZZ -->
<g id="edge14" class="edge"><title>clientmon_ZZZ&#45;&gt;brick_simple_ZZZ</title>
<path fill="none" stroke="black" stroke-dasharray="5,2" d="M329.251,-218.129C302.503,-180.543 237.888,-89.7444 206.279,-45.3257"/>
<polygon fill="black" stroke="black" points="209.068,-43.2081 200.418,-37.0898 203.364,-47.2667 209.068,-43.2081"/>
<text text-anchor="middle" x="314.022" y="-129.8" font-family="Times,serif" font-size="14.00">polling</text>
<text text-anchor="middle" x="314.022" y="-113" font-family="Times,serif" font-size="14.00">check_status</text>
</g>
<!-- brick_admin -->
<g id="node24" class="node"><title>brick_admin</title>
<ellipse fill="none" stroke="black" cx="622.256" cy="-127" rx="59.2684" ry="18"/>
<text text-anchor="middle" x="622.256" y="-121.4" font-family="Times,serif" font-size="14.00">brick_admin</text>
</g>
<!-- clientmon_ZZZ&#45;&gt;brick_admin -->
<g id="edge20" class="edge"><title>clientmon_ZZZ&#45;&gt;brick_admin</title>
<path fill="none" stroke="black" d="M348.724,-217.903C356.933,-201.277 371.766,-176.724 392.494,-164 419.03,-147.71 496.995,-137.981 554.784,-132.821"/>
<polygon fill="black" stroke="black" points="555.299,-136.289 564.96,-131.94 554.695,-129.316 555.299,-136.289"/>
<text text-anchor="middle" x="497.638" y="-176.4" font-family="Times,serif" font-size="14.00">event==up &#45;&gt; spam_gh_to_all_nodes</text>
</g>
<!-- brick_sb&#45;&gt;bootstrap_copyN -->
<g id="edge26" class="edge"><title>brick_sb&#45;&gt;bootstrap_copyN</title>
<path fill="none" stroke="black" d="M888.853,-218.131C903.067,-183.739 929.074,-104.667 892.256,-56 878.811,-38.2273 857.058,-28.851 835.556,-24.0214"/>
<polygon fill="black" stroke="black" points="836.21,-20.5831 825.726,-22.1086 834.873,-27.4542 836.21,-20.5831"/>
<text text-anchor="middle" x="940.415" y="-129.8" font-family="Times,serif" font-size="14.00">squorom</text>
<text text-anchor="middle" x="940.415" y="-113" font-family="Times,serif" font-size="14.00">operations</text>
</g>
<!-- brick_sb&#45;&gt;brick_admin -->
<g id="edge28" class="edge"><title>brick_sb&#45;&gt;brick_admin</title>
<path fill="none" stroke="black" d="M837.085,-235.831C769.606,-236.047 645.71,-231.939 617.732,-200 607.137,-187.905 608.306,-169.835 612.105,-154.824"/>
<polygon fill="black" stroke="black" points="615.521,-155.615 615.042,-145.031 608.816,-153.604 615.521,-155.615"/>
<text text-anchor="middle" x="675.018" y="-176.4" font-family="Times,serif" font-size="14.00">load_bootstrap_data</text>
</g>
<!-- brick_sb&#45;&gt;brick_admin -->
<g id="edge30" class="edge"><title>brick_sb&#45;&gt;brick_admin</title>
<path fill="none" stroke="black" d="M842.594,-227.287C820.893,-221.833 793.936,-213.117 772.408,-200 753.044,-188.202 755.651,-175.747 736.256,-164 719.098,-153.607 698.646,-145.931 679.833,-140.401"/>
<polygon fill="black" stroke="black" points="680.744,-137.021 670.171,-137.701 678.86,-143.763 680.744,-137.021"/>
<text text-anchor="middle" x="831.181" y="-176.4" font-family="Times,serif" font-size="14.00">chain_status_change</text>
</g>
<!-- brick_admin&#45;&gt;bootstrap_copyN -->
<g id="edge32" class="edge"><title>brick_admin&#45;&gt;bootstrap_copyN</title>
<path fill="none" stroke="black" d="M617.33,-108.774C614.02,-93.2596 612.15,-70.6986 623.939,-56 634.181,-43.2296 669.529,-34.3103 702.796,-28.5442"/>
<polygon fill="black" stroke="black" points="703.727,-31.938 713.023,-26.8552 702.586,-25.0315 703.727,-31.938"/>
<text text-anchor="middle" x="653.415" y="-75.8" font-family="Times,serif" font-size="14.00">squorom</text>
<text text-anchor="middle" x="653.415" y="-59" font-family="Times,serif" font-size="14.00">operations</text>
</g>
<!-- brick_admin&#45;&gt;brick_server_YYY -->
<g id="edge36" class="edge"><title>brick_admin&#45;&gt;brick_server_YYY</title>
<path fill="none" stroke="black" d="M657.83,-112.452C700.397,-96.7274 774.103,-71.0377 839.304,-56 899.556,-42.1037 969.191,-32.667 1020.13,-26.9535"/>
<polygon fill="black" stroke="black" points="1020.82,-30.3982 1030.38,-25.8254 1020.06,-23.4402 1020.82,-30.3982"/>
<text text-anchor="middle" x="920.732" y="-67.4" font-family="Times,serif" font-size="14.00">chain_hack_set_global_hash</text>
</g>
<!-- brick_admin&#45;&gt;brick_simple_ZZZ -->
<g id="edge34" class="edge"><title>brick_admin&#45;&gt;brick_simple_ZZZ</title>
<path fill="none" stroke="black" d="M577.681,-114.851C521.949,-100.94 423.605,-76.4862 339.256,-56 313.131,-49.6548 284.437,-42.7882 259.144,-36.7701"/>
<polygon fill="black" stroke="black" points="259.804,-33.3294 249.265,-34.4215 258.185,-40.1396 259.804,-33.3294"/>
<text text-anchor="middle" x="489.532" y="-67.4" font-family="Times,serif" font-size="14.00">set_gh</text>
</g>
</g>
</svg>
