<?xml version="1.0" encoding="UTF-8" standalone="no"?>
<!DOCTYPE svg PUBLIC "-//W3C//DTD SVG 1.1//EN"
 "http://www.w3.org/Graphics/SVG/1.1/DTD/svg11.dtd">
<!-- Generated by graphviz version 2.28.0 (20120122.0658)
 -->
<!-- Title: data_flow Pages: 1 -->
<svg width="238pt" height="332pt"
 viewBox="0.00 0.00 238.36 332.00" xmlns="http://www.w3.org/2000/svg" xmlns:xlink="http://www.w3.org/1999/xlink">
<g id="graph1" class="graph" transform="scale(1 1) rotate(0) translate(4 328)">
<title>data_flow</title>
<polygon fill="white" stroke="white" points="-4,5 -4,-328 235.357,-328 235.357,5 -4,5"/>
<!-- start -->
<g id="node2" class="node"><title>start</title>
<ellipse fill="none" stroke="black" cx="41.3573" cy="-306" rx="28.9157" ry="18"/>
<text text-anchor="middle" x="41.3573" y="-300.4" font-family="Times,serif" font-size="14.00">Start</text>
</g>
<!-- unknown -->
<g id="node3" class="node"><title>unknown</title>
<ellipse fill="none" stroke="black" cx="137.357" cy="-306" rx="49.1903" ry="18"/>
<text text-anchor="middle" x="137.357" y="-300.4" font-family="Times,serif" font-size="14.00">Unknown</text>
</g>
<!-- start&#45;&gt;unknown -->
<g id="edge3" class="edge"><title>start&#45;&gt;unknown</title>
<path fill="none" stroke="black" d="M70.6073,-306C73.064,-306 75.5207,-306 77.9773,-306"/>
<polygon fill="black" stroke="black" points="78.0771,-309.5 88.077,-306 78.077,-302.5 78.0771,-309.5"/>
</g>
<!-- pre_init -->
<g id="node4" class="node"><title>pre_init</title>
<ellipse fill="none" stroke="black" cx="137.357" cy="-234" rx="41.4224" ry="18"/>
<text text-anchor="middle" x="137.357" y="-228.4" font-family="Times,serif" font-size="14.00">Pre_init</text>
</g>
<!-- unknown&#45;&gt;pre_init -->
<g id="edge5" class="edge"><title>unknown&#45;&gt;pre_init</title>
<path fill="none" stroke="black" d="M131.479,-288.055C130.661,-280.346 130.419,-271.027 130.752,-262.364"/>
<polygon fill="black" stroke="black" points="134.252,-262.491 131.444,-252.275 127.268,-262.012 134.252,-262.491"/>
</g>
<!-- pre_init&#45;&gt;unknown -->
<g id="edge11" class="edge"><title>pre_init&#45;&gt;unknown</title>
<path fill="none" stroke="black" d="M143.27,-252.275C144.072,-260.03 144.298,-269.362 143.948,-278.005"/>
<polygon fill="black" stroke="black" points="140.451,-277.832 143.236,-288.055 147.434,-278.327 140.451,-277.832"/>
</g>
<!-- repairing -->
<g id="node5" class="node"><title>repairing</title>
<ellipse fill="none" stroke="black" cx="63.3573" cy="-162" rx="49.1761" ry="18"/>
<text text-anchor="middle" x="63.3573" y="-156.4" font-family="Times,serif" font-size="14.00">Repairing</text>
</g>
<!-- pre_init&#45;&gt;repairing -->
<g id="edge7" class="edge"><title>pre_init&#45;&gt;repairing</title>
<path fill="none" stroke="black" d="M120.934,-217.465C111.203,-208.26 98.6883,-196.421 87.8132,-186.134"/>
<polygon fill="black" stroke="black" points="89.9174,-183.307 80.2474,-178.977 85.1069,-188.392 89.9174,-183.307"/>
</g>
<!-- ok -->
<g id="node6" class="node"><title>ok</title>
<ellipse fill="none" stroke="black" cx="93.3573" cy="-90" rx="27" ry="18"/>
<text text-anchor="middle" x="93.3573" y="-84.4" font-family="Times,serif" font-size="14.00">OK</text>
</g>
<!-- pre_init&#45;&gt;ok -->
<g id="edge9" class="edge"><title>pre_init&#45;&gt;ok</title>
<path fill="none" stroke="black" d="M135.858,-215.875C133.903,-197.659 129.697,-168.193 121.357,-144 118.07,-134.463 113.257,-124.549 108.546,-115.911"/>
<polygon fill="black" stroke="black" points="111.533,-114.084 103.55,-107.117 105.447,-117.541 111.533,-114.084"/>
</g>
<!-- repairing&#45;&gt;unknown -->
<g id="edge15" class="edge"><title>repairing&#45;&gt;unknown</title>
<path fill="none" stroke="black" d="M65.141,-180.029C67.6713,-198.685 73.5132,-229.013 86.3573,-252 92.5236,-263.036 101.548,-273.463 110.297,-282.101"/>
<polygon fill="black" stroke="black" points="108.157,-284.893 117.837,-289.202 112.957,-279.797 108.157,-284.893"/>
</g>
<!-- repairing&#45;&gt;ok -->
<g id="edge13" class="edge"><title>repairing&#45;&gt;ok</title>
<path fill="none" stroke="black" d="M70.6195,-144.055C74.0833,-135.973 78.3053,-126.121 82.1666,-117.112"/>
<polygon fill="black" stroke="black" points="85.4398,-118.359 86.162,-107.789 79.0058,-115.602 85.4398,-118.359"/>
</g>
<!-- ok&#45;&gt;unknown -->
<g id="edge19" class="edge"><title>ok&#45;&gt;unknown</title>
<path fill="none" stroke="black" d="M69.0145,-98.1487C47.9701,-105.766 18.8695,-120.088 5.3573,-144 -2.51426,-157.93 -0.328789,-165.044 5.3573,-180 23.1965,-226.921 69.8196,-263.788 102.575,-284.983"/>
<polygon fill="black" stroke="black" points="101.083,-288.179 111.411,-290.541 104.81,-282.254 101.083,-288.179"/>
</g>
<!-- disk_error -->
<g id="node7" class="node"><title>disk_error</title>
<ellipse fill="none" stroke="black" cx="178.357" cy="-18" rx="52.3074" ry="18"/>
<text text-anchor="middle" x="178.357" y="-12.4" font-family="Times,serif" font-size="14.00">Disk_error</text>
</g>
<!-- ok&#45;&gt;disk_error -->
<g id="edge17" class="edge"><title>ok&#45;&gt;disk_error</title>
<path fill="none" stroke="black" d="M109.746,-75.5033C121.412,-65.8964 137.362,-52.7604 150.949,-41.5718"/>
<polygon fill="black" stroke="black" points="153.549,-43.9648 159.043,-34.906 149.099,-38.5613 153.549,-43.9648"/>
</g>
<!-- disk_error&#45;&gt;unknown -->
<g id="edge23" class="edge"><title>disk_error&#45;&gt;unknown</title>
<path fill="none" stroke="black" d="M183.585,-36.1718C194.717,-75.8697 217.398,-176.38 187.357,-252 182.77,-263.548 174.342,-274.037 165.695,-282.579"/>
<polygon fill="black" stroke="black" points="163.105,-280.207 158.132,-289.563 167.853,-285.35 163.105,-280.207"/>
</g>
<!-- disk_error&#45;&gt;pre_init -->
<g id="edge21" class="edge"><title>disk_error&#45;&gt;pre_init</title>
<path fill="none" stroke="black" d="M175.056,-36.2325C167.934,-73.4027 151.084,-161.352 142.531,-205.996"/>
<polygon fill="black" stroke="black" points="139.087,-205.369 140.643,-215.849 145.962,-206.686 139.087,-205.369"/>
</g>
</g>
</svg>
