<?xml version="1.0" encoding="UTF-8" standalone="no"?>
<!DOCTYPE svg PUBLIC "-//W3C//DTD SVG 1.1//EN"
 "http://www.w3.org/Graphics/SVG/1.1/DTD/svg11.dtd">
<!-- Generated by graphviz version 2.26.0 (20091210.2329)
 -->
<!-- Title: data_flow Pages: 1 -->
<svg width="645pt" height="368pt"
 viewBox="0.00 0.00 645.00 368.00" xmlns="http://www.w3.org/2000/svg" xmlns:xlink="http://www.w3.org/1999/xlink">
<g id="graph1" class="graph" transform="scale(1 1) rotate(0) translate(4 364)">
<title>data_flow</title>
<polygon fill="white" stroke="white" points="-4,5 -4,-364 642,-364 642,5 -4,5"/>
<!-- brick_sup -->
<g id="node2" class="node"><title>brick_sup</title>
<ellipse fill="none" stroke="black" cx="439" cy="-341" rx="48.9975" ry="19.0919"/>
<text text-anchor="middle" x="439" y="-337.9" font-family="Times Roman,serif" font-size="14.00">brick_sup</text>
</g>
<!-- brick_admin_sup -->
<g id="node3" class="node"><title>brick_admin_sup</title>
<ellipse fill="none" stroke="black" cx="327" cy="-265" rx="77.9889" ry="19.0919"/>
<text text-anchor="middle" x="327" y="-261.9" font-family="Times Roman,serif" font-size="14.00">brick_admin_sup</text>
</g>
<!-- brick_sup&#45;&gt;brick_admin_sup -->
<g id="edge3" class="edge"><title>brick_sup&#45;&gt;brick_admin_sup</title>
<path fill="none" stroke="black" stroke-dasharray="1,5" d="M414.421,-324.321C399.068,-313.903 379.055,-300.323 362.052,-288.785"/>
<polygon fill="black" stroke="black" points="363.716,-285.685 353.476,-282.966 359.785,-291.477 363.716,-285.685"/>
</g>
<!-- brick_data_sup -->
<g id="node9" class="node"><title>brick_data_sup</title>
<ellipse fill="none" stroke="black" cx="512" cy="-265" rx="70.0036" ry="19.0919"/>
<text text-anchor="middle" x="512" y="-261.9" font-family="Times Roman,serif" font-size="14.00">brick_data_sup</text>
</g>
<!-- brick_sup&#45;&gt;brick_data_sup -->
<g id="edge5" class="edge"><title>brick_sup&#45;&gt;brick_data_sup</title>
<path fill="none" stroke="black" stroke-dasharray="1,5" d="M456.3,-322.989C465.528,-313.382 477.046,-301.391 487.208,-290.81"/>
<polygon fill="black" stroke="black" points="489.914,-293.046 494.317,-283.41 484.866,-288.197 489.914,-293.046"/>
</g>
<!-- brick_mon_sup -->
<g id="node4" class="node"><title>brick_mon_sup</title>
<ellipse fill="none" stroke="black" cx="219" cy="-189" rx="70.9184" ry="19.0919"/>
<text text-anchor="middle" x="219" y="-185.9" font-family="Times Roman,serif" font-size="14.00">brick_mon_sup</text>
</g>
<!-- brick_admin_sup&#45;&gt;brick_mon_sup -->
<g id="edge7" class="edge"><title>brick_admin_sup&#45;&gt;brick_mon_sup</title>
<path fill="none" stroke="black" stroke-dasharray="1,5" d="M301.406,-246.989C286.879,-236.767 268.52,-223.847 252.819,-212.798"/>
<polygon fill="black" stroke="black" points="254.603,-209.774 244.411,-206.882 250.575,-215.499 254.603,-209.774"/>
</g>
<!-- brick_sb -->
<g id="node5" class="node"><title>brick_sb</title>
<ellipse fill="none" stroke="black" cx="229" cy="-19" rx="44.0472" ry="19.0919"/>
<text text-anchor="middle" x="229" y="-15.9" font-family="Times Roman,serif" font-size="14.00">brick_sb</text>
</g>
<!-- brick_admin_sup&#45;&gt;brick_sb -->
<g id="edge9" class="edge"><title>brick_admin_sup&#45;&gt;brick_sb</title>
<path fill="none" stroke="black" stroke-dasharray="1,5" d="M326.124,-245.972C324.155,-213.796 317.948,-146.968 299,-94 292.427,-75.6253 289.86,-70.6787 277,-56 272.435,-50.789 267.043,-45.8109 261.551,-41.2907"/>
<polygon fill="black" stroke="black" points="263.555,-38.415 253.518,-35.0217 259.248,-43.9334 263.555,-38.415"/>
</g>
<!-- brick_admin -->
<g id="node6" class="node"><title>brick_admin</title>
<ellipse fill="none" stroke="black" cx="407" cy="-189" rx="60.8112" ry="19.0919"/>
<text text-anchor="middle" x="407" y="-185.9" font-family="Times Roman,serif" font-size="14.00">brick_admin</text>
</g>
<!-- brick_admin_sup&#45;&gt;brick_admin -->
<g id="edge11" class="edge"><title>brick_admin_sup&#45;&gt;brick_admin</title>
<path fill="none" stroke="black" stroke-dasharray="1,5" d="M346.775,-246.213C356.926,-236.571 369.434,-224.687 380.417,-214.254"/>
<polygon fill="black" stroke="black" points="382.889,-216.733 387.728,-207.308 378.068,-211.658 382.889,-216.733"/>
</g>
<!-- chainmon_XXX -->
<g id="node7" class="node"><title>chainmon_XXX</title>
<ellipse fill="none" stroke="black" cx="75" cy="-113" rx="75.1594" ry="19.0919"/>
<text text-anchor="middle" x="75" y="-109.9" font-family="Times Roman,serif" font-size="14.00">chainmon_XXX</text>
</g>
<!-- brick_mon_sup&#45;&gt;chainmon_XXX -->
<g id="edge13" class="edge"><title>brick_mon_sup&#45;&gt;chainmon_XXX</title>
<path fill="none" stroke="black" stroke-dasharray="1,5" d="M186.684,-171.944C165.986,-161.02 138.925,-146.738 116.624,-134.968"/>
<polygon fill="black" stroke="black" points="118.184,-131.834 107.707,-130.262 114.917,-138.025 118.184,-131.834"/>
</g>
<!-- pinger_YYY -->
<g id="node8" class="node"><title>pinger_YYY</title>
<ellipse fill="none" stroke="black" cx="229" cy="-113" rx="61.0181" ry="19.0919"/>
<text text-anchor="middle" x="229" y="-109.9" font-family="Times Roman,serif" font-size="14.00">pinger_YYY</text>
</g>
<!-- brick_mon_sup&#45;&gt;pinger_YYY -->
<g id="edge15" class="edge"><title>brick_mon_sup&#45;&gt;pinger_YYY</title>
<path fill="none" stroke="black" stroke-dasharray="1,5" d="M221.523,-169.822C222.625,-161.451 223.941,-151.45 225.159,-142.188"/>
<polygon fill="black" stroke="black" points="228.643,-142.543 226.477,-132.172 221.703,-141.63 228.643,-142.543"/>
</g>
<!-- chainmon_XXX&#45;&gt;brick_sb -->
<g id="edge21" class="edge"><title>chainmon_XXX&#45;&gt;brick_sb</title>
<path fill="none" stroke="black" d="M103.966,-95.3193C129.642,-79.6471 167.182,-56.7331 194.423,-40.1053"/>
<polygon fill="black" stroke="black" points="196.523,-42.9244 203.235,-34.7269 192.876,-36.9495 196.523,-42.9244"/>
<text text-anchor="middle" x="188" y="-62.9" font-family="Times Roman,serif" font-size="14.00">monitor</text>
</g>
<!-- pinger_YYY&#45;&gt;brick_sb -->
<g id="edge23" class="edge"><title>pinger_YYY&#45;&gt;brick_sb</title>
<path fill="none" stroke="black" d="M229,-93.9777C229,-80.9407 229,-63.3883 229,-48.5438"/>
<polygon fill="black" stroke="black" points="232.5,-48.3166 229,-38.3166 225.5,-48.3167 232.5,-48.3166"/>
<text text-anchor="middle" x="251" y="-62.9" font-family="Times Roman,serif" font-size="14.00">monitor</text>
</g>
<!-- brick_brick_sup -->
<g id="node10" class="node"><title>brick_brick_sup</title>
<ellipse fill="none" stroke="black" cx="559" cy="-189" rx="73.0388" ry="19.0919"/>
<text text-anchor="middle" x="559" y="-185.9" font-family="Times Roman,serif" font-size="14.00">brick_brick_sup</text>
</g>
<!-- brick_data_sup&#45;&gt;brick_brick_sup -->
<g id="edge17" class="edge"><title>brick_data_sup&#45;&gt;brick_brick_sup</title>
<path fill="none" stroke="black" stroke-dasharray="1,5" d="M523.618,-246.213C529.154,-237.261 535.884,-226.379 541.982,-216.518"/>
<polygon fill="black" stroke="black" points="545.07,-218.18 547.353,-207.834 539.116,-214.498 545.07,-218.18"/>
</g>
<!-- bootstrap_copyN -->
<g id="node11" class="node"><title>bootstrap_copyN</title>
<ellipse fill="none" stroke="black" cx="559" cy="-113" rx="77.7817" ry="19.0919"/>
<text text-anchor="middle" x="559" y="-109.9" font-family="Times Roman,serif" font-size="14.00">bootstrap_copyN</text>
</g>
<!-- brick_brick_sup&#45;&gt;bootstrap_copyN -->
<g id="edge19" class="edge"><title>brick_brick_sup&#45;&gt;bootstrap_copyN</title>
<path fill="none" stroke="black" stroke-dasharray="1,5" d="M559,-169.822C559,-161.451 559,-151.45 559,-142.188"/>
<polygon fill="black" stroke="black" points="562.5,-142.172 559,-132.172 555.5,-142.172 562.5,-142.172"/>
</g>
</g>
</svg>
