<?xml version="1.0" encoding="UTF-8" standalone="no"?>
<!DOCTYPE svg PUBLIC "-//W3C//DTD SVG 1.1//EN"
 "http://www.w3.org/Graphics/SVG/1.1/DTD/svg11.dtd">
<!-- Generated by graphviz version 2.26.3 (20100126.1600)
 -->
<!-- Title: data_flow Pages: 1 -->
<svg width="240pt" height="342pt"
 viewBox="0.00 0.00 239.55 342.00" xmlns="http://www.w3.org/2000/svg" xmlns:xlink="http://www.w3.org/1999/xlink">
<g id="graph1" class="graph" transform="scale(1 1) rotate(0) translate(4 338)">
<title>data_flow</title>
<polygon fill="white" stroke="white" points="-4,5 -4,-338 236.552,-338 236.552,5 -4,5"/>
<!-- start -->
<g id="node2" class="node"><title>start</title>
<ellipse fill="none" stroke="black" cx="40.5519" cy="-315" rx="29.1951" ry="19.0919"/>
<text text-anchor="middle" x="40.5519" y="-311.9" font-family="Times Roman,serif" font-size="14.00">Start</text>
</g>
<!-- unknown -->
<g id="node3" class="node"><title>unknown</title>
<ellipse fill="none" stroke="black" cx="136.552" cy="-315" rx="48.9975" ry="19.0919"/>
<text text-anchor="middle" x="136.552" y="-311.9" font-family="Times Roman,serif" font-size="14.00">Unknown</text>
</g>
<!-- start&#45;&gt;unknown -->
<g id="edge3" class="edge"><title>start&#45;&gt;unknown</title>
<path fill="none" stroke="black" d="M69.8019,-315C72.2952,-315 74.7885,-315 77.2819,-315"/>
<polygon fill="black" stroke="black" points="77.5324,-318.5 87.5323,-315 77.5323,-311.5 77.5324,-318.5"/>
</g>
<!-- pre_init -->
<g id="node4" class="node"><title>pre_init</title>
<ellipse fill="none" stroke="black" cx="136.552" cy="-241" rx="41.2167" ry="19.0919"/>
<text text-anchor="middle" x="136.552" y="-237.9" font-family="Times Roman,serif" font-size="14.00">Pre_init</text>
</g>
<!-- unknown&#45;&gt;pre_init -->
<g id="edge5" class="edge"><title>unknown&#45;&gt;pre_init</title>
<path fill="none" stroke="black" d="M130.564,-295.943C129.84,-288.088 129.632,-278.81 129.939,-270.136"/>
<polygon fill="black" stroke="black" points="133.443,-270.19 130.57,-259.992 126.456,-269.756 133.443,-270.19"/>
</g>
<!-- pre_init&#45;&gt;unknown -->
<g id="edge11" class="edge"><title>pre_init&#45;&gt;unknown</title>
<path fill="none" stroke="black" d="M142.534,-259.992C143.26,-267.839 143.471,-277.115 143.167,-285.792"/>
<polygon fill="black" stroke="black" points="139.663,-285.746 142.54,-295.943 146.65,-286.178 139.663,-285.746"/>
</g>
<!-- repairing -->
<g id="node5" class="node"><title>repairing</title>
<ellipse fill="none" stroke="black" cx="63.5519" cy="-167" rx="48.9975" ry="19.0919"/>
<text text-anchor="middle" x="63.5519" y="-163.9" font-family="Times Roman,serif" font-size="14.00">Repairing</text>
</g>
<!-- pre_init&#45;&gt;repairing -->
<g id="edge7" class="edge"><title>pre_init&#45;&gt;repairing</title>
<path fill="none" stroke="black" d="M119.252,-223.463C110.024,-214.108 98.5063,-202.433 88.3434,-192.131"/>
<polygon fill="black" stroke="black" points="90.7493,-189.586 81.2348,-184.925 85.7659,-194.502 90.7493,-189.586"/>
</g>
<!-- ok -->
<g id="node6" class="node"><title>ok</title>
<ellipse fill="none" stroke="black" cx="93.5519" cy="-93" rx="27" ry="19.0919"/>
<text text-anchor="middle" x="93.5519" y="-89.9" font-family="Times Roman,serif" font-size="14.00">OK</text>
</g>
<!-- pre_init&#45;&gt;ok -->
<g id="edge9" class="edge"><title>pre_init&#45;&gt;ok</title>
<path fill="none" stroke="black" d="M135.197,-221.71C133.451,-202.609 129.618,-172.721 121.552,-148 118.428,-138.425 113.823,-128.466 109.245,-119.696"/>
<polygon fill="black" stroke="black" points="112.215,-117.832 104.361,-110.721 106.067,-121.178 112.215,-117.832"/>
</g>
<!-- repairing&#45;&gt;unknown -->
<g id="edge15" class="edge"><title>repairing&#45;&gt;unknown</title>
<path fill="none" stroke="black" d="M65.4954,-186.156C68.0992,-205.682 73.9464,-236.375 86.5519,-260 92.3779,-270.919 100.856,-281.376 109.182,-290.185"/>
<polygon fill="black" stroke="black" points="106.868,-292.823 116.388,-297.472 111.845,-287.901 106.868,-292.823"/>
</g>
<!-- repairing&#45;&gt;ok -->
<g id="edge13" class="edge"><title>repairing&#45;&gt;ok</title>
<path fill="none" stroke="black" d="M71.2776,-147.943C74.6179,-139.704 78.5933,-129.898 82.2547,-120.866"/>
<polygon fill="black" stroke="black" points="85.5461,-122.063 86.0596,-111.481 79.0589,-119.433 85.5461,-122.063"/>
</g>
<!-- ok&#45;&gt;unknown -->
<g id="edge19" class="edge"><title>ok&#45;&gt;unknown</title>
<path fill="none" stroke="black" d="M68.768,-100.837C47.7376,-108.954 18.9145,-123.891 5.55185,-148 -2.63535,-162.772 -0.281157,-170.15 5.55185,-186 22.9578,-233.296 68.7246,-271.322 101.248,-293.522"/>
<polygon fill="black" stroke="black" points="99.3545,-296.466 109.619,-299.089 103.231,-290.637 99.3545,-296.466"/>
</g>
<!-- disk_error -->
<g id="node7" class="node"><title>disk_error</title>
<ellipse fill="none" stroke="black" cx="178.552" cy="-19" rx="53.033" ry="19.0919"/>
<text text-anchor="middle" x="178.552" y="-15.9" font-family="Times Roman,serif" font-size="14.00">Disk_error</text>
</g>
<!-- ok&#45;&gt;disk_error -->
<g id="edge17" class="edge"><title>ok&#45;&gt;disk_error</title>
<path fill="none" stroke="black" d="M110.753,-78.025C122.082,-68.1624 137.181,-55.0171 150.254,-43.6356"/>
<polygon fill="black" stroke="black" points="152.837,-46.028 158.081,-36.822 148.24,-40.7484 152.837,-46.028"/>
</g>
<!-- disk_error&#45;&gt;unknown -->
<g id="edge23" class="edge"><title>disk_error&#45;&gt;unknown</title>
<path fill="none" stroke="black" d="M184.033,-37.9662C195.095,-79.7703 216.592,-182.297 186.552,-260 182.125,-271.451 174.083,-281.986 165.725,-290.705"/>
<polygon fill="black" stroke="black" points="163.09,-288.386 158.381,-297.877 167.981,-293.394 163.09,-288.386"/>
</g>
<!-- disk_error&#45;&gt;pre_init -->
<g id="edge21" class="edge"><title>disk_error&#45;&gt;pre_init</title>
<path fill="none" stroke="black" d="M174.92,-38.195C167.534,-77.2374 150.724,-166.091 142.013,-212.135"/>
<polygon fill="black" stroke="black" points="138.553,-211.596 140.133,-222.072 145.431,-212.897 138.553,-211.596"/>
</g>
</g>
</svg>
