<?xml version="1.0" encoding="UTF-8" standalone="no"?>
<!DOCTYPE svg PUBLIC "-//W3C//DTD SVG 1.1//EN"
 "http://www.w3.org/Graphics/SVG/1.1/DTD/svg11.dtd">
<!-- Generated by graphviz version 2.38.0 (20140413.2041)
 -->
<!-- Title: data_flow Pages: 1 -->
<svg width="605pt" height="350pt"
 viewBox="0.00 0.00 604.69 350.00" xmlns="http://www.w3.org/2000/svg" xmlns:xlink="http://www.w3.org/1999/xlink">
<g id="graph0" class="graph" transform="scale(1 1) rotate(0) translate(4 346)">
<title>data_flow</title>
<polygon fill="white" stroke="none" points="-4,4 -4,-346 600.687,-346 600.687,4 -4,4"/>
<!-- brick_sup -->
<g id="node1" class="node"><title>brick_sup</title>
<ellipse fill="none" stroke="black" cx="411.544" cy="-324" rx="46.2923" ry="18"/>
<text text-anchor="middle" x="411.544" y="-320.3" font-family="Times,serif" font-size="14.00">brick_sup</text>
</g>
<!-- brick_admin_sup -->
<g id="node2" class="node"><title>brick_admin_sup</title>
<ellipse fill="none" stroke="black" cx="305.544" cy="-251" rx="73.387" ry="18"/>
<text text-anchor="middle" x="305.544" y="-247.3" font-family="Times,serif" font-size="14.00">brick_admin_sup</text>
</g>
<!-- brick_sup&#45;&gt;brick_admin_sup -->
<g id="edge1" class="edge"><title>brick_sup&#45;&gt;brick_admin_sup</title>
<path fill="none" stroke="black" stroke-dasharray="1,5" d="M389.323,-308.116C374.434,-298.143 354.586,-284.849 337.946,-273.704"/>
<polygon fill="black" stroke="black" points="339.837,-270.757 329.58,-268.1 335.941,-276.573 339.837,-270.757"/>
</g>
<!-- brick_data_sup -->
<g id="node8" class="node"><title>brick_data_sup</title>
<ellipse fill="none" stroke="black" cx="480.544" cy="-251" rx="65.7887" ry="18"/>
<text text-anchor="middle" x="480.544" y="-247.3" font-family="Times,serif" font-size="14.00">brick_data_sup</text>
</g>
<!-- brick_sup&#45;&gt;brick_data_sup -->
<g id="edge2" class="edge"><title>brick_sup&#45;&gt;brick_data_sup</title>
<path fill="none" stroke="black" stroke-dasharray="1,5" d="M427.201,-306.889C436.073,-297.76 447.343,-286.164 457.236,-275.984"/>
<polygon fill="black" stroke="black" points="460.01,-278.151 464.47,-268.54 454.99,-273.272 460.01,-278.151"/>
</g>
<!-- brick_mon_sup -->
<g id="node3" class="node"><title>brick_mon_sup</title>
<ellipse fill="none" stroke="black" cx="201.544" cy="-178" rx="66.8882" ry="18"/>
<text text-anchor="middle" x="201.544" y="-174.3" font-family="Times,serif" font-size="14.00">brick_mon_sup</text>
</g>
<!-- brick_admin_sup&#45;&gt;brick_mon_sup -->
<g id="edge3" class="edge"><title>brick_admin_sup&#45;&gt;brick_mon_sup</title>
<path fill="none" stroke="black" stroke-dasharray="1,5" d="M281.945,-233.889C267.584,-224.085 249.054,-211.435 233.404,-200.75"/>
<polygon fill="black" stroke="black" points="235.282,-197.795 225.05,-195.047 231.335,-203.576 235.282,-197.795"/>
</g>
<!-- brick_sb -->
<g id="node4" class="node"><title>brick_sb</title>
<ellipse fill="none" stroke="black" cx="212.544" cy="-18" rx="41.6928" ry="18"/>
<text text-anchor="middle" x="212.544" y="-14.3" font-family="Times,serif" font-size="14.00">brick_sb</text>
</g>
<!-- brick_admin_sup&#45;&gt;brick_sb -->
<g id="edge4" class="edge"><title>brick_admin_sup&#45;&gt;brick_sb</title>
<path fill="none" stroke="black" stroke-dasharray="1,5" d="M306.699,-232.827C308.25,-195.733 306.74,-107.185 262.544,-54 257.748,-48.2292 251.78,-42.9729 245.655,-38.3881"/>
<polygon fill="black" stroke="black" points="247.506,-35.4121 237.3,-32.567 243.504,-41.1555 247.506,-35.4121"/>
</g>
<!-- brick_admin -->
<g id="node5" class="node"><title>brick_admin</title>
<ellipse fill="none" stroke="black" cx="381.544" cy="-178" rx="56.59" ry="18"/>
<text text-anchor="middle" x="381.544" y="-174.3" font-family="Times,serif" font-size="14.00">brick_admin</text>
</g>
<!-- brick_admin_sup&#45;&gt;brick_admin -->
<g id="edge5" class="edge"><title>brick_admin_sup&#45;&gt;brick_admin</title>
<path fill="none" stroke="black" stroke-dasharray="1,5" d="M323.555,-233.174C333.445,-223.935 345.86,-212.336 356.663,-202.244"/>
<polygon fill="black" stroke="black" points="359.267,-204.601 364.185,-195.217 354.489,-199.486 359.267,-204.601"/>
</g>
<!-- chainmon_XXX -->
<g id="node6" class="node"><title>chainmon_XXX</title>
<ellipse fill="none" stroke="black" cx="69.5438" cy="-105" rx="69.5877" ry="18"/>
<text text-anchor="middle" x="69.5438" y="-101.3" font-family="Times,serif" font-size="14.00">chainmon_XXX</text>
</g>
<!-- brick_mon_sup&#45;&gt;chainmon_XXX -->
<g id="edge6" class="edge"><title>brick_mon_sup&#45;&gt;chainmon_XXX</title>
<path fill="none" stroke="black" stroke-dasharray="1,5" d="M172.902,-161.594C153.747,-151.291 128.333,-137.621 107.499,-126.415"/>
<polygon fill="black" stroke="black" points="109.051,-123.276 98.5858,-121.621 105.735,-129.441 109.051,-123.276"/>
</g>
<!-- pinger_YYY -->
<g id="node7" class="node"><title>pinger_YYY</title>
<ellipse fill="none" stroke="black" cx="212.544" cy="-105" rx="55.7903" ry="18"/>
<text text-anchor="middle" x="212.544" y="-101.3" font-family="Times,serif" font-size="14.00">pinger_YYY</text>
</g>
<!-- brick_mon_sup&#45;&gt;pinger_YYY -->
<g id="edge7" class="edge"><title>brick_mon_sup&#45;&gt;pinger_YYY</title>
<path fill="none" stroke="black" stroke-dasharray="1,5" d="M204.207,-159.813C205.45,-151.789 206.959,-142.047 208.35,-133.069"/>
<polygon fill="black" stroke="black" points="211.833,-133.447 209.906,-123.029 204.916,-132.375 211.833,-133.447"/>
</g>
<!-- chainmon_XXX&#45;&gt;brick_sb -->
<g id="edge10" class="edge"><title>chainmon_XXX&#45;&gt;brick_sb</title>
<path fill="none" stroke="black" d="M96.1059,-88.2114C119.845,-74.1008 154.698,-53.3838 180.083,-38.2948"/>
<polygon fill="black" stroke="black" points="182.161,-41.1312 188.969,-33.0129 178.585,-35.1139 182.161,-41.1312"/>
<text text-anchor="middle" x="173.544" y="-57.8" font-family="Times,serif" font-size="14.00">monitor</text>
</g>
<!-- pinger_YYY&#45;&gt;brick_sb -->
<g id="edge11" class="edge"><title>pinger_YYY&#45;&gt;brick_sb</title>
<path fill="none" stroke="black" d="M212.544,-86.799C212.544,-75.1626 212.544,-59.5479 212.544,-46.2368"/>
<polygon fill="black" stroke="black" points="216.044,-46.1754 212.544,-36.1754 209.044,-46.1755 216.044,-46.1754"/>
<text text-anchor="middle" x="235.544" y="-57.8" font-family="Times,serif" font-size="14.00">monitor</text>
</g>
<!-- brick_brick_sup -->
<g id="node9" class="node"><title>brick_brick_sup</title>
<ellipse fill="none" stroke="black" cx="524.544" cy="-178" rx="68.7879" ry="18"/>
<text text-anchor="middle" x="524.544" y="-174.3" font-family="Times,serif" font-size="14.00">brick_brick_sup</text>
</g>
<!-- brick_data_sup&#45;&gt;brick_brick_sup -->
<g id="edge8" class="edge"><title>brick_data_sup&#45;&gt;brick_brick_sup</title>
<path fill="none" stroke="black" stroke-dasharray="1,5" d="M490.971,-233.174C496.209,-224.721 502.671,-214.294 508.523,-204.852"/>
<polygon fill="black" stroke="black" points="511.593,-206.542 513.886,-196.198 505.643,-202.855 511.593,-206.542"/>
</g>
<!-- bootstrap_copyN -->
<g id="node10" class="node"><title>bootstrap_copyN</title>
<ellipse fill="none" stroke="black" cx="524.544" cy="-105" rx="72.2875" ry="18"/>
<text text-anchor="middle" x="524.544" y="-101.3" font-family="Times,serif" font-size="14.00">bootstrap_copyN</text>
</g>
<!-- brick_brick_sup&#45;&gt;bootstrap_copyN -->
<g id="edge9" class="edge"><title>brick_brick_sup&#45;&gt;bootstrap_copyN</title>
<path fill="none" stroke="black" stroke-dasharray="1,5" d="M524.544,-159.813C524.544,-151.789 524.544,-142.047 524.544,-133.069"/>
<polygon fill="black" stroke="black" points="528.044,-133.029 524.544,-123.029 521.044,-133.029 528.044,-133.029"/>
</g>
</g>
</svg>
