<?xml version="1.0" encoding="UTF-8" standalone="no"?>
<!DOCTYPE svg PUBLIC "-//W3C//DTD SVG 1.1//EN"
 "http://www.w3.org/Graphics/SVG/1.1/DTD/svg11.dtd">
<!-- Generated by graphviz version 2.26.3 (20100126.1600)
 -->
<!-- Title: data_flow Pages: 1 -->
<svg width="623pt" height="354pt"
 viewBox="0.00 0.00 623.00 354.00" xmlns="http://www.w3.org/2000/svg" xmlns:xlink="http://www.w3.org/1999/xlink">
<g id="graph1" class="graph" transform="scale(1 1) rotate(0) translate(4 350)">
<title>data_flow</title>
<polygon fill="white" stroke="white" points="-4,5 -4,-350 620,-350 620,5 -4,5"/>
<!-- brick_sup -->
<g id="node2" class="node"><title>brick_sup</title>
<ellipse fill="none" stroke="black" cx="422" cy="-328" rx="48.0957" ry="18"/>
<text text-anchor="middle" x="422" y="-322.9" font-family="Times,serif" font-size="14.00">brick_sup</text>
</g>
<!-- brick_admin_sup -->
<g id="node3" class="node"><title>brick_admin_sup</title>
<ellipse fill="none" stroke="black" cx="313" cy="-254" rx="76.1919" ry="18"/>
<text text-anchor="middle" x="313" y="-248.9" font-family="Times,serif" font-size="14.00">brick_admin_sup</text>
</g>
<!-- brick_sup&#45;&gt;brick_admin_sup -->
<g id="edge3" class="edge"><title>brick_sup&#45;&gt;brick_admin_sup</title>
<path fill="none" stroke="black" stroke-dasharray="1,5" d="M398.617,-312.125C383.488,-301.855 363.549,-288.318 346.72,-276.892"/>
<polygon fill="black" stroke="black" points="348.484,-273.86 338.244,-271.138 344.552,-279.651 348.484,-273.86"/>
</g>
<!-- brick_data_sup -->
<g id="node9" class="node"><title>brick_data_sup</title>
<ellipse fill="none" stroke="black" cx="493" cy="-254" rx="68.2439" ry="18"/>
<text text-anchor="middle" x="493" y="-248.9" font-family="Times,serif" font-size="14.00">brick_data_sup</text>
</g>
<!-- brick_sup&#45;&gt;brick_data_sup -->
<g id="edge5" class="edge"><title>brick_sup&#45;&gt;brick_data_sup</title>
<path fill="none" stroke="black" stroke-dasharray="1,5" d="M438.467,-310.837C447.565,-301.354 459.031,-289.404 469.099,-278.911"/>
<polygon fill="black" stroke="black" points="471.731,-281.223 476.129,-271.584 466.68,-276.377 471.731,-281.223"/>
</g>
<!-- brick_mon_sup -->
<g id="node4" class="node"><title>brick_mon_sup</title>
<ellipse fill="none" stroke="black" cx="206" cy="-180" rx="70.1938" ry="18"/>
<text text-anchor="middle" x="206" y="-174.9" font-family="Times,serif" font-size="14.00">brick_mon_sup</text>
</g>
<!-- brick_admin_sup&#45;&gt;brick_mon_sup -->
<g id="edge7" class="edge"><title>brick_admin_sup&#45;&gt;brick_mon_sup</title>
<path fill="none" stroke="black" stroke-dasharray="1,5" d="M288.183,-236.837C273.598,-226.75 254.975,-213.87 239.146,-202.923"/>
<polygon fill="black" stroke="black" points="240.898,-199.88 230.682,-197.07 236.916,-205.637 240.898,-199.88"/>
</g>
<!-- brick_sb -->
<g id="node5" class="node"><title>brick_sb</title>
<ellipse fill="none" stroke="black" cx="218" cy="-18" rx="43.0456" ry="18"/>
<text text-anchor="middle" x="218" y="-12.9" font-family="Times,serif" font-size="14.00">brick_sb</text>
</g>
<!-- brick_admin_sup&#45;&gt;brick_sb -->
<g id="edge9" class="edge"><title>brick_admin_sup&#45;&gt;brick_sb</title>
<path fill="none" stroke="black" stroke-dasharray="1,5" d="M314.227,-235.869C315.812,-197.624 314.126,-107.795 269,-54 264.211,-48.2915 258.317,-43.0527 252.255,-38.4431"/>
<polygon fill="black" stroke="black" points="254.154,-35.4988 243.974,-32.5621 250.101,-41.206 254.154,-35.4988"/>
</g>
<!-- brick_admin -->
<g id="node6" class="node"><title>brick_admin</title>
<ellipse fill="none" stroke="black" cx="390" cy="-180" rx="57.9949" ry="18"/>
<text text-anchor="middle" x="390" y="-174.9" font-family="Times,serif" font-size="14.00">brick_admin</text>
</g>
<!-- brick_admin_sup&#45;&gt;brick_admin -->
<g id="edge11" class="edge"><title>brick_admin_sup&#45;&gt;brick_admin</title>
<path fill="none" stroke="black" stroke-dasharray="1,5" d="M331.248,-236.463C341.293,-226.809 353.91,-214.684 364.874,-204.147"/>
<polygon fill="black" stroke="black" points="367.364,-206.609 372.149,-197.156 362.513,-201.561 367.364,-206.609"/>
</g>
<!-- chainmon_XXX -->
<g id="node7" class="node"><title>chainmon_XXX</title>
<ellipse fill="none" stroke="black" cx="71" cy="-106" rx="70.9937" ry="18"/>
<text text-anchor="middle" x="71" y="-100.9" font-family="Times,serif" font-size="14.00">chainmon_XXX</text>
</g>
<!-- brick_mon_sup&#45;&gt;chainmon_XXX -->
<g id="edge13" class="edge"><title>brick_mon_sup&#45;&gt;chainmon_XXX</title>
<path fill="none" stroke="black" stroke-dasharray="1,5" d="M176.039,-163.577C156.551,-152.895 130.942,-138.857 109.889,-127.317"/>
<polygon fill="black" stroke="black" points="111.329,-124.115 100.877,-122.377 107.964,-130.253 111.329,-124.115"/>
</g>
<!-- pinger_YYY -->
<g id="node8" class="node"><title>pinger_YYY</title>
<ellipse fill="none" stroke="black" cx="218" cy="-106" rx="57.8449" ry="18"/>
<text text-anchor="middle" x="218" y="-100.9" font-family="Times,serif" font-size="14.00">pinger_YYY</text>
</g>
<!-- brick_mon_sup&#45;&gt;pinger_YYY -->
<g id="edge15" class="edge"><title>brick_mon_sup&#45;&gt;pinger_YYY</title>
<path fill="none" stroke="black" stroke-dasharray="1,5" d="M208.966,-161.708C210.318,-153.374 211.948,-143.322 213.449,-134.063"/>
<polygon fill="black" stroke="black" points="216.922,-134.513 215.068,-124.082 210.012,-133.393 216.922,-134.513"/>
</g>
<!-- chainmon_XXX&#45;&gt;brick_sb -->
<g id="edge21" class="edge"><title>chainmon_XXX&#45;&gt;brick_sb</title>
<path fill="none" stroke="black" d="M98.9956,-89.2407C123.288,-74.6984 158.514,-53.6109 184.338,-38.1516"/>
<polygon fill="black" stroke="black" points="186.264,-41.0776 193.047,-32.9381 182.669,-35.0715 186.264,-41.0776"/>
<text text-anchor="middle" x="181.5" y="-56.9" font-family="Times,serif" font-size="14.00">monitor</text>
</g>
<!-- pinger_YYY&#45;&gt;brick_sb -->
<g id="edge23" class="edge"><title>pinger_YYY&#45;&gt;brick_sb</title>
<path fill="none" stroke="black" d="M218,-87.7663C218,-75.8492 218,-60.0384 218,-46.4817"/>
<polygon fill="black" stroke="black" points="221.5,-46.2103 218,-36.2103 214.5,-46.2103 221.5,-46.2103"/>
<text text-anchor="middle" x="241.5" y="-56.9" font-family="Times,serif" font-size="14.00">monitor</text>
</g>
<!-- brick_brick_sup -->
<g id="node10" class="node"><title>brick_brick_sup</title>
<ellipse fill="none" stroke="black" cx="539" cy="-180" rx="72.7935" ry="18"/>
<text text-anchor="middle" x="539" y="-174.9" font-family="Times,serif" font-size="14.00">brick_brick_sup</text>
</g>
<!-- brick_data_sup&#45;&gt;brick_brick_sup -->
<g id="edge17" class="edge"><title>brick_data_sup&#45;&gt;brick_brick_sup</title>
<path fill="none" stroke="black" stroke-dasharray="1,5" d="M504.135,-236.087C509.632,-227.244 516.373,-216.399 522.458,-206.61"/>
<polygon fill="black" stroke="black" points="525.501,-208.346 527.808,-198.005 519.556,-204.65 525.501,-208.346"/>
</g>
<!-- bootstrap_copyN -->
<g id="node11" class="node"><title>bootstrap_copyN</title>
<ellipse fill="none" stroke="black" cx="539" cy="-106" rx="76.0433" ry="18"/>
<text text-anchor="middle" x="539" y="-100.9" font-family="Times,serif" font-size="14.00">bootstrap_copyN</text>
</g>
<!-- brick_brick_sup&#45;&gt;bootstrap_copyN -->
<g id="edge19" class="edge"><title>brick_brick_sup&#45;&gt;bootstrap_copyN</title>
<path fill="none" stroke="black" stroke-dasharray="1,5" d="M539,-161.708C539,-153.464 539,-143.538 539,-134.362"/>
<polygon fill="black" stroke="black" points="542.5,-134.082 539,-124.082 535.5,-134.082 542.5,-134.082"/>
</g>
</g>
</svg>
