<?xml version="1.0" encoding="UTF-8" standalone="no"?>
<!DOCTYPE svg PUBLIC "-//W3C//DTD SVG 1.1//EN"
 "http://www.w3.org/Graphics/SVG/1.1/DTD/svg11.dtd">
<!-- Generated by graphviz version 2.26.3 (20100126.1600)
 -->
<!-- Title: data_flow Pages: 1 -->
<svg width="1600pt" height="360pt"
 viewBox="0.00 0.00 1600.32 360.00" xmlns="http://www.w3.org/2000/svg" xmlns:xlink="http://www.w3.org/1999/xlink">
<g id="graph1" class="graph" transform="scale(1 1) rotate(0) translate(4 356)">
<title>data_flow</title>
<polygon fill="white" stroke="white" points="-4,5 -4,-356 1597.32,-356 1597.32,5 -4,5"/>
<!-- pinger_YYY -->
<g id="node2" class="node"><title>pinger_YYY</title>
<ellipse fill="none" stroke="black" cx="1331.32" cy="-334" rx="57.8449" ry="18"/>
<text text-anchor="middle" x="1331.32" y="-328.9" font-family="Times,serif" font-size="14.00">pinger_YYY</text>
</g>
<!-- pingee_YYY -->
<g id="node10" class="node"><title>pingee_YYY</title>
<ellipse fill="grey" stroke="grey" cx="1390.32" cy="-178" rx="57.8449" ry="18"/>
<text text-anchor="middle" x="1390.32" y="-172.9" font-family="Times,serif" font-size="14.00">pingee_YYY</text>
</g>
<!-- pinger_YYY&#45;&gt;pingee_YYY -->
<g id="edge24" class="edge"><title>pinger_YYY&#45;&gt;pingee_YYY</title>
<path fill="none" stroke="black" stroke-dasharray="5,2" d="M1360.81,-318.495C1368.41,-313.048 1375.73,-306.199 1380.32,-298 1396.13,-269.745 1396.47,-231.757 1394.27,-206.154"/>
<polygon fill="black" stroke="black" points="1397.73,-205.587 1393.21,-196.005 1390.77,-206.314 1397.73,-205.587"/>
<text text-anchor="middle" x="1491.32" y="-285.4" font-family="Times,serif" font-size="14.00">polling</text>
<text text-anchor="middle" x="1491.32" y="-270.4" font-family="Times,serif" font-size="14.00">get_brick_{repair_state,start_time}</text>
</g>
<!-- brick_sb -->
<g id="node21" class="node"><title>brick_sb</title>
<ellipse fill="none" stroke="black" cx="902.316" cy="-232" rx="43.0456" ry="18"/>
<text text-anchor="middle" x="902.316" y="-226.9" font-family="Times,serif" font-size="14.00">brick_sb</text>
</g>
<!-- pinger_YYY&#45;&gt;brick_sb -->
<g id="edge22" class="edge"><title>pinger_YYY&#45;&gt;brick_sb</title>
<path fill="none" stroke="black" d="M1301.65,-318.369C1266.33,-299.872 1210.8,-271.168 1200.32,-268 1155.74,-254.53 1028.18,-242.323 955.214,-236.18"/>
<polygon fill="black" stroke="black" points="955.118,-232.659 944.862,-235.318 954.537,-239.635 955.118,-232.659"/>
<text text-anchor="middle" x="1316.32" y="-277.9" font-family="Times,serif" font-size="14.00">report_brick_status</text>
</g>
<!-- chainmon_XXX -->
<g id="node3" class="node"><title>chainmon_XXX</title>
<ellipse fill="none" stroke="black" cx="1049.32" cy="-334" rx="70.9937" ry="18"/>
<text text-anchor="middle" x="1049.32" y="-328.9" font-family="Times,serif" font-size="14.00">chainmon_XXX</text>
</g>
<!-- chainmon_XXX&#45;&gt;brick_sb -->
<g id="edge16" class="edge"><title>chainmon_XXX&#45;&gt;brick_sb</title>
<path fill="none" stroke="black" stroke-dasharray="5,2" d="M986.437,-325.595C953.086,-319.752 916.857,-310.711 906.316,-298 897.786,-287.714 896.187,-273.136 896.979,-260.296"/>
<polygon fill="black" stroke="black" points="900.491,-260.375 898.106,-250.052 893.533,-259.608 900.491,-260.375"/>
<text text-anchor="middle" x="987.316" y="-285.4" font-family="Times,serif" font-size="14.00">polling</text>
<text text-anchor="middle" x="987.316" y="-270.4" font-family="Times,serif" font-size="14.00">get_multiple_statuses(brick)</text>
</g>
<!-- chainmon_XXX&#45;&gt;brick_sb -->
<g id="edge18" class="edge"><title>chainmon_XXX&#45;&gt;brick_sb</title>
<path fill="none" stroke="black" d="M1064.6,-316.153C1074.89,-301.882 1084.69,-282.012 1073.32,-268 1058.6,-249.859 999.703,-240.516 955.111,-235.951"/>
<polygon fill="black" stroke="black" points="955.269,-232.45 944.978,-234.97 954.594,-239.418 955.269,-232.45"/>
<text text-anchor="middle" x="1134.82" y="-277.9" font-family="Times,serif" font-size="14.00">report_chain_status</text>
</g>
<!-- application -->
<g id="node4" class="node"><title>application</title>
<ellipse fill="none" stroke="black" cx="70.3165" cy="-334" rx="51.9954" ry="18"/>
<text text-anchor="middle" x="70.3165" y="-328.9" font-family="Times,serif" font-size="14.00">application</text>
</g>
<!-- brick_server_YYY -->
<g id="node9" class="node"><title>brick_server_YYY</title>
<polygon fill="grey" stroke="grey" points="1056.82,-1 1056.82,-37 1179.82,-37 1179.82,-1 1056.82,-1"/>
<text text-anchor="middle" x="1118.32" y="-13.9" font-family="Times,serif" font-size="14.00">brick_server_YYY</text>
</g>
<!-- application&#45;&gt;brick_server_YYY -->
<g id="edge42" class="edge"><title>application&#45;&gt;brick_server_YYY</title>
<path fill="none" stroke="black" d="M122.413,-333.706C317.302,-332.393 994.129,-325.84 1030.32,-298 1035.89,-293.714 1102.04,-62.6519 1104.32,-56 1105.33,-53.0408 1106.42,-49.9639 1107.54,-46.9046"/>
<polygon fill="black" stroke="black" points="1110.88,-47.951 1111.1,-37.3584 1104.32,-45.5033 1110.88,-47.951"/>
<text text-anchor="middle" x="1151.82" y="-172.9" font-family="Times,serif" font-size="14.00">gen_server:call(..{do, ...}..)</text>
</g>
<!-- brick_simple_ZZZ -->
<g id="node17" class="node"><title>brick_simple_ZZZ</title>
<polygon fill="orange" stroke="orange" points="132.316,-1 132.316,-37 258.316,-37 258.316,-1 132.316,-1"/>
<text text-anchor="middle" x="195.316" y="-13.9" font-family="Times,serif" font-size="14.00">brick_simple_ZZZ</text>
</g>
<!-- application&#45;&gt;brick_simple_ZZZ -->
<g id="edge38" class="edge"><title>application&#45;&gt;brick_simple_ZZZ</title>
<path fill="none" stroke="black" d="M64.9523,-315.92C56.2902,-283.394 42.2117,-213.425 63.3165,-160 82.8252,-110.616 128.704,-68.3773 160.866,-43.3394"/>
<polygon fill="black" stroke="black" points="163.295,-45.889 169.131,-37.0463 159.054,-40.3197 163.295,-45.889"/>
<text text-anchor="middle" x="176.316" y="-172.9" font-family="Times,serif" font-size="14.00">! {current_gh_version, Tab, self(), Ref}</text>
</g>
<!-- application&#45;&gt;brick_simple_ZZZ -->
<g id="edge40" class="edge"><title>application&#45;&gt;brick_simple_ZZZ</title>
<path fill="none" stroke="black" d="M55.2207,-316.59C29.8628,-285.126 -16.3892,-216.784 6.3165,-160 30.0101,-100.745 52.6481,-92.0352 105.316,-56 113.285,-50.5483 122.18,-45.6868 131.192,-41.4236"/>
<polygon fill="black" stroke="black" points="132.906,-44.4905 140.592,-37.1979 130.036,-38.1061 132.906,-44.4905"/>
<text text-anchor="middle" x="26.3165" y="-172.9" font-family="Times,serif" font-size="14.00">get_gh</text>
</g>
<!-- bootstrap_copyN -->
<g id="node6" class="node"><title>bootstrap_copyN</title>
<polygon fill="none" stroke="black" points="729.816,-1 729.816,-37 846.816,-37 846.816,-1 729.816,-1"/>
<text text-anchor="middle" x="788.316" y="-13.9" font-family="Times,serif" font-size="14.00">bootstrap_copyN</text>
</g>
<!-- brick_server_YYY&#45;&gt;pingee_YYY -->
<g id="edge6" class="edge"><title>brick_server_YYY&#45;&gt;pingee_YYY</title>
<path fill="none" stroke="black" d="M1149.36,-37.1455C1200.04,-66.7731 1300.3,-125.381 1354.13,-156.848"/>
<polygon fill="black" stroke="black" points="1352.59,-160.001 1362.99,-162.026 1356.12,-153.958 1352.59,-160.001"/>
<text text-anchor="middle" x="1451.32" y="-117.9" font-family="Times,serif" font-size="14.00">set_{chain_ok_time,start_time,repair_state}</text>
</g>
<!-- brick_server_yyy -->
<g id="node11" class="node"><title>brick_server_yyy</title>
<polygon fill="grey" stroke="grey" points="1107.82,-105 1107.82,-141 1226.82,-141 1226.82,-105 1107.82,-105"/>
<text text-anchor="middle" x="1167.32" y="-117.9" font-family="Times,serif" font-size="14.00">brick_server_yyy</text>
</g>
<!-- brick_server_YYY&#45;&gt;brick_server_yyy -->
<g id="edge8" class="edge"><title>brick_server_YYY&#45;&gt;brick_server_yyy</title>
<path fill="none" stroke="black" d="M1114.87,-37.0765C1113.09,-51.1694 1112.67,-70.828 1120.32,-86 1122.48,-90.2948 1125.4,-94.2465 1128.73,-97.8389"/>
<polygon fill="black" stroke="black" points="1126.35,-100.405 1136.04,-104.703 1131.14,-95.3038 1126.35,-100.405"/>
<text text-anchor="middle" x="1124.32" y="-65.9" font-family="Times,serif" font-size="14.00">*</text>
</g>
<!-- brick_server_yyy&#45;&gt;brick_server_YYY -->
<g id="edge10" class="edge"><title>brick_server_yyy&#45;&gt;brick_server_YYY</title>
<path fill="none" stroke="black" d="M1158.78,-104.885C1151.17,-88.7286 1139.92,-64.8434 1131.21,-46.3603"/>
<polygon fill="black" stroke="black" points="1134.35,-44.8112 1126.92,-37.2568 1128.01,-47.7948 1134.35,-44.8112"/>
<text text-anchor="middle" x="1152.32" y="-65.9" font-family="Times,serif" font-size="14.00">*</text>
</g>
<!-- clientmon_ZZZ -->
<g id="node18" class="node"><title>clientmon_ZZZ</title>
<ellipse fill="orange" stroke="orange" cx="350.316" cy="-232" rx="70.1938" ry="18"/>
<text text-anchor="middle" x="350.316" y="-226.9" font-family="Times,serif" font-size="14.00">clientmon_ZZZ</text>
</g>
<!-- clientmon_ZZZ&#45;&gt;brick_simple_ZZZ -->
<g id="edge14" class="edge"><title>clientmon_ZZZ&#45;&gt;brick_simple_ZZZ</title>
<path fill="none" stroke="black" stroke-dasharray="5,2" d="M337.368,-214.206C310.083,-176.712 246.564,-89.424 214.525,-45.396"/>
<polygon fill="black" stroke="black" points="217.271,-43.2211 208.557,-37.1948 211.611,-47.3399 217.271,-43.2211"/>
<text text-anchor="middle" x="319.816" y="-125.4" font-family="Times,serif" font-size="14.00">polling</text>
<text text-anchor="middle" x="319.816" y="-110.4" font-family="Times,serif" font-size="14.00">check_status</text>
</g>
<!-- brick_admin -->
<g id="node24" class="node"><title>brick_admin</title>
<ellipse fill="none" stroke="black" cx="638.316" cy="-123" rx="57.9949" ry="18"/>
<text text-anchor="middle" x="638.316" y="-117.9" font-family="Times,serif" font-size="14.00">brick_admin</text>
</g>
<!-- clientmon_ZZZ&#45;&gt;brick_admin -->
<g id="edge20" class="edge"><title>clientmon_ZZZ&#45;&gt;brick_admin</title>
<path fill="none" stroke="black" d="M357.726,-214.031C365.663,-197.19 379.932,-172.752 400.316,-160 428.089,-142.626 511.022,-132.659 571.189,-127.541"/>
<polygon fill="black" stroke="black" points="571.709,-131.01 581.388,-126.7 571.134,-124.033 571.709,-131.01"/>
<text text-anchor="middle" x="508.316" y="-172.9" font-family="Times,serif" font-size="14.00">event==up &#45;&gt; spam_gh_to_all_nodes</text>
</g>
<!-- brick_sb&#45;&gt;bootstrap_copyN -->
<g id="edge26" class="edge"><title>brick_sb&#45;&gt;bootstrap_copyN</title>
<path fill="none" stroke="black" d="M910.504,-214.104C924.913,-179.634 950.058,-103.271 914.316,-56 906.76,-46.0061 882.467,-37.7735 857.201,-31.632"/>
<polygon fill="black" stroke="black" points="857.656,-28.1449 847.124,-29.2976 856.076,-34.9643 857.656,-28.1449"/>
<text text-anchor="middle" x="962.816" y="-125.4" font-family="Times,serif" font-size="14.00">squorom</text>
<text text-anchor="middle" x="962.816" y="-110.4" font-family="Times,serif" font-size="14.00">operations</text>
</g>
<!-- brick_sb&#45;&gt;brick_admin -->
<g id="edge28" class="edge"><title>brick_sb&#45;&gt;brick_admin</title>
<path fill="none" stroke="black" d="M859.697,-229.336C787.612,-224.392 647.978,-212.754 633.316,-196 622.713,-183.883 623.835,-165.869 627.671,-150.769"/>
<polygon fill="black" stroke="black" points="631.115,-151.472 630.65,-140.888 624.412,-149.452 631.115,-151.472"/>
<text text-anchor="middle" x="692.316" y="-172.9" font-family="Times,serif" font-size="14.00">load_bootstrap_data</text>
</g>
<!-- brick_sb&#45;&gt;brick_admin -->
<g id="edge30" class="edge"><title>brick_sb&#45;&gt;brick_admin</title>
<path fill="none" stroke="black" d="M863.495,-224.03C841.518,-218.392 814.147,-209.41 792.316,-196 773.036,-184.157 775.67,-171.723 756.316,-160 738.329,-149.105 716.832,-141.13 697.143,-135.436"/>
<polygon fill="black" stroke="black" points="697.915,-132.019 687.344,-132.743 696.059,-138.768 697.915,-132.019"/>
<text text-anchor="middle" x="851.316" y="-172.9" font-family="Times,serif" font-size="14.00">chain_status_change</text>
</g>
<!-- brick_admin&#45;&gt;bootstrap_copyN -->
<g id="edge32" class="edge"><title>brick_admin&#45;&gt;bootstrap_copyN</title>
<path fill="none" stroke="black" d="M633.045,-104.784C629.967,-90.0439 628.537,-69.5739 639.316,-56 649.689,-42.9394 685.527,-33.8061 719.455,-27.8815"/>
<polygon fill="black" stroke="black" points="720.132,-31.317 729.421,-26.2201 718.981,-24.4123 720.132,-31.317"/>
<text text-anchor="middle" x="669.816" y="-73.4" font-family="Times,serif" font-size="14.00">squorom</text>
<text text-anchor="middle" x="669.816" y="-58.4" font-family="Times,serif" font-size="14.00">operations</text>
</g>
<!-- brick_admin&#45;&gt;brick_server_YYY -->
<g id="edge36" class="edge"><title>brick_admin&#45;&gt;brick_server_YYY</title>
<path fill="none" stroke="black" d="M676.568,-109.455C720.262,-94.4423 794.144,-70.4458 859.316,-56 921.885,-42.1313 994.159,-32.3108 1046.43,-26.2889"/>
<polygon fill="black" stroke="black" points="1047.07,-29.7392 1056.61,-25.1351 1046.28,-22.7837 1047.07,-29.7392"/>
<text text-anchor="middle" x="942.316" y="-65.9" font-family="Times,serif" font-size="14.00">chain_hack_set_global_hash</text>
</g>
<!-- brick_admin&#45;&gt;brick_simple_ZZZ -->
<g id="edge34" class="edge"><title>brick_admin&#45;&gt;brick_simple_ZZZ</title>
<path fill="none" stroke="black" d="M591.745,-112.067C514.691,-93.9774 360.096,-57.6842 268.387,-36.1542"/>
<polygon fill="black" stroke="black" points="269.155,-32.7394 258.619,-33.8612 267.555,-39.5541 269.155,-32.7394"/>
<text text-anchor="middle" x="489.316" y="-65.9" font-family="Times,serif" font-size="14.00">set_gh</text>
</g>
</g>
</svg>
