<?xml version="1.0" encoding="UTF-8" standalone="no"?>
<!DOCTYPE svg PUBLIC "-//W3C//DTD SVG 1.0//EN" "http://www.w3.org/TR/2001/PR-SVG-20010719/DTD/svg10.dtd">
<svg width="31cm" height="33cm" viewBox="115 -53 603 656" xmlns="http://www.w3.org/2000/svg" xmlns:xlink="http://www.w3.org/1999/xlink">
  <text font-size="15.24" style="fill: #000000;text-anchor:middle;font-family:sans-serif;font-style:normal;font-weight:700" x="158.937" y="-5.33">
    <tspan x="158.937" y="-5.33">Admin</tspan>
    <tspan x="158.937" y="13.72">Case #A-1</tspan>
  </text>
  <g>
    <path style="fill: #90ee90" d="M 361.53 580.008 C 368.13,576.744 371.43,575.656 378.03,575.656 C 384.63,575.656 387.93,576.744 394.53,580.008 L 394.53,597.415 C 387.93,600.679 384.63,601.767 378.03,601.767 C 371.43,601.767 368.13,600.679 361.53,597.415 L 361.53,580.008z"/>
    <path style="fill: none; fill-opacity:0; stroke-width: 2; stroke: #000000" d="M 361.53 580.008 C 368.13,576.744 371.43,575.656 378.03,575.656 C 384.63,575.656 387.93,576.744 394.53,580.008 L 394.53,597.415 C 387.93,600.679 384.63,601.767 378.03,601.767 C 371.43,601.767 368.13,600.679 361.53,597.415 L 361.53,580.008"/>
    <path style="fill: none; fill-opacity:0; stroke-width: 2; stroke: #000000" d="M 361.53 580.008 C 368.13,583.272 371.43,584.36 378.03,584.36 C 384.63,584.36 387.93,583.272 394.53,580.008"/>
    <text font-size="5.64444" style="fill: #000000;text-anchor:middle;font-family:sans-serif;font-style:normal;font-weight:normal" x="378.03" y="592.651">
      <tspan x="378.03" y="592.651"></tspan>
    </text>
  </g>
  <g>
    <ellipse style="fill: #7f7f7f" cx="332.963" cy="533.734" rx="40.5673" ry="39.0336"/>
    <ellipse style="fill: none; fill-opacity:0; stroke-width: 2; stroke: #000000" cx="332.963" cy="533.734" rx="40.5673" ry="39.0336"/>
    <text font-size="11.2889" style="fill: #000000;text-anchor:middle;font-family:sans-serif;font-style:normal;font-weight:700" x="332.963" y="537.178">
      <tspan x="332.963" y="537.178">STANDBY</tspan>
    </text>
  </g>
  <line style="fill: none; fill-opacity:0; stroke-width: 2; stroke: #000000" x1="361.648" y1="561.334" x2="369.78" y2="576.608"/>
  <g>
    <path style="fill: #90ee90" d="M 522.648 580.008 C 529.248,576.744 532.548,575.656 539.148,575.656 C 545.748,575.656 549.048,576.744 555.648,580.008 L 555.648,597.415 C 549.048,600.679 545.748,601.767 539.148,601.767 C 532.548,601.767 529.248,600.679 522.648,597.415 L 522.648,580.008z"/>
    <path style="fill: none; fill-opacity:0; stroke-width: 2; stroke: #000000" d="M 522.648 580.008 C 529.248,576.744 532.548,575.656 539.148,575.656 C 545.748,575.656 549.048,576.744 555.648,580.008 L 555.648,597.415 C 549.048,600.679 545.748,601.767 539.148,601.767 C 532.548,601.767 529.248,600.679 522.648,597.415 L 522.648,580.008"/>
    <path style="fill: none; fill-opacity:0; stroke-width: 2; stroke: #000000" d="M 522.648 580.008 C 529.248,583.272 532.548,584.36 539.148,584.36 C 545.748,584.36 549.048,583.272 555.648,580.008"/>
    <text font-size="5.64444" style="fill: #000000;text-anchor:middle;font-family:sans-serif;font-style:normal;font-weight:normal" x="539.148" y="592.651">
      <tspan x="539.148" y="592.651"></tspan>
    </text>
  </g>
  <g>
    <ellipse style="fill: #ffa500" cx="494.079" cy="533.734" rx="40.5673" ry="39.0336"/>
    <ellipse style="fill: none; fill-opacity:0; stroke-width: 2; stroke: #000000" cx="494.079" cy="533.734" rx="40.5673" ry="39.0336"/>
    <text font-size="11.2889" style="fill: #000000;text-anchor:middle;font-family:sans-serif;font-style:normal;font-weight:700" x="494.079" y="537.178">
      <tspan x="494.079" y="537.178">ACTIVE</tspan>
    </text>
  </g>
  <line style="fill: none; fill-opacity:0; stroke-width: 2; stroke: #000000" x1="522.764" y1="561.334" x2="530.898" y2="576.608"/>
  <g>
    <path style="fill: #90ee90" d="M 683.764 580.008 C 690.364,576.744 693.664,575.656 700.264,575.656 C 706.864,575.656 710.164,576.744 716.764,580.008 L 716.764,597.415 C 710.164,600.679 706.864,601.767 700.264,601.767 C 693.664,601.767 690.364,600.679 683.764,597.415 L 683.764,580.008z"/>
    <path style="fill: none; fill-opacity:0; stroke-width: 2; stroke: #000000" d="M 683.764 580.008 C 690.364,576.744 693.664,575.656 700.264,575.656 C 706.864,575.656 710.164,576.744 716.764,580.008 L 716.764,597.415 C 710.164,600.679 706.864,601.767 700.264,601.767 C 693.664,601.767 690.364,600.679 683.764,597.415 L 683.764,580.008"/>
    <path style="fill: none; fill-opacity:0; stroke-width: 2; stroke: #000000" d="M 683.764 580.008 C 690.364,583.272 693.664,584.36 700.264,584.36 C 706.864,584.36 710.164,583.272 716.764,580.008"/>
    <text font-size="5.64444" style="fill: #000000;text-anchor:middle;font-family:sans-serif;font-style:normal;font-weight:normal" x="700.264" y="592.651">
      <tspan x="700.264" y="592.651"></tspan>
    </text>
  </g>
  <g>
    <ellipse style="fill: #ffa500" cx="655.197" cy="533.734" rx="40.5673" ry="39.0336"/>
    <ellipse style="fill: none; fill-opacity:0; stroke-width: 2; stroke: #000000" cx="655.197" cy="533.734" rx="40.5673" ry="39.0336"/>
    <text font-size="11.2889" style="fill: #000000;text-anchor:middle;font-family:sans-serif;font-style:normal;font-weight:700" x="655.197" y="537.178">
      <tspan x="655.197" y="537.178">STANDBY</tspan>
    </text>
  </g>
  <line style="fill: none; fill-opacity:0; stroke-width: 2; stroke: #000000" x1="683.882" y1="561.334" x2="692.014" y2="576.608"/>
  <g>
    <path style="fill: none; fill-opacity:0; stroke-width: 2; stroke: #000000" d="M 614.006,516.312 A 74.1593,74.1593 0 0 0 531.558,518.796"/>
    <polyline style="fill: none; fill-opacity:0; stroke-width: 2; stroke: #000000" points="604.854,515.758 615.898,517.497 610.663,507.618 "/>
  </g>
  <g>
    <path style="fill: #90ee90" d="M 361.53 46.0461 C 368.13,42.7822 371.43,41.6942 378.03,41.6942 C 384.63,41.6942 387.93,42.7822 394.53,46.0461 L 394.53,63.4535 C 387.93,66.7173 384.63,67.8053 378.03,67.8053 C 371.43,67.8053 368.13,66.7173 361.53,63.4535 L 361.53,46.0461z"/>
    <path style="fill: none; fill-opacity:0; stroke-width: 2; stroke: #000000" d="M 361.53 46.0461 C 368.13,42.7822 371.43,41.6942 378.03,41.6942 C 384.63,41.6942 387.93,42.7822 394.53,46.0461 L 394.53,63.4535 C 387.93,66.7173 384.63,67.8053 378.03,67.8053 C 371.43,67.8053 368.13,66.7173 361.53,63.4535 L 361.53,46.0461"/>
    <path style="fill: none; fill-opacity:0; stroke-width: 2; stroke: #000000" d="M 361.53 46.0461 C 368.13,49.3099 371.43,50.3979 378.03,50.3979 C 384.63,50.3979 387.93,49.3099 394.53,46.0461"/>
    <text font-size="5.64444" style="fill: #000000;text-anchor:middle;font-family:sans-serif;font-style:normal;font-weight:normal" x="378.03" y="58.6896">
      <tspan x="378.03" y="58.6896"></tspan>
    </text>
  </g>
  <g>
    <ellipse style="fill: #ffa500" cx="332.963" cy="-0.228161" rx="40.5673" ry="39.0336"/>
    <ellipse style="fill: none; fill-opacity:0; stroke-width: 2; stroke: #000000" cx="332.963" cy="-0.228161" rx="40.5673" ry="39.0336"/>
    <text font-size="11.2889" style="fill: #000000;text-anchor:middle;font-family:sans-serif;font-style:normal;font-weight:700" x="332.963" y="3.21628">
      <tspan x="332.963" y="3.21628">ACTIVE</tspan>
    </text>
  </g>
  <line style="fill: none; fill-opacity:0; stroke-width: 2; stroke: #000000" x1="361.648" y1="27.3728" x2="369.78" y2="42.6462"/>
  <g>
    <path style="fill: #90ee90" d="M 522.648 46.0461 C 529.248,42.7822 532.548,41.6942 539.148,41.6942 C 545.748,41.6942 549.048,42.7822 555.648,46.0461 L 555.648,63.4535 C 549.048,66.7173 545.748,67.8053 539.148,67.8053 C 532.548,67.8053 529.248,66.7173 522.648,63.4535 L 522.648,46.0461z"/>
    <path style="fill: none; fill-opacity:0; stroke-width: 2; stroke: #000000" d="M 522.648 46.0461 C 529.248,42.7822 532.548,41.6942 539.148,41.6942 C 545.748,41.6942 549.048,42.7822 555.648,46.0461 L 555.648,63.4535 C 549.048,66.7173 545.748,67.8053 539.148,67.8053 C 532.548,67.8053 529.248,66.7173 522.648,63.4535 L 522.648,46.0461"/>
    <path style="fill: none; fill-opacity:0; stroke-width: 2; stroke: #000000" d="M 522.648 46.0461 C 529.248,49.3099 532.548,50.3979 539.148,50.3979 C 545.748,50.3979 549.048,49.3099 555.648,46.0461"/>
    <text font-size="5.64444" style="fill: #000000;text-anchor:middle;font-family:sans-serif;font-style:normal;font-weight:normal" x="539.148" y="58.6896">
      <tspan x="539.148" y="58.6896"></tspan>
    </text>
  </g>
  <g>
    <ellipse style="fill: #ffa500" cx="494.079" cy="-0.228161" rx="40.5673" ry="39.0336"/>
    <ellipse style="fill: none; fill-opacity:0; stroke-width: 2; stroke: #000000" cx="494.079" cy="-0.228161" rx="40.5673" ry="39.0336"/>
    <text font-size="11.2889" style="fill: #000000;text-anchor:middle;font-family:sans-serif;font-style:normal;font-weight:700" x="494.079" y="3.21628">
      <tspan x="494.079" y="3.21628">STANDBY</tspan>
    </text>
  </g>
  <line style="fill: none; fill-opacity:0; stroke-width: 2; stroke: #000000" x1="522.764" y1="27.3728" x2="530.898" y2="42.6462"/>
  <g>
    <path style="fill: #90ee90" d="M 683.764 46.0461 C 690.364,42.7822 693.664,41.6942 700.264,41.6942 C 706.864,41.6942 710.164,42.7822 716.764,46.0461 L 716.764,63.4535 C 710.164,66.7173 706.864,67.8053 700.264,67.8053 C 693.664,67.8053 690.364,66.7173 683.764,63.4535 L 683.764,46.0461z"/>
    <path style="fill: none; fill-opacity:0; stroke-width: 2; stroke: #000000" d="M 683.764 46.0461 C 690.364,42.7822 693.664,41.6942 700.264,41.6942 C 706.864,41.6942 710.164,42.7822 716.764,46.0461 L 716.764,63.4535 C 710.164,66.7173 706.864,67.8053 700.264,67.8053 C 693.664,67.8053 690.364,66.7173 683.764,63.4535 L 683.764,46.0461"/>
    <path style="fill: none; fill-opacity:0; stroke-width: 2; stroke: #000000" d="M 683.764 46.0461 C 690.364,49.3099 693.664,50.3979 700.264,50.3979 C 706.864,50.3979 710.164,49.3099 716.764,46.0461"/>
    <text font-size="5.64444" style="fill: #000000;text-anchor:middle;font-family:sans-serif;font-style:normal;font-weight:normal" x="700.264" y="58.6896">
      <tspan x="700.264" y="58.6896"></tspan>
    </text>
  </g>
  <g>
    <ellipse style="fill: #ffa500" cx="655.197" cy="-0.228161" rx="40.5673" ry="39.0336"/>
    <ellipse style="fill: none; fill-opacity:0; stroke-width: 2; stroke: #000000" cx="655.197" cy="-0.228161" rx="40.5673" ry="39.0336"/>
    <text font-size="11.2889" style="fill: #000000;text-anchor:middle;font-family:sans-serif;font-style:normal;font-weight:700" x="655.197" y="3.21628">
      <tspan x="655.197" y="3.21628">STANDBY</tspan>
    </text>
  </g>
  <line style="fill: none; fill-opacity:0; stroke-width: 2; stroke: #000000" x1="683.882" y1="27.3728" x2="692.014" y2="42.6462"/>
  <g>
    <path style="fill: none; fill-opacity:0; stroke-width: 2; stroke: #000000" d="M 452.888,-17.6495 A 74.1561,74.1561 0 0 0 370.442,-15.1657"/>
    <polyline style="fill: none; fill-opacity:0; stroke-width: 2; stroke: #000000" points="443.736,-18.2041 454.78,-16.4646 449.545,-26.3437 "/>
  </g>
  <g>
    <path style="fill: none; fill-opacity:0; stroke-width: 2; stroke: #000000" d="M 613.788,-17.2989 A 291.364,291.364 0 0 0 361.648,-27.829"/>
    <polyline style="fill: none; fill-opacity:0; stroke-width: 2; stroke: #000000" points="604.59,-16.7094 615.761,-16.2474 609.428,-25.4613 "/>
  </g>
  <g>
    <path style="fill: #90ee90" d="M 361.53 224.034 C 368.13,220.77 371.43,219.682 378.03,219.682 C 384.63,219.682 387.93,220.77 394.53,224.034 L 394.53,241.441 C 387.93,244.705 384.63,245.793 378.03,245.793 C 371.43,245.793 368.13,244.705 361.53,241.441 L 361.53,224.034z"/>
    <path style="fill: none; fill-opacity:0; stroke-width: 2; stroke: #000000" d="M 361.53 224.034 C 368.13,220.77 371.43,219.682 378.03,219.682 C 384.63,219.682 387.93,220.77 394.53,224.034 L 394.53,241.441 C 387.93,244.705 384.63,245.793 378.03,245.793 C 371.43,245.793 368.13,244.705 361.53,241.441 L 361.53,224.034"/>
    <path style="fill: none; fill-opacity:0; stroke-width: 2; stroke: #000000" d="M 361.53 224.034 C 368.13,227.298 371.43,228.386 378.03,228.386 C 384.63,228.386 387.93,227.298 394.53,224.034"/>
    <text font-size="5.64444" style="fill: #000000;text-anchor:middle;font-family:sans-serif;font-style:normal;font-weight:normal" x="378.03" y="236.677">
      <tspan x="378.03" y="236.677"></tspan>
    </text>
  </g>
  <g>
    <ellipse style="fill: #ffa500" cx="332.963" cy="177.759" rx="40.5673" ry="39.0336"/>
    <ellipse style="fill: none; fill-opacity:0; stroke-width: 2; stroke: #000000" cx="332.963" cy="177.759" rx="40.5673" ry="39.0336"/>
    <text font-size="11.2889" style="fill: #000000;text-anchor:middle;font-family:sans-serif;font-style:normal;font-weight:700" x="332.963" y="181.203">
      <tspan x="332.963" y="181.203">ACTIVE</tspan>
    </text>
  </g>
  <line style="fill: none; fill-opacity:0; stroke-width: 2; stroke: #000000" x1="361.648" y1="205.36" x2="369.78" y2="220.634"/>
  <g>
    <path style="fill: #90ee90" d="M 522.648 224.034 C 529.248,220.77 532.548,219.682 539.148,219.682 C 545.748,219.682 549.048,220.77 555.648,224.034 L 555.648,241.441 C 549.048,244.705 545.748,245.793 539.148,245.793 C 532.548,245.793 529.248,244.705 522.648,241.441 L 522.648,224.034z"/>
    <path style="fill: none; fill-opacity:0; stroke-width: 2; stroke: #000000" d="M 522.648 224.034 C 529.248,220.77 532.548,219.682 539.148,219.682 C 545.748,219.682 549.048,220.77 555.648,224.034 L 555.648,241.441 C 549.048,244.705 545.748,245.793 539.148,245.793 C 532.548,245.793 529.248,244.705 522.648,241.441 L 522.648,224.034"/>
    <path style="fill: none; fill-opacity:0; stroke-width: 2; stroke: #000000" d="M 522.648 224.034 C 529.248,227.298 532.548,228.386 539.148,228.386 C 545.748,228.386 549.048,227.298 555.648,224.034"/>
    <text font-size="5.64444" style="fill: #000000;text-anchor:middle;font-family:sans-serif;font-style:normal;font-weight:normal" x="539.148" y="236.677">
      <tspan x="539.148" y="236.677"></tspan>
    </text>
  </g>
  <g>
    <ellipse style="fill: #ffa500" cx="494.079" cy="177.759" rx="40.5673" ry="39.0336"/>
    <ellipse style="fill: none; fill-opacity:0; stroke-width: 2; stroke: #000000" cx="494.079" cy="177.759" rx="40.5673" ry="39.0336"/>
    <text font-size="11.2889" style="fill: #000000;text-anchor:middle;font-family:sans-serif;font-style:normal;font-weight:700" x="494.079" y="181.203">
      <tspan x="494.079" y="181.203">STANDBY</tspan>
    </text>
  </g>
  <line style="fill: none; fill-opacity:0; stroke-width: 2; stroke: #000000" x1="522.764" y1="205.36" x2="530.898" y2="220.634"/>
  <g>
    <path style="fill: #90ee90" d="M 683.764 224.034 C 690.364,220.77 693.664,219.682 700.264,219.682 C 706.864,219.682 710.164,220.77 716.764,224.034 L 716.764,241.441 C 710.164,244.705 706.864,245.793 700.264,245.793 C 693.664,245.793 690.364,244.705 683.764,241.441 L 683.764,224.034z"/>
    <path style="fill: none; fill-opacity:0; stroke-width: 2; stroke: #000000" d="M 683.764 224.034 C 690.364,220.77 693.664,219.682 700.264,219.682 C 706.864,219.682 710.164,220.77 716.764,224.034 L 716.764,241.441 C 710.164,244.705 706.864,245.793 700.264,245.793 C 693.664,245.793 690.364,244.705 683.764,241.441 L 683.764,224.034"/>
    <path style="fill: none; fill-opacity:0; stroke-width: 2; stroke: #000000" d="M 683.764 224.034 C 690.364,227.298 693.664,228.386 700.264,228.386 C 706.864,228.386 710.164,227.298 716.764,224.034"/>
    <text font-size="5.64444" style="fill: #000000;text-anchor:middle;font-family:sans-serif;font-style:normal;font-weight:normal" x="700.264" y="236.677">
      <tspan x="700.264" y="236.677"></tspan>
    </text>
  </g>
  <g>
    <ellipse style="fill: #7f7f7f" cx="655.197" cy="177.759" rx="40.5673" ry="39.0336"/>
    <ellipse style="fill: none; fill-opacity:0; stroke-width: 2; stroke: #000000" cx="655.197" cy="177.759" rx="40.5673" ry="39.0336"/>
    <text font-size="11.2889" style="fill: #000000;text-anchor:middle;font-family:sans-serif;font-style:normal;font-weight:700" x="655.197" y="181.203">
      <tspan x="655.197" y="181.203">STANDBY</tspan>
    </text>
  </g>
  <line style="fill: none; fill-opacity:0; stroke-width: 2; stroke: #000000" x1="683.882" y1="205.36" x2="692.014" y2="220.634"/>
  <g>
    <path style="fill: none; fill-opacity:0; stroke-width: 2; stroke: #000000" d="M 452.888,160.338 A 74.1561,74.1561 0 0 0 370.442,162.822"/>
    <polyline style="fill: none; fill-opacity:0; stroke-width: 2; stroke: #000000" points="443.736,159.783 454.78,161.523 449.545,151.644 "/>
  </g>
  <g>
    <path style="fill: #90ee90" d="M 361.53 402.02 C 368.13,398.756 371.43,397.668 378.03,397.668 C 384.63,397.668 387.93,398.756 394.53,402.02 L 394.53,419.427 C 387.93,422.691 384.63,423.779 378.03,423.779 C 371.43,423.779 368.13,422.691 361.53,419.427 L 361.53,402.02z"/>
    <path style="fill: none; fill-opacity:0; stroke-width: 2; stroke: #000000" d="M 361.53 402.02 C 368.13,398.756 371.43,397.668 378.03,397.668 C 384.63,397.668 387.93,398.756 394.53,402.02 L 394.53,419.427 C 387.93,422.691 384.63,423.779 378.03,423.779 C 371.43,423.779 368.13,422.691 361.53,419.427 L 361.53,402.02"/>
    <path style="fill: none; fill-opacity:0; stroke-width: 2; stroke: #000000" d="M 361.53 402.02 C 368.13,405.284 371.43,406.372 378.03,406.372 C 384.63,406.372 387.93,405.284 394.53,402.02"/>
    <text font-size="5.64444" style="fill: #000000;text-anchor:middle;font-family:sans-serif;font-style:normal;font-weight:normal" x="378.03" y="414.663">
      <tspan x="378.03" y="414.663"></tspan>
    </text>
  </g>
  <g>
    <ellipse style="fill: #ffa500" cx="332.963" cy="355.746" rx="40.5673" ry="39.0336"/>
    <ellipse style="fill: none; fill-opacity:0; stroke-width: 2; stroke: #000000" cx="332.963" cy="355.746" rx="40.5673" ry="39.0336"/>
    <text font-size="11.2889" style="fill: #000000;text-anchor:middle;font-family:sans-serif;font-style:normal;font-weight:700" x="332.963" y="359.19">
      <tspan x="332.963" y="359.19">ACTIVE</tspan>
    </text>
  </g>
  <line style="fill: none; fill-opacity:0; stroke-width: 2; stroke: #000000" x1="361.648" y1="383.348" x2="369.78" y2="398.62"/>
  <g>
    <path style="fill: #90ee90" d="M 522.648 402.02 C 529.248,398.756 532.548,397.668 539.148,397.668 C 545.748,397.668 549.048,398.756 555.648,402.02 L 555.648,419.427 C 549.048,422.691 545.748,423.779 539.148,423.779 C 532.548,423.779 529.248,422.691 522.648,419.427 L 522.648,402.02z"/>
    <path style="fill: none; fill-opacity:0; stroke-width: 2; stroke: #000000" d="M 522.648 402.02 C 529.248,398.756 532.548,397.668 539.148,397.668 C 545.748,397.668 549.048,398.756 555.648,402.02 L 555.648,419.427 C 549.048,422.691 545.748,423.779 539.148,423.779 C 532.548,423.779 529.248,422.691 522.648,419.427 L 522.648,402.02"/>
    <path style="fill: none; fill-opacity:0; stroke-width: 2; stroke: #000000" d="M 522.648 402.02 C 529.248,405.284 532.548,406.372 539.148,406.372 C 545.748,406.372 549.048,405.284 555.648,402.02"/>
    <text font-size="5.64444" style="fill: #000000;text-anchor:middle;font-family:sans-serif;font-style:normal;font-weight:normal" x="539.148" y="414.663">
      <tspan x="539.148" y="414.663"></tspan>
    </text>
  </g>
  <g>
    <ellipse style="fill: #7f7f7f" cx="494.079" cy="355.746" rx="40.5673" ry="39.0336"/>
    <ellipse style="fill: none; fill-opacity:0; stroke-width: 2; stroke: #000000" cx="494.079" cy="355.746" rx="40.5673" ry="39.0336"/>
    <text font-size="11.2889" style="fill: #000000;text-anchor:middle;font-family:sans-serif;font-style:normal;font-weight:700" x="494.079" y="359.19">
      <tspan x="494.079" y="359.19">STANDBY</tspan>
    </text>
  </g>
  <line style="fill: none; fill-opacity:0; stroke-width: 2; stroke: #000000" x1="522.764" y1="383.348" x2="530.898" y2="398.62"/>
  <g>
    <path style="fill: #90ee90" d="M 683.764 402.02 C 690.364,398.756 693.664,397.668 700.264,397.668 C 706.864,397.668 710.164,398.756 716.764,402.02 L 716.764,419.427 C 710.164,422.691 706.864,423.779 700.264,423.779 C 693.664,423.779 690.364,422.691 683.764,419.427 L 683.764,402.02z"/>
    <path style="fill: none; fill-opacity:0; stroke-width: 2; stroke: #000000" d="M 683.764 402.02 C 690.364,398.756 693.664,397.668 700.264,397.668 C 706.864,397.668 710.164,398.756 716.764,402.02 L 716.764,419.427 C 710.164,422.691 706.864,423.779 700.264,423.779 C 693.664,423.779 690.364,422.691 683.764,419.427 L 683.764,402.02"/>
    <path style="fill: none; fill-opacity:0; stroke-width: 2; stroke: #000000" d="M 683.764 402.02 C 690.364,405.284 693.664,406.372 700.264,406.372 C 706.864,406.372 710.164,405.284 716.764,402.02"/>
    <text font-size="5.64444" style="fill: #000000;text-anchor:middle;font-family:sans-serif;font-style:normal;font-weight:normal" x="700.264" y="414.663">
      <tspan x="700.264" y="414.663"></tspan>
    </text>
  </g>
  <g>
    <ellipse style="fill: #ffa500" cx="655.197" cy="355.746" rx="40.5673" ry="39.0336"/>
    <ellipse style="fill: none; fill-opacity:0; stroke-width: 2; stroke: #000000" cx="655.197" cy="355.746" rx="40.5673" ry="39.0336"/>
    <text font-size="11.2889" style="fill: #000000;text-anchor:middle;font-family:sans-serif;font-style:normal;font-weight:700" x="655.197" y="359.19">
      <tspan x="655.197" y="359.19">STANDBY</tspan>
    </text>
  </g>
  <line style="fill: none; fill-opacity:0; stroke-width: 2; stroke: #000000" x1="683.882" y1="383.348" x2="692.014" y2="398.62"/>
  <g>
    <path style="fill: none; fill-opacity:0; stroke-width: 2; stroke: #000000" d="M 613.788,338.675 A 291.364,291.364 0 0 0 361.648,328.146"/>
    <polyline style="fill: none; fill-opacity:0; stroke-width: 2; stroke: #000000" points="604.59,339.264 615.761,339.726 609.428,330.512 "/>
  </g>
  <text font-size="15.24" style="fill: #000000;text-anchor:middle;font-family:sans-serif;font-style:normal;font-weight:700" x="158.937" y="174.875">
    <tspan x="158.937" y="174.875">Admin</tspan>
    <tspan x="158.937" y="193.925">Case #A-2</tspan>
  </text>
  <text font-size="15.24" style="fill: #000000;text-anchor:middle;font-family:sans-serif;font-style:normal;font-weight:700" x="158.937" y="355.746">
    <tspan x="158.937" y="355.746">Admin</tspan>
    <tspan x="158.937" y="374.796">Case #A-3</tspan>
  </text>
  <text font-size="15.24" style="fill: #000000;text-anchor:middle;font-family:sans-serif;font-style:normal;font-weight:700" x="158.937" y="536.618">
    <tspan x="158.937" y="536.618">Admin</tspan>
    <tspan x="158.937" y="555.668">Case #A-4</tspan>
  </text>
</svg>
