<?xml version="1.0" encoding="UTF-8" standalone="no"?>
<!DOCTYPE svg PUBLIC "-//W3C//DTD SVG 1.0//EN" "http://www.w3.org/TR/2001/PR-SVG-20010719/DTD/svg10.dtd">
<svg width="28cm" height="25cm" viewBox="29 117 543 491" xmlns="http://www.w3.org/2000/svg" xmlns:xlink="http://www.w3.org/1999/xlink">
  <g>
    <g>
      <path style="fill: #90ee90" d="M 215.718 203.524 C 222.318,200.261 225.618,199.173 232.218,199.173 C 238.818,199.173 242.118,200.261 248.718,203.524 L 248.718,220.932 C 242.118,224.196 238.818,225.284 232.218,225.284 C 225.618,225.284 222.318,224.196 215.718,220.932 L 215.718,203.524z"/>
      <path style="fill: none; fill-opacity:0; stroke-width: 2; stroke: #000000" d="M 215.718 203.524 C 222.318,200.261 225.618,199.173 232.218,199.173 C 238.818,199.173 242.118,200.261 248.718,203.524 L 248.718,220.932 C 242.118,224.196 238.818,225.284 232.218,225.284 C 225.618,225.284 222.318,224.196 215.718,220.932 L 215.718,203.524"/>
      <path style="fill: none; fill-opacity:0; stroke-width: 2; stroke: #000000" d="M 215.718 203.524 C 222.318,206.788 225.618,207.876 232.218,207.876 C 238.818,207.876 242.118,206.788 248.718,203.524"/>
      <text font-size="5.64444" style="fill: #000000;text-anchor:middle;font-family:sans-serif;font-style:normal;font-weight:normal" x="232.218" y="216.168">
        <tspan x="232.218" y="216.168"></tspan>
      </text>
    </g>
    <g>
      <ellipse style="fill: #add8e6" cx="187.15" cy="157.25" rx="40.5673" ry="39.0336"/>
      <ellipse style="fill: none; fill-opacity:0; stroke-width: 2; stroke: #000000" cx="187.15" cy="157.25" rx="40.5673" ry="39.0336"/>
      <text font-size="16.9333" style="fill: #000000;text-anchor:middle;font-family:sans-serif;font-style:normal;font-weight:700" x="187.15" y="162.417">
        <tspan x="187.15" y="162.417">HEAD</tspan>
      </text>
    </g>
    <line style="fill: none; fill-opacity:0; stroke-width: 2; stroke: #000000" x1="215.836" y1="184.851" x2="223.968" y2="200.124"/>
    <g>
      <path style="fill: #90ee90" d="M 376.836 203.524 C 383.436,200.261 386.736,199.173 393.336,199.173 C 399.936,199.173 403.236,200.261 409.836,203.524 L 409.836,220.932 C 403.236,224.196 399.936,225.284 393.336,225.284 C 386.736,225.284 383.436,224.196 376.836,220.932 L 376.836,203.524z"/>
      <path style="fill: none; fill-opacity:0; stroke-width: 2; stroke: #000000" d="M 376.836 203.524 C 383.436,200.261 386.736,199.173 393.336,199.173 C 399.936,199.173 403.236,200.261 409.836,203.524 L 409.836,220.932 C 403.236,224.196 399.936,225.284 393.336,225.284 C 386.736,225.284 383.436,224.196 376.836,220.932 L 376.836,203.524"/>
      <path style="fill: none; fill-opacity:0; stroke-width: 2; stroke: #000000" d="M 376.836 203.524 C 383.436,206.788 386.736,207.876 393.336,207.876 C 399.936,207.876 403.236,206.788 409.836,203.524"/>
      <text font-size="5.64444" style="fill: #000000;text-anchor:middle;font-family:sans-serif;font-style:normal;font-weight:normal" x="393.336" y="216.168">
        <tspan x="393.336" y="216.168"></tspan>
      </text>
    </g>
    <g>
      <ellipse style="fill: #add8e6" cx="348.267" cy="157.25" rx="40.5673" ry="39.0336"/>
      <ellipse style="fill: none; fill-opacity:0; stroke-width: 2; stroke: #000000" cx="348.267" cy="157.25" rx="40.5673" ry="39.0336"/>
      <text font-size="11.2889" style="fill: #000000;text-anchor:middle;font-family:sans-serif;font-style:normal;font-weight:700" x="348.267" y="160.694">
        <tspan x="348.267" y="160.694">MIDDLE</tspan>
      </text>
    </g>
    <line style="fill: none; fill-opacity:0; stroke-width: 2; stroke: #000000" x1="376.952" y1="184.851" x2="385.086" y2="200.124"/>
    <g>
      <path style="fill: #90ee90" d="M 537.952 203.524 C 544.552,200.261 547.852,199.173 554.452,199.173 C 561.052,199.173 564.352,200.261 570.952,203.524 L 570.952,220.932 C 564.352,224.196 561.052,225.284 554.452,225.284 C 547.852,225.284 544.552,224.196 537.952,220.932 L 537.952,203.524z"/>
      <path style="fill: none; fill-opacity:0; stroke-width: 2; stroke: #000000" d="M 537.952 203.524 C 544.552,200.261 547.852,199.173 554.452,199.173 C 561.052,199.173 564.352,200.261 570.952,203.524 L 570.952,220.932 C 564.352,224.196 561.052,225.284 554.452,225.284 C 547.852,225.284 544.552,224.196 537.952,220.932 L 537.952,203.524"/>
      <path style="fill: none; fill-opacity:0; stroke-width: 2; stroke: #000000" d="M 537.952 203.524 C 544.552,206.788 547.852,207.876 554.452,207.876 C 561.052,207.876 564.352,206.788 570.952,203.524"/>
      <text font-size="5.64444" style="fill: #000000;text-anchor:middle;font-family:sans-serif;font-style:normal;font-weight:normal" x="554.452" y="216.168">
        <tspan x="554.452" y="216.168"></tspan>
      </text>
    </g>
    <g>
      <ellipse style="fill: #add8e6" cx="509.385" cy="157.25" rx="40.5673" ry="39.0336"/>
      <ellipse style="fill: none; fill-opacity:0; stroke-width: 2; stroke: #000000" cx="509.385" cy="157.25" rx="40.5673" ry="39.0336"/>
      <text font-size="16.9333" style="fill: #000000;text-anchor:middle;font-family:sans-serif;font-style:normal;font-weight:700" x="509.385" y="162.417">
        <tspan x="509.385" y="162.417">TAIL</tspan>
      </text>
    </g>
    <line style="fill: none; fill-opacity:0; stroke-width: 2; stroke: #000000" x1="538.07" y1="184.851" x2="546.202" y2="200.124"/>
    <g>
      <line style="fill: none; fill-opacity:0; stroke-width: 2; stroke: #000000" x1="227.718" y1="157.25" x2="303.228" y2="157.25"/>
      <polyline style="fill: none; fill-opacity:0; stroke-width: 2; stroke: #000000" points="295.464,162.25 305.464,157.25 295.464,152.25 "/>
    </g>
    <g>
      <line style="fill: none; fill-opacity:0; stroke-width: 2; stroke: #000000" x1="388.834" y1="157.25" x2="464.346" y2="157.25"/>
      <polyline style="fill: none; fill-opacity:0; stroke-width: 2; stroke: #000000" points="456.582,162.25 466.582,157.25 456.582,152.25 "/>
    </g>
    <g>
      <line style="fill: none; fill-opacity:0; stroke-width: 2; stroke-dasharray: 6; stroke: #000000" x1="229.102" y1="142.313" x2="310.788" y2="142.313"/>
      <polyline style="fill: none; fill-opacity:0; stroke-width: 2; stroke: #000000" points="236.866,137.313 226.866,142.313 236.866,147.313 "/>
    </g>
    <g>
      <line style="fill: none; fill-opacity:0; stroke-width: 2; stroke-dasharray: 6; stroke: #000000" x1="390.218" y1="142.313" x2="471.906" y2="142.313"/>
      <polyline style="fill: none; fill-opacity:0; stroke-width: 2; stroke: #000000" points="397.982,137.313 387.982,142.313 397.982,147.313 "/>
    </g>
  </g>
  <g>
    <path style="fill: #90ee90" d="M 215.718 330.676 C 222.318,327.412 225.618,326.324 232.218,326.324 C 238.818,326.324 242.118,327.412 248.718,330.676 L 248.718,348.083 C 242.118,351.347 238.818,352.435 232.218,352.435 C 225.618,352.435 222.318,351.347 215.718,348.083 L 215.718,330.676z"/>
    <path style="fill: none; fill-opacity:0; stroke-width: 2; stroke: #000000" d="M 215.718 330.676 C 222.318,327.412 225.618,326.324 232.218,326.324 C 238.818,326.324 242.118,327.412 248.718,330.676 L 248.718,348.083 C 242.118,351.347 238.818,352.435 232.218,352.435 C 225.618,352.435 222.318,351.347 215.718,348.083 L 215.718,330.676"/>
    <path style="fill: none; fill-opacity:0; stroke-width: 2; stroke: #000000" d="M 215.718 330.676 C 222.318,333.94 225.618,335.028 232.218,335.028 C 238.818,335.028 242.118,333.94 248.718,330.676"/>
    <text font-size="5.64444" style="fill: #000000;text-anchor:middle;font-family:sans-serif;font-style:normal;font-weight:normal" x="232.218" y="343.319">
      <tspan x="232.218" y="343.319"></tspan>
    </text>
  </g>
  <g>
    <ellipse style="fill: #add8e6" cx="187.15" cy="284.402" rx="40.5673" ry="39.0336"/>
    <ellipse style="fill: none; fill-opacity:0; stroke-width: 2; stroke: #000000" cx="187.15" cy="284.402" rx="40.5673" ry="39.0336"/>
    <text font-size="16.9333" style="fill: #000000;text-anchor:middle;font-family:sans-serif;font-style:normal;font-weight:700" x="187.15" y="289.568">
      <tspan x="187.15" y="289.568">HEAD</tspan>
    </text>
  </g>
  <line style="fill: none; fill-opacity:0; stroke-width: 2; stroke: #000000" x1="215.836" y1="312.002" x2="223.968" y2="327.276"/>
  <g>
    <path style="fill: #90ee90" d="M 376.836 330.676 C 383.436,327.412 386.736,326.324 393.336,326.324 C 399.936,326.324 403.236,327.412 409.836,330.676 L 409.836,348.083 C 403.236,351.347 399.936,352.435 393.336,352.435 C 386.736,352.435 383.436,351.347 376.836,348.083 L 376.836,330.676z"/>
    <path style="fill: none; fill-opacity:0; stroke-width: 2; stroke: #000000" d="M 376.836 330.676 C 383.436,327.412 386.736,326.324 393.336,326.324 C 399.936,326.324 403.236,327.412 409.836,330.676 L 409.836,348.083 C 403.236,351.347 399.936,352.435 393.336,352.435 C 386.736,352.435 383.436,351.347 376.836,348.083 L 376.836,330.676"/>
    <path style="fill: none; fill-opacity:0; stroke-width: 2; stroke: #000000" d="M 376.836 330.676 C 383.436,333.94 386.736,335.028 393.336,335.028 C 399.936,335.028 403.236,333.94 409.836,330.676"/>
    <text font-size="5.64444" style="fill: #000000;text-anchor:middle;font-family:sans-serif;font-style:normal;font-weight:normal" x="393.336" y="343.319">
      <tspan x="393.336" y="343.319"></tspan>
    </text>
  </g>
  <g>
    <ellipse style="fill: #add8e6" cx="348.267" cy="284.402" rx="40.5673" ry="39.0336"/>
    <ellipse style="fill: none; fill-opacity:0; stroke-width: 2; stroke: #000000" cx="348.267" cy="284.402" rx="40.5673" ry="39.0336"/>
    <text font-size="16.9333" style="fill: #000000;text-anchor:middle;font-family:sans-serif;font-style:normal;font-weight:700" x="348.267" y="289.568">
      <tspan x="348.267" y="289.568">TAIL</tspan>
    </text>
  </g>
  <line style="fill: none; fill-opacity:0; stroke-width: 2; stroke: #000000" x1="376.952" y1="312.002" x2="385.086" y2="327.276"/>
  <g>
    <path style="fill: #90ee90" d="M 537.952 330.676 C 544.552,327.412 547.852,326.324 554.452,326.324 C 561.052,326.324 564.352,327.412 570.952,330.676 L 570.952,348.083 C 564.352,351.347 561.052,352.435 554.452,352.435 C 547.852,352.435 544.552,351.347 537.952,348.083 L 537.952,330.676z"/>
    <path style="fill: none; fill-opacity:0; stroke-width: 2; stroke: #000000" d="M 537.952 330.676 C 544.552,327.412 547.852,326.324 554.452,326.324 C 561.052,326.324 564.352,327.412 570.952,330.676 L 570.952,348.083 C 564.352,351.347 561.052,352.435 554.452,352.435 C 547.852,352.435 544.552,351.347 537.952,348.083 L 537.952,330.676"/>
    <path style="fill: none; fill-opacity:0; stroke-width: 2; stroke: #000000" d="M 537.952 330.676 C 544.552,333.94 547.852,335.028 554.452,335.028 C 561.052,335.028 564.352,333.94 570.952,330.676"/>
    <text font-size="5.64444" style="fill: #000000;text-anchor:middle;font-family:sans-serif;font-style:normal;font-weight:normal" x="554.452" y="343.319">
      <tspan x="554.452" y="343.319"></tspan>
    </text>
  </g>
  <g>
    <ellipse style="fill: #7f7f7f" cx="509.385" cy="284.402" rx="40.5673" ry="39.0336"/>
    <ellipse style="fill: none; fill-opacity:0; stroke-width: 2; stroke: #000000" cx="509.385" cy="284.402" rx="40.5673" ry="39.0336"/>
    <text font-size="16.9333" style="fill: #000000;text-anchor:middle;font-family:sans-serif;font-style:normal;font-weight:700" x="509.385" y="289.568">
      <tspan x="509.385" y="289.568">TAIL</tspan>
    </text>
  </g>
  <line style="fill: none; fill-opacity:0; stroke-width: 2; stroke: #000000" x1="538.07" y1="312.002" x2="546.202" y2="327.276"/>
  <g>
    <line style="fill: none; fill-opacity:0; stroke-width: 2; stroke: #000000" x1="227.718" y1="284.402" x2="303.228" y2="284.402"/>
    <polyline style="fill: none; fill-opacity:0; stroke-width: 2; stroke: #000000" points="295.464,289.402 305.464,284.402 295.464,279.402 "/>
  </g>
  <g>
    <line style="fill: none; fill-opacity:0; stroke-width: 2; stroke-dasharray: 6; stroke: #000000" x1="229.102" y1="269.464" x2="310.788" y2="269.464"/>
    <polyline style="fill: none; fill-opacity:0; stroke-width: 2; stroke: #000000" points="236.866,264.464 226.866,269.464 236.866,274.464 "/>
  </g>
  <g>
    <path style="fill: #90ee90" d="M 215.718 457.828 C 222.318,454.564 225.618,453.476 232.218,453.476 C 238.818,453.476 242.118,454.564 248.718,457.828 L 248.718,475.235 C 242.118,478.499 238.818,479.587 232.218,479.587 C 225.618,479.587 222.318,478.499 215.718,475.235 L 215.718,457.828z"/>
    <path style="fill: none; fill-opacity:0; stroke-width: 2; stroke: #000000" d="M 215.718 457.828 C 222.318,454.564 225.618,453.476 232.218,453.476 C 238.818,453.476 242.118,454.564 248.718,457.828 L 248.718,475.235 C 242.118,478.499 238.818,479.587 232.218,479.587 C 225.618,479.587 222.318,478.499 215.718,475.235 L 215.718,457.828"/>
    <path style="fill: none; fill-opacity:0; stroke-width: 2; stroke: #000000" d="M 215.718 457.828 C 222.318,461.092 225.618,462.18 232.218,462.18 C 238.818,462.18 242.118,461.092 248.718,457.828"/>
    <text font-size="5.64444" style="fill: #000000;text-anchor:middle;font-family:sans-serif;font-style:normal;font-weight:normal" x="232.218" y="470.471">
      <tspan x="232.218" y="470.471"></tspan>
    </text>
  </g>
  <g>
    <ellipse style="fill: #add8e6" cx="187.15" cy="411.554" rx="40.5673" ry="39.0336"/>
    <ellipse style="fill: none; fill-opacity:0; stroke-width: 2; stroke: #000000" cx="187.15" cy="411.554" rx="40.5673" ry="39.0336"/>
    <text font-size="16.9333" style="fill: #000000;text-anchor:middle;font-family:sans-serif;font-style:normal;font-weight:700" x="187.15" y="416.72">
      <tspan x="187.15" y="416.72">HDTL</tspan>
    </text>
  </g>
  <line style="fill: none; fill-opacity:0; stroke-width: 2; stroke: #000000" x1="215.836" y1="439.154" x2="223.968" y2="454.428"/>
  <g>
    <path style="fill: #90ee90" d="M 376.836 457.828 C 383.436,454.564 386.736,453.476 393.336,453.476 C 399.936,453.476 403.236,454.564 409.836,457.828 L 409.836,475.235 C 403.236,478.499 399.936,479.587 393.336,479.587 C 386.736,479.587 383.436,478.499 376.836,475.235 L 376.836,457.828z"/>
    <path style="fill: none; fill-opacity:0; stroke-width: 2; stroke: #000000" d="M 376.836 457.828 C 383.436,454.564 386.736,453.476 393.336,453.476 C 399.936,453.476 403.236,454.564 409.836,457.828 L 409.836,475.235 C 403.236,478.499 399.936,479.587 393.336,479.587 C 386.736,479.587 383.436,478.499 376.836,475.235 L 376.836,457.828"/>
    <path style="fill: none; fill-opacity:0; stroke-width: 2; stroke: #000000" d="M 376.836 457.828 C 383.436,461.092 386.736,462.18 393.336,462.18 C 399.936,462.18 403.236,461.092 409.836,457.828"/>
    <text font-size="5.64444" style="fill: #000000;text-anchor:middle;font-family:sans-serif;font-style:normal;font-weight:normal" x="393.336" y="470.471">
      <tspan x="393.336" y="470.471"></tspan>
    </text>
  </g>
  <g>
    <ellipse style="fill: #7f7f7f" cx="348.267" cy="411.554" rx="40.5673" ry="39.0336"/>
    <ellipse style="fill: none; fill-opacity:0; stroke-width: 2; stroke: #000000" cx="348.267" cy="411.554" rx="40.5673" ry="39.0336"/>
    <text font-size="11.2889" style="fill: #000000;text-anchor:middle;font-family:sans-serif;font-style:normal;font-weight:700" x="348.267" y="414.998">
      <tspan x="348.267" y="414.998">MIDDLE</tspan>
    </text>
  </g>
  <line style="fill: none; fill-opacity:0; stroke-width: 2; stroke: #000000" x1="376.952" y1="439.154" x2="385.086" y2="454.428"/>
  <g>
    <path style="fill: #90ee90" d="M 537.952 457.828 C 544.552,454.564 547.852,453.476 554.452,453.476 C 561.052,453.476 564.352,454.564 570.952,457.828 L 570.952,475.235 C 564.352,478.499 561.052,479.587 554.452,479.587 C 547.852,479.587 544.552,478.499 537.952,475.235 L 537.952,457.828z"/>
    <path style="fill: none; fill-opacity:0; stroke-width: 2; stroke: #000000" d="M 537.952 457.828 C 544.552,454.564 547.852,453.476 554.452,453.476 C 561.052,453.476 564.352,454.564 570.952,457.828 L 570.952,475.235 C 564.352,478.499 561.052,479.587 554.452,479.587 C 547.852,479.587 544.552,478.499 537.952,475.235 L 537.952,457.828"/>
    <path style="fill: none; fill-opacity:0; stroke-width: 2; stroke: #000000" d="M 537.952 457.828 C 544.552,461.092 547.852,462.18 554.452,462.18 C 561.052,462.18 564.352,461.092 570.952,457.828"/>
    <text font-size="5.64444" style="fill: #000000;text-anchor:middle;font-family:sans-serif;font-style:normal;font-weight:normal" x="554.452" y="470.471">
      <tspan x="554.452" y="470.471"></tspan>
    </text>
  </g>
  <g>
    <ellipse style="fill: #7f7f7f" cx="509.385" cy="411.554" rx="40.5673" ry="39.0336"/>
    <ellipse style="fill: none; fill-opacity:0; stroke-width: 2; stroke: #000000" cx="509.385" cy="411.554" rx="40.5673" ry="39.0336"/>
    <text font-size="16.9333" style="fill: #000000;text-anchor:middle;font-family:sans-serif;font-style:normal;font-weight:700" x="509.385" y="416.72">
      <tspan x="509.385" y="416.72">TAIL</tspan>
    </text>
  </g>
  <line style="fill: none; fill-opacity:0; stroke-width: 2; stroke: #000000" x1="538.07" y1="439.154" x2="546.202" y2="454.428"/>
  <g>
    <line style="fill: none; fill-opacity:0; stroke-width: 2; stroke: #000000" x1="388.834" y1="411.554" x2="464.346" y2="411.554"/>
    <polyline style="fill: none; fill-opacity:0; stroke-width: 2; stroke: #000000" points="456.582,416.554 466.582,411.554 456.582,406.554 "/>
  </g>
  <g>
    <line style="fill: none; fill-opacity:0; stroke-width: 2; stroke-dasharray: 6; stroke: #000000" x1="390.218" y1="396.616" x2="471.906" y2="396.616"/>
    <polyline style="fill: none; fill-opacity:0; stroke-width: 2; stroke: #000000" points="397.982,391.616 387.982,396.616 397.982,401.616 "/>
  </g>
  <text font-size="15.24" style="fill: #000000;text-anchor:middle;font-family:sans-serif;font-style:normal;font-weight:700" x="73.158" y="155.284">
    <tspan x="73.158" y="155.284">Chain</tspan>
    <tspan x="73.158" y="174.334">Case #B-1</tspan>
  </text>
  <text font-size="15.24" style="fill: #000000;text-anchor:middle;font-family:sans-serif;font-style:normal;font-weight:700" x="73.158" y="279.66">
    <tspan x="73.158" y="279.66">Chain</tspan>
    <tspan x="73.158" y="298.71">Case #B-2</tspan>
  </text>
  <text font-size="15.24" style="fill: #000000;text-anchor:middle;font-family:sans-serif;font-style:normal;font-weight:700" x="73.158" y="404.7">
    <tspan x="73.158" y="404.7">Chain</tspan>
    <tspan x="73.158" y="423.75">Case #B-3</tspan>
  </text>
  <g>
    <path style="fill: #90ee90" d="M 215.718 584.98 C 222.318,581.716 225.618,580.628 232.218,580.628 C 238.818,580.628 242.118,581.716 248.718,584.98 L 248.718,602.387 C 242.118,605.651 238.818,606.739 232.218,606.739 C 225.618,606.739 222.318,605.651 215.718,602.387 L 215.718,584.98z"/>
    <path style="fill: none; fill-opacity:0; stroke-width: 2; stroke: #000000" d="M 215.718 584.98 C 222.318,581.716 225.618,580.628 232.218,580.628 C 238.818,580.628 242.118,581.716 248.718,584.98 L 248.718,602.387 C 242.118,605.651 238.818,606.739 232.218,606.739 C 225.618,606.739 222.318,605.651 215.718,602.387 L 215.718,584.98"/>
    <path style="fill: none; fill-opacity:0; stroke-width: 2; stroke: #000000" d="M 215.718 584.98 C 222.318,588.244 225.618,589.332 232.218,589.332 C 238.818,589.332 242.118,588.244 248.718,584.98"/>
    <text font-size="5.64444" style="fill: #000000;text-anchor:middle;font-family:sans-serif;font-style:normal;font-weight:normal" x="232.218" y="597.623">
      <tspan x="232.218" y="597.623"></tspan>
    </text>
  </g>
  <g>
    <ellipse style="fill: #7f7f7f" cx="187.15" cy="538.706" rx="40.5673" ry="39.0336"/>
    <ellipse style="fill: none; fill-opacity:0; stroke-width: 2; stroke: #000000" cx="187.15" cy="538.706" rx="40.5673" ry="39.0336"/>
    <text font-size="16.9333" style="fill: #000000;text-anchor:middle;font-family:sans-serif;font-style:normal;font-weight:700" x="187.15" y="543.872">
      <tspan x="187.15" y="543.872">HEAD</tspan>
    </text>
  </g>
  <line style="fill: none; fill-opacity:0; stroke-width: 2; stroke: #000000" x1="215.836" y1="566.306" x2="223.968" y2="581.58"/>
  <g>
    <path style="fill: #90ee90" d="M 376.836 584.98 C 383.436,581.716 386.736,580.628 393.336,580.628 C 399.936,580.628 403.236,581.716 409.836,584.98 L 409.836,602.387 C 403.236,605.651 399.936,606.739 393.336,606.739 C 386.736,606.739 383.436,605.651 376.836,602.387 L 376.836,584.98z"/>
    <path style="fill: none; fill-opacity:0; stroke-width: 2; stroke: #000000" d="M 376.836 584.98 C 383.436,581.716 386.736,580.628 393.336,580.628 C 399.936,580.628 403.236,581.716 409.836,584.98 L 409.836,602.387 C 403.236,605.651 399.936,606.739 393.336,606.739 C 386.736,606.739 383.436,605.651 376.836,602.387 L 376.836,584.98"/>
    <path style="fill: none; fill-opacity:0; stroke-width: 2; stroke: #000000" d="M 376.836 584.98 C 383.436,588.244 386.736,589.332 393.336,589.332 C 399.936,589.332 403.236,588.244 409.836,584.98"/>
    <text font-size="5.64444" style="fill: #000000;text-anchor:middle;font-family:sans-serif;font-style:normal;font-weight:normal" x="393.336" y="597.623">
      <tspan x="393.336" y="597.623"></tspan>
    </text>
  </g>
  <g>
    <ellipse style="fill: #7f7f7f" cx="348.267" cy="538.706" rx="40.5673" ry="39.0336"/>
    <ellipse style="fill: none; fill-opacity:0; stroke-width: 2; stroke: #000000" cx="348.267" cy="538.706" rx="40.5673" ry="39.0336"/>
    <text font-size="11.2889" style="fill: #000000;text-anchor:middle;font-family:sans-serif;font-style:normal;font-weight:700" x="348.267" y="542.15">
      <tspan x="348.267" y="542.15">MIDDLE</tspan>
    </text>
  </g>
  <line style="fill: none; fill-opacity:0; stroke-width: 2; stroke: #000000" x1="376.952" y1="566.306" x2="385.086" y2="581.58"/>
  <g>
    <path style="fill: #90ee90" d="M 537.952 584.98 C 544.552,581.716 547.852,580.628 554.452,580.628 C 561.052,580.628 564.352,581.716 570.952,584.98 L 570.952,602.387 C 564.352,605.651 561.052,606.739 554.452,606.739 C 547.852,606.739 544.552,605.651 537.952,602.387 L 537.952,584.98z"/>
    <path style="fill: none; fill-opacity:0; stroke-width: 2; stroke: #000000" d="M 537.952 584.98 C 544.552,581.716 547.852,580.628 554.452,580.628 C 561.052,580.628 564.352,581.716 570.952,584.98 L 570.952,602.387 C 564.352,605.651 561.052,606.739 554.452,606.739 C 547.852,606.739 544.552,605.651 537.952,602.387 L 537.952,584.98"/>
    <path style="fill: none; fill-opacity:0; stroke-width: 2; stroke: #000000" d="M 537.952 584.98 C 544.552,588.244 547.852,589.332 554.452,589.332 C 561.052,589.332 564.352,588.244 570.952,584.98"/>
    <text font-size="5.64444" style="fill: #000000;text-anchor:middle;font-family:sans-serif;font-style:normal;font-weight:normal" x="554.452" y="597.623">
      <tspan x="554.452" y="597.623"></tspan>
    </text>
  </g>
  <g>
    <ellipse style="fill: #7f7f7f" cx="509.385" cy="538.706" rx="40.5673" ry="39.0336"/>
    <ellipse style="fill: none; fill-opacity:0; stroke-width: 2; stroke: #000000" cx="509.385" cy="538.706" rx="40.5673" ry="39.0336"/>
    <text font-size="16.9333" style="fill: #000000;text-anchor:middle;font-family:sans-serif;font-style:normal;font-weight:700" x="509.385" y="543.872">
      <tspan x="509.385" y="543.872">TAIL</tspan>
    </text>
  </g>
  <line style="fill: none; fill-opacity:0; stroke-width: 2; stroke: #000000" x1="538.07" y1="566.306" x2="546.202" y2="581.58"/>
  <g>
    <line style="fill: none; fill-opacity:0; stroke-width: 2; stroke: #000000" x1="227.718" y1="538.706" x2="303.228" y2="538.706"/>
    <polyline style="fill: none; fill-opacity:0; stroke-width: 2; stroke: #000000" points="295.464,543.706 305.464,538.706 295.464,533.706 "/>
  </g>
  <g>
    <line style="fill: none; fill-opacity:0; stroke-width: 2; stroke: #000000" x1="388.834" y1="538.706" x2="464.346" y2="538.706"/>
    <polyline style="fill: none; fill-opacity:0; stroke-width: 2; stroke: #000000" points="456.582,543.706 466.582,538.706 456.582,533.706 "/>
  </g>
  <g>
    <line style="fill: none; fill-opacity:0; stroke-width: 2; stroke-dasharray: 6; stroke: #000000" x1="229.102" y1="523.768" x2="310.788" y2="523.768"/>
    <polyline style="fill: none; fill-opacity:0; stroke-width: 2; stroke: #000000" points="236.866,518.768 226.866,523.768 236.866,528.768 "/>
  </g>
  <g>
    <line style="fill: none; fill-opacity:0; stroke-width: 2; stroke-dasharray: 6; stroke: #000000" x1="390.218" y1="523.768" x2="471.906" y2="523.768"/>
    <polyline style="fill: none; fill-opacity:0; stroke-width: 2; stroke: #000000" points="397.982,518.768 387.982,523.768 397.982,528.768 "/>
  </g>
  <text font-size="15.24" style="fill: #000000;text-anchor:middle;font-family:sans-serif;font-style:normal;font-weight:700" x="73.158" y="529.076">
    <tspan x="73.158" y="529.076">Chain</tspan>
    <tspan x="73.158" y="548.126">Case #B-4</tspan>
  </text>
</svg>
