<?xml version="1.0" encoding="UTF-8" standalone="no"?>
<!DOCTYPE svg PUBLIC "-//W3C//DTD SVG 1.0//EN" "http://www.w3.org/TR/2001/PR-SVG-20010719/DTD/svg10.dtd">
<svg width="28cm" height="32cm" viewBox="38 -36 547 640" xmlns="http://www.w3.org/2000/svg" xmlns:xlink="http://www.w3.org/1999/xlink">
  <g>
    <path style="fill: none; fill-opacity:0; stroke-width: 2; stroke-dasharray: 6; stroke: #000000" d="M 232.204,22.6926 A 542.242,542.242 0 0 0 479.508,129.649"/>
    <polyline style="fill: none; fill-opacity:0; stroke-width: 2; stroke: #000000" points="241.385,23.5867 230.436,21.323 235.194,31.4402 "/>
  </g>
  <g>
    <path style="fill: none; fill-opacity:0; stroke-width: 2; stroke-dasharray: 6; stroke: #000000" d="M 223.233,35.5682 A 6949.67,6949.67 0 0 0 479.508,251.72"/>
    <polyline style="fill: none; fill-opacity:0; stroke-width: 2; stroke: #000000" points="232.358,36.9793 221.559,34.0857 225.724,44.4614 "/>
  </g>
  <g>
    <path style="fill: none; fill-opacity:0; stroke-width: 2; stroke-dasharray: 6; stroke: #000000" d="M 208.999,44.9136 A 1397.58,1397.58 0 0 0 479.508,373.79"/>
    <polyline style="fill: none; fill-opacity:0; stroke-width: 2; stroke: #000000" points="217.241,49.0704 207.859,42.9904 208.624,54.1445 "/>
  </g>
  <g>
    <g>
      <path style="fill: #90ee90" d="M 214.526 203.524 C 221.126,200.261 224.426,199.173 231.026,199.173 C 237.626,199.173 240.926,200.261 247.526,203.524 L 247.526,220.932 C 240.926,224.196 237.626,225.284 231.026,225.284 C 224.426,225.284 221.126,224.196 214.526,220.932 L 214.526,203.524z"/>
      <path style="fill: none; fill-opacity:0; stroke-width: 2; stroke: #000000" d="M 214.526 203.524 C 221.126,200.261 224.426,199.173 231.026,199.173 C 237.626,199.173 240.926,200.261 247.526,203.524 L 247.526,220.932 C 240.926,224.196 237.626,225.284 231.026,225.284 C 224.426,225.284 221.126,224.196 214.526,220.932 L 214.526,203.524"/>
      <path style="fill: none; fill-opacity:0; stroke-width: 2; stroke: #000000" d="M 214.526 203.524 C 221.126,206.788 224.426,207.876 231.026,207.876 C 237.626,207.876 240.926,206.788 247.526,203.524"/>
      <text style="fill: #000000;text-anchor:middle;font-size:5.64444;font-family:sanserif;font-style:normal;font-weight:normal" x="231.026" y="217.226">
        <tspan x="231.026" y="217.226"></tspan>
      </text>
    </g>
    <g>
      <ellipse style="fill: #add8e6" cx="185.959" cy="157.25" rx="40.5673" ry="39.0336"/>
      <ellipse style="fill: none; fill-opacity:0; stroke-width: 2; stroke: #000000" cx="185.959" cy="157.25" rx="40.5673" ry="39.0336"/>
      <text style="fill: #000000;text-anchor:middle;font-size:16.9333;font-family:sanserif;font-style:normal;font-weight:700" x="185.959" y="162.417">
        <tspan x="185.959" y="162.417">HEAD</tspan>
      </text>
    </g>
    <line style="fill: none; fill-opacity:0; stroke-width: 2; stroke: #000000" x1="214.644" y1="184.851" x2="222.776" y2="200.124"/>
    <g>
      <path style="fill: #90ee90" d="M 375.644 203.524 C 382.244,200.261 385.544,199.173 392.144,199.173 C 398.744,199.173 402.044,200.261 408.644,203.524 L 408.644,220.932 C 402.044,224.196 398.744,225.284 392.144,225.284 C 385.544,225.284 382.244,224.196 375.644,220.932 L 375.644,203.524z"/>
      <path style="fill: none; fill-opacity:0; stroke-width: 2; stroke: #000000" d="M 375.644 203.524 C 382.244,200.261 385.544,199.173 392.144,199.173 C 398.744,199.173 402.044,200.261 408.644,203.524 L 408.644,220.932 C 402.044,224.196 398.744,225.284 392.144,225.284 C 385.544,225.284 382.244,224.196 375.644,220.932 L 375.644,203.524"/>
      <path style="fill: none; fill-opacity:0; stroke-width: 2; stroke: #000000" d="M 375.644 203.524 C 382.244,206.788 385.544,207.876 392.144,207.876 C 398.744,207.876 402.044,206.788 408.644,203.524"/>
      <text style="fill: #000000;text-anchor:middle;font-size:5.64444;font-family:sanserif;font-style:normal;font-weight:normal" x="392.144" y="217.226">
        <tspan x="392.144" y="217.226"></tspan>
      </text>
    </g>
    <g>
      <ellipse style="fill: #add8e6" cx="347.075" cy="157.25" rx="40.5673" ry="39.0336"/>
      <ellipse style="fill: none; fill-opacity:0; stroke-width: 2; stroke: #000000" cx="347.075" cy="157.25" rx="40.5673" ry="39.0336"/>
      <text style="fill: #000000;text-anchor:middle;font-size:11.2889;font-family:sanserif;font-style:normal;font-weight:700" x="347.075" y="160.694">
        <tspan x="347.075" y="160.694">MIDDLE</tspan>
      </text>
    </g>
    <line style="fill: none; fill-opacity:0; stroke-width: 2; stroke: #000000" x1="375.76" y1="184.851" x2="383.894" y2="200.124"/>
    <g>
      <path style="fill: #90ee90" d="M 536.76 203.524 C 543.36,200.261 546.66,199.173 553.26,199.173 C 559.86,199.173 563.16,200.261 569.76,203.524 L 569.76,220.932 C 563.16,224.196 559.86,225.284 553.26,225.284 C 546.66,225.284 543.36,224.196 536.76,220.932 L 536.76,203.524z"/>
      <path style="fill: none; fill-opacity:0; stroke-width: 2; stroke: #000000" d="M 536.76 203.524 C 543.36,200.261 546.66,199.173 553.26,199.173 C 559.86,199.173 563.16,200.261 569.76,203.524 L 569.76,220.932 C 563.16,224.196 559.86,225.284 553.26,225.284 C 546.66,225.284 543.36,224.196 536.76,220.932 L 536.76,203.524"/>
      <path style="fill: none; fill-opacity:0; stroke-width: 2; stroke: #000000" d="M 536.76 203.524 C 543.36,206.788 546.66,207.876 553.26,207.876 C 559.86,207.876 563.16,206.788 569.76,203.524"/>
      <text style="fill: #000000;text-anchor:middle;font-size:5.64444;font-family:sanserif;font-style:normal;font-weight:normal" x="553.26" y="217.226">
        <tspan x="553.26" y="217.226"></tspan>
      </text>
    </g>
    <g>
      <ellipse style="fill: #add8e6" cx="508.193" cy="157.25" rx="40.5673" ry="39.0336"/>
      <ellipse style="fill: none; fill-opacity:0; stroke-width: 2; stroke: #000000" cx="508.193" cy="157.25" rx="40.5673" ry="39.0336"/>
      <text style="fill: #000000;text-anchor:middle;font-size:16.9333;font-family:sanserif;font-style:normal;font-weight:700" x="508.193" y="162.417">
        <tspan x="508.193" y="162.417">TAIL</tspan>
      </text>
    </g>
    <line style="fill: none; fill-opacity:0; stroke-width: 2; stroke: #000000" x1="536.878" y1="184.851" x2="545.01" y2="200.124"/>
    <g>
      <line style="fill: none; fill-opacity:0; stroke-width: 2; stroke: #000000" x1="226.526" y1="157.25" x2="302.036" y2="157.25"/>
      <polyline style="fill: none; fill-opacity:0; stroke-width: 2; stroke: #000000" points="294.272,162.25 304.272,157.25 294.272,152.25 "/>
    </g>
    <g>
      <line style="fill: none; fill-opacity:0; stroke-width: 2; stroke: #000000" x1="387.642" y1="157.25" x2="463.154" y2="157.25"/>
      <polyline style="fill: none; fill-opacity:0; stroke-width: 2; stroke: #000000" points="455.39,162.25 465.39,157.25 455.39,152.25 "/>
    </g>
    <g>
      <line style="fill: none; fill-opacity:0; stroke-width: 2; stroke-dasharray: 6; stroke: #000000" x1="227.91" y1="142.313" x2="309.596" y2="142.313"/>
      <polyline style="fill: none; fill-opacity:0; stroke-width: 2; stroke: #000000" points="235.674,137.313 225.674,142.313 235.674,147.313 "/>
    </g>
    <g>
      <line style="fill: none; fill-opacity:0; stroke-width: 2; stroke-dasharray: 6; stroke: #000000" x1="389.026" y1="142.313" x2="470.714" y2="142.313"/>
      <polyline style="fill: none; fill-opacity:0; stroke-width: 2; stroke: #000000" points="396.79,137.313 386.79,142.313 396.79,147.313 "/>
    </g>
  </g>
  <g>
    <g>
      <path style="fill: #90ee90" d="M 214.526 325.596 C 221.126,322.332 224.426,321.244 231.026,321.244 C 237.626,321.244 240.926,322.332 247.526,325.596 L 247.526,343.003 C 240.926,346.267 237.626,347.355 231.026,347.355 C 224.426,347.355 221.126,346.267 214.526,343.003 L 214.526,325.596z"/>
      <path style="fill: none; fill-opacity:0; stroke-width: 2; stroke: #000000" d="M 214.526 325.596 C 221.126,322.332 224.426,321.244 231.026,321.244 C 237.626,321.244 240.926,322.332 247.526,325.596 L 247.526,343.003 C 240.926,346.267 237.626,347.355 231.026,347.355 C 224.426,347.355 221.126,346.267 214.526,343.003 L 214.526,325.596"/>
      <path style="fill: none; fill-opacity:0; stroke-width: 2; stroke: #000000" d="M 214.526 325.596 C 221.126,328.86 224.426,329.948 231.026,329.948 C 237.626,329.948 240.926,328.86 247.526,325.596"/>
      <text style="fill: #000000;text-anchor:middle;font-size:5.64444;font-family:sanserif;font-style:normal;font-weight:normal" x="231.026" y="339.298">
        <tspan x="231.026" y="339.298"></tspan>
      </text>
    </g>
    <g>
      <ellipse style="fill: #add8e6" cx="185.959" cy="279.322" rx="40.5673" ry="39.0336"/>
      <ellipse style="fill: none; fill-opacity:0; stroke-width: 2; stroke: #000000" cx="185.959" cy="279.322" rx="40.5673" ry="39.0336"/>
      <text style="fill: #000000;text-anchor:middle;font-size:16.9333;font-family:sanserif;font-style:normal;font-weight:700" x="185.959" y="284.488">
        <tspan x="185.959" y="284.488">HEAD</tspan>
      </text>
    </g>
    <line style="fill: none; fill-opacity:0; stroke-width: 2; stroke: #000000" x1="214.644" y1="306.922" x2="222.776" y2="322.196"/>
    <g>
      <path style="fill: #90ee90" d="M 375.644 325.596 C 382.244,322.332 385.544,321.244 392.144,321.244 C 398.744,321.244 402.044,322.332 408.644,325.596 L 408.644,343.003 C 402.044,346.267 398.744,347.355 392.144,347.355 C 385.544,347.355 382.244,346.267 375.644,343.003 L 375.644,325.596z"/>
      <path style="fill: none; fill-opacity:0; stroke-width: 2; stroke: #000000" d="M 375.644 325.596 C 382.244,322.332 385.544,321.244 392.144,321.244 C 398.744,321.244 402.044,322.332 408.644,325.596 L 408.644,343.003 C 402.044,346.267 398.744,347.355 392.144,347.355 C 385.544,347.355 382.244,346.267 375.644,343.003 L 375.644,325.596"/>
      <path style="fill: none; fill-opacity:0; stroke-width: 2; stroke: #000000" d="M 375.644 325.596 C 382.244,328.86 385.544,329.948 392.144,329.948 C 398.744,329.948 402.044,328.86 408.644,325.596"/>
      <text style="fill: #000000;text-anchor:middle;font-size:5.64444;font-family:sanserif;font-style:normal;font-weight:normal" x="392.144" y="339.298">
        <tspan x="392.144" y="339.298"></tspan>
      </text>
    </g>
    <g>
      <ellipse style="fill: #add8e6" cx="347.075" cy="279.322" rx="40.5673" ry="39.0336"/>
      <ellipse style="fill: none; fill-opacity:0; stroke-width: 2; stroke: #000000" cx="347.075" cy="279.322" rx="40.5673" ry="39.0336"/>
      <text style="fill: #000000;text-anchor:middle;font-size:11.2889;font-family:sanserif;font-style:normal;font-weight:700" x="347.075" y="282.766">
        <tspan x="347.075" y="282.766">MIDDLE</tspan>
      </text>
    </g>
    <line style="fill: none; fill-opacity:0; stroke-width: 2; stroke: #000000" x1="375.76" y1="306.922" x2="383.894" y2="322.196"/>
    <g>
      <path style="fill: #90ee90" d="M 536.76 325.596 C 543.36,322.332 546.66,321.244 553.26,321.244 C 559.86,321.244 563.16,322.332 569.76,325.596 L 569.76,343.003 C 563.16,346.267 559.86,347.355 553.26,347.355 C 546.66,347.355 543.36,346.267 536.76,343.003 L 536.76,325.596z"/>
      <path style="fill: none; fill-opacity:0; stroke-width: 2; stroke: #000000" d="M 536.76 325.596 C 543.36,322.332 546.66,321.244 553.26,321.244 C 559.86,321.244 563.16,322.332 569.76,325.596 L 569.76,343.003 C 563.16,346.267 559.86,347.355 553.26,347.355 C 546.66,347.355 543.36,346.267 536.76,343.003 L 536.76,325.596"/>
      <path style="fill: none; fill-opacity:0; stroke-width: 2; stroke: #000000" d="M 536.76 325.596 C 543.36,328.86 546.66,329.948 553.26,329.948 C 559.86,329.948 563.16,328.86 569.76,325.596"/>
      <text style="fill: #000000;text-anchor:middle;font-size:5.64444;font-family:sanserif;font-style:normal;font-weight:normal" x="553.26" y="339.298">
        <tspan x="553.26" y="339.298"></tspan>
      </text>
    </g>
    <g>
      <ellipse style="fill: #add8e6" cx="508.193" cy="279.322" rx="40.5673" ry="39.0336"/>
      <ellipse style="fill: none; fill-opacity:0; stroke-width: 2; stroke: #000000" cx="508.193" cy="279.322" rx="40.5673" ry="39.0336"/>
      <text style="fill: #000000;text-anchor:middle;font-size:16.9333;font-family:sanserif;font-style:normal;font-weight:700" x="508.193" y="284.488">
        <tspan x="508.193" y="284.488">TAIL</tspan>
      </text>
    </g>
    <line style="fill: none; fill-opacity:0; stroke-width: 2; stroke: #000000" x1="536.878" y1="306.922" x2="545.01" y2="322.196"/>
    <g>
      <line style="fill: none; fill-opacity:0; stroke-width: 2; stroke: #000000" x1="226.526" y1="279.322" x2="302.036" y2="279.322"/>
      <polyline style="fill: none; fill-opacity:0; stroke-width: 2; stroke: #000000" points="294.272,284.322 304.272,279.322 294.272,274.322 "/>
    </g>
    <g>
      <line style="fill: none; fill-opacity:0; stroke-width: 2; stroke: #000000" x1="387.642" y1="279.322" x2="463.154" y2="279.322"/>
      <polyline style="fill: none; fill-opacity:0; stroke-width: 2; stroke: #000000" points="455.39,284.322 465.39,279.322 455.39,274.322 "/>
    </g>
    <g>
      <line style="fill: none; fill-opacity:0; stroke-width: 2; stroke-dasharray: 6; stroke: #000000" x1="227.91" y1="264.384" x2="309.596" y2="264.384"/>
      <polyline style="fill: none; fill-opacity:0; stroke-width: 2; stroke: #000000" points="235.674,259.384 225.674,264.384 235.674,269.384 "/>
    </g>
    <g>
      <line style="fill: none; fill-opacity:0; stroke-width: 2; stroke-dasharray: 6; stroke: #000000" x1="389.026" y1="264.384" x2="470.714" y2="264.384"/>
      <polyline style="fill: none; fill-opacity:0; stroke-width: 2; stroke: #000000" points="396.79,259.384 386.79,264.384 396.79,269.384 "/>
    </g>
  </g>
  <g>
    <g>
      <path style="fill: #90ee90" d="M 214.526 447.666 C 221.126,444.402 224.426,443.314 231.026,443.314 C 237.626,443.314 240.926,444.402 247.526,447.666 L 247.526,465.073 C 240.926,468.337 237.626,469.425 231.026,469.425 C 224.426,469.425 221.126,468.337 214.526,465.073 L 214.526,447.666z"/>
      <path style="fill: none; fill-opacity:0; stroke-width: 2; stroke: #000000" d="M 214.526 447.666 C 221.126,444.402 224.426,443.314 231.026,443.314 C 237.626,443.314 240.926,444.402 247.526,447.666 L 247.526,465.073 C 240.926,468.337 237.626,469.425 231.026,469.425 C 224.426,469.425 221.126,468.337 214.526,465.073 L 214.526,447.666"/>
      <path style="fill: none; fill-opacity:0; stroke-width: 2; stroke: #000000" d="M 214.526 447.666 C 221.126,450.93 224.426,452.018 231.026,452.018 C 237.626,452.018 240.926,450.93 247.526,447.666"/>
      <text style="fill: #000000;text-anchor:middle;font-size:5.64444;font-family:sanserif;font-style:normal;font-weight:normal" x="231.026" y="461.368">
        <tspan x="231.026" y="461.368"></tspan>
      </text>
    </g>
    <g>
      <ellipse style="fill: #add8e6" cx="185.959" cy="401.392" rx="40.5673" ry="39.0336"/>
      <ellipse style="fill: none; fill-opacity:0; stroke-width: 2; stroke: #000000" cx="185.959" cy="401.392" rx="40.5673" ry="39.0336"/>
      <text style="fill: #000000;text-anchor:middle;font-size:16.9333;font-family:sanserif;font-style:normal;font-weight:700" x="185.959" y="406.558">
        <tspan x="185.959" y="406.558">HEAD</tspan>
      </text>
    </g>
    <line style="fill: none; fill-opacity:0; stroke-width: 2; stroke: #000000" x1="214.644" y1="428.994" x2="222.776" y2="444.266"/>
    <g>
      <path style="fill: #90ee90" d="M 375.644 447.666 C 382.244,444.402 385.544,443.314 392.144,443.314 C 398.744,443.314 402.044,444.402 408.644,447.666 L 408.644,465.073 C 402.044,468.337 398.744,469.425 392.144,469.425 C 385.544,469.425 382.244,468.337 375.644,465.073 L 375.644,447.666z"/>
      <path style="fill: none; fill-opacity:0; stroke-width: 2; stroke: #000000" d="M 375.644 447.666 C 382.244,444.402 385.544,443.314 392.144,443.314 C 398.744,443.314 402.044,444.402 408.644,447.666 L 408.644,465.073 C 402.044,468.337 398.744,469.425 392.144,469.425 C 385.544,469.425 382.244,468.337 375.644,465.073 L 375.644,447.666"/>
      <path style="fill: none; fill-opacity:0; stroke-width: 2; stroke: #000000" d="M 375.644 447.666 C 382.244,450.93 385.544,452.018 392.144,452.018 C 398.744,452.018 402.044,450.93 408.644,447.666"/>
      <text style="fill: #000000;text-anchor:middle;font-size:5.64444;font-family:sanserif;font-style:normal;font-weight:normal" x="392.144" y="461.368">
        <tspan x="392.144" y="461.368"></tspan>
      </text>
    </g>
    <g>
      <ellipse style="fill: #add8e6" cx="347.075" cy="401.392" rx="40.5673" ry="39.0336"/>
      <ellipse style="fill: none; fill-opacity:0; stroke-width: 2; stroke: #000000" cx="347.075" cy="401.392" rx="40.5673" ry="39.0336"/>
      <text style="fill: #000000;text-anchor:middle;font-size:11.2889;font-family:sanserif;font-style:normal;font-weight:700" x="347.075" y="404.836">
        <tspan x="347.075" y="404.836">MIDDLE</tspan>
      </text>
    </g>
    <line style="fill: none; fill-opacity:0; stroke-width: 2; stroke: #000000" x1="375.76" y1="428.994" x2="383.894" y2="444.266"/>
    <g>
      <path style="fill: #90ee90" d="M 536.76 447.666 C 543.36,444.402 546.66,443.314 553.26,443.314 C 559.86,443.314 563.16,444.402 569.76,447.666 L 569.76,465.073 C 563.16,468.337 559.86,469.425 553.26,469.425 C 546.66,469.425 543.36,468.337 536.76,465.073 L 536.76,447.666z"/>
      <path style="fill: none; fill-opacity:0; stroke-width: 2; stroke: #000000" d="M 536.76 447.666 C 543.36,444.402 546.66,443.314 553.26,443.314 C 559.86,443.314 563.16,444.402 569.76,447.666 L 569.76,465.073 C 563.16,468.337 559.86,469.425 553.26,469.425 C 546.66,469.425 543.36,468.337 536.76,465.073 L 536.76,447.666"/>
      <path style="fill: none; fill-opacity:0; stroke-width: 2; stroke: #000000" d="M 536.76 447.666 C 543.36,450.93 546.66,452.018 553.26,452.018 C 559.86,452.018 563.16,450.93 569.76,447.666"/>
      <text style="fill: #000000;text-anchor:middle;font-size:5.64444;font-family:sanserif;font-style:normal;font-weight:normal" x="553.26" y="461.368">
        <tspan x="553.26" y="461.368"></tspan>
      </text>
    </g>
    <g>
      <ellipse style="fill: #add8e6" cx="508.193" cy="401.392" rx="40.5673" ry="39.0336"/>
      <ellipse style="fill: none; fill-opacity:0; stroke-width: 2; stroke: #000000" cx="508.193" cy="401.392" rx="40.5673" ry="39.0336"/>
      <text style="fill: #000000;text-anchor:middle;font-size:16.9333;font-family:sanserif;font-style:normal;font-weight:700" x="508.193" y="406.558">
        <tspan x="508.193" y="406.558">TAIL</tspan>
      </text>
    </g>
    <line style="fill: none; fill-opacity:0; stroke-width: 2; stroke: #000000" x1="536.878" y1="428.994" x2="545.01" y2="444.266"/>
    <g>
      <line style="fill: none; fill-opacity:0; stroke-width: 2; stroke: #000000" x1="226.526" y1="401.392" x2="302.036" y2="401.392"/>
      <polyline style="fill: none; fill-opacity:0; stroke-width: 2; stroke: #000000" points="294.272,406.392 304.272,401.392 294.272,396.392 "/>
    </g>
    <g>
      <line style="fill: none; fill-opacity:0; stroke-width: 2; stroke: #000000" x1="387.642" y1="401.392" x2="463.154" y2="401.392"/>
      <polyline style="fill: none; fill-opacity:0; stroke-width: 2; stroke: #000000" points="455.39,406.392 465.39,401.392 455.39,396.392 "/>
    </g>
    <g>
      <line style="fill: none; fill-opacity:0; stroke-width: 2; stroke-dasharray: 6; stroke: #000000" x1="227.91" y1="386.454" x2="309.596" y2="386.454"/>
      <polyline style="fill: none; fill-opacity:0; stroke-width: 2; stroke: #000000" points="235.674,381.454 225.674,386.454 235.674,391.454 "/>
    </g>
    <g>
      <line style="fill: none; fill-opacity:0; stroke-width: 2; stroke-dasharray: 6; stroke: #000000" x1="389.026" y1="386.454" x2="470.714" y2="386.454"/>
      <polyline style="fill: none; fill-opacity:0; stroke-width: 2; stroke: #000000" points="396.79,381.454 386.79,386.454 396.79,391.454 "/>
    </g>
  </g>
  <g>
    <path style="fill: none; fill-opacity:0; stroke-width: 2; stroke: #000000" d="M 175.676,41.0636 A 70.1302,70.1302 0 0 0 168.245,117.296"/>
    <polyline style="fill: none; fill-opacity:0; stroke-width: 2; stroke: #000000" points="159.822,113.308 169.277,119.275 168.377,108.13 "/>
  </g>
  <g>
    <path style="fill: none; fill-opacity:0; stroke-width: 2; stroke: #000000" d="M 486.108,41.0636 A 70.2842,70.2842 0 0 0 489.935,117.657"/>
    <polyline style="fill: none; fill-opacity:0; stroke-width: 2; stroke: #000000" points="481.02,114.939 491.244,119.464 488.729,108.57 "/>
  </g>
  <g>
    <path style="fill: none; fill-opacity:0; stroke-width: 2; stroke-dasharray: 6; stroke: #000000" d="M 523.718,121.188 A 66.3053,66.3053 0 0 0 520.032,44.4802"/>
    <polyline style="fill: none; fill-opacity:0; stroke-width: 2; stroke: #000000" points="529.061,46.8116 518.654,42.7254 521.629,53.5026 "/>
  </g>
  <g>
    <ellipse style="fill: #ffff00" cx="501.633" cy="5.00124" rx="40.5673" ry="39.0336"/>
    <ellipse style="fill: none; fill-opacity:0; stroke-width: 2; stroke: #000000" cx="501.633" cy="5.00124" rx="40.5673" ry="39.0336"/>
    <text style="fill: #000000;text-anchor:middle;font-size:13.5467;font-family:sanserif;font-style:normal;font-weight:700" x="501.633" y="9.13457">
      <tspan x="501.633" y="9.13457">CLIENT</tspan>
    </text>
  </g>
  <text style="fill: #000000;text-anchor:middle;font-size:15.24;font-family:sanserif;font-style:normal;font-weight:700" x="411.074" y="0.75124">
    <tspan x="411.074" y="0.75124">Read</tspan>
    <tspan x="411.074" y="19.8012">Requests</tspan>
  </text>
  <text style="fill: #000000;text-anchor:middle;font-size:15.24;font-family:sanserif;font-style:normal;font-weight:700" x="71.5984" y="164.809">
    <tspan x="71.5984" y="164.809">Chain A</tspan>
  </text>
  <g>
    <ellipse style="fill: #ffff00" cx="191.2" cy="5.00124" rx="40.5673" ry="39.0336"/>
    <ellipse style="fill: none; fill-opacity:0; stroke-width: 2; stroke: #000000" cx="191.2" cy="5.00124" rx="40.5673" ry="39.0336"/>
    <text style="fill: #000000;text-anchor:middle;font-size:13.5467;font-family:sanserif;font-style:normal;font-weight:700" x="191.2" y="9.13457">
      <tspan x="191.2" y="9.13457">CLIENT</tspan>
    </text>
  </g>
  <text style="fill: #000000;text-anchor:middle;font-size:15.24;font-family:sanserif;font-style:normal;font-weight:700" x="105.58" y="0.75124">
    <tspan x="105.58" y="0.75124">Write</tspan>
    <tspan x="105.58" y="19.8012">Requests</tspan>
  </text>
  <text style="fill: #000000;text-anchor:middle;font-size:15.24;font-family:sanserif;font-style:normal;font-weight:700" x="71.5984" y="290.271">
    <tspan x="71.5984" y="290.271">Chain B</tspan>
  </text>
  <text style="fill: #000000;text-anchor:middle;font-size:15.24;font-family:sanserif;font-style:normal;font-weight:700" x="71.5984" y="415.733">
    <tspan x="71.5984" y="415.733">Chain C</tspan>
  </text>
  <text style="fill: #000000;text-anchor:middle;font-size:15.24;font-family:sanserif;font-style:normal;font-weight:700" x="71.5984" y="541.195">
    <tspan x="71.5984" y="541.195">Admin</tspan>
  </text>
  <g>
    <path style="fill: none; fill-opacity:0; stroke-width: 2; stroke: #000000" d="M 162.515,32.6022 A 266.746,266.746 0 0 0 155.569,247.586"/>
    <polyline style="fill: none; fill-opacity:0; stroke-width: 2; stroke: #000000" points="147.908,242.392 156.404,249.66 157.121,238.503 "/>
  </g>
  <g>
    <path style="fill: none; fill-opacity:0; stroke-width: 2; stroke: #000000" d="M 153.721,19.9388 A 502.555,502.555 0 0 0 155.675,369.613"/>
    <polyline style="fill: none; fill-opacity:0; stroke-width: 2; stroke: #000000" points="148.189,364.188 156.465,371.705 157.512,360.574 "/>
  </g>
  <g>
    <path style="fill: none; fill-opacity:0; stroke-width: 2; stroke: #000000" d="M 472.948,32.6022 A 164.78,164.78 0 0 0 489.534,240.072"/>
    <polyline style="fill: none; fill-opacity:0; stroke-width: 2; stroke: #000000" points="480.455,238.205 491.079,241.687 487.49,231.098 "/>
  </g>
  <g>
    <path style="fill: none; fill-opacity:0; stroke-width: 2; stroke: #000000" d="M 464.154,19.9388 A 310.135,310.135 0 0 0 489.898,361.819"/>
    <polyline style="fill: none; fill-opacity:0; stroke-width: 2; stroke: #000000" points="481.117,358.904 491.27,363.585 488.922,352.654 "/>
  </g>
  <g>
    <path style="fill: none; fill-opacity:0; stroke-width: 2; stroke-dasharray: 6; stroke: #000000" d="M 521.698,241.234 A 172.696,172.696 0 0 0 532.824,36.3049"/>
    <polyline style="fill: none; fill-opacity:0; stroke-width: 2; stroke: #000000" points="541.411,39.7902 531.595,34.4377 533.203,45.5018 "/>
  </g>
  <g>
    <path style="fill: none; fill-opacity:0; stroke-width: 2; stroke-dasharray: 6; stroke: #000000" d="M 523.718,365.33 A 313.639,313.639 0 0 0 543.69,25.2956"/>
    <polyline style="fill: none; fill-opacity:0; stroke-width: 2; stroke: #000000" points="551.955,29.4542 542.588,23.3501 543.325,34.5062 "/>
  </g>
  <g>
    <g>
      <path style="fill: #90ee90" d="M 214.526 582.008 C 221.126,578.744 224.426,577.656 231.026,577.656 C 237.626,577.656 240.926,578.744 247.526,582.008 L 247.526,599.415 C 240.926,602.679 237.626,603.767 231.026,603.767 C 224.426,603.767 221.126,602.679 214.526,599.415 L 214.526,582.008z"/>
      <path style="fill: none; fill-opacity:0; stroke-width: 2; stroke: #000000" d="M 214.526 582.008 C 221.126,578.744 224.426,577.656 231.026,577.656 C 237.626,577.656 240.926,578.744 247.526,582.008 L 247.526,599.415 C 240.926,602.679 237.626,603.767 231.026,603.767 C 224.426,603.767 221.126,602.679 214.526,599.415 L 214.526,582.008"/>
      <path style="fill: none; fill-opacity:0; stroke-width: 2; stroke: #000000" d="M 214.526 582.008 C 221.126,585.272 224.426,586.36 231.026,586.36 C 237.626,586.36 240.926,585.272 247.526,582.008"/>
      <text style="fill: #000000;text-anchor:middle;font-size:5.64444;font-family:sanserif;font-style:normal;font-weight:normal" x="231.026" y="595.71">
        <tspan x="231.026" y="595.71"></tspan>
      </text>
    </g>
    <g>
      <ellipse style="fill: #ffa500" cx="185.959" cy="535.734" rx="40.5673" ry="39.0336"/>
      <ellipse style="fill: none; fill-opacity:0; stroke-width: 2; stroke: #000000" cx="185.959" cy="535.734" rx="40.5673" ry="39.0336"/>
      <text style="fill: #000000;text-anchor:middle;font-size:11.2889;font-family:sanserif;font-style:normal;font-weight:700" x="185.959" y="539.178">
        <tspan x="185.959" y="539.178">ACTIVE</tspan>
      </text>
    </g>
    <line style="fill: none; fill-opacity:0; stroke-width: 2; stroke: #000000" x1="214.644" y1="563.334" x2="222.776" y2="578.608"/>
    <g>
      <path style="fill: #90ee90" d="M 375.644 582.008 C 382.244,578.744 385.544,577.656 392.144,577.656 C 398.744,577.656 402.044,578.744 408.644,582.008 L 408.644,599.415 C 402.044,602.679 398.744,603.767 392.144,603.767 C 385.544,603.767 382.244,602.679 375.644,599.415 L 375.644,582.008z"/>
      <path style="fill: none; fill-opacity:0; stroke-width: 2; stroke: #000000" d="M 375.644 582.008 C 382.244,578.744 385.544,577.656 392.144,577.656 C 398.744,577.656 402.044,578.744 408.644,582.008 L 408.644,599.415 C 402.044,602.679 398.744,603.767 392.144,603.767 C 385.544,603.767 382.244,602.679 375.644,599.415 L 375.644,582.008"/>
      <path style="fill: none; fill-opacity:0; stroke-width: 2; stroke: #000000" d="M 375.644 582.008 C 382.244,585.272 385.544,586.36 392.144,586.36 C 398.744,586.36 402.044,585.272 408.644,582.008"/>
      <text style="fill: #000000;text-anchor:middle;font-size:5.64444;font-family:sanserif;font-style:normal;font-weight:normal" x="392.144" y="595.71">
        <tspan x="392.144" y="595.71"></tspan>
      </text>
    </g>
    <g>
      <ellipse style="fill: #ffa500" cx="347.075" cy="535.734" rx="40.5673" ry="39.0336"/>
      <ellipse style="fill: none; fill-opacity:0; stroke-width: 2; stroke: #000000" cx="347.075" cy="535.734" rx="40.5673" ry="39.0336"/>
      <text style="fill: #000000;text-anchor:middle;font-size:11.2889;font-family:sanserif;font-style:normal;font-weight:700" x="347.075" y="539.178">
        <tspan x="347.075" y="539.178">STANDBY</tspan>
      </text>
    </g>
    <line style="fill: none; fill-opacity:0; stroke-width: 2; stroke: #000000" x1="375.76" y1="563.334" x2="383.894" y2="578.608"/>
    <g>
      <path style="fill: #90ee90" d="M 536.76 582.008 C 543.36,578.744 546.66,577.656 553.26,577.656 C 559.86,577.656 563.16,578.744 569.76,582.008 L 569.76,599.415 C 563.16,602.679 559.86,603.767 553.26,603.767 C 546.66,603.767 543.36,602.679 536.76,599.415 L 536.76,582.008z"/>
      <path style="fill: none; fill-opacity:0; stroke-width: 2; stroke: #000000" d="M 536.76 582.008 C 543.36,578.744 546.66,577.656 553.26,577.656 C 559.86,577.656 563.16,578.744 569.76,582.008 L 569.76,599.415 C 563.16,602.679 559.86,603.767 553.26,603.767 C 546.66,603.767 543.36,602.679 536.76,599.415 L 536.76,582.008"/>
      <path style="fill: none; fill-opacity:0; stroke-width: 2; stroke: #000000" d="M 536.76 582.008 C 543.36,585.272 546.66,586.36 553.26,586.36 C 559.86,586.36 563.16,585.272 569.76,582.008"/>
      <text style="fill: #000000;text-anchor:middle;font-size:5.64444;font-family:sanserif;font-style:normal;font-weight:normal" x="553.26" y="595.71">
        <tspan x="553.26" y="595.71"></tspan>
      </text>
    </g>
    <g>
      <ellipse style="fill: #ffa500" cx="508.193" cy="535.734" rx="40.5673" ry="39.0336"/>
      <ellipse style="fill: none; fill-opacity:0; stroke-width: 2; stroke: #000000" cx="508.193" cy="535.734" rx="40.5673" ry="39.0336"/>
      <text style="fill: #000000;text-anchor:middle;font-size:11.2889;font-family:sanserif;font-style:normal;font-weight:700" x="508.193" y="539.178">
        <tspan x="508.193" y="539.178">STANDBY</tspan>
      </text>
    </g>
    <line style="fill: none; fill-opacity:0; stroke-width: 2; stroke: #000000" x1="536.878" y1="563.334" x2="545.01" y2="578.608"/>
    <g>
      <path style="fill: none; fill-opacity:0; stroke-width: 2; stroke: #000000" d="M 305.884,518.312 A 74.1561,74.1561 0 0 0 223.438,520.796"/>
      <polyline style="fill: none; fill-opacity:0; stroke-width: 2; stroke: #000000" points="296.732,517.758 307.776,519.497 302.541,509.618 "/>
    </g>
    <g>
      <path style="fill: none; fill-opacity:0; stroke-width: 2; stroke: #000000" d="M 466.784,518.663 A 291.364,291.364 0 0 0 214.644,508.132"/>
      <polyline style="fill: none; fill-opacity:0; stroke-width: 2; stroke: #000000" points="457.586,519.252 468.757,519.714 462.424,510.5 "/>
    </g>
  </g>
</svg>
