<?xml version="1.0" encoding="UTF-8" standalone="no"?>
<!DOCTYPE svg PUBLIC "-//W3C//DTD SVG 1.1//EN"
 "http://www.w3.org/Graphics/SVG/1.1/DTD/svg11.dtd">
<!-- Generated by graphviz version 2.26.3 (20100126.1600)
 -->
<!-- Title: data_flow Pages: 1 -->
<svg width="331pt" height="260pt"
 viewBox="0.00 0.00 331.17 260.00" xmlns="http://www.w3.org/2000/svg" xmlns:xlink="http://www.w3.org/1999/xlink">
<g id="graph1" class="graph" transform="scale(1 1) rotate(0) translate(4 256)">
<title>data_flow</title>
<polygon fill="white" stroke="white" points="-4,5 -4,-256 328.171,-256 328.171,5 -4,5"/>
<!-- start -->
<g id="node2" class="node"><title>start</title>
<ellipse fill="none" stroke="black" cx="179.171" cy="-234" rx="28.0958" ry="18"/>
<text text-anchor="middle" x="179.171" y="-228.9" font-family="Times,serif" font-size="14.00">Start</text>
</g>
<!-- unknown -->
<g id="node3" class="node"><title>unknown</title>
<ellipse fill="none" stroke="black" cx="274.171" cy="-234" rx="48.8967" ry="18"/>
<text text-anchor="middle" x="274.171" y="-228.9" font-family="Times,serif" font-size="14.00">Unknown</text>
</g>
<!-- start&#45;&gt;unknown -->
<g id="edge4" class="edge"><title>start&#45;&gt;unknown</title>
<path fill="none" stroke="black" d="M207.374,-234C209.869,-234 212.364,-234 214.859,-234"/>
<polygon fill="black" stroke="black" points="215.117,-237.5 225.117,-234 215.117,-230.5 215.117,-237.5"/>
</g>
<!-- stopped -->
<g id="node5" class="node"><title>stopped</title>
<ellipse fill="none" stroke="black" cx="131.171" cy="-90" rx="42.2463" ry="18"/>
<text text-anchor="middle" x="131.171" y="-84.9" font-family="Times,serif" font-size="14.00">Stopped</text>
</g>
<!-- unknown&#45;&gt;stopped -->
<g id="edge8" class="edge"><title>unknown&#45;&gt;stopped</title>
<path fill="none" stroke="black" d="M234.09,-223.481C225.196,-220.825 215.877,-218.126 207.171,-216 163.301,-205.287 36.1367,-214.645 7.17082,-180 -3.09195,-167.725 -1.40793,-157.506 7.17082,-144 23.1279,-118.878 54.2113,-105.237 81.3605,-97.9531"/>
<polygon fill="black" stroke="black" points="82.2737,-101.333 91.1496,-95.5477 80.6033,-94.5352 82.2737,-101.333"/>
</g>
<!-- degraded -->
<g id="node6" class="node"><title>degraded</title>
<ellipse fill="none" stroke="black" cx="246.171" cy="-90" rx="46.9464" ry="18"/>
<text text-anchor="middle" x="246.171" y="-84.9" font-family="Times,serif" font-size="14.00">Degraded</text>
</g>
<!-- unknown&#45;&gt;degraded -->
<g id="edge10" class="edge"><title>unknown&#45;&gt;degraded</title>
<path fill="none" stroke="black" d="M266.037,-216.053C258.796,-191.585 249.935,-147.49 246.203,-118.48"/>
<polygon fill="black" stroke="black" points="249.639,-117.716 245.038,-108.173 242.683,-118.503 249.639,-117.716"/>
</g>
<!-- unknown_timeout -->
<g id="node7" class="node"><title>unknown_timeout</title>
<ellipse fill="none" stroke="black" cx="131.171" cy="-162" rx="106.09" ry="18"/>
<text text-anchor="middle" x="131.171" y="-156.9" font-family="Times,serif" font-size="14.00">Timeout while Unknown</text>
</g>
<!-- unknown&#45;&gt;unknown_timeout -->
<g id="edge6" class="edge"><title>unknown&#45;&gt;unknown_timeout</title>
<path fill="none" stroke="black" d="M245.233,-219.43C224.862,-209.173 197.244,-195.267 174.286,-183.708"/>
<polygon fill="black" stroke="black" points="175.6,-180.451 165.094,-179.08 172.452,-186.703 175.6,-180.451"/>
</g>
<!-- healthy -->
<g id="node8" class="node"><title>healthy</title>
<ellipse fill="none" stroke="black" cx="246.171" cy="-18" rx="39.7989" ry="18"/>
<text text-anchor="middle" x="246.171" y="-12.9" font-family="Times,serif" font-size="14.00">Healthy</text>
</g>
<!-- unknown&#45;&gt;healthy -->
<g id="edge12" class="edge"><title>unknown&#45;&gt;healthy</title>
<path fill="none" stroke="black" d="M278.234,-215.744C289.482,-184.921 314.043,-121.123 293.171,-72 288.187,-60.2707 279.269,-49.8517 270.445,-41.3705"/>
<polygon fill="black" stroke="black" points="272.569,-38.5709 262.816,-34.4319 267.859,-43.7495 272.569,-38.5709"/>
</g>
<!-- stopped&#45;&gt;unknown -->
<g id="edge22" class="edge"><title>stopped&#45;&gt;unknown</title>
<path fill="none" stroke="black" d="M94.2902,-98.6913C70.1867,-106.145 40.6041,-119.703 25.1708,-144 16.5921,-157.506 14.9081,-167.725 25.1708,-180 54.1367,-214.645 181.301,-205.287 225.171,-216 227.376,-216.539 229.621,-217.114 231.877,-217.716"/>
<polygon fill="black" stroke="black" points="231.186,-221.157 241.76,-220.496 233.081,-214.419 231.186,-221.157"/>
</g>
<!-- stopped&#45;&gt;degraded -->
<g id="edge18" class="edge"><title>stopped&#45;&gt;degraded</title>
<path fill="none" stroke="black" d="M164.413,-78.9027C176.306,-76.5467 188.199,-75.9234 200.092,-77.0326"/>
<polygon fill="black" stroke="black" points="199.706,-80.5121 210.082,-78.372 200.636,-73.5742 199.706,-80.5121"/>
</g>
<!-- stopped&#45;&gt;healthy -->
<g id="edge20" class="edge"><title>stopped&#45;&gt;healthy</title>
<path fill="none" stroke="black" d="M150.973,-74.0209C167.372,-62.9554 190.865,-48.1895 210.477,-36.5954"/>
<polygon fill="black" stroke="black" points="212.304,-39.5813 219.175,-31.5162 208.774,-33.5365 212.304,-39.5813"/>
</g>
<!-- degraded&#45;&gt;unknown -->
<g id="edge28" class="edge"><title>degraded&#45;&gt;unknown</title>
<path fill="none" stroke="black" d="M254.347,-108.09C261.576,-132.573 270.404,-176.517 274.133,-205.471"/>
<polygon fill="black" stroke="black" points="270.695,-206.22 275.298,-215.762 277.65,-205.432 270.695,-206.22"/>
</g>
<!-- degraded&#45;&gt;stopped -->
<g id="edge24" class="edge"><title>degraded&#45;&gt;stopped</title>
<path fill="none" stroke="black" d="M210.082,-101.628C198.189,-103.708 186.296,-104.055 174.403,-102.669"/>
<polygon fill="black" stroke="black" points="174.835,-99.1938 164.413,-101.097 173.748,-106.109 174.835,-99.1938"/>
</g>
<!-- degraded&#45;&gt;healthy -->
<g id="edge26" class="edge"><title>degraded&#45;&gt;healthy</title>
<path fill="none" stroke="black" d="M240.218,-71.8314C239.456,-64.0125 239.24,-54.6923 239.57,-46.0221"/>
<polygon fill="black" stroke="black" points="243.071,-46.1239 240.244,-35.9134 236.087,-45.6587 243.071,-46.1239"/>
</g>
<!-- unknown_timeout&#45;&gt;stopped -->
<g id="edge14" class="edge"><title>unknown_timeout&#45;&gt;stopped</title>
<path fill="none" stroke="black" d="M131.171,-143.831C131.171,-136.131 131.171,-126.974 131.171,-118.417"/>
<polygon fill="black" stroke="black" points="134.671,-118.413 131.171,-108.413 127.671,-118.413 134.671,-118.413"/>
</g>
<!-- unknown_timeout&#45;&gt;degraded -->
<g id="edge16" class="edge"><title>unknown_timeout&#45;&gt;degraded</title>
<path fill="none" stroke="black" d="M159.009,-144.571C175.199,-134.435 195.708,-121.594 212.765,-110.915"/>
<polygon fill="black" stroke="black" points="214.71,-113.827 221.328,-105.554 210.995,-107.894 214.71,-113.827"/>
</g>
<!-- healthy&#45;&gt;unknown -->
<g id="edge34" class="edge"><title>healthy&#45;&gt;unknown</title>
<path fill="none" stroke="black" d="M274.153,-31.1177C288.406,-40.7025 303.935,-54.9703 311.171,-72 330.371,-117.188 311.126,-174.794 293.702,-207.726"/>
<polygon fill="black" stroke="black" points="290.493,-206.291 288.634,-216.721 296.592,-209.727 290.493,-206.291"/>
</g>
<!-- healthy&#45;&gt;stopped -->
<g id="edge30" class="edge"><title>healthy&#45;&gt;stopped</title>
<path fill="none" stroke="black" d="M226.455,-33.9205C210.145,-44.9302 186.776,-59.6237 167.197,-71.2083"/>
<polygon fill="black" stroke="black" points="165.374,-68.2198 158.507,-76.2879 168.907,-74.2631 165.374,-68.2198"/>
</g>
<!-- healthy&#45;&gt;degraded -->
<g id="edge32" class="edge"><title>healthy&#45;&gt;degraded</title>
<path fill="none" stroke="black" d="M252.098,-35.9134C252.872,-43.6993 253.1,-53.01 252.782,-61.6941"/>
<polygon fill="black" stroke="black" points="249.279,-61.6254 252.123,-71.8314 256.264,-62.0794 249.279,-61.6254"/>
</g>
</g>
</svg>
