<?xml version="1.0" encoding="UTF-8" standalone="no"?>
<!DOCTYPE svg PUBLIC "-//W3C//DTD SVG 1.1//EN"
 "http://www.w3.org/Graphics/SVG/1.1/DTD/svg11.dtd">
<!-- Generated by graphviz version 2.26.0 (20091210.2329)
 -->
<!-- Title: data_flow Pages: 1 -->
<svg width="338pt" height="268pt"
 viewBox="0.00 0.00 337.59 268.00" xmlns="http://www.w3.org/2000/svg" xmlns:xlink="http://www.w3.org/1999/xlink">
<g id="graph1" class="graph" transform="scale(1 1) rotate(0) translate(4 264)">
<title>data_flow</title>
<polygon fill="white" stroke="white" points="-4,5 -4,-264 334.59,-264 334.59,5 -4,5"/>
<!-- start -->
<g id="node2" class="node"><title>start</title>
<ellipse fill="none" stroke="black" cx="184.59" cy="-241" rx="29.1951" ry="19.0919"/>
<text text-anchor="middle" x="184.59" y="-237.9" font-family="Times Roman,serif" font-size="14.00">Start</text>
</g>
<!-- unknown -->
<g id="node3" class="node"><title>unknown</title>
<ellipse fill="none" stroke="black" cx="280.59" cy="-241" rx="48.9975" ry="19.0919"/>
<text text-anchor="middle" x="280.59" y="-237.9" font-family="Times Roman,serif" font-size="14.00">Unknown</text>
</g>
<!-- start&#45;&gt;unknown -->
<g id="edge4" class="edge"><title>start&#45;&gt;unknown</title>
<path fill="none" stroke="black" d="M213.84,-241C216.333,-241 218.827,-241 221.32,-241"/>
<polygon fill="black" stroke="black" points="221.57,-244.5 231.57,-241 221.57,-237.5 221.57,-244.5"/>
</g>
<!-- stopped -->
<g id="node5" class="node"><title>stopped</title>
<ellipse fill="none" stroke="black" cx="134.59" cy="-93" rx="43.1335" ry="19.0919"/>
<text text-anchor="middle" x="134.59" y="-89.9" font-family="Times Roman,serif" font-size="14.00">Stopped</text>
</g>
<!-- unknown&#45;&gt;stopped -->
<g id="edge8" class="edge"><title>unknown&#45;&gt;stopped</title>
<path fill="none" stroke="black" d="M240.552,-229.815C231.658,-227.011 222.328,-224.183 213.59,-222 168.504,-210.738 37.4884,-221.577 7.58992,-186 -3.2759,-173.071 -1.48568,-162.243 7.58992,-148 23.924,-122.365 55.6612,-108.486 83.415,-101.085"/>
<polygon fill="black" stroke="black" points="84.5393,-104.413 93.424,-98.6415 82.8792,-97.6128 84.5393,-104.413"/>
</g>
<!-- degraded -->
<g id="node6" class="node"><title>degraded</title>
<ellipse fill="none" stroke="black" cx="250.59" cy="-93" rx="48.7904" ry="19.0919"/>
<text text-anchor="middle" x="250.59" y="-89.9" font-family="Times Roman,serif" font-size="14.00">Degraded</text>
</g>
<!-- unknown&#45;&gt;degraded -->
<g id="edge10" class="edge"><title>unknown&#45;&gt;degraded</title>
<path fill="none" stroke="black" d="M272.117,-222.256C264.549,-197.04 255.129,-151.935 251.013,-122.238"/>
<polygon fill="black" stroke="black" points="254.455,-121.552 249.75,-112.06 247.508,-122.415 254.455,-121.552"/>
</g>
<!-- unknown_timeout -->
<g id="node7" class="node"><title>unknown_timeout</title>
<ellipse fill="none" stroke="black" cx="134.59" cy="-167" rx="108.894" ry="19.0919"/>
<text text-anchor="middle" x="134.59" y="-163.9" font-family="Times Roman,serif" font-size="14.00">Timeout while Unknown</text>
</g>
<!-- unknown&#45;&gt;unknown_timeout -->
<g id="edge6" class="edge"><title>unknown&#45;&gt;unknown_timeout</title>
<path fill="none" stroke="black" d="M250.692,-225.846C230.07,-215.394 202.299,-201.318 179.088,-189.554"/>
<polygon fill="black" stroke="black" points="180.615,-186.404 170.113,-185.005 177.45,-192.648 180.615,-186.404"/>
</g>
<!-- healthy -->
<g id="node8" class="node"><title>healthy</title>
<ellipse fill="none" stroke="black" cx="250.59" cy="-19" rx="41.2167" ry="19.0919"/>
<text text-anchor="middle" x="250.59" y="-15.9" font-family="Times Roman,serif" font-size="14.00">Healthy</text>
</g>
<!-- unknown&#45;&gt;healthy -->
<g id="edge12" class="edge"><title>unknown&#45;&gt;healthy</title>
<path fill="none" stroke="black" d="M284.928,-221.895C296.486,-189.982 321.242,-124.37 299.59,-74 294.452,-62.0478 285.299,-51.4736 276.203,-42.871"/>
<polygon fill="black" stroke="black" points="278.449,-40.1844 268.664,-36.1216 273.78,-45.3996 278.449,-40.1844"/>
</g>
<!-- stopped&#45;&gt;unknown -->
<g id="edge22" class="edge"><title>stopped&#45;&gt;unknown</title>
<path fill="none" stroke="black" d="M96.269,-101.847C71.5617,-109.424 41.3794,-123.22 25.5899,-148 16.5143,-162.243 14.7241,-173.071 25.5899,-186 55.4884,-221.577 186.504,-210.738 231.59,-222 233.888,-222.574 236.228,-223.193 238.578,-223.844"/>
<polygon fill="black" stroke="black" points="237.636,-227.215 248.217,-226.673 239.607,-220.499 237.636,-227.215"/>
</g>
<!-- stopped&#45;&gt;degraded -->
<g id="edge18" class="edge"><title>stopped&#45;&gt;degraded</title>
<path fill="none" stroke="black" d="M168.574,-81.1931C180.138,-78.8404 191.701,-78.1869 203.265,-79.2327"/>
<polygon fill="black" stroke="black" points="203.051,-82.7352 213.427,-80.5891 203.978,-75.7967 203.051,-82.7352"/>
</g>
<!-- stopped&#45;&gt;healthy -->
<g id="edge20" class="edge"><title>stopped&#45;&gt;healthy</title>
<path fill="none" stroke="black" d="M155.151,-76.2083C171.547,-64.9666 194.711,-50.1347 214.176,-38.39"/>
<polygon fill="black" stroke="black" points="216.025,-41.3626 222.822,-33.2351 212.44,-35.3502 216.025,-41.3626"/>
</g>
<!-- degraded&#45;&gt;unknown -->
<g id="edge28" class="edge"><title>degraded&#45;&gt;unknown</title>
<path fill="none" stroke="black" d="M259.131,-111.972C266.691,-137.244 276.072,-182.198 280.173,-211.806"/>
<polygon fill="black" stroke="black" points="276.727,-212.461 281.432,-221.955 283.674,-211.6 276.727,-212.461"/>
</g>
<!-- degraded&#45;&gt;stopped -->
<g id="edge24" class="edge"><title>degraded&#45;&gt;stopped</title>
<path fill="none" stroke="black" d="M213.427,-105.411C201.863,-107.452 190.3,-107.794 178.736,-106.437"/>
<polygon fill="black" stroke="black" points="179.002,-102.935 168.574,-104.807 177.894,-109.847 179.002,-102.935"/>
</g>
<!-- degraded&#45;&gt;healthy -->
<g id="edge26" class="edge"><title>degraded&#45;&gt;healthy</title>
<path fill="none" stroke="black" d="M244.602,-73.9432C243.878,-66.0884 243.67,-56.8101 243.977,-48.1363"/>
<polygon fill="black" stroke="black" points="247.481,-48.1901 244.608,-37.9923 240.494,-47.7559 247.481,-48.1901"/>
</g>
<!-- unknown_timeout&#45;&gt;stopped -->
<g id="edge14" class="edge"><title>unknown_timeout&#45;&gt;stopped</title>
<path fill="none" stroke="black" d="M134.59,-147.943C134.59,-140.149 134.59,-130.954 134.59,-122.338"/>
<polygon fill="black" stroke="black" points="138.09,-122.249 134.59,-112.249 131.09,-122.249 138.09,-122.249"/>
</g>
<!-- unknown_timeout&#45;&gt;degraded -->
<g id="edge16" class="edge"><title>unknown_timeout&#45;&gt;degraded</title>
<path fill="none" stroke="black" d="M163.562,-148.518C179.677,-138.237 199.82,-125.387 216.668,-114.64"/>
<polygon fill="black" stroke="black" points="218.591,-117.565 225.139,-109.236 214.826,-111.664 218.591,-117.565"/>
</g>
<!-- healthy&#45;&gt;unknown -->
<g id="edge34" class="edge"><title>healthy&#45;&gt;unknown</title>
<path fill="none" stroke="black" d="M279.612,-32.4959C294.234,-42.2225 310.137,-56.6613 317.59,-74 337.54,-120.412 318.09,-179.764 300.424,-213.771"/>
<polygon fill="black" stroke="black" points="297.287,-212.212 295.523,-222.658 303.416,-215.592 297.287,-212.212"/>
</g>
<!-- healthy&#45;&gt;stopped -->
<g id="edge30" class="edge"><title>healthy&#45;&gt;stopped</title>
<path fill="none" stroke="black" d="M230.111,-35.7354C213.807,-46.9179 190.773,-61.6716 171.347,-73.4028"/>
<polygon fill="black" stroke="black" points="169.505,-70.4259 162.712,-78.5564 173.093,-76.4367 169.505,-70.4259"/>
</g>
<!-- healthy&#45;&gt;degraded -->
<g id="edge32" class="edge"><title>healthy&#45;&gt;degraded</title>
<path fill="none" stroke="black" d="M256.572,-37.9923C257.299,-45.8392 257.509,-55.1153 257.205,-63.7924"/>
<polygon fill="black" stroke="black" points="253.701,-63.7464 256.578,-73.9432 260.688,-64.178 253.701,-63.7464"/>
</g>
</g>
</svg>
