<?xml version="1.0" encoding="UTF-8" standalone="no"?>
<!DOCTYPE svg PUBLIC "-//W3C//DTD SVG 1.1//EN"
 "http://www.w3.org/Graphics/SVG/1.1/DTD/svg11.dtd">
<!-- Generated by graphviz version 2.28.0 (20120122.0658)
 -->
<!-- Title: data_flow Pages: 1 -->
<svg width="464pt" height="506pt"
 viewBox="0.00 0.00 464.00 506.00" xmlns="http://www.w3.org/2000/svg" xmlns:xlink="http://www.w3.org/1999/xlink">
<g id="graph1" class="graph" transform="scale(1 1) rotate(0) translate(4 502)">
<title>data_flow</title>
<polygon fill="white" stroke="white" points="-4,5 -4,-502 461,-502 461,5 -4,5"/>
<!-- HEAD1 -->
<g id="node1" class="node"><title>HEAD1</title>
<ellipse fill="none" stroke="black" cx="40" cy="-456" rx="40.597" ry="29.3315"/>
<text text-anchor="middle" x="40" y="-458.8" font-family="Times,serif" font-size="14.00">Brick 1</text>
<text text-anchor="middle" x="40" y="-442" font-family="Times,serif" font-size="14.00">Head</text>
</g>
<!-- MIDDLE1 -->
<g id="node2" class="node"><title>MIDDLE1</title>
<ellipse fill="none" stroke="black" cx="204" cy="-456" rx="40.597" ry="29.3315"/>
<text text-anchor="middle" x="204" y="-458.8" font-family="Times,serif" font-size="14.00">Brick 2</text>
<text text-anchor="middle" x="204" y="-442" font-family="Times,serif" font-size="14.00">Middle</text>
</g>
<!-- HEAD1&#45;&gt;MIDDLE1 -->
<g id="edge6" class="edge"><title>HEAD1&#45;&gt;MIDDLE1</title>
<path fill="none" stroke="black" d="M80.5393,-456C102.518,-456 129.889,-456 153.271,-456"/>
<polygon fill="black" stroke="black" points="153.359,-459.5 163.359,-456 153.359,-452.5 153.359,-459.5"/>
<text text-anchor="middle" x="121.634" y="-461.8" font-family="Times,serif" font-size="14.00">Replication</text>
</g>
<!-- HEAD2 -->
<g id="node4" class="node"><title>HEAD2</title>
<ellipse fill="none" stroke="black" cx="40" cy="-318" rx="40.597" ry="29.3315"/>
<text text-anchor="middle" x="40" y="-320.8" font-family="Times,serif" font-size="14.00">Brick 1</text>
<text text-anchor="middle" x="40" y="-304" font-family="Times,serif" font-size="14.00">Head</text>
</g>
<!-- HEAD1&#45;&gt;HEAD2 -->
<g id="edge10" class="edge"><title>HEAD1&#45;&gt;HEAD2</title>
<path fill="none" stroke="black" d="M40,-426.49C40,-406.543 40,-379.658 40,-357.766"/>
<polygon fill="black" stroke="black" points="43.5001,-357.472 40,-347.473 36.5001,-357.473 43.5001,-357.472"/>
<text text-anchor="middle" x="79.416" y="-381.4" font-family="Times,serif" font-size="14.00">Time passes...</text>
</g>
<!-- TAIL1 -->
<g id="node3" class="node"><title>TAIL1</title>
<ellipse fill="none" stroke="black" cx="392" cy="-456" rx="64.5313" ry="41.0911"/>
<text text-anchor="middle" x="392" y="-467.2" font-family="Times,serif" font-size="14.00">Brick 3</text>
<text text-anchor="middle" x="392" y="-450.4" font-family="Times,serif" font-size="14.00">Tail</text>
<text text-anchor="middle" x="392" y="-433.6" font-family="Times,serif" font-size="14.00">+Official Tail</text>
</g>
<!-- MIDDLE1&#45;&gt;TAIL1 -->
<g id="edge8" class="edge"><title>MIDDLE1&#45;&gt;TAIL1</title>
<path fill="none" stroke="black" d="M244.793,-456C266.054,-456 292.73,-456 317.513,-456"/>
<polygon fill="black" stroke="black" points="317.63,-459.5 327.63,-456 317.63,-452.5 317.63,-459.5"/>
<text text-anchor="middle" x="285.656" y="-461.8" font-family="Times,serif" font-size="14.00">Replication</text>
</g>
<!-- TAIL2 -->
<g id="node5" class="node"><title>TAIL2</title>
<ellipse fill="none" stroke="black" cx="228" cy="-318" rx="64.5313" ry="41.0911"/>
<text text-anchor="middle" x="228" y="-329.2" font-family="Times,serif" font-size="14.00">Brick 3</text>
<text text-anchor="middle" x="228" y="-312.4" font-family="Times,serif" font-size="14.00">Tail</text>
<text text-anchor="middle" x="228" y="-295.6" font-family="Times,serif" font-size="14.00">+Official Tail</text>
</g>
<!-- HEAD2&#45;&gt;TAIL2 -->
<g id="edge12" class="edge"><title>HEAD2&#45;&gt;TAIL2</title>
<path fill="none" stroke="black" d="M80.7932,-318C102.054,-318 128.73,-318 153.513,-318"/>
<polygon fill="black" stroke="black" points="153.63,-321.5 163.63,-318 153.63,-314.5 153.63,-321.5"/>
<text text-anchor="middle" x="121.656" y="-323.8" font-family="Times,serif" font-size="14.00">Replication</text>
</g>
<!-- HEAD3 -->
<g id="node6" class="node"><title>HEAD3</title>
<ellipse fill="none" stroke="black" cx="40" cy="-180" rx="40.597" ry="29.3315"/>
<text text-anchor="middle" x="40" y="-182.8" font-family="Times,serif" font-size="14.00">Brick 1</text>
<text text-anchor="middle" x="40" y="-166" font-family="Times,serif" font-size="14.00">Head</text>
</g>
<!-- HEAD2&#45;&gt;HEAD3 -->
<g id="edge14" class="edge"><title>HEAD2&#45;&gt;HEAD3</title>
<path fill="none" stroke="black" d="M40,-288.49C40,-268.543 40,-241.658 40,-219.766"/>
<polygon fill="black" stroke="black" points="43.5001,-219.472 40,-209.473 36.5001,-219.473 43.5001,-219.472"/>
<text text-anchor="middle" x="79.416" y="-243.4" font-family="Times,serif" font-size="14.00">Time passes...</text>
</g>
<!-- MIDDLE3 -->
<g id="node7" class="node"><title>MIDDLE3</title>
<ellipse fill="none" stroke="black" cx="228" cy="-180" rx="64.5313" ry="41.0911"/>
<text text-anchor="middle" x="228" y="-191.2" font-family="Times,serif" font-size="14.00">Brick 3</text>
<text text-anchor="middle" x="228" y="-174.4" font-family="Times,serif" font-size="14.00">Middle</text>
<text text-anchor="middle" x="228" y="-157.6" font-family="Times,serif" font-size="14.00">+Official Tail</text>
</g>
<!-- HEAD3&#45;&gt;MIDDLE3 -->
<g id="edge16" class="edge"><title>HEAD3&#45;&gt;MIDDLE3</title>
<path fill="none" stroke="black" d="M80.7932,-180C102.054,-180 128.73,-180 153.513,-180"/>
<polygon fill="black" stroke="black" points="153.63,-183.5 163.63,-180 153.63,-176.5 153.63,-183.5"/>
<text text-anchor="middle" x="121.656" y="-185.8" font-family="Times,serif" font-size="14.00">Replication</text>
</g>
<!-- HEAD4 -->
<g id="node9" class="node"><title>HEAD4</title>
<ellipse fill="none" stroke="black" cx="40" cy="-42" rx="40.597" ry="29.3315"/>
<text text-anchor="middle" x="40" y="-44.8" font-family="Times,serif" font-size="14.00">Brick 1</text>
<text text-anchor="middle" x="40" y="-28" font-family="Times,serif" font-size="14.00">Head</text>
</g>
<!-- HEAD3&#45;&gt;HEAD4 -->
<g id="edge24" class="edge"><title>HEAD3&#45;&gt;HEAD4</title>
<path fill="none" stroke="black" d="M40,-150.49C40,-130.543 40,-103.658 40,-81.7661"/>
<polygon fill="black" stroke="black" points="43.5001,-81.4725 40,-71.4725 36.5001,-81.4726 43.5001,-81.4725"/>
<text text-anchor="middle" x="79.416" y="-105.4" font-family="Times,serif" font-size="14.00">Time passes...</text>
</g>
<!-- TAIL3 -->
<g id="node8" class="node"><title>TAIL3</title>
<ellipse fill="none" stroke="black" cx="416" cy="-180" rx="40.597" ry="29.3315"/>
<text text-anchor="middle" x="416" y="-182.8" font-family="Times,serif" font-size="14.00">Brick 2</text>
<text text-anchor="middle" x="416" y="-166" font-family="Times,serif" font-size="14.00">Tail</text>
</g>
<!-- MIDDLE3&#45;&gt;TAIL3 -->
<g id="edge18" class="edge"><title>MIDDLE3&#45;&gt;TAIL3</title>
<path fill="none" stroke="black" d="M292.436,-180C316.202,-180 342.775,-180 365.172,-180"/>
<polygon fill="black" stroke="black" points="365.47,-183.5 375.47,-180 365.47,-176.5 365.47,-183.5"/>
<text text-anchor="middle" x="333.634" y="-185.8" font-family="Times,serif" font-size="14.00">Repair</text>
</g>
<!-- MIDDLE3&#45;&gt;TAIL3 -->
<g id="edge22" class="edge"><title>MIDDLE3&#45;&gt;TAIL3</title>
<path fill="none" stroke="black" d="M286.773,-196.871C307.472,-200.821 330.906,-203.047 352.293,-199.8 358.088,-198.92 364.082,-197.614 369.969,-196.085"/>
<polygon fill="black" stroke="black" points="371.046,-199.418 379.722,-193.337 369.148,-192.681 371.046,-199.418"/>
<text text-anchor="middle" x="333.634" y="-208.6" font-family="Times,serif" font-size="14.00">Replication</text>
</g>
<!-- TAIL3&#45;&gt;MIDDLE3 -->
<g id="edge20" class="edge"><title>TAIL3&#45;&gt;MIDDLE3</title>
<path fill="none" stroke="black" d="M379.722,-166.663C370.869,-163.985 361.339,-161.573 352.293,-160.2 334.247,-157.46 314.745,-158.617 296.658,-161.418"/>
<polygon fill="black" stroke="black" points="296.029,-157.975 286.773,-163.129 297.224,-164.872 296.029,-157.975"/>
<text text-anchor="middle" x="333.634" y="-163" font-family="Times,serif" font-size="14.00">Repair</text>
</g>
<!-- MIDDLE4 -->
<g id="node10" class="node"><title>MIDDLE4</title>
<ellipse fill="none" stroke="black" cx="204" cy="-42" rx="40.597" ry="29.3315"/>
<text text-anchor="middle" x="204" y="-44.8" font-family="Times,serif" font-size="14.00">Brick 3</text>
<text text-anchor="middle" x="204" y="-28" font-family="Times,serif" font-size="14.00">Middle</text>
</g>
<!-- HEAD4&#45;&gt;MIDDLE4 -->
<g id="edge26" class="edge"><title>HEAD4&#45;&gt;MIDDLE4</title>
<path fill="none" stroke="black" d="M80.5393,-42C102.518,-42 129.889,-42 153.271,-42"/>
<polygon fill="black" stroke="black" points="153.359,-45.5001 163.359,-42 153.359,-38.5001 153.359,-45.5001"/>
<text text-anchor="middle" x="121.634" y="-47.8" font-family="Times,serif" font-size="14.00">Replication</text>
</g>
<!-- TAIL4 -->
<g id="node11" class="node"><title>TAIL4</title>
<ellipse fill="none" stroke="black" cx="392" cy="-42" rx="64.5313" ry="41.0911"/>
<text text-anchor="middle" x="392" y="-53.2" font-family="Times,serif" font-size="14.00">Brick 2</text>
<text text-anchor="middle" x="392" y="-36.4" font-family="Times,serif" font-size="14.00">Tail</text>
<text text-anchor="middle" x="392" y="-19.6" font-family="Times,serif" font-size="14.00">+Official Tail</text>
</g>
<!-- MIDDLE4&#45;&gt;TAIL4 -->
<g id="edge28" class="edge"><title>MIDDLE4&#45;&gt;TAIL4</title>
<path fill="none" stroke="black" d="M244.793,-42C266.054,-42 292.73,-42 317.513,-42"/>
<polygon fill="black" stroke="black" points="317.63,-45.5001 327.63,-42 317.63,-38.5001 317.63,-45.5001"/>
<text text-anchor="middle" x="285.656" y="-47.8" font-family="Times,serif" font-size="14.00">Replication</text>
</g>
</g>
</svg>
