<?xml version="1.0" encoding="UTF-8" standalone="no"?>
<!DOCTYPE svg PUBLIC "-//W3C//DTD SVG 1.1//EN"
 "http://www.w3.org/Graphics/SVG/1.1/DTD/svg11.dtd">
<!-- Generated by graphviz version 2.26.0 (20091210.2329)
 -->
<!-- Title: data_flow Pages: 1 -->
<svg width="460pt" height="544pt"
 viewBox="0.00 0.00 460.00 544.00" xmlns="http://www.w3.org/2000/svg" xmlns:xlink="http://www.w3.org/1999/xlink">
<g id="graph1" class="graph" transform="scale(1 1) rotate(0) translate(4 540)">
<title>data_flow</title>
<polygon fill="white" stroke="white" points="-4,5 -4,-540 457,-540 457,5 -4,5"/>
<!-- HEAD1 -->
<g id="node1" class="node"><title>HEAD1</title>
<ellipse fill="none" stroke="black" cx="40" cy="-490" rx="39.8075" ry="32.5269"/>
<text text-anchor="middle" x="40" y="-496.4" font-family="Times Roman,serif" font-size="14.00">Brick 1</text>
<text text-anchor="middle" x="40" y="-477.4" font-family="Times Roman,serif" font-size="14.00">Head</text>
</g>
<!-- MIDDLE1 -->
<g id="node2" class="node"><title>MIDDLE1</title>
<ellipse fill="none" stroke="black" cx="201" cy="-490" rx="39.8075" ry="32.5269"/>
<text text-anchor="middle" x="201" y="-496.4" font-family="Times Roman,serif" font-size="14.00">Brick 2</text>
<text text-anchor="middle" x="201" y="-477.4" font-family="Times Roman,serif" font-size="14.00">Middle</text>
</g>
<!-- HEAD1&#45;&gt;MIDDLE1 -->
<g id="edge6" class="edge"><title>HEAD1&#45;&gt;MIDDLE1</title>
<path fill="none" stroke="black" d="M80.6271,-490C101.792,-490 127.877,-490 150.347,-490"/>
<polygon fill="black" stroke="black" points="150.386,-493.5 160.386,-490 150.386,-486.5 150.386,-493.5"/>
<text text-anchor="middle" x="121" y="-496.4" font-family="Times Roman,serif" font-size="14.00">Replication</text>
</g>
<!-- HEAD2 -->
<g id="node4" class="node"><title>HEAD2</title>
<ellipse fill="none" stroke="black" cx="40" cy="-342" rx="39.8075" ry="32.5269"/>
<text text-anchor="middle" x="40" y="-348.4" font-family="Times Roman,serif" font-size="14.00">Brick 1</text>
<text text-anchor="middle" x="40" y="-329.4" font-family="Times Roman,serif" font-size="14.00">Head</text>
</g>
<!-- HEAD1&#45;&gt;HEAD2 -->
<g id="edge10" class="edge"><title>HEAD1&#45;&gt;HEAD2</title>
<path fill="none" stroke="black" d="M40,-457.154C40,-435.885 40,-407.966 40,-384.945"/>
<polygon fill="black" stroke="black" points="43.5001,-384.754 40,-374.754 36.5001,-384.754 43.5001,-384.754"/>
<text text-anchor="middle" x="79.5" y="-412.9" font-family="Times Roman,serif" font-size="14.00">Time passes...</text>
</g>
<!-- TAIL1 -->
<g id="node3" class="node"><title>TAIL1</title>
<ellipse fill="none" stroke="black" cx="387" cy="-490" rx="65.0538" ry="45.9619"/>
<text text-anchor="middle" x="387" y="-505.9" font-family="Times Roman,serif" font-size="14.00">Brick 3</text>
<text text-anchor="middle" x="387" y="-486.9" font-family="Times Roman,serif" font-size="14.00">Tail</text>
<text text-anchor="middle" x="387" y="-467.9" font-family="Times Roman,serif" font-size="14.00">+Official Tail</text>
</g>
<!-- MIDDLE1&#45;&gt;TAIL1 -->
<g id="edge8" class="edge"><title>MIDDLE1&#45;&gt;TAIL1</title>
<path fill="none" stroke="black" d="M241.818,-490C262.31,-490 287.8,-490 311.676,-490"/>
<polygon fill="black" stroke="black" points="311.79,-493.5 321.79,-490 311.79,-486.5 311.79,-493.5"/>
<text text-anchor="middle" x="282" y="-496.4" font-family="Times Roman,serif" font-size="14.00">Replication</text>
</g>
<!-- TAIL2 -->
<g id="node5" class="node"><title>TAIL2</title>
<ellipse fill="none" stroke="black" cx="226" cy="-342" rx="65.0538" ry="45.9619"/>
<text text-anchor="middle" x="226" y="-357.9" font-family="Times Roman,serif" font-size="14.00">Brick 3</text>
<text text-anchor="middle" x="226" y="-338.9" font-family="Times Roman,serif" font-size="14.00">Tail</text>
<text text-anchor="middle" x="226" y="-319.9" font-family="Times Roman,serif" font-size="14.00">+Official Tail</text>
</g>
<!-- HEAD2&#45;&gt;TAIL2 -->
<g id="edge12" class="edge"><title>HEAD2&#45;&gt;TAIL2</title>
<path fill="none" stroke="black" d="M80.8185,-342C101.31,-342 126.8,-342 150.676,-342"/>
<polygon fill="black" stroke="black" points="150.79,-345.5 160.79,-342 150.79,-338.5 150.79,-345.5"/>
<text text-anchor="middle" x="121" y="-348.4" font-family="Times Roman,serif" font-size="14.00">Replication</text>
</g>
<!-- HEAD3 -->
<g id="node6" class="node"><title>HEAD3</title>
<ellipse fill="none" stroke="black" cx="40" cy="-194" rx="39.8075" ry="32.5269"/>
<text text-anchor="middle" x="40" y="-200.4" font-family="Times Roman,serif" font-size="14.00">Brick 1</text>
<text text-anchor="middle" x="40" y="-181.4" font-family="Times Roman,serif" font-size="14.00">Head</text>
</g>
<!-- HEAD2&#45;&gt;HEAD3 -->
<g id="edge14" class="edge"><title>HEAD2&#45;&gt;HEAD3</title>
<path fill="none" stroke="black" d="M40,-309.154C40,-287.885 40,-259.966 40,-236.945"/>
<polygon fill="black" stroke="black" points="43.5001,-236.754 40,-226.754 36.5001,-236.754 43.5001,-236.754"/>
<text text-anchor="middle" x="79.5" y="-264.9" font-family="Times Roman,serif" font-size="14.00">Time passes...</text>
</g>
<!-- MIDDLE3 -->
<g id="node7" class="node"><title>MIDDLE3</title>
<ellipse fill="none" stroke="black" cx="226" cy="-194" rx="65.0538" ry="45.9619"/>
<text text-anchor="middle" x="226" y="-209.9" font-family="Times Roman,serif" font-size="14.00">Brick 3</text>
<text text-anchor="middle" x="226" y="-190.9" font-family="Times Roman,serif" font-size="14.00">Middle</text>
<text text-anchor="middle" x="226" y="-171.9" font-family="Times Roman,serif" font-size="14.00">+Official Tail</text>
</g>
<!-- HEAD3&#45;&gt;MIDDLE3 -->
<g id="edge16" class="edge"><title>HEAD3&#45;&gt;MIDDLE3</title>
<path fill="none" stroke="black" d="M80.8185,-194C101.31,-194 126.8,-194 150.676,-194"/>
<polygon fill="black" stroke="black" points="150.79,-197.5 160.79,-194 150.79,-190.5 150.79,-197.5"/>
<text text-anchor="middle" x="121" y="-200.4" font-family="Times Roman,serif" font-size="14.00">Replication</text>
</g>
<!-- HEAD4 -->
<g id="node9" class="node"><title>HEAD4</title>
<ellipse fill="none" stroke="black" cx="40" cy="-46" rx="39.8075" ry="32.5269"/>
<text text-anchor="middle" x="40" y="-52.4" font-family="Times Roman,serif" font-size="14.00">Brick 1</text>
<text text-anchor="middle" x="40" y="-33.4" font-family="Times Roman,serif" font-size="14.00">Head</text>
</g>
<!-- HEAD3&#45;&gt;HEAD4 -->
<g id="edge24" class="edge"><title>HEAD3&#45;&gt;HEAD4</title>
<path fill="none" stroke="black" d="M40,-161.154C40,-139.885 40,-111.966 40,-88.9452"/>
<polygon fill="black" stroke="black" points="43.5001,-88.7541 40,-78.7542 36.5001,-88.7542 43.5001,-88.7541"/>
<text text-anchor="middle" x="79.5" y="-116.9" font-family="Times Roman,serif" font-size="14.00">Time passes...</text>
</g>
<!-- TAIL3 -->
<g id="node8" class="node"><title>TAIL3</title>
<ellipse fill="none" stroke="black" cx="412" cy="-194" rx="39.8075" ry="32.5269"/>
<text text-anchor="middle" x="412" y="-200.4" font-family="Times Roman,serif" font-size="14.00">Brick 2</text>
<text text-anchor="middle" x="412" y="-181.4" font-family="Times Roman,serif" font-size="14.00">Tail</text>
</g>
<!-- MIDDLE3&#45;&gt;TAIL3 -->
<g id="edge18" class="edge"><title>MIDDLE3&#45;&gt;TAIL3</title>
<path fill="none" stroke="black" d="M291.054,-194C314.011,-194 339.473,-194 361.089,-194"/>
<polygon fill="black" stroke="black" points="361.365,-197.5 371.365,-194 361.365,-190.5 361.365,-197.5"/>
<text text-anchor="middle" x="332" y="-200.4" font-family="Times Roman,serif" font-size="14.00">Repair</text>
</g>
<!-- MIDDLE3&#45;&gt;TAIL3 -->
<g id="edge22" class="edge"><title>MIDDLE3&#45;&gt;TAIL3</title>
<path fill="none" stroke="black" d="M284.597,-174.039C289.761,-172.814 294.946,-171.767 300,-171 328.122,-166.73 336.263,-164.698 364,-171 365.673,-171.38 367.355,-171.826 369.037,-172.326"/>
<polygon fill="black" stroke="black" points="368,-175.672 378.595,-175.704 370.333,-169.072 368,-175.672"/>
<text text-anchor="middle" x="332" y="-177.4" font-family="Times Roman,serif" font-size="14.00">Replication</text>
</g>
<!-- TAIL3&#45;&gt;MIDDLE3 -->
<g id="edge20" class="edge"><title>TAIL3&#45;&gt;MIDDLE3</title>
<path fill="none" stroke="black" d="M402.687,-162.592C395.384,-144.033 383.177,-122.063 364,-111 339.361,-96.7867 325.957,-99.3669 300,-111 283.948,-118.194 269.948,-130.782 258.573,-144.012"/>
<polygon fill="black" stroke="black" points="255.795,-141.88 252.183,-151.84 261.218,-146.307 255.795,-141.88"/>
<text text-anchor="middle" x="332" y="-117.4" font-family="Times Roman,serif" font-size="14.00">Repair</text>
</g>
<!-- MIDDLE4 -->
<g id="node10" class="node"><title>MIDDLE4</title>
<ellipse fill="none" stroke="black" cx="201" cy="-46" rx="39.8075" ry="32.5269"/>
<text text-anchor="middle" x="201" y="-52.4" font-family="Times Roman,serif" font-size="14.00">Brick 3</text>
<text text-anchor="middle" x="201" y="-33.4" font-family="Times Roman,serif" font-size="14.00">Middle</text>
</g>
<!-- HEAD4&#45;&gt;MIDDLE4 -->
<g id="edge26" class="edge"><title>HEAD4&#45;&gt;MIDDLE4</title>
<path fill="none" stroke="black" d="M80.6271,-46C101.792,-46 127.877,-46 150.347,-46"/>
<polygon fill="black" stroke="black" points="150.386,-49.5001 160.386,-46 150.386,-42.5001 150.386,-49.5001"/>
<text text-anchor="middle" x="121" y="-52.4" font-family="Times Roman,serif" font-size="14.00">Replication</text>
</g>
<!-- TAIL4 -->
<g id="node11" class="node"><title>TAIL4</title>
<ellipse fill="none" stroke="black" cx="387" cy="-46" rx="65.0538" ry="45.9619"/>
<text text-anchor="middle" x="387" y="-61.9" font-family="Times Roman,serif" font-size="14.00">Brick 2</text>
<text text-anchor="middle" x="387" y="-42.9" font-family="Times Roman,serif" font-size="14.00">Tail</text>
<text text-anchor="middle" x="387" y="-23.9" font-family="Times Roman,serif" font-size="14.00">+Official Tail</text>
</g>
<!-- MIDDLE4&#45;&gt;TAIL4 -->
<g id="edge28" class="edge"><title>MIDDLE4&#45;&gt;TAIL4</title>
<path fill="none" stroke="black" d="M241.818,-46C262.31,-46 287.8,-46 311.676,-46"/>
<polygon fill="black" stroke="black" points="311.79,-49.5001 321.79,-46 311.79,-42.5001 311.79,-49.5001"/>
<text text-anchor="middle" x="282" y="-52.4" font-family="Times Roman,serif" font-size="14.00">Replication</text>
</g>
</g>
</svg>
