<?xml version="1.0" encoding="UTF-8" standalone="no"?>
<!DOCTYPE svg PUBLIC "-//W3C//DTD SVG 1.1//EN"
 "http://www.w3.org/Graphics/SVG/1.1/DTD/svg11.dtd">
<!-- Generated by graphviz version 2.28.0 (20120122.0658)
 -->
<!-- Title: data_flow Pages: 1 -->
<svg width="688pt" height="262pt"
 viewBox="0.00 0.00 688.00 262.00" xmlns="http://www.w3.org/2000/svg" xmlns:xlink="http://www.w3.org/1999/xlink">
<g id="graph1" class="graph" transform="scale(1 1) rotate(0) translate(4 258)">
<title>data_flow</title>
<polygon fill="white" stroke="white" points="-4,5 -4,-258 685,-258 685,5 -4,5"/>
<!-- CH1 -->
<g id="node1" class="node"><title>CH1</title>
<ellipse fill="none" stroke="black" cx="107" cy="-212" rx="107.497" ry="41.0911"/>
<text text-anchor="middle" x="107" y="-223.2" font-family="Times,serif" font-size="14.00">Chain 1</text>
<text text-anchor="middle" x="107" y="-206.4" font-family="Times,serif" font-size="14.00">Before: ~33% total keys</text>
<text text-anchor="middle" x="107" y="-189.6" font-family="Times,serif" font-size="14.00">After: ~25% total keys</text>
</g>
<!-- CH4 -->
<g id="node4" class="node"><title>CH4</title>
<ellipse fill="none" stroke="black" cx="340" cy="-42" rx="101.964" ry="41.0911"/>
<text text-anchor="middle" x="340" y="-53.2" font-family="Times,serif" font-size="14.00">Chain 4</text>
<text text-anchor="middle" x="340" y="-36.4" font-family="Times,serif" font-size="14.00">Before: &#160;&#160;0% total keys</text>
<text text-anchor="middle" x="340" y="-19.6" font-family="Times,serif" font-size="14.00">After: ~25% total keys</text>
</g>
<!-- CH1&#45;&gt;CH4 -->
<g id="edge2" class="edge"><title>CH1&#45;&gt;CH4</title>
<path fill="none" stroke="black" d="M150.253,-173.917C176.416,-152.098 210.814,-124.469 242.895,-102 252.677,-95.1481 263.265,-88.2369 273.728,-81.6779"/>
<polygon fill="black" stroke="black" points="275.813,-84.5036 282.469,-76.2601 272.125,-78.5539 275.813,-84.5036"/>
<text text-anchor="middle" x="289.553" y="-138.2" font-family="Times,serif" font-size="14.00">Moving keys:</text>
<text text-anchor="middle" x="289.553" y="-121.4" font-family="Times,serif" font-size="14.00">~24% local keys</text>
<text text-anchor="middle" x="289.553" y="-104.6" font-family="Times,serif" font-size="14.00">~8% total keys</text>
</g>
<!-- CH2 -->
<g id="node2" class="node"><title>CH2</title>
<ellipse fill="none" stroke="black" cx="340" cy="-212" rx="107.497" ry="41.0911"/>
<text text-anchor="middle" x="340" y="-223.2" font-family="Times,serif" font-size="14.00">Chain 2</text>
<text text-anchor="middle" x="340" y="-206.4" font-family="Times,serif" font-size="14.00">Before: ~33% total keys</text>
<text text-anchor="middle" x="340" y="-189.6" font-family="Times,serif" font-size="14.00">After: ~25% total keys</text>
</g>
<!-- CH2&#45;&gt;CH4 -->
<g id="edge4" class="edge"><title>CH2&#45;&gt;CH4</title>
<path fill="none" stroke="black" d="M340,-170.332C340,-147.305 340,-118.295 340,-93.7835"/>
<polygon fill="black" stroke="black" points="343.5,-93.5844 340,-83.5844 336.5,-93.5845 343.5,-93.5844"/>
<text text-anchor="middle" x="386.553" y="-138.2" font-family="Times,serif" font-size="14.00">Moving keys:</text>
<text text-anchor="middle" x="386.553" y="-121.4" font-family="Times,serif" font-size="14.00">~24% local keys</text>
<text text-anchor="middle" x="386.553" y="-104.6" font-family="Times,serif" font-size="14.00">~8% total keys</text>
</g>
<!-- CH3 -->
<g id="node3" class="node"><title>CH3</title>
<ellipse fill="none" stroke="black" cx="573" cy="-212" rx="107.497" ry="41.0911"/>
<text text-anchor="middle" x="573" y="-223.2" font-family="Times,serif" font-size="14.00">Chain 3</text>
<text text-anchor="middle" x="573" y="-206.4" font-family="Times,serif" font-size="14.00">Before: ~33% total keys</text>
<text text-anchor="middle" x="573" y="-189.6" font-family="Times,serif" font-size="14.00">After: ~25% total keys</text>
</g>
<!-- CH3&#45;&gt;CH4 -->
<g id="edge6" class="edge"><title>CH3&#45;&gt;CH4</title>
<path fill="none" stroke="black" d="M529.705,-173.926C503.52,-152.11 469.094,-124.481 437,-102 427.225,-95.153 416.648,-88.2444 406.195,-81.6865"/>
<polygon fill="black" stroke="black" points="407.807,-78.5675 397.464,-76.2693 404.116,-84.5156 407.807,-78.5675"/>
<text text-anchor="middle" x="547.553" y="-138.2" font-family="Times,serif" font-size="14.00">Moving keys:</text>
<text text-anchor="middle" x="547.553" y="-121.4" font-family="Times,serif" font-size="14.00">~24% local keys</text>
<text text-anchor="middle" x="547.553" y="-104.6" font-family="Times,serif" font-size="14.00">~8% total keys</text>
</g>
</g>
</svg>
