<?xml version="1.0" encoding="UTF-8" standalone="no"?>
<!DOCTYPE svg PUBLIC "-//W3C//DTD SVG 1.1//EN"
 "http://www.w3.org/Graphics/SVG/1.1/DTD/svg11.dtd">
<!-- Generated by graphviz version 2.26.3 (20100126.1600)
 -->
<!-- Title: data_flow Pages: 1 -->
<svg width="704pt" height="242pt"
 viewBox="0.00 0.00 704.00 242.00" xmlns="http://www.w3.org/2000/svg" xmlns:xlink="http://www.w3.org/1999/xlink">
<g id="graph1" class="graph" transform="scale(1 1) rotate(0) translate(4 238)">
<title>data_flow</title>
<polygon fill="white" stroke="white" points="-4,5 -4,-238 701,-238 701,5 -4,5"/>
<!-- CH1 -->
<g id="node1" class="node"><title>CH1</title>
<ellipse fill="none" stroke="black" cx="110" cy="-196" rx="109.81" ry="37.4767"/>
<text text-anchor="middle" x="110" y="-205.9" font-family="Times,serif" font-size="14.00">Chain 1</text>
<text text-anchor="middle" x="110" y="-190.9" font-family="Times,serif" font-size="14.00">Before: ~33% total keys</text>
<text text-anchor="middle" x="110" y="-175.9" font-family="Times,serif" font-size="14.00">After: ~25% total keys</text>
</g>
<!-- CH4 -->
<g id="node4" class="node"><title>CH4</title>
<ellipse fill="none" stroke="black" cx="348" cy="-38" rx="104.86" ry="37.4767"/>
<text text-anchor="middle" x="348" y="-47.9" font-family="Times,serif" font-size="14.00">Chain 4</text>
<text text-anchor="middle" x="348" y="-32.9" font-family="Times,serif" font-size="14.00">Before: &#160;&#160;0% total keys</text>
<text text-anchor="middle" x="348" y="-17.9" font-family="Times,serif" font-size="14.00">After: ~25% total keys</text>
</g>
<!-- CH1&#45;&gt;CH4 -->
<g id="edge2" class="edge"><title>CH1&#45;&gt;CH4</title>
<path fill="none" stroke="black" d="M153.739,-161.467C180.388,-140.989 215.466,-115.014 248,-94 258.353,-87.3127 269.551,-80.5831 280.578,-74.2231"/>
<polygon fill="black" stroke="black" points="282.414,-77.2051 289.365,-69.2096 278.945,-71.125 282.414,-77.2051"/>
<text text-anchor="middle" x="296" y="-126.9" font-family="Times,serif" font-size="14.00">Moving keys:</text>
<text text-anchor="middle" x="296" y="-111.9" font-family="Times,serif" font-size="14.00">~24% local keys</text>
<text text-anchor="middle" x="296" y="-96.9" font-family="Times,serif" font-size="14.00">~8% total keys</text>
</g>
<!-- CH2 -->
<g id="node2" class="node"><title>CH2</title>
<ellipse fill="none" stroke="black" cx="348" cy="-196" rx="109.81" ry="37.4767"/>
<text text-anchor="middle" x="348" y="-205.9" font-family="Times,serif" font-size="14.00">Chain 2</text>
<text text-anchor="middle" x="348" y="-190.9" font-family="Times,serif" font-size="14.00">Before: ~33% total keys</text>
<text text-anchor="middle" x="348" y="-175.9" font-family="Times,serif" font-size="14.00">After: ~25% total keys</text>
</g>
<!-- CH2&#45;&gt;CH4 -->
<g id="edge4" class="edge"><title>CH2&#45;&gt;CH4</title>
<path fill="none" stroke="black" d="M348,-158.155C348,-136.365 348,-108.779 348,-85.5364"/>
<polygon fill="black" stroke="black" points="351.5,-85.5361 348,-75.5361 344.5,-85.5362 351.5,-85.5361"/>
<text text-anchor="middle" x="396" y="-126.9" font-family="Times,serif" font-size="14.00">Moving keys:</text>
<text text-anchor="middle" x="396" y="-111.9" font-family="Times,serif" font-size="14.00">~24% local keys</text>
<text text-anchor="middle" x="396" y="-96.9" font-family="Times,serif" font-size="14.00">~8% total keys</text>
</g>
<!-- CH3 -->
<g id="node3" class="node"><title>CH3</title>
<ellipse fill="none" stroke="black" cx="586" cy="-196" rx="109.81" ry="37.4767"/>
<text text-anchor="middle" x="586" y="-205.9" font-family="Times,serif" font-size="14.00">Chain 3</text>
<text text-anchor="middle" x="586" y="-190.9" font-family="Times,serif" font-size="14.00">Before: ~33% total keys</text>
<text text-anchor="middle" x="586" y="-175.9" font-family="Times,serif" font-size="14.00">After: ~25% total keys</text>
</g>
<!-- CH3&#45;&gt;CH4 -->
<g id="edge6" class="edge"><title>CH3&#45;&gt;CH4</title>
<path fill="none" stroke="black" d="M542.261,-161.467C515.612,-140.989 480.534,-115.014 448,-94 437.647,-87.3127 426.449,-80.5831 415.422,-74.2231"/>
<polygon fill="black" stroke="black" points="417.055,-71.125 406.635,-69.2096 413.586,-77.2051 417.055,-71.125"/>
<text text-anchor="middle" x="561" y="-126.9" font-family="Times,serif" font-size="14.00">Moving keys:</text>
<text text-anchor="middle" x="561" y="-111.9" font-family="Times,serif" font-size="14.00">~24% local keys</text>
<text text-anchor="middle" x="561" y="-96.9" font-family="Times,serif" font-size="14.00">~8% total keys</text>
</g>
</g>
</svg>
