<?xml version="1.0" encoding="UTF-8" standalone="no"?>
<!DOCTYPE svg PUBLIC "-//W3C//DTD SVG 1.1//EN"
 "http://www.w3.org/Graphics/SVG/1.1/DTD/svg11.dtd">
<!-- Generated by graphviz version 2.26.3 (20100126.1600)
 -->
<!-- Title: data_flow Pages: 1 -->
<svg width="474pt" height="468pt"
 viewBox="0.00 0.00 474.00 468.00" xmlns="http://www.w3.org/2000/svg" xmlns:xlink="http://www.w3.org/1999/xlink">
<g id="graph1" class="graph" transform="scale(1 1) rotate(0) translate(4 464)">
<title>data_flow</title>
<polygon fill="white" stroke="white" points="-4,5 -4,-464 471,-464 471,5 -4,5"/>
<!-- HEAD1 -->
<g id="node1" class="node"><title>HEAD1</title>
<ellipse fill="none" stroke="black" cx="42" cy="-422" rx="41.9273" ry="26.8701"/>
<text text-anchor="middle" x="42" y="-424.4" font-family="Times,serif" font-size="14.00">Brick 1</text>
<text text-anchor="middle" x="42" y="-409.4" font-family="Times,serif" font-size="14.00">Head</text>
</g>
<!-- MIDDLE1 -->
<g id="node2" class="node"><title>MIDDLE1</title>
<ellipse fill="none" stroke="black" cx="210" cy="-422" rx="41.9273" ry="26.8701"/>
<text text-anchor="middle" x="210" y="-424.4" font-family="Times,serif" font-size="14.00">Brick 2</text>
<text text-anchor="middle" x="210" y="-409.4" font-family="Times,serif" font-size="14.00">Middle</text>
</g>
<!-- HEAD1&#45;&gt;MIDDLE1 -->
<g id="edge6" class="edge"><title>HEAD1&#45;&gt;MIDDLE1</title>
<path fill="none" stroke="black" d="M84.8282,-422C106.846,-422 133.878,-422 157.179,-422"/>
<polygon fill="black" stroke="black" points="157.25,-425.5 167.25,-422 157.25,-418.5 157.25,-425.5"/>
<text text-anchor="middle" x="126" y="-424.4" font-family="Times,serif" font-size="14.00">Replication</text>
</g>
<!-- HEAD2 -->
<g id="node4" class="node"><title>HEAD2</title>
<ellipse fill="none" stroke="black" cx="42" cy="-294" rx="41.9273" ry="26.8701"/>
<text text-anchor="middle" x="42" y="-296.4" font-family="Times,serif" font-size="14.00">Brick 1</text>
<text text-anchor="middle" x="42" y="-281.4" font-family="Times,serif" font-size="14.00">Head</text>
</g>
<!-- HEAD1&#45;&gt;HEAD2 -->
<g id="edge10" class="edge"><title>HEAD1&#45;&gt;HEAD2</title>
<path fill="none" stroke="black" d="M42,-394.854C42,-376.357 42,-351.628 42,-331.287"/>
<polygon fill="black" stroke="black" points="45.5001,-331.106 42,-321.106 38.5001,-331.106 45.5001,-331.106"/>
<text text-anchor="middle" x="82" y="-352.9" font-family="Times,serif" font-size="14.00">Time passes...</text>
</g>
<!-- TAIL1 -->
<g id="node3" class="node"><title>TAIL1</title>
<ellipse fill="none" stroke="black" cx="401" cy="-422" rx="65.0538" ry="37.4767"/>
<text text-anchor="middle" x="401" y="-431.9" font-family="Times,serif" font-size="14.00">Brick 3</text>
<text text-anchor="middle" x="401" y="-416.9" font-family="Times,serif" font-size="14.00">Tail</text>
<text text-anchor="middle" x="401" y="-401.9" font-family="Times,serif" font-size="14.00">+Official Tail</text>
</g>
<!-- MIDDLE1&#45;&gt;TAIL1 -->
<g id="edge8" class="edge"><title>MIDDLE1&#45;&gt;TAIL1</title>
<path fill="none" stroke="black" d="M252.864,-422C274.324,-422 300.942,-422 325.669,-422"/>
<polygon fill="black" stroke="black" points="325.763,-425.5 335.763,-422 325.763,-418.5 325.763,-425.5"/>
<text text-anchor="middle" x="294" y="-424.4" font-family="Times,serif" font-size="14.00">Replication</text>
</g>
<!-- TAIL2 -->
<g id="node5" class="node"><title>TAIL2</title>
<ellipse fill="none" stroke="black" cx="233" cy="-294" rx="65.0538" ry="37.4767"/>
<text text-anchor="middle" x="233" y="-303.9" font-family="Times,serif" font-size="14.00">Brick 3</text>
<text text-anchor="middle" x="233" y="-288.9" font-family="Times,serif" font-size="14.00">Tail</text>
<text text-anchor="middle" x="233" y="-273.9" font-family="Times,serif" font-size="14.00">+Official Tail</text>
</g>
<!-- HEAD2&#45;&gt;TAIL2 -->
<g id="edge12" class="edge"><title>HEAD2&#45;&gt;TAIL2</title>
<path fill="none" stroke="black" d="M84.8641,-294C106.324,-294 132.942,-294 157.669,-294"/>
<polygon fill="black" stroke="black" points="157.763,-297.5 167.763,-294 157.763,-290.5 157.763,-297.5"/>
<text text-anchor="middle" x="126" y="-296.4" font-family="Times,serif" font-size="14.00">Replication</text>
</g>
<!-- HEAD3 -->
<g id="node6" class="node"><title>HEAD3</title>
<ellipse fill="none" stroke="black" cx="42" cy="-166" rx="41.9273" ry="26.8701"/>
<text text-anchor="middle" x="42" y="-168.4" font-family="Times,serif" font-size="14.00">Brick 1</text>
<text text-anchor="middle" x="42" y="-153.4" font-family="Times,serif" font-size="14.00">Head</text>
</g>
<!-- HEAD2&#45;&gt;HEAD3 -->
<g id="edge14" class="edge"><title>HEAD2&#45;&gt;HEAD3</title>
<path fill="none" stroke="black" d="M42,-266.854C42,-248.357 42,-223.628 42,-203.287"/>
<polygon fill="black" stroke="black" points="45.5001,-203.106 42,-193.106 38.5001,-203.106 45.5001,-203.106"/>
<text text-anchor="middle" x="82" y="-224.9" font-family="Times,serif" font-size="14.00">Time passes...</text>
</g>
<!-- MIDDLE3 -->
<g id="node7" class="node"><title>MIDDLE3</title>
<ellipse fill="none" stroke="black" cx="233" cy="-166" rx="65.0538" ry="37.4767"/>
<text text-anchor="middle" x="233" y="-175.9" font-family="Times,serif" font-size="14.00">Brick 3</text>
<text text-anchor="middle" x="233" y="-160.9" font-family="Times,serif" font-size="14.00">Middle</text>
<text text-anchor="middle" x="233" y="-145.9" font-family="Times,serif" font-size="14.00">+Official Tail</text>
</g>
<!-- HEAD3&#45;&gt;MIDDLE3 -->
<g id="edge16" class="edge"><title>HEAD3&#45;&gt;MIDDLE3</title>
<path fill="none" stroke="black" d="M84.8641,-166C106.324,-166 132.942,-166 157.669,-166"/>
<polygon fill="black" stroke="black" points="157.763,-169.5 167.763,-166 157.763,-162.5 157.763,-169.5"/>
<text text-anchor="middle" x="126" y="-168.4" font-family="Times,serif" font-size="14.00">Replication</text>
</g>
<!-- HEAD4 -->
<g id="node9" class="node"><title>HEAD4</title>
<ellipse fill="none" stroke="black" cx="42" cy="-38" rx="41.9273" ry="26.8701"/>
<text text-anchor="middle" x="42" y="-40.4" font-family="Times,serif" font-size="14.00">Brick 1</text>
<text text-anchor="middle" x="42" y="-25.4" font-family="Times,serif" font-size="14.00">Head</text>
</g>
<!-- HEAD3&#45;&gt;HEAD4 -->
<g id="edge24" class="edge"><title>HEAD3&#45;&gt;HEAD4</title>
<path fill="none" stroke="black" d="M42,-138.854C42,-120.357 42,-95.6283 42,-75.2873"/>
<polygon fill="black" stroke="black" points="45.5001,-75.1063 42,-65.1064 38.5001,-75.1064 45.5001,-75.1063"/>
<text text-anchor="middle" x="82" y="-96.9" font-family="Times,serif" font-size="14.00">Time passes...</text>
</g>
<!-- TAIL3 -->
<g id="node8" class="node"><title>TAIL3</title>
<ellipse fill="none" stroke="black" cx="424" cy="-166" rx="41.9273" ry="26.8701"/>
<text text-anchor="middle" x="424" y="-168.4" font-family="Times,serif" font-size="14.00">Brick 2</text>
<text text-anchor="middle" x="424" y="-153.4" font-family="Times,serif" font-size="14.00">Tail</text>
</g>
<!-- MIDDLE3&#45;&gt;TAIL3 -->
<g id="edge18" class="edge"><title>MIDDLE3&#45;&gt;TAIL3</title>
<path fill="none" stroke="black" d="M298.197,-166C322.001,-166 348.607,-166 371.199,-166"/>
<polygon fill="black" stroke="black" points="371.272,-169.5 381.272,-166 371.271,-162.5 371.272,-169.5"/>
<text text-anchor="middle" x="340" y="-168.4" font-family="Times,serif" font-size="14.00">Repair</text>
</g>
<!-- MIDDLE3&#45;&gt;TAIL3 -->
<g id="edge22" class="edge"><title>MIDDLE3&#45;&gt;TAIL3</title>
<path fill="none" stroke="black" d="M291.308,-149.586C296.582,-148.54 301.868,-147.648 307,-147 336.102,-143.324 344.132,-141.797 373,-147 374.918,-147.346 376.858,-147.759 378.804,-148.227"/>
<polygon fill="black" stroke="black" points="377.935,-151.618 388.509,-150.959 379.832,-144.88 377.935,-151.618"/>
<text text-anchor="middle" x="340" y="-149.4" font-family="Times,serif" font-size="14.00">Replication</text>
</g>
<!-- TAIL3&#45;&gt;MIDDLE3 -->
<g id="edge20" class="edge"><title>TAIL3&#45;&gt;MIDDLE3</title>
<path fill="none" stroke="black" d="M413.901,-139.738C405.718,-122.47 392.344,-101.239 373,-91 347.074,-77.2776 334.063,-79.6837 307,-91 290.353,-97.9607 275.549,-110.692 263.638,-123.714"/>
<polygon fill="black" stroke="black" points="260.895,-121.534 256.967,-131.373 266.174,-126.131 260.895,-121.534"/>
<text text-anchor="middle" x="340" y="-93.4" font-family="Times,serif" font-size="14.00">Repair</text>
</g>
<!-- MIDDLE4 -->
<g id="node10" class="node"><title>MIDDLE4</title>
<ellipse fill="none" stroke="black" cx="210" cy="-38" rx="41.9273" ry="26.8701"/>
<text text-anchor="middle" x="210" y="-40.4" font-family="Times,serif" font-size="14.00">Brick 3</text>
<text text-anchor="middle" x="210" y="-25.4" font-family="Times,serif" font-size="14.00">Middle</text>
</g>
<!-- HEAD4&#45;&gt;MIDDLE4 -->
<g id="edge26" class="edge"><title>HEAD4&#45;&gt;MIDDLE4</title>
<path fill="none" stroke="black" d="M84.8282,-38C106.846,-38 133.878,-38 157.179,-38"/>
<polygon fill="black" stroke="black" points="157.25,-41.5001 167.25,-38 157.25,-34.5001 157.25,-41.5001"/>
<text text-anchor="middle" x="126" y="-40.4" font-family="Times,serif" font-size="14.00">Replication</text>
</g>
<!-- TAIL4 -->
<g id="node11" class="node"><title>TAIL4</title>
<ellipse fill="none" stroke="black" cx="401" cy="-38" rx="65.0538" ry="37.4767"/>
<text text-anchor="middle" x="401" y="-47.9" font-family="Times,serif" font-size="14.00">Brick 2</text>
<text text-anchor="middle" x="401" y="-32.9" font-family="Times,serif" font-size="14.00">Tail</text>
<text text-anchor="middle" x="401" y="-17.9" font-family="Times,serif" font-size="14.00">+Official Tail</text>
</g>
<!-- MIDDLE4&#45;&gt;TAIL4 -->
<g id="edge28" class="edge"><title>MIDDLE4&#45;&gt;TAIL4</title>
<path fill="none" stroke="black" d="M252.864,-38C274.324,-38 300.942,-38 325.669,-38"/>
<polygon fill="black" stroke="black" points="325.763,-41.5001 335.763,-38 325.763,-34.5001 325.763,-41.5001"/>
<text text-anchor="middle" x="294" y="-40.4" font-family="Times,serif" font-size="14.00">Replication</text>
</g>
</g>
</svg>
