<?xml version="1.0" encoding="UTF-8" standalone="no"?>
<!DOCTYPE svg PUBLIC "-//W3C//DTD SVG 1.1//EN"
 "http://www.w3.org/Graphics/SVG/1.1/DTD/svg11.dtd">
<!-- Generated by graphviz version 2.38.0 (20140413.2041)
 -->
<!-- Title: data_flow Pages: 1 -->
<svg width="463pt" height="461pt"
 viewBox="0.00 0.00 462.61 460.81" xmlns="http://www.w3.org/2000/svg" xmlns:xlink="http://www.w3.org/1999/xlink">
<g id="graph0" class="graph" transform="scale(1 1) rotate(0) translate(4 456.813)">
<title>data_flow</title>
<polygon fill="white" stroke="none" points="-4,4 -4,-456.813 458.61,-456.813 458.61,4 -4,4"/>
<!-- HEAD1 -->
<g id="node1" class="node"><title>HEAD1</title>
<ellipse fill="none" stroke="black" cx="40.3051" cy="-415.337" rx="40.1111" ry="26.7407"/>
<text text-anchor="middle" x="40.3051" y="-419.137" font-family="Times,serif" font-size="14.00">Brick 1</text>
<text text-anchor="middle" x="40.3051" y="-404.137" font-family="Times,serif" font-size="14.00">Head</text>
</g>
<!-- MIDDLE1 -->
<g id="node2" class="node"><title>MIDDLE1</title>
<ellipse fill="none" stroke="black" cx="202.305" cy="-415.337" rx="40.1111" ry="26.7407"/>
<text text-anchor="middle" x="202.305" y="-419.137" font-family="Times,serif" font-size="14.00">Brick 2</text>
<text text-anchor="middle" x="202.305" y="-404.137" font-family="Times,serif" font-size="14.00">Middle</text>
</g>
<!-- HEAD1&#45;&gt;MIDDLE1 -->
<g id="edge1" class="edge"><title>HEAD1&#45;&gt;MIDDLE1</title>
<path fill="none" stroke="black" d="M80.7666,-415.337C102.222,-415.337 128.79,-415.337 151.609,-415.337"/>
<polygon fill="black" stroke="black" points="151.798,-418.837 161.798,-415.337 151.798,-411.837 151.798,-418.837"/>
<text text-anchor="middle" x="121.305" y="-422.137" font-family="Times,serif" font-size="14.00">Replication</text>
</g>
<!-- HEAD2 -->
<g id="node4" class="node"><title>HEAD2</title>
<ellipse fill="none" stroke="black" cx="40.3051" cy="-289.383" rx="40.1111" ry="26.7407"/>
<text text-anchor="middle" x="40.3051" y="-293.183" font-family="Times,serif" font-size="14.00">Brick 1</text>
<text text-anchor="middle" x="40.3051" y="-278.183" font-family="Times,serif" font-size="14.00">Head</text>
</g>
<!-- HEAD1&#45;&gt;HEAD2 -->
<g id="edge3" class="edge"><title>HEAD1&#45;&gt;HEAD2</title>
<path fill="none" stroke="black" d="M40.3051,-388.352C40.3051,-370.42 40.3051,-346.335 40.3051,-326.534"/>
<polygon fill="black" stroke="black" points="43.8052,-326.334 40.3051,-316.334 36.8052,-326.334 43.8052,-326.334"/>
<text text-anchor="middle" x="78.8051" y="-348.66" font-family="Times,serif" font-size="14.00">Time passes...</text>
</g>
<!-- TAIL1 -->
<g id="node3" class="node"><title>TAIL1</title>
<ellipse fill="none" stroke="black" cx="389.305" cy="-415.337" rx="65.1077" ry="37.4533"/>
<text text-anchor="middle" x="389.305" y="-426.637" font-family="Times,serif" font-size="14.00">Brick 3</text>
<text text-anchor="middle" x="389.305" y="-411.637" font-family="Times,serif" font-size="14.00">Tail</text>
<text text-anchor="middle" x="389.305" y="-396.637" font-family="Times,serif" font-size="14.00">+Official Tail</text>
</g>
<!-- MIDDLE1&#45;&gt;TAIL1 -->
<g id="edge2" class="edge"><title>MIDDLE1&#45;&gt;TAIL1</title>
<path fill="none" stroke="black" d="M242.881,-415.337C263.653,-415.337 289.622,-415.337 313.898,-415.337"/>
<polygon fill="black" stroke="black" points="314.178,-418.837 324.178,-415.337 314.178,-411.837 314.178,-418.837"/>
<text text-anchor="middle" x="283.431" y="-422.137" font-family="Times,serif" font-size="14.00">Replication</text>
</g>
<!-- TAIL2 -->
<g id="node5" class="node"><title>TAIL2</title>
<ellipse fill="none" stroke="black" cx="227.305" cy="-289.383" rx="65.1077" ry="37.4533"/>
<text text-anchor="middle" x="227.305" y="-300.683" font-family="Times,serif" font-size="14.00">Brick 3</text>
<text text-anchor="middle" x="227.305" y="-285.683" font-family="Times,serif" font-size="14.00">Tail</text>
<text text-anchor="middle" x="227.305" y="-270.683" font-family="Times,serif" font-size="14.00">+Official Tail</text>
</g>
<!-- HEAD2&#45;&gt;TAIL2 -->
<g id="edge4" class="edge"><title>HEAD2&#45;&gt;TAIL2</title>
<path fill="none" stroke="black" d="M80.8813,-289.383C101.653,-289.383 127.622,-289.383 151.898,-289.383"/>
<polygon fill="black" stroke="black" points="152.178,-292.883 162.178,-289.383 152.178,-285.883 152.178,-292.883"/>
<text text-anchor="middle" x="121.431" y="-296.183" font-family="Times,serif" font-size="14.00">Replication</text>
</g>
<!-- HEAD3 -->
<g id="node6" class="node"><title>HEAD3</title>
<ellipse fill="none" stroke="black" cx="40.3051" cy="-163.43" rx="40.1111" ry="26.7407"/>
<text text-anchor="middle" x="40.3051" y="-167.23" font-family="Times,serif" font-size="14.00">Brick 1</text>
<text text-anchor="middle" x="40.3051" y="-152.23" font-family="Times,serif" font-size="14.00">Head</text>
</g>
<!-- HEAD2&#45;&gt;HEAD3 -->
<g id="edge5" class="edge"><title>HEAD2&#45;&gt;HEAD3</title>
<path fill="none" stroke="black" d="M40.3051,-262.399C40.3051,-244.466 40.3051,-220.382 40.3051,-200.581"/>
<polygon fill="black" stroke="black" points="43.8052,-200.38 40.3051,-190.38 36.8052,-200.38 43.8052,-200.38"/>
<text text-anchor="middle" x="78.8051" y="-222.707" font-family="Times,serif" font-size="14.00">Time passes...</text>
</g>
<!-- MIDDLE3 -->
<g id="node7" class="node"><title>MIDDLE3</title>
<ellipse fill="none" stroke="black" cx="227.305" cy="-163.43" rx="65.1077" ry="37.4533"/>
<text text-anchor="middle" x="227.305" y="-174.73" font-family="Times,serif" font-size="14.00">Brick 3</text>
<text text-anchor="middle" x="227.305" y="-159.73" font-family="Times,serif" font-size="14.00">Middle</text>
<text text-anchor="middle" x="227.305" y="-144.73" font-family="Times,serif" font-size="14.00">+Official Tail</text>
</g>
<!-- HEAD3&#45;&gt;MIDDLE3 -->
<g id="edge6" class="edge"><title>HEAD3&#45;&gt;MIDDLE3</title>
<path fill="none" stroke="black" d="M80.8813,-163.43C101.653,-163.43 127.622,-163.43 151.898,-163.43"/>
<polygon fill="black" stroke="black" points="152.178,-166.93 162.178,-163.43 152.178,-159.93 152.178,-166.93"/>
<text text-anchor="middle" x="121.431" y="-170.23" font-family="Times,serif" font-size="14.00">Replication</text>
</g>
<!-- HEAD4 -->
<g id="node9" class="node"><title>HEAD4</title>
<ellipse fill="none" stroke="black" cx="40.3051" cy="-37.4767" rx="40.1111" ry="26.7407"/>
<text text-anchor="middle" x="40.3051" y="-41.2767" font-family="Times,serif" font-size="14.00">Brick 1</text>
<text text-anchor="middle" x="40.3051" y="-26.2767" font-family="Times,serif" font-size="14.00">Head</text>
</g>
<!-- HEAD3&#45;&gt;HEAD4 -->
<g id="edge10" class="edge"><title>HEAD3&#45;&gt;HEAD4</title>
<path fill="none" stroke="black" d="M40.3051,-136.445C40.3051,-118.513 40.3051,-94.4288 40.3051,-74.6277"/>
<polygon fill="black" stroke="black" points="43.8052,-74.4271 40.3051,-64.4271 36.8052,-74.4272 43.8052,-74.4271"/>
<text text-anchor="middle" x="78.8051" y="-96.7533" font-family="Times,serif" font-size="14.00">Time passes...</text>
</g>
<!-- TAIL3 -->
<g id="node8" class="node"><title>TAIL3</title>
<ellipse fill="none" stroke="black" cx="414.305" cy="-163.43" rx="40.1111" ry="26.7407"/>
<text text-anchor="middle" x="414.305" y="-167.23" font-family="Times,serif" font-size="14.00">Brick 2</text>
<text text-anchor="middle" x="414.305" y="-152.23" font-family="Times,serif" font-size="14.00">Tail</text>
</g>
<!-- MIDDLE3&#45;&gt;TAIL3 -->
<g id="edge7" class="edge"><title>MIDDLE3&#45;&gt;TAIL3</title>
<path fill="none" stroke="black" d="M286.76,-147.916C307.318,-144.386 330.507,-142.448 351.679,-145.43 357.14,-146.199 362.793,-147.328 368.365,-148.652"/>
<polygon fill="black" stroke="black" points="367.693,-152.093 378.251,-151.21 369.446,-145.317 367.693,-152.093"/>
<text text-anchor="middle" x="333.179" y="-149.23" font-family="Times,serif" font-size="14.00">Repair</text>
</g>
<!-- MIDDLE3&#45;&gt;TAIL3 -->
<g id="edge9" class="edge"><title>MIDDLE3&#45;&gt;TAIL3</title>
<path fill="none" stroke="black" d="M292.446,-163.43C315.832,-163.43 341.832,-163.43 363.79,-163.43"/>
<polygon fill="black" stroke="black" points="363.891,-166.93 373.891,-163.43 363.891,-159.93 363.891,-166.93"/>
<text text-anchor="middle" x="333.179" y="-170.23" font-family="Times,serif" font-size="14.00">Replication</text>
</g>
<!-- TAIL3&#45;&gt;MIDDLE3 -->
<g id="edge8" class="edge"><title>TAIL3&#45;&gt;MIDDLE3</title>
<path fill="none" stroke="black" d="M380.105,-177.68C375.171,-179.229 370.098,-180.557 365.179,-181.43 337.172,-186.399 329.421,-184.821 301.179,-181.43 299.705,-181.253 298.217,-181.057 296.721,-180.843"/>
<polygon fill="black" stroke="black" points="297.189,-177.373 286.754,-179.207 296.055,-184.281 297.189,-177.373"/>
<text text-anchor="middle" x="333.179" y="-191.23" font-family="Times,serif" font-size="14.00">Repair</text>
</g>
<!-- MIDDLE4 -->
<g id="node10" class="node"><title>MIDDLE4</title>
<ellipse fill="none" stroke="black" cx="202.305" cy="-37.4767" rx="40.1111" ry="26.7407"/>
<text text-anchor="middle" x="202.305" y="-41.2767" font-family="Times,serif" font-size="14.00">Brick 3</text>
<text text-anchor="middle" x="202.305" y="-26.2767" font-family="Times,serif" font-size="14.00">Middle</text>
</g>
<!-- HEAD4&#45;&gt;MIDDLE4 -->
<g id="edge11" class="edge"><title>HEAD4&#45;&gt;MIDDLE4</title>
<path fill="none" stroke="black" d="M80.7666,-37.4767C102.222,-37.4767 128.79,-37.4767 151.609,-37.4767"/>
<polygon fill="black" stroke="black" points="151.798,-40.9768 161.798,-37.4767 151.798,-33.9768 151.798,-40.9768"/>
<text text-anchor="middle" x="121.305" y="-44.2767" font-family="Times,serif" font-size="14.00">Replication</text>
</g>
<!-- TAIL4 -->
<g id="node11" class="node"><title>TAIL4</title>
<ellipse fill="none" stroke="black" cx="389.305" cy="-37.4767" rx="65.1077" ry="37.4533"/>
<text text-anchor="middle" x="389.305" y="-48.7767" font-family="Times,serif" font-size="14.00">Brick 2</text>
<text text-anchor="middle" x="389.305" y="-33.7767" font-family="Times,serif" font-size="14.00">Tail</text>
<text text-anchor="middle" x="389.305" y="-18.7767" font-family="Times,serif" font-size="14.00">+Official Tail</text>
</g>
<!-- MIDDLE4&#45;&gt;TAIL4 -->
<g id="edge12" class="edge"><title>MIDDLE4&#45;&gt;TAIL4</title>
<path fill="none" stroke="black" d="M242.881,-37.4767C263.653,-37.4767 289.622,-37.4767 313.898,-37.4767"/>
<polygon fill="black" stroke="black" points="314.178,-40.9768 324.178,-37.4767 314.178,-33.9768 314.178,-40.9768"/>
<text text-anchor="middle" x="283.431" y="-44.2767" font-family="Times,serif" font-size="14.00">Replication</text>
</g>
</g>
</svg>
