<?xml version="1.0" encoding="UTF-8" standalone="no"?>
<!DOCTYPE svg PUBLIC "-//W3C//DTD SVG 1.1//EN"
 "http://www.w3.org/Graphics/SVG/1.1/DTD/svg11.dtd">
<!-- Generated by graphviz version 2.28.0 (20120122.0658)
 -->
<!-- Title: data_flow Pages: 1 -->
<svg width="335pt" height="260pt"
 viewBox="0.00 0.00 335.21 260.00" xmlns="http://www.w3.org/2000/svg" xmlns:xlink="http://www.w3.org/1999/xlink">
<g id="graph1" class="graph" transform="scale(1 1) rotate(0) translate(4 256)">
<title>data_flow</title>
<polygon fill="white" stroke="white" points="-4,5 -4,-256 332.209,-256 332.209,5 -4,5"/>
<!-- start -->
<g id="node2" class="node"><title>start</title>
<ellipse fill="none" stroke="black" cx="182.209" cy="-234" rx="28.9157" ry="18"/>
<text text-anchor="middle" x="182.209" y="-228.4" font-family="Times,serif" font-size="14.00">Start</text>
</g>
<!-- unknown -->
<g id="node3" class="node"><title>unknown</title>
<ellipse fill="none" stroke="black" cx="278.209" cy="-234" rx="49.1903" ry="18"/>
<text text-anchor="middle" x="278.209" y="-228.4" font-family="Times,serif" font-size="14.00">Unknown</text>
</g>
<!-- start&#45;&gt;unknown -->
<g id="edge4" class="edge"><title>start&#45;&gt;unknown</title>
<path fill="none" stroke="black" d="M211.459,-234C213.915,-234 216.372,-234 218.829,-234"/>
<polygon fill="black" stroke="black" points="218.929,-237.5 228.929,-234 218.928,-230.5 218.929,-237.5"/>
</g>
<!-- stopped -->
<g id="node5" class="node"><title>stopped</title>
<ellipse fill="none" stroke="black" cx="133.209" cy="-90" rx="42.5348" ry="18"/>
<text text-anchor="middle" x="133.209" y="-84.4" font-family="Times,serif" font-size="14.00">Stopped</text>
</g>
<!-- unknown&#45;&gt;stopped -->
<g id="edge8" class="edge"><title>unknown&#45;&gt;stopped</title>
<path fill="none" stroke="black" d="M238.726,-223.275C229.643,-220.71 220.098,-218.08 211.209,-216 166.386,-205.51 36.7963,-215.266 7.20878,-180 -3.07497,-167.743 -1.46206,-157.447 7.20878,-144 23.6222,-118.546 55.5527,-105.183 83.2592,-98.2454"/>
<polygon fill="black" stroke="black" points="84.2675,-101.605 93.2391,-95.9698 82.7113,-94.7805 84.2675,-101.605"/>
</g>
<!-- degraded -->
<g id="node6" class="node"><title>degraded</title>
<ellipse fill="none" stroke="black" cx="248.209" cy="-90" rx="48.3552" ry="18"/>
<text text-anchor="middle" x="248.209" y="-84.4" font-family="Times,serif" font-size="14.00">Degraded</text>
</g>
<!-- unknown&#45;&gt;degraded -->
<g id="edge10" class="edge"><title>unknown&#45;&gt;degraded</title>
<path fill="none" stroke="black" d="M270.095,-216.153C262.42,-192.05 252.693,-147.447 248.554,-118.514"/>
<polygon fill="black" stroke="black" points="251.986,-117.749 247.258,-108.268 245.041,-118.628 251.986,-117.749"/>
</g>
<!-- unknown_timeout -->
<g id="node7" class="node"><title>unknown_timeout</title>
<ellipse fill="none" stroke="black" cx="133.209" cy="-162" rx="107.193" ry="18"/>
<text text-anchor="middle" x="133.209" y="-156.4" font-family="Times,serif" font-size="14.00">Timeout while Unknown</text>
</g>
<!-- unknown&#45;&gt;unknown_timeout -->
<g id="edge6" class="edge"><title>unknown&#45;&gt;unknown_timeout</title>
<path fill="none" stroke="black" d="M249.561,-219.17C228.504,-209.005 199.542,-195.023 175.781,-183.552"/>
<polygon fill="black" stroke="black" points="177.151,-180.327 166.624,-179.132 174.108,-186.631 177.151,-180.327"/>
</g>
<!-- healthy -->
<g id="node8" class="node"><title>healthy</title>
<ellipse fill="none" stroke="black" cx="248.209" cy="-18" rx="41.4082" ry="18"/>
<text text-anchor="middle" x="248.209" y="-12.4" font-family="Times,serif" font-size="14.00">Healthy</text>
</g>
<!-- unknown&#45;&gt;healthy -->
<g id="edge12" class="edge"><title>unknown&#45;&gt;healthy</title>
<path fill="none" stroke="black" d="M281.807,-215.78C292.691,-185.459 317.603,-121.108 296.209,-72 291.074,-60.2149 281.885,-49.8697 272.824,-41.5217"/>
<polygon fill="black" stroke="black" points="274.842,-38.6379 265.001,-34.7137 270.247,-43.9185 274.842,-38.6379"/>
</g>
<!-- stopped&#45;&gt;unknown -->
<g id="edge22" class="edge"><title>stopped&#45;&gt;unknown</title>
<path fill="none" stroke="black" d="M96.1634,-98.9271C71.537,-106.045 41.1001,-119.356 25.2088,-144 16.5379,-157.447 14.925,-167.743 25.2088,-180 54.7963,-215.266 184.386,-205.51 229.209,-216 231.536,-216.545 233.909,-217.127 236.294,-217.736"/>
<polygon fill="black" stroke="black" points="235.518,-221.152 246.083,-220.362 237.331,-214.391 235.518,-221.152"/>
</g>
<!-- stopped&#45;&gt;degraded -->
<g id="edge18" class="edge"><title>stopped&#45;&gt;degraded</title>
<path fill="none" stroke="black" d="M166.9,-78.8145C178.364,-76.5856 189.828,-75.9666 201.292,-76.9573"/>
<polygon fill="black" stroke="black" points="201.003,-80.4488 211.366,-78.2423 201.889,-73.5051 201.003,-80.4488"/>
</g>
<!-- stopped&#45;&gt;healthy -->
<g id="edge20" class="edge"><title>stopped&#45;&gt;healthy</title>
<path fill="none" stroke="black" d="M152.484,-73.811C168.926,-63.0014 192.757,-48.4327 212.596,-37.0323"/>
<polygon fill="black" stroke="black" points="214.419,-40.0217 221.389,-32.0421 210.964,-33.9337 214.419,-40.0217"/>
</g>
<!-- degraded&#45;&gt;unknown -->
<g id="edge28" class="edge"><title>degraded&#45;&gt;unknown</title>
<path fill="none" stroke="black" d="M256.291,-107.748C263.982,-131.865 273.749,-176.651 277.882,-205.619"/>
<polygon fill="black" stroke="black" points="274.451,-206.388 279.175,-215.871 281.396,-205.512 274.451,-206.388"/>
</g>
<!-- degraded&#45;&gt;stopped -->
<g id="edge24" class="edge"><title>degraded&#45;&gt;stopped</title>
<path fill="none" stroke="black" d="M211.366,-101.758C199.902,-103.692 188.438,-104.016 176.974,-102.73"/>
<polygon fill="black" stroke="black" points="177.315,-99.2412 166.9,-101.185 176.254,-106.16 177.315,-99.2412"/>
</g>
<!-- degraded&#45;&gt;healthy -->
<g id="edge26" class="edge"><title>degraded&#45;&gt;healthy</title>
<path fill="none" stroke="black" d="M242.331,-72.055C241.512,-64.3456 241.27,-55.0269 241.604,-46.3642"/>
<polygon fill="black" stroke="black" points="245.103,-46.4915 242.296,-36.2753 238.119,-46.0122 245.103,-46.4915"/>
</g>
<!-- unknown_timeout&#45;&gt;stopped -->
<g id="edge14" class="edge"><title>unknown_timeout&#45;&gt;stopped</title>
<path fill="none" stroke="black" d="M133.209,-143.697C133.209,-135.983 133.209,-126.712 133.209,-118.112"/>
<polygon fill="black" stroke="black" points="136.709,-118.104 133.209,-108.104 129.709,-118.104 136.709,-118.104"/>
</g>
<!-- unknown_timeout&#45;&gt;degraded -->
<g id="edge16" class="edge"><title>unknown_timeout&#45;&gt;degraded</title>
<path fill="none" stroke="black" d="M160.462,-144.411C176.865,-134.427 197.858,-121.648 215.198,-111.094"/>
<polygon fill="black" stroke="black" points="217.166,-113.993 223.888,-105.804 213.527,-108.014 217.166,-113.993"/>
</g>
<!-- healthy&#45;&gt;unknown -->
<g id="edge34" class="edge"><title>healthy&#45;&gt;unknown</title>
<path fill="none" stroke="black" d="M276.219,-31.5043C290.779,-40.8389 306.761,-54.9045 314.209,-72 333.784,-116.932 314.593,-174.626 297.302,-207.338"/>
<polygon fill="black" stroke="black" points="294.136,-205.828 292.277,-216.258 300.234,-209.264 294.136,-205.828"/>
</g>
<!-- healthy&#45;&gt;stopped -->
<g id="edge30" class="edge"><title>healthy&#45;&gt;stopped</title>
<path fill="none" stroke="black" d="M229.034,-34.123C212.575,-44.9483 188.661,-59.5688 168.772,-70.9967"/>
<polygon fill="black" stroke="black" points="166.928,-68.0185 159.958,-75.9976 170.383,-74.1068 166.928,-68.0185"/>
</g>
<!-- healthy&#45;&gt;degraded -->
<g id="edge32" class="edge"><title>healthy&#45;&gt;degraded</title>
<path fill="none" stroke="black" d="M254.122,-36.2753C254.923,-44.03 255.149,-53.3618 254.799,-62.0054"/>
<polygon fill="black" stroke="black" points="251.303,-61.8325 254.087,-72.055 258.285,-62.3275 251.303,-61.8325"/>
</g>
</g>
</svg>
