<?xml version="1.0" encoding="UTF-8" standalone="no"?>
<!DOCTYPE svg PUBLIC "-//W3C//DTD SVG 1.1//EN"
 "http://www.w3.org/Graphics/SVG/1.1/DTD/svg11.dtd">
<!-- Generated by graphviz version 2.26.3 (20100126.1600)
 -->
<!-- Title: data_flow Pages: 1 -->
<svg width="680pt" height="286pt"
 viewBox="0.00 0.00 680.00 286.00" xmlns="http://www.w3.org/2000/svg" xmlns:xlink="http://www.w3.org/1999/xlink">
<g id="graph1" class="graph" transform="scale(1 1) rotate(0) translate(4 282)">
<title>data_flow</title>
<polygon fill="white" stroke="white" points="-4,5 -4,-282 677,-282 677,5 -4,5"/>
<!-- CH1 -->
<g id="node1" class="node"><title>CH1</title>
<ellipse fill="none" stroke="black" cx="106" cy="-232" rx="106.066" ry="45.9619"/>
<text text-anchor="middle" x="106" y="-247.9" font-family="Times Roman,serif" font-size="14.00">Chain 1</text>
<text text-anchor="middle" x="106" y="-228.9" font-family="Times Roman,serif" font-size="14.00">Before: ~33% total keys</text>
<text text-anchor="middle" x="106" y="-209.9" font-family="Times Roman,serif" font-size="14.00">After: ~25% total keys</text>
</g>
<!-- CH4 -->
<g id="node4" class="node"><title>CH4</title>
<ellipse fill="none" stroke="black" cx="336" cy="-46" rx="101.116" ry="45.9619"/>
<text text-anchor="middle" x="336" y="-61.9" font-family="Times Roman,serif" font-size="14.00">Chain 4</text>
<text text-anchor="middle" x="336" y="-42.9" font-family="Times Roman,serif" font-size="14.00">Before: &#160;&#160;0% total keys</text>
<text text-anchor="middle" x="336" y="-23.9" font-family="Times Roman,serif" font-size="14.00">After: ~25% total keys</text>
</g>
<!-- CH1&#45;&gt;CH4 -->
<g id="edge2" class="edge"><title>CH1&#45;&gt;CH4</title>
<path fill="none" stroke="black" d="M148.901,-189.881C174.506,-165.533 208.144,-134.892 240,-110 248.973,-102.989 258.694,-95.9357 268.39,-89.2048"/>
<polygon fill="black" stroke="black" points="270.615,-91.923 276.884,-83.3819 266.657,-86.1494 270.615,-91.923"/>
<text text-anchor="middle" x="286" y="-154.9" font-family="Times Roman,serif" font-size="14.00">Moving keys:</text>
<text text-anchor="middle" x="286" y="-135.9" font-family="Times Roman,serif" font-size="14.00">~24% local keys</text>
<text text-anchor="middle" x="286" y="-116.9" font-family="Times Roman,serif" font-size="14.00">~8% total keys</text>
</g>
<!-- CH2 -->
<g id="node2" class="node"><title>CH2</title>
<ellipse fill="none" stroke="black" cx="336" cy="-232" rx="106.066" ry="45.9619"/>
<text text-anchor="middle" x="336" y="-247.9" font-family="Times Roman,serif" font-size="14.00">Chain 2</text>
<text text-anchor="middle" x="336" y="-228.9" font-family="Times Roman,serif" font-size="14.00">Before: ~33% total keys</text>
<text text-anchor="middle" x="336" y="-209.9" font-family="Times Roman,serif" font-size="14.00">After: ~25% total keys</text>
</g>
<!-- CH2&#45;&gt;CH4 -->
<g id="edge4" class="edge"><title>CH2&#45;&gt;CH4</title>
<path fill="none" stroke="black" d="M336,-185.544C336,-160.371 336,-129.069 336,-102.493"/>
<polygon fill="black" stroke="black" points="339.5,-102.186 336,-92.1857 332.5,-102.186 339.5,-102.186"/>
<text text-anchor="middle" x="382" y="-154.9" font-family="Times Roman,serif" font-size="14.00">Moving keys:</text>
<text text-anchor="middle" x="382" y="-135.9" font-family="Times Roman,serif" font-size="14.00">~24% local keys</text>
<text text-anchor="middle" x="382" y="-116.9" font-family="Times Roman,serif" font-size="14.00">~8% total keys</text>
</g>
<!-- CH3 -->
<g id="node3" class="node"><title>CH3</title>
<ellipse fill="none" stroke="black" cx="566" cy="-232" rx="106.066" ry="45.9619"/>
<text text-anchor="middle" x="566" y="-247.9" font-family="Times Roman,serif" font-size="14.00">Chain 3</text>
<text text-anchor="middle" x="566" y="-228.9" font-family="Times Roman,serif" font-size="14.00">Before: ~33% total keys</text>
<text text-anchor="middle" x="566" y="-209.9" font-family="Times Roman,serif" font-size="14.00">After: ~25% total keys</text>
</g>
<!-- CH3&#45;&gt;CH4 -->
<g id="edge6" class="edge"><title>CH3&#45;&gt;CH4</title>
<path fill="none" stroke="black" d="M523.099,-189.881C497.494,-165.533 463.856,-134.892 432,-110 423.027,-102.989 413.306,-95.9357 403.61,-89.2048"/>
<polygon fill="black" stroke="black" points="405.343,-86.1494 395.116,-83.3819 401.385,-91.923 405.343,-86.1494"/>
<text text-anchor="middle" x="545" y="-154.9" font-family="Times Roman,serif" font-size="14.00">Moving keys:</text>
<text text-anchor="middle" x="545" y="-135.9" font-family="Times Roman,serif" font-size="14.00">~24% local keys</text>
<text text-anchor="middle" x="545" y="-116.9" font-family="Times Roman,serif" font-size="14.00">~8% total keys</text>
</g>
</g>
</svg>
