<?xml version="1.0" encoding="UTF-8" standalone="no"?>
<!DOCTYPE svg PUBLIC "-//W3C//DTD SVG 1.1//EN"
 "http://www.w3.org/Graphics/SVG/1.1/DTD/svg11.dtd">
<!-- Generated by graphviz version 2.38.0 (20140413.2041)
 -->
<!-- Title: data_flow Pages: 1 -->
<svg width="677pt" height="239pt"
 viewBox="0.00 0.00 676.72 238.91" xmlns="http://www.w3.org/2000/svg" xmlns:xlink="http://www.w3.org/1999/xlink">
<g id="graph0" class="graph" transform="scale(1 1) rotate(0) translate(4 234.907)">
<title>data_flow</title>
<polygon fill="white" stroke="none" points="-4,4 -4,-234.907 672.718,-234.907 672.718,4 -4,4"/>
<!-- CH1 -->
<g id="node1" class="node"><title>CH1</title>
<ellipse fill="none" stroke="black" cx="105.359" cy="-193.43" rx="105.218" ry="37.4533"/>
<text text-anchor="middle" x="105.359" y="-204.73" font-family="Times,serif" font-size="14.00">Chain 1</text>
<text text-anchor="middle" x="105.359" y="-189.73" font-family="Times,serif" font-size="14.00">Before: ~33% total keys</text>
<text text-anchor="middle" x="105.359" y="-174.73" font-family="Times,serif" font-size="14.00">After: ~25% total keys</text>
</g>
<!-- CH4 -->
<g id="node4" class="node"><title>CH4</title>
<ellipse fill="none" stroke="black" cx="334.359" cy="-37.4767" rx="101.233" ry="37.4533"/>
<text text-anchor="middle" x="334.359" y="-48.7767" font-family="Times,serif" font-size="14.00">Chain 4</text>
<text text-anchor="middle" x="334.359" y="-33.7767" font-family="Times,serif" font-size="14.00">Before: &#160;&#160;0% total keys</text>
<text text-anchor="middle" x="334.359" y="-18.7767" font-family="Times,serif" font-size="14.00">After: ~25% total keys</text>
</g>
<!-- CH1&#45;&gt;CH4 -->
<g id="edge1" class="edge"><title>CH1&#45;&gt;CH4</title>
<path fill="none" stroke="black" d="M148.272,-158.934C174.386,-139.027 208.704,-113.699 240.359,-92.9533 249.876,-86.716 260.128,-80.3931 270.24,-74.3713"/>
<polygon fill="black" stroke="black" points="272.231,-77.2605 279.068,-69.1667 268.676,-71.2304 272.231,-77.2605"/>
<text text-anchor="middle" x="285.359" y="-126.753" font-family="Times,serif" font-size="14.00">Moving keys:</text>
<text text-anchor="middle" x="285.359" y="-111.753" font-family="Times,serif" font-size="14.00">~24% local keys</text>
<text text-anchor="middle" x="285.359" y="-96.7533" font-family="Times,serif" font-size="14.00">~8% total keys</text>
</g>
<!-- CH2 -->
<g id="node2" class="node"><title>CH2</title>
<ellipse fill="none" stroke="black" cx="334.359" cy="-193.43" rx="105.218" ry="37.4533"/>
<text text-anchor="middle" x="334.359" y="-204.73" font-family="Times,serif" font-size="14.00">Chain 2</text>
<text text-anchor="middle" x="334.359" y="-189.73" font-family="Times,serif" font-size="14.00">Before: ~33% total keys</text>
<text text-anchor="middle" x="334.359" y="-174.73" font-family="Times,serif" font-size="14.00">After: ~25% total keys</text>
</g>
<!-- CH2&#45;&gt;CH4 -->
<g id="edge2" class="edge"><title>CH2&#45;&gt;CH4</title>
<path fill="none" stroke="black" d="M334.359,-155.945C334.359,-134.74 334.359,-107.804 334.359,-85.0767"/>
<polygon fill="black" stroke="black" points="337.859,-84.966 334.359,-74.966 330.859,-84.9661 337.859,-84.966"/>
<text text-anchor="middle" x="379.359" y="-126.753" font-family="Times,serif" font-size="14.00">Moving keys:</text>
<text text-anchor="middle" x="379.359" y="-111.753" font-family="Times,serif" font-size="14.00">~24% local keys</text>
<text text-anchor="middle" x="379.359" y="-96.7533" font-family="Times,serif" font-size="14.00">~8% total keys</text>
</g>
<!-- CH3 -->
<g id="node3" class="node"><title>CH3</title>
<ellipse fill="none" stroke="black" cx="563.359" cy="-193.43" rx="105.218" ry="37.4533"/>
<text text-anchor="middle" x="563.359" y="-204.73" font-family="Times,serif" font-size="14.00">Chain 3</text>
<text text-anchor="middle" x="563.359" y="-189.73" font-family="Times,serif" font-size="14.00">Before: ~33% total keys</text>
<text text-anchor="middle" x="563.359" y="-174.73" font-family="Times,serif" font-size="14.00">After: ~25% total keys</text>
</g>
<!-- CH3&#45;&gt;CH4 -->
<g id="edge3" class="edge"><title>CH3&#45;&gt;CH4</title>
<path fill="none" stroke="black" d="M520.446,-158.934C494.332,-139.027 460.014,-113.699 428.359,-92.9533 418.842,-86.716 408.59,-80.3931 398.478,-74.3713"/>
<polygon fill="black" stroke="black" points="400.042,-71.2304 389.65,-69.1667 396.487,-77.2605 400.042,-71.2304"/>
<text text-anchor="middle" x="537.359" y="-126.753" font-family="Times,serif" font-size="14.00">Moving keys:</text>
<text text-anchor="middle" x="537.359" y="-111.753" font-family="Times,serif" font-size="14.00">~24% local keys</text>
<text text-anchor="middle" x="537.359" y="-96.7533" font-family="Times,serif" font-size="14.00">~8% total keys</text>
</g>
</g>
</svg>
