<?xml version="1.0" encoding="UTF-8" standalone="no"?>
<!DOCTYPE svg PUBLIC "-//W3C//DTD SVG 1.1//EN"
 "http://www.w3.org/Graphics/SVG/1.1/DTD/svg11.dtd">
<!-- Generated by graphviz version 2.38.0 (20140413.2041)
 -->
<!-- Title: data_flow Pages: 1 -->
<svg width="318pt" height="260pt"
 viewBox="0.00 0.00 318.31 260.00" xmlns="http://www.w3.org/2000/svg" xmlns:xlink="http://www.w3.org/1999/xlink">
<g id="graph0" class="graph" transform="scale(1 1) rotate(0) translate(4 256)">
<title>data_flow</title>
<polygon fill="white" stroke="none" points="-4,4 -4,-256 314.308,-256 314.308,4 -4,4"/>
<!-- start -->
<g id="node1" class="node"><title>start</title>
<ellipse fill="none" stroke="black" cx="171.162" cy="-234" rx="28.6953" ry="18"/>
<text text-anchor="middle" x="171.162" y="-230.3" font-family="Times,serif" font-size="14.00">Start</text>
</g>
<!-- unknown -->
<g id="node2" class="node"><title>unknown</title>
<ellipse fill="none" stroke="black" cx="264.162" cy="-234" rx="46.2923" ry="18"/>
<text text-anchor="middle" x="264.162" y="-230.3" font-family="Times,serif" font-size="14.00">Unknown</text>
</g>
<!-- start&#45;&gt;unknown -->
<g id="edge1" class="edge"><title>start&#45;&gt;unknown</title>
<path fill="none" stroke="black" d="M199.861,-234C202.498,-234 205.136,-234 207.773,-234"/>
<polygon fill="black" stroke="black" points="207.946,-237.5 217.946,-234 207.946,-230.5 207.946,-237.5"/>
</g>
<!-- stopped -->
<g id="node3" class="node"><title>stopped</title>
<ellipse fill="none" stroke="black" cx="130.162" cy="-90" rx="40.0939" ry="18"/>
<text text-anchor="middle" x="130.162" y="-86.3" font-family="Times,serif" font-size="14.00">Stopped</text>
</g>
<!-- unknown&#45;&gt;stopped -->
<g id="edge3" class="edge"><title>unknown&#45;&gt;stopped</title>
<path fill="none" stroke="black" d="M226.588,-223.369C217.868,-220.776 208.7,-218.108 200.162,-216 115.449,-195.081 62.919,-247.119 7.16189,-180 -3.06206,-167.693 -1.44264,-157.489 7.16189,-144 23.3131,-118.68 55.0376,-105.267 82.3253,-98.2758"/>
<polygon fill="black" stroke="black" points="83.2005,-101.666 92.1409,-95.9806 81.6066,-94.8495 83.2005,-101.666"/>
</g>
<!-- degraded -->
<g id="node4" class="node"><title>degraded</title>
<ellipse fill="none" stroke="black" cx="233.162" cy="-90" rx="44.6926" ry="18"/>
<text text-anchor="middle" x="233.162" y="-86.3" font-family="Times,serif" font-size="14.00">Degraded</text>
</g>
<!-- unknown&#45;&gt;degraded -->
<g id="edge4" class="edge"><title>unknown&#45;&gt;degraded</title>
<path fill="none" stroke="black" d="M255.93,-216.153C248.085,-192.05 238.044,-147.447 233.701,-118.514"/>
<polygon fill="black" stroke="black" points="237.126,-117.716 232.332,-108.268 230.187,-118.643 237.126,-117.716"/>
</g>
<!-- unknown_timeout -->
<g id="node5" class="node"><title>unknown_timeout</title>
<ellipse fill="none" stroke="black" cx="126.162" cy="-162" rx="100.983" ry="18"/>
<text text-anchor="middle" x="126.162" y="-158.3" font-family="Times,serif" font-size="14.00">Timeout while Unknown</text>
</g>
<!-- unknown&#45;&gt;unknown_timeout -->
<g id="edge2" class="edge"><title>unknown&#45;&gt;unknown_timeout</title>
<path fill="none" stroke="black" d="M237.227,-219.337C217.372,-209.266 190.003,-195.383 167.402,-183.919"/>
<polygon fill="black" stroke="black" points="168.866,-180.737 158.364,-179.335 165.699,-186.98 168.866,-180.737"/>
</g>
<!-- healthy -->
<g id="node6" class="node"><title>healthy</title>
<ellipse fill="none" stroke="black" cx="233.162" cy="-18" rx="38.9931" ry="18"/>
<text text-anchor="middle" x="233.162" y="-14.3" font-family="Times,serif" font-size="14.00">Healthy</text>
</g>
<!-- unknown&#45;&gt;healthy -->
<g id="edge5" class="edge"><title>unknown&#45;&gt;healthy</title>
<path fill="none" stroke="black" d="M266.929,-215.8C276.435,-185.511 298.814,-121.206 278.162,-72 273.286,-60.3833 264.485,-50.0321 255.857,-41.6285"/>
<polygon fill="black" stroke="black" points="258.143,-38.9756 248.422,-34.7621 253.394,-44.118 258.143,-38.9756"/>
</g>
<!-- stopped&#45;&gt;unknown -->
<g id="edge10" class="edge"><title>stopped&#45;&gt;unknown</title>
<path fill="none" stroke="black" d="M95.0495,-98.9989C70.9332,-106.177 40.773,-119.526 25.1619,-144 16.5574,-157.489 14.9379,-167.693 25.1619,-180 80.919,-247.119 133.449,-195.081 218.162,-216 220.09,-216.476 222.051,-216.981 224.023,-217.507"/>
<polygon fill="black" stroke="black" points="223.305,-220.941 233.879,-220.28 225.201,-214.202 223.305,-220.941"/>
</g>
<!-- stopped&#45;&gt;degraded -->
<g id="edge8" class="edge"><title>stopped&#45;&gt;degraded</title>
<path fill="none" stroke="black" d="M161.545,-78.5599C170.79,-76.6666 180.035,-76.0784 189.28,-76.7954"/>
<polygon fill="black" stroke="black" points="188.947,-80.2813 199.312,-78.0856 189.84,-73.3385 188.947,-80.2813"/>
</g>
<!-- stopped&#45;&gt;healthy -->
<g id="edge9" class="edge"><title>stopped&#45;&gt;healthy</title>
<path fill="none" stroke="black" d="M147.301,-73.4647C161.593,-62.9004 182.132,-48.8671 199.608,-37.6911"/>
<polygon fill="black" stroke="black" points="201.823,-40.4324 208.418,-32.1408 198.092,-34.5097 201.823,-40.4324"/>
</g>
<!-- degraded&#45;&gt;unknown -->
<g id="edge13" class="edge"><title>degraded&#45;&gt;unknown</title>
<path fill="none" stroke="black" d="M241.362,-107.748C249.223,-131.865 259.305,-176.651 263.643,-205.619"/>
<polygon fill="black" stroke="black" points="260.218,-206.421 265.007,-215.871 267.157,-205.497 260.218,-206.421"/>
</g>
<!-- degraded&#45;&gt;stopped -->
<g id="edge11" class="edge"><title>degraded&#45;&gt;stopped</title>
<path fill="none" stroke="black" d="M199.312,-101.914C190.067,-103.575 180.822,-103.931 171.577,-102.982"/>
<polygon fill="black" stroke="black" points="171.96,-99.5003 161.545,-101.44 170.897,-106.419 171.96,-99.5003"/>
</g>
<!-- degraded&#45;&gt;healthy -->
<g id="edge12" class="edge"><title>degraded&#45;&gt;healthy</title>
<path fill="none" stroke="black" d="M227.284,-72.055C226.466,-64.3456 226.223,-55.0269 226.557,-46.3642"/>
<polygon fill="black" stroke="black" points="230.056,-46.4915 227.249,-36.2753 223.073,-46.0122 230.056,-46.4915"/>
</g>
<!-- unknown_timeout&#45;&gt;stopped -->
<g id="edge6" class="edge"><title>unknown_timeout&#45;&gt;stopped</title>
<path fill="none" stroke="black" d="M127.151,-143.697C127.591,-135.983 128.121,-126.712 128.613,-118.112"/>
<polygon fill="black" stroke="black" points="132.108,-118.288 129.185,-108.104 125.12,-117.888 132.108,-118.288"/>
</g>
<!-- unknown_timeout&#45;&gt;degraded -->
<g id="edge7" class="edge"><title>unknown_timeout&#45;&gt;degraded</title>
<path fill="none" stroke="black" d="M151.519,-144.411C166.641,-134.518 185.956,-121.882 202.002,-111.385"/>
<polygon fill="black" stroke="black" points="204.081,-114.207 210.533,-105.804 200.249,-108.349 204.081,-114.207"/>
</g>
<!-- healthy&#45;&gt;unknown -->
<g id="edge16" class="edge"><title>healthy&#45;&gt;unknown</title>
<path fill="none" stroke="black" d="M259.52,-31.3391C273.562,-40.7814 289.045,-55.0425 296.162,-72 315.058,-117.022 297.93,-174.685 282.05,-207.366"/>
<polygon fill="black" stroke="black" points="278.925,-205.79 277.42,-216.278 285.137,-209.018 278.925,-205.79"/>
</g>
<!-- healthy&#45;&gt;stopped -->
<g id="edge14" class="edge"><title>healthy&#45;&gt;stopped</title>
<path fill="none" stroke="black" d="M216.1,-34.4783C201.885,-44.9893 181.456,-58.9538 164.013,-70.1186"/>
<polygon fill="black" stroke="black" points="161.804,-67.3739 155.213,-75.6688 165.538,-73.2948 161.804,-67.3739"/>
</g>
<!-- healthy&#45;&gt;degraded -->
<g id="edge15" class="edge"><title>healthy&#45;&gt;degraded</title>
<path fill="none" stroke="black" d="M239.075,-36.2753C239.876,-44.03 240.102,-53.3618 239.752,-62.0054"/>
<polygon fill="black" stroke="black" points="236.256,-61.8325 239.04,-72.055 243.238,-62.3275 236.256,-61.8325"/>
</g>
</g>
</svg>
