<!DOCTYPE svg PUBLIC "-//W3C//DTD SVG 1.1//EN"
 "http://www.w3.org/Graphics/SVG/1.1/DTD/svg11.dtd">
<svg version="1.1"
 width="595px" height="173px"
 viewBox="0 0 595 173"
 xmlns="http://www.w3.org/2000/svg" shape-rendering="crispEdges"
 stroke-width="1" text-rendering="geometricPrecision">
<polygon fill="white" points="23,7 59,7 59,16 23,16"/>
<text x="42" y="16" textLength="34" font-family="Helvetica" font-size="12" fill="black" text-anchor="middle">

GDSS
</text>
<polygon fill="white" points="25,18 57,18 57,27 25,27"/>
<text x="42" y="27" textLength="31" font-family="Helvetica" font-size="12" fill="black" text-anchor="middle">

Client
</text>
<polygon fill="white" points="108,7 144,7 144,16 108,16"/>
<text x="127" y="16" textLength="34" font-family="Helvetica" font-size="12" fill="black" text-anchor="middle">

GDSS
</text>
<polygon fill="white" points="111,18 141,18 141,27 111,27"/>
<text x="127" y="27" textLength="29" font-family="Helvetica" font-size="12" fill="black" text-anchor="middle">

Head
</text>
<polygon fill="white" points="193,18 229,18 229,27 193,27"/>
<text x="212" y="27" textLength="35" font-family="Helvetica" font-size="12" fill="black" text-anchor="middle">

H Disk
</text>
<polygon fill="white" points="278,7 314,7 314,16 278,16"/>
<text x="297" y="16" textLength="34" font-family="Helvetica" font-size="12" fill="black" text-anchor="middle">

GDSS
</text>
<polygon fill="white" points="278,18 314,18 314,27 278,27"/>
<text x="297" y="27" textLength="35" font-family="Helvetica" font-size="12" fill="black" text-anchor="middle">

Middle
</text>
<polygon fill="white" points="362,18 400,18 400,27 362,27"/>
<text x="382" y="27" textLength="37" font-family="Helvetica" font-size="12" fill="black" text-anchor="middle">

M Disk
</text>
<polygon fill="white" points="448,7 484,7 484,16 448,16"/>
<text x="467" y="16" textLength="34" font-family="Helvetica" font-size="12" fill="black" text-anchor="middle">

GDSS
</text>
<polygon fill="white" points="456,18 476,18 476,27 456,27"/>
<text x="467" y="27" textLength="19" font-family="Helvetica" font-size="12" fill="black" text-anchor="middle">

Tail
</text>
<polygon fill="white" points="533,18 569,18 569,27 533,27"/>
<text x="552" y="27" textLength="34" font-family="Helvetica" font-size="12" fill="black" text-anchor="middle">

T Disk
</text>
<line x1="42" y1="33" x2="42" y2="61" stroke="black"/>
<line x1="127" y1="33" x2="127" y2="61" stroke="black"/>
<line x1="212" y1="33" x2="212" y2="61" stroke="black"/>
<line x1="297" y1="33" x2="297" y2="61" stroke="black"/>
<line x1="382" y1="33" x2="382" y2="61" stroke="black"/>
<line x1="467" y1="33" x2="467" y2="61" stroke="black"/>
<line x1="552" y1="33" x2="552" y2="61" stroke="black"/>
<line x1="42" y1="44" x2="467" y2="44" stroke="black"/>
<line x1="467" y1="44" x2="457" y2="50" stroke="black"/>
<polygon fill="white" points="229,34 280,34 280,43 229,43"/>
<text x="230" y="43" textLength="49" font-family="Helvetica" font-size="12" fill="black">
[1] get(K)
</text>
<line x1="42" y1="61" x2="42" y2="89" stroke="black"/>
<line x1="127" y1="61" x2="127" y2="89" stroke="black"/>
<line x1="212" y1="61" x2="212" y2="89" stroke="black"/>
<line x1="297" y1="61" x2="297" y2="89" stroke="black"/>
<line x1="382" y1="61" x2="382" y2="89" stroke="black"/>
<line x1="467" y1="61" x2="467" y2="89" stroke="black"/>
<line x1="552" y1="61" x2="552" y2="89" stroke="black"/>
<path d="M 467 66 A42,6 0 0,1 467,78" stroke="black" fill="none"/><line x1="467" y1="78" x2="477" y2="84" stroke="black"/>
<polygon fill="white" points="360,62 465,62 465,71 360,71"/>
<text x="361" y="71" textLength="103" font-family="Helvetica" font-size="12" fill="black">
[2] get position of V
</text>
<line x1="42" y1="89" x2="42" y2="117" stroke="black"/>
<line x1="127" y1="89" x2="127" y2="117" stroke="black"/>
<line x1="212" y1="89" x2="212" y2="117" stroke="black"/>
<line x1="297" y1="89" x2="297" y2="117" stroke="black"/>
<line x1="382" y1="89" x2="382" y2="117" stroke="black"/>
<line x1="467" y1="89" x2="467" y2="117" stroke="black"/>
<line x1="552" y1="89" x2="552" y2="117" stroke="black"/>
<line x1="467" y1="100" x2="552" y2="100" stroke="black"/>
<line x1="552" y1="100" x2="542" y2="106" stroke="black"/>
<polygon fill="white" points="477,90 541,90 541,99 477,99"/>
<text x="478" y="99" textLength="62" font-family="Helvetica" font-size="12" fill="black">
[3.1] read V
</text>
<line x1="42" y1="117" x2="42" y2="145" stroke="black"/>
<line x1="127" y1="117" x2="127" y2="145" stroke="black"/>
<line x1="212" y1="117" x2="212" y2="145" stroke="black"/>
<line x1="297" y1="117" x2="297" y2="145" stroke="black"/>
<line x1="382" y1="117" x2="382" y2="145" stroke="black"/>
<line x1="467" y1="117" x2="467" y2="145" stroke="black"/>
<line x1="552" y1="117" x2="552" y2="145" stroke="black"/>
<line x1="552" y1="128" x2="467" y2="128" stroke="black"/>
<line x1="467" y1="128" x2="477" y2="134" stroke="black"/>
<polygon fill="white" points="483,118 536,118 536,127 483,127"/>
<text x="484" y="127" textLength="51" font-family="Helvetica" font-size="12" fill="black">
[3.2] ok V
</text>
<line x1="42" y1="145" x2="42" y2="173" stroke="black"/>
<line x1="127" y1="145" x2="127" y2="173" stroke="black"/>
<line x1="212" y1="145" x2="212" y2="173" stroke="black"/>
<line x1="297" y1="145" x2="297" y2="173" stroke="black"/>
<line x1="382" y1="145" x2="382" y2="173" stroke="black"/>
<line x1="467" y1="145" x2="467" y2="173" stroke="black"/>
<line x1="552" y1="145" x2="552" y2="173" stroke="black"/>
<line x1="467" y1="156" x2="42" y2="156" stroke="black"/>
<line x1="42" y1="156" x2="52" y2="162" stroke="black"/>
<polygon fill="white" points="233,146 276,146 276,155 233,155"/>
<text x="234" y="155" textLength="41" font-family="Helvetica" font-size="12" fill="black">
[4] ok V
</text>
<line x1="42" y1="167" x2="42" y2="173" stroke="black"/>
<line x1="127" y1="167" x2="127" y2="173" stroke="black"/>
<line x1="212" y1="167" x2="212" y2="173" stroke="black"/>
<line x1="297" y1="167" x2="297" y2="173" stroke="black"/>
<line x1="382" y1="167" x2="382" y2="173" stroke="black"/>
<line x1="467" y1="167" x2="467" y2="173" stroke="black"/>
<line x1="552" y1="167" x2="552" y2="173" stroke="black"/>
</svg>
