<!DOCTYPE svg PUBLIC "-//W3C//DTD SVG 1.1//EN"
 "http://www.w3.org/Graphics/SVG/1.1/DTD/svg11.dtd">
<svg version="1.1"
 viewBox="0 0 595 593"
 xmlns="http://www.w3.org/2000/svg" shape-rendering="crispEdges"
 stroke-width="1" text-rendering="geometricPrecision">
<polygon fill="white" points="23,7 59,7 59,16 23,16"/>
<text x="42" y="16" textLength="34" font-family="Helvetica" font-size="12" fill="black" text-anchor="middle">

GDSS
</text>
<polygon fill="white" points="25,18 57,18 57,27 25,27"/>
<text x="42" y="27" textLength="31" font-family="Helvetica" font-size="12" fill="black" text-anchor="middle">

Client
</text>
<polygon fill="white" points="108,7 144,7 144,16 108,16"/>
<text x="127" y="16" textLength="34" font-family="Helvetica" font-size="12" fill="black" text-anchor="middle">

GDSS
</text>
<polygon fill="white" points="111,18 141,18 141,27 111,27"/>
<text x="127" y="27" textLength="29" font-family="Helvetica" font-size="12" fill="black" text-anchor="middle">

Head
</text>
<polygon fill="white" points="193,18 229,18 229,27 193,27"/>
<text x="212" y="27" textLength="35" font-family="Helvetica" font-size="12" fill="black" text-anchor="middle">

H Disk
</text>
<polygon fill="white" points="278,7 314,7 314,16 278,16"/>
<text x="297" y="16" textLength="34" font-family="Helvetica" font-size="12" fill="black" text-anchor="middle">

GDSS
</text>
<polygon fill="white" points="278,18 314,18 314,27 278,27"/>
<text x="297" y="27" textLength="35" font-family="Helvetica" font-size="12" fill="black" text-anchor="middle">

Middle
</text>
<polygon fill="white" points="362,18 400,18 400,27 362,27"/>
<text x="382" y="27" textLength="37" font-family="Helvetica" font-size="12" fill="black" text-anchor="middle">

M Disk
</text>
<polygon fill="white" points="448,7 484,7 484,16 448,16"/>
<text x="467" y="16" textLength="34" font-family="Helvetica" font-size="12" fill="black" text-anchor="middle">

GDSS
</text>
<polygon fill="white" points="456,18 476,18 476,27 456,27"/>
<text x="467" y="27" textLength="19" font-family="Helvetica" font-size="12" fill="black" text-anchor="middle">

Tail
</text>
<polygon fill="white" points="533,18 569,18 569,27 533,27"/>
<text x="552" y="27" textLength="34" font-family="Helvetica" font-size="12" fill="black" text-anchor="middle">

T Disk
</text>
<line x1="42" y1="33" x2="42" y2="61" stroke="black"/>
<line x1="127" y1="33" x2="127" y2="61" stroke="black"/>
<line x1="212" y1="33" x2="212" y2="61" stroke="black"/>
<line x1="297" y1="33" x2="297" y2="61" stroke="black"/>
<line x1="382" y1="33" x2="382" y2="61" stroke="black"/>
<line x1="467" y1="33" x2="467" y2="61" stroke="black"/>
<line x1="552" y1="33" x2="552" y2="61" stroke="black"/>
<line x1="42" y1="44" x2="127" y2="44" stroke="black"/>
<line x1="127" y1="44" x2="117" y2="50" stroke="black"/>
<polygon fill="white" points="51,34 117,34 117,43 51,43"/>
<text x="52" y="43" textLength="64" font-family="Helvetica" font-size="12" fill="black">
[1] add(K,V)
</text>
<line x1="42" y1="61" x2="42" y2="89" stroke="black"/>
<line x1="127" y1="61" x2="127" y2="89" stroke="black"/>
<line x1="212" y1="61" x2="212" y2="89" stroke="black"/>
<line x1="297" y1="61" x2="297" y2="89" stroke="black"/>
<line x1="382" y1="61" x2="382" y2="89" stroke="black"/>
<line x1="467" y1="61" x2="467" y2="89" stroke="black"/>
<line x1="552" y1="61" x2="552" y2="89" stroke="black"/>
<line x1="127" y1="72" x2="212" y2="72" stroke="black"/>
<line x1="212" y1="72" x2="202" y2="78" stroke="black"/>
<polygon fill="white" points="137,62 202,62 202,71 137,71"/>
<text x="138" y="71" textLength="63" font-family="Helvetica" font-size="12" fill="black">
[2.1] write V
</text>
<line x1="42" y1="89" x2="42" y2="117" stroke="black"/>
<line x1="127" y1="89" x2="127" y2="117" stroke="black"/>
<line x1="212" y1="89" x2="212" y2="117" stroke="black"/>
<line x1="297" y1="89" x2="297" y2="117" stroke="black"/>
<line x1="382" y1="89" x2="382" y2="117" stroke="black"/>
<line x1="467" y1="89" x2="467" y2="117" stroke="black"/>
<line x1="552" y1="89" x2="552" y2="117" stroke="black"/>
<line x1="212" y1="100" x2="127" y2="100" stroke="black"/>
<line x1="127" y1="100" x2="137" y2="106" stroke="black"/>
<polygon fill="white" points="149,90 190,90 190,99 149,99"/>
<text x="150" y="99" textLength="39" font-family="Helvetica" font-size="12" fill="black">
[2.2] ok
</text>
<line x1="42" y1="117" x2="42" y2="145" stroke="black"/>
<line x1="127" y1="117" x2="127" y2="145" stroke="black"/>
<line x1="212" y1="117" x2="212" y2="145" stroke="black"/>
<line x1="297" y1="117" x2="297" y2="145" stroke="black"/>
<line x1="382" y1="117" x2="382" y2="145" stroke="black"/>
<line x1="467" y1="117" x2="467" y2="145" stroke="black"/>
<line x1="552" y1="117" x2="552" y2="145" stroke="black"/>
<line x1="127" y1="128" x2="212" y2="128" stroke="black"/>
<line x1="212" y1="128" x2="202" y2="134" stroke="black"/>
<polygon fill="white" points="137,118 202,118 202,127 137,127"/>
<text x="138" y="127" textLength="63" font-family="Helvetica" font-size="12" fill="black">
[2.3] write K
</text>
<line x1="42" y1="145" x2="42" y2="173" stroke="black"/>
<line x1="127" y1="145" x2="127" y2="173" stroke="black"/>
<line x1="212" y1="145" x2="212" y2="173" stroke="black"/>
<line x1="297" y1="145" x2="297" y2="173" stroke="black"/>
<line x1="382" y1="145" x2="382" y2="173" stroke="black"/>
<line x1="467" y1="145" x2="467" y2="173" stroke="black"/>
<line x1="552" y1="145" x2="552" y2="173" stroke="black"/>
<line x1="212" y1="156" x2="127" y2="156" stroke="black"/>
<line x1="127" y1="156" x2="137" y2="162" stroke="black"/>
<polygon fill="white" points="149,146 190,146 190,155 149,155"/>
<text x="150" y="155" textLength="39" font-family="Helvetica" font-size="12" fill="black">
[2.4] ok
</text>
<line x1="42" y1="173" x2="42" y2="201" stroke="black"/>
<line x1="127" y1="173" x2="127" y2="201" stroke="black"/>
<line x1="212" y1="173" x2="212" y2="201" stroke="black"/>
<line x1="297" y1="173" x2="297" y2="201" stroke="black"/>
<line x1="382" y1="173" x2="382" y2="201" stroke="black"/>
<line x1="467" y1="173" x2="467" y2="201" stroke="black"/>
<line x1="552" y1="173" x2="552" y2="201" stroke="black"/>
<line x1="127" y1="184" x2="297" y2="184" stroke="black"/>
<line x1="297" y1="184" x2="287" y2="190" stroke="black"/>
<polygon fill="white" points="192,174 231,174 231,183 192,183"/>
<text x="193" y="183" textLength="37" font-family="Helvetica" font-size="12" fill="black">
[3] ???
</text>
<line x1="42" y1="201" x2="42" y2="229" stroke="black"/>
<line x1="127" y1="201" x2="127" y2="229" stroke="black"/>
<line x1="212" y1="201" x2="212" y2="229" stroke="black"/>
<line x1="297" y1="201" x2="297" y2="229" stroke="black"/>
<line x1="382" y1="201" x2="382" y2="229" stroke="black"/>
<line x1="467" y1="201" x2="467" y2="229" stroke="black"/>
<line x1="552" y1="201" x2="552" y2="229" stroke="black"/>
<line x1="297" y1="212" x2="382" y2="212" stroke="black"/>
<line x1="382" y1="212" x2="372" y2="218" stroke="black"/>
<polygon fill="white" points="307,202 372,202 372,211 307,211"/>
<text x="308" y="211" textLength="63" font-family="Helvetica" font-size="12" fill="black">
[4.1] write V
</text>
<line x1="42" y1="229" x2="42" y2="257" stroke="black"/>
<line x1="127" y1="229" x2="127" y2="257" stroke="black"/>
<line x1="212" y1="229" x2="212" y2="257" stroke="black"/>
<line x1="297" y1="229" x2="297" y2="257" stroke="black"/>
<line x1="382" y1="229" x2="382" y2="257" stroke="black"/>
<line x1="467" y1="229" x2="467" y2="257" stroke="black"/>
<line x1="552" y1="229" x2="552" y2="257" stroke="black"/>
<line x1="382" y1="240" x2="297" y2="240" stroke="black"/>
<line x1="297" y1="240" x2="307" y2="246" stroke="black"/>
<polygon fill="white" points="319,230 360,230 360,239 319,239"/>
<text x="320" y="239" textLength="39" font-family="Helvetica" font-size="12" fill="black">
[4.2] ok
</text>
<line x1="42" y1="257" x2="42" y2="285" stroke="black"/>
<line x1="127" y1="257" x2="127" y2="285" stroke="black"/>
<line x1="212" y1="257" x2="212" y2="285" stroke="black"/>
<line x1="297" y1="257" x2="297" y2="285" stroke="black"/>
<line x1="382" y1="257" x2="382" y2="285" stroke="black"/>
<line x1="467" y1="257" x2="467" y2="285" stroke="black"/>
<line x1="552" y1="257" x2="552" y2="285" stroke="black"/>
<line x1="297" y1="268" x2="382" y2="268" stroke="black"/>
<line x1="382" y1="268" x2="372" y2="274" stroke="black"/>
<polygon fill="white" points="307,258 372,258 372,267 307,267"/>
<text x="308" y="267" textLength="63" font-family="Helvetica" font-size="12" fill="black">
[4.3] write K
</text>
<line x1="42" y1="285" x2="42" y2="313" stroke="black"/>
<line x1="127" y1="285" x2="127" y2="313" stroke="black"/>
<line x1="212" y1="285" x2="212" y2="313" stroke="black"/>
<line x1="297" y1="285" x2="297" y2="313" stroke="black"/>
<line x1="382" y1="285" x2="382" y2="313" stroke="black"/>
<line x1="467" y1="285" x2="467" y2="313" stroke="black"/>
<line x1="552" y1="285" x2="552" y2="313" stroke="black"/>
<line x1="382" y1="296" x2="297" y2="296" stroke="black"/>
<line x1="297" y1="296" x2="307" y2="302" stroke="black"/>
<polygon fill="white" points="319,286 360,286 360,295 319,295"/>
<text x="320" y="295" textLength="39" font-family="Helvetica" font-size="12" fill="black">
[4.4] ok
</text>
<line x1="42" y1="313" x2="42" y2="341" stroke="black"/>
<line x1="127" y1="313" x2="127" y2="341" stroke="black"/>
<line x1="212" y1="313" x2="212" y2="341" stroke="black"/>
<line x1="297" y1="313" x2="297" y2="341" stroke="black"/>
<line x1="382" y1="313" x2="382" y2="341" stroke="black"/>
<line x1="467" y1="313" x2="467" y2="341" stroke="black"/>
<line x1="552" y1="313" x2="552" y2="341" stroke="black"/>
<line x1="297" y1="324" x2="467" y2="324" stroke="black"/>
<line x1="467" y1="324" x2="457" y2="330" stroke="black"/>
<polygon fill="white" points="362,314 401,314 401,323 362,323"/>
<text x="363" y="323" textLength="37" font-family="Helvetica" font-size="12" fill="black">
[5] ???
</text>
<line x1="42" y1="341" x2="42" y2="369" stroke="black"/>
<line x1="127" y1="341" x2="127" y2="369" stroke="black"/>
<line x1="212" y1="341" x2="212" y2="369" stroke="black"/>
<line x1="297" y1="341" x2="297" y2="369" stroke="black"/>
<line x1="382" y1="341" x2="382" y2="369" stroke="black"/>
<line x1="467" y1="341" x2="467" y2="369" stroke="black"/>
<line x1="552" y1="341" x2="552" y2="369" stroke="black"/>
<line x1="467" y1="352" x2="552" y2="352" stroke="black"/>
<line x1="552" y1="352" x2="542" y2="358" stroke="black"/>
<polygon fill="white" points="477,342 542,342 542,351 477,351"/>
<text x="478" y="351" textLength="63" font-family="Helvetica" font-size="12" fill="black">
[6.1] write V
</text>
<line x1="42" y1="369" x2="42" y2="397" stroke="black"/>
<line x1="127" y1="369" x2="127" y2="397" stroke="black"/>
<line x1="212" y1="369" x2="212" y2="397" stroke="black"/>
<line x1="297" y1="369" x2="297" y2="397" stroke="black"/>
<line x1="382" y1="369" x2="382" y2="397" stroke="black"/>
<line x1="467" y1="369" x2="467" y2="397" stroke="black"/>
<line x1="552" y1="369" x2="552" y2="397" stroke="black"/>
<line x1="552" y1="380" x2="467" y2="380" stroke="black"/>
<line x1="467" y1="380" x2="477" y2="386" stroke="black"/>
<polygon fill="white" points="489,370 530,370 530,379 489,379"/>
<text x="490" y="379" textLength="39" font-family="Helvetica" font-size="12" fill="black">
[6.2] ok
</text>
<line x1="42" y1="397" x2="42" y2="425" stroke="black"/>
<line x1="127" y1="397" x2="127" y2="425" stroke="black"/>
<line x1="212" y1="397" x2="212" y2="425" stroke="black"/>
<line x1="297" y1="397" x2="297" y2="425" stroke="black"/>
<line x1="382" y1="397" x2="382" y2="425" stroke="black"/>
<line x1="467" y1="397" x2="467" y2="425" stroke="black"/>
<line x1="552" y1="397" x2="552" y2="425" stroke="black"/>
<line x1="467" y1="408" x2="552" y2="408" stroke="black"/>
<line x1="552" y1="408" x2="542" y2="414" stroke="black"/>
<polygon fill="white" points="477,398 542,398 542,407 477,407"/>
<text x="478" y="407" textLength="63" font-family="Helvetica" font-size="12" fill="black">
[6.3] write K
</text>
<line x1="42" y1="425" x2="42" y2="453" stroke="black"/>
<line x1="127" y1="425" x2="127" y2="453" stroke="black"/>
<line x1="212" y1="425" x2="212" y2="453" stroke="black"/>
<line x1="297" y1="425" x2="297" y2="453" stroke="black"/>
<line x1="382" y1="425" x2="382" y2="453" stroke="black"/>
<line x1="467" y1="425" x2="467" y2="453" stroke="black"/>
<line x1="552" y1="425" x2="552" y2="453" stroke="black"/>
<line x1="552" y1="436" x2="467" y2="436" stroke="black"/>
<line x1="467" y1="436" x2="477" y2="442" stroke="black"/>
<polygon fill="white" points="489,426 530,426 530,435 489,435"/>
<text x="490" y="435" textLength="39" font-family="Helvetica" font-size="12" fill="black">
[6.4] ok
</text>
<line x1="42" y1="453" x2="42" y2="481" stroke="black"/>
<line x1="127" y1="453" x2="127" y2="481" stroke="black"/>
<line x1="212" y1="453" x2="212" y2="481" stroke="black"/>
<line x1="297" y1="453" x2="297" y2="481" stroke="black"/>
<line x1="382" y1="453" x2="382" y2="481" stroke="black"/>
<line x1="467" y1="453" x2="467" y2="481" stroke="black"/>
<line x1="552" y1="453" x2="552" y2="481" stroke="black"/>
<line x1="467" y1="464" x2="297" y2="464" stroke="black"/>
<line x1="297" y1="464" x2="307" y2="470" stroke="black"/>
<polygon fill="white" points="362,454 401,454 401,463 362,463"/>
<text x="363" y="463" textLength="37" font-family="Helvetica" font-size="12" fill="black">
[7] ???
</text>
<line x1="42" y1="481" x2="42" y2="509" stroke="black"/>
<line x1="127" y1="481" x2="127" y2="509" stroke="black"/>
<line x1="212" y1="481" x2="212" y2="509" stroke="black"/>
<line x1="297" y1="481" x2="297" y2="509" stroke="black"/>
<line x1="382" y1="481" x2="382" y2="509" stroke="black"/>
<line x1="467" y1="481" x2="467" y2="509" stroke="black"/>
<line x1="552" y1="481" x2="552" y2="509" stroke="black"/>
<line x1="297" y1="492" x2="127" y2="492" stroke="black"/>
<line x1="127" y1="492" x2="137" y2="498" stroke="black"/>
<polygon fill="white" points="192,482 231,482 231,491 192,491"/>
<text x="193" y="491" textLength="37" font-family="Helvetica" font-size="12" fill="black">
[8] ???
</text>
<line x1="42" y1="509" x2="42" y2="537" stroke="black"/>
<line x1="127" y1="509" x2="127" y2="537" stroke="black"/>
<line x1="212" y1="509" x2="212" y2="537" stroke="black"/>
<line x1="297" y1="509" x2="297" y2="537" stroke="black"/>
<line x1="382" y1="509" x2="382" y2="537" stroke="black"/>
<line x1="467" y1="509" x2="467" y2="537" stroke="black"/>
<line x1="552" y1="509" x2="552" y2="537" stroke="black"/>
<line x1="127" y1="520" x2="297" y2="520" stroke="black"/>
<line x1="297" y1="520" x2="287" y2="526" stroke="black"/>
<polygon fill="white" points="192,510 231,510 231,519 192,519"/>
<text x="193" y="519" textLength="37" font-family="Helvetica" font-size="12" fill="black">
[9] ???
</text>
<line x1="42" y1="537" x2="42" y2="565" stroke="black"/>
<line x1="127" y1="537" x2="127" y2="565" stroke="black"/>
<line x1="212" y1="537" x2="212" y2="565" stroke="black"/>
<line x1="297" y1="537" x2="297" y2="565" stroke="black"/>
<line x1="382" y1="537" x2="382" y2="565" stroke="black"/>
<line x1="467" y1="537" x2="467" y2="565" stroke="black"/>
<line x1="552" y1="537" x2="552" y2="565" stroke="black"/>
<line x1="297" y1="548" x2="467" y2="548" stroke="black"/>
<line x1="467" y1="548" x2="457" y2="554" stroke="black"/>
<polygon fill="white" points="359,538 404,538 404,547 359,547"/>
<text x="360" y="547" textLength="43" font-family="Helvetica" font-size="12" fill="black">
[10] ???
</text>
<line x1="42" y1="565" x2="42" y2="593" stroke="black"/>
<line x1="127" y1="565" x2="127" y2="593" stroke="black"/>
<line x1="212" y1="565" x2="212" y2="593" stroke="black"/>
<line x1="297" y1="565" x2="297" y2="593" stroke="black"/>
<line x1="382" y1="565" x2="382" y2="593" stroke="black"/>
<line x1="467" y1="565" x2="467" y2="593" stroke="black"/>
<line x1="552" y1="565" x2="552" y2="593" stroke="black"/>
<line x1="467" y1="576" x2="42" y2="576" stroke="black"/>
<line x1="42" y1="576" x2="52" y2="582" stroke="black"/>
<polygon fill="white" points="235,566 273,566 273,575 235,575"/>
<text x="236" y="575" textLength="36" font-family="Helvetica" font-size="12" fill="black">
[11] ok
</text>
<line x1="42" y1="587" x2="42" y2="593" stroke="black"/>
<line x1="127" y1="587" x2="127" y2="593" stroke="black"/>
<line x1="212" y1="587" x2="212" y2="593" stroke="black"/>
<line x1="297" y1="587" x2="297" y2="593" stroke="black"/>
<line x1="382" y1="587" x2="382" y2="593" stroke="black"/>
<line x1="467" y1="587" x2="467" y2="593" stroke="black"/>
<line x1="552" y1="587" x2="552" y2="593" stroke="black"/>
</svg>
