<!DOCTYPE svg PUBLIC "-//W3C//DTD SVG 1.1//EN"
 "http://www.w3.org/Graphics/SVG/1.1/DTD/svg11.dtd">
<svg version="1.1"
 viewBox="0 0 595 168"
 xmlns="http://www.w3.org/2000/svg" shape-rendering="crispEdges"
 stroke-width="1" text-rendering="geometricPrecision">
<polygon fill="white" points="23,6 59,6 59,16 23,16"/>
<text x="42" y="15" textLength="34" font-family="Helvetica" font-size="12" fill="black" text-anchor="middle">

GDSS
</text>
<polygon fill="white" points="25,17 57,17 57,27 25,27"/>
<text x="42" y="26" textLength="30" font-family="Helvetica" font-size="12" fill="black" text-anchor="middle">

Client
</text>
<polygon fill="white" points="108,6 144,6 144,16 108,16"/>
<text x="127" y="15" textLength="34" font-family="Helvetica" font-size="12" fill="black" text-anchor="middle">

GDSS
</text>
<polygon fill="white" points="111,17 141,17 141,27 111,27"/>
<text x="127" y="26" textLength="28" font-family="Helvetica" font-size="12" fill="black" text-anchor="middle">

Head
</text>
<polygon fill="white" points="193,17 229,17 229,27 193,27"/>
<text x="212" y="26" textLength="35" font-family="Helvetica" font-size="12" fill="black" text-anchor="middle">

H Disk
</text>
<polygon fill="white" points="278,6 314,6 314,16 278,16"/>
<text x="297" y="15" textLength="34" font-family="Helvetica" font-size="12" fill="black" text-anchor="middle">

GDSS
</text>
<polygon fill="white" points="278,17 314,17 314,27 278,27"/>
<text x="297" y="26" textLength="35" font-family="Helvetica" font-size="12" fill="black" text-anchor="middle">

Middle
</text>
<polygon fill="white" points="362,17 400,17 400,27 362,27"/>
<text x="382" y="26" textLength="36" font-family="Helvetica" font-size="12" fill="black" text-anchor="middle">

M Disk
</text>
<polygon fill="white" points="448,6 484,6 484,16 448,16"/>
<text x="467" y="15" textLength="34" font-family="Helvetica" font-size="12" fill="black" text-anchor="middle">

GDSS
</text>
<polygon fill="white" points="456,17 476,17 476,27 456,27"/>
<text x="467" y="26" textLength="19" font-family="Helvetica" font-size="12" fill="black" text-anchor="middle">

Tail
</text>
<polygon fill="white" points="534,17 568,17 568,27 534,27"/>
<text x="552" y="26" textLength="33" font-family="Helvetica" font-size="12" fill="black" text-anchor="middle">

T Disk
</text>
<line x1="42" y1="33" x2="42" y2="60" stroke="black"/>
<line x1="127" y1="33" x2="127" y2="60" stroke="black"/>
<line x1="212" y1="33" x2="212" y2="60" stroke="black"/>
<line x1="297" y1="33" x2="297" y2="60" stroke="black"/>
<line x1="382" y1="33" x2="382" y2="60" stroke="black"/>
<line x1="467" y1="33" x2="467" y2="60" stroke="black"/>
<line x1="552" y1="33" x2="552" y2="60" stroke="black"/>
<line x1="42" y1="46" x2="467" y2="46" stroke="black"/>
<line x1="467" y1="46" x2="457" y2="52" stroke="black"/>
<polygon fill="white" points="229,35 280,35 280,45 229,45"/>
<text x="230" y="44" textLength="49" font-family="Helvetica" font-size="12" fill="black">
[1] get(K)
</text>
<line x1="42" y1="60" x2="42" y2="87" stroke="black"/>
<line x1="127" y1="60" x2="127" y2="87" stroke="black"/>
<line x1="212" y1="60" x2="212" y2="87" stroke="black"/>
<line x1="297" y1="60" x2="297" y2="87" stroke="black"/>
<line x1="382" y1="60" x2="382" y2="87" stroke="black"/>
<line x1="467" y1="60" x2="467" y2="87" stroke="black"/>
<line x1="552" y1="60" x2="552" y2="87" stroke="black"/>
<path d="M 467 66 A42,6 0 0,1 466,79" stroke="black" fill="none"/><line x1="467" y1="79" x2="477" y2="85" stroke="black"/>
<polygon fill="white" points="361,62 465,62 465,72 361,72"/>
<text x="362" y="71" textLength="102" font-family="Helvetica" font-size="12" fill="black">
[2] get position of V
</text>
<line x1="42" y1="87" x2="42" y2="114" stroke="black"/>
<line x1="127" y1="87" x2="127" y2="114" stroke="black"/>
<line x1="212" y1="87" x2="212" y2="114" stroke="black"/>
<line x1="297" y1="87" x2="297" y2="114" stroke="black"/>
<line x1="382" y1="87" x2="382" y2="114" stroke="black"/>
<line x1="467" y1="87" x2="467" y2="114" stroke="black"/>
<line x1="552" y1="87" x2="552" y2="114" stroke="black"/>
<line x1="467" y1="100" x2="552" y2="100" stroke="black"/>
<line x1="552" y1="100" x2="542" y2="106" stroke="black"/>
<polygon fill="white" points="477,89 541,89 541,99 477,99"/>
<text x="478" y="98" textLength="62" font-family="Helvetica" font-size="12" fill="black">
[3.1] read V
</text>
<line x1="42" y1="114" x2="42" y2="141" stroke="black"/>
<line x1="127" y1="114" x2="127" y2="141" stroke="black"/>
<line x1="212" y1="114" x2="212" y2="141" stroke="black"/>
<line x1="297" y1="114" x2="297" y2="141" stroke="black"/>
<line x1="382" y1="114" x2="382" y2="141" stroke="black"/>
<line x1="467" y1="114" x2="467" y2="141" stroke="black"/>
<line x1="552" y1="114" x2="552" y2="141" stroke="black"/>
<line x1="552" y1="127" x2="467" y2="127" stroke="black"/>
<line x1="467" y1="127" x2="477" y2="133" stroke="black"/>
<polygon fill="white" points="483,116 535,116 535,126 483,126"/>
<text x="484" y="125" textLength="50" font-family="Helvetica" font-size="12" fill="black">
[3.2] ok V
</text>
<line x1="42" y1="141" x2="42" y2="168" stroke="black"/>
<line x1="127" y1="141" x2="127" y2="168" stroke="black"/>
<line x1="212" y1="141" x2="212" y2="168" stroke="black"/>
<line x1="297" y1="141" x2="297" y2="168" stroke="black"/>
<line x1="382" y1="141" x2="382" y2="168" stroke="black"/>
<line x1="467" y1="141" x2="467" y2="168" stroke="black"/>
<line x1="552" y1="141" x2="552" y2="168" stroke="black"/>
<line x1="467" y1="154" x2="42" y2="154" stroke="black"/>
<line x1="42" y1="154" x2="52" y2="160" stroke="black"/>
<polygon fill="white" points="233,143 275,143 275,153 233,153"/>
<text x="234" y="152" textLength="40" font-family="Helvetica" font-size="12" fill="black">
[4] ok V
</text>
</svg>
