<?xml version="1.0" encoding="UTF-8" standalone="no"?>
<!DOCTYPE svg PUBLIC "-//W3C//DTD SVG 1.1//EN"
 "http://www.w3.org/Graphics/SVG/1.1/DTD/svg11.dtd">
<!-- Generated by graphviz version 2.26.3 (20100126.1600)
 -->
<!-- Title: data_flow Pages: 1 -->
<svg width="648pt" height="428pt"
 viewBox="0.00 0.00 648.00 428.00" xmlns="http://www.w3.org/2000/svg" xmlns:xlink="http://www.w3.org/1999/xlink">
<g id="graph1" class="graph" transform="scale(1 1) rotate(0) translate(4 424)">
<title>data_flow</title>
<polygon fill="white" stroke="white" points="-4,5 -4,-424 645,-424 645,5 -4,5"/>
<!-- TABLE -->
<g id="node1" class="node"><title>TABLE</title>
<polygon fill="none" stroke="black" points="277,-420 181,-420 181,-384 277,-384 277,-420"/>
<text text-anchor="middle" x="229" y="-396.9" font-family="Times,serif" font-size="14.00">Table &#39;footab&#39;</text>
</g>
<!-- CHAIN1 -->
<g id="node2" class="node"><title>CHAIN1</title>
<polygon fill="none" stroke="black" points="62,-312 2.84217e-14,-312 0,-276 62,-276 62,-312"/>
<text text-anchor="middle" x="31" y="-288.9" font-family="Times,serif" font-size="14.00">Chain 1</text>
</g>
<!-- TABLE&#45;&gt;CHAIN1 -->
<g id="edge3" class="edge"><title>TABLE&#45;&gt;CHAIN1</title>
<path fill="none" stroke="black" d="M195.859,-383.923C161.556,-365.212 107.946,-335.971 71.2341,-315.946"/>
<polygon fill="black" stroke="black" points="72.7416,-312.781 62.2866,-311.065 69.3896,-318.927 72.7416,-312.781"/>
<text text-anchor="middle" x="177.5" y="-352.9" font-family="Times,serif" font-size="14.00">Chain</text>
</g>
<!-- CHAIN2 -->
<g id="node3" class="node"><title>CHAIN2</title>
<polygon fill="none" stroke="black" points="391,-312 329,-312 329,-276 391,-276 391,-312"/>
<text text-anchor="middle" x="360" y="-288.9" font-family="Times,serif" font-size="14.00">Chain 2</text>
</g>
<!-- TABLE&#45;&gt;CHAIN2 -->
<g id="edge5" class="edge"><title>TABLE&#45;&gt;CHAIN2</title>
<path fill="none" stroke="black" d="M253.879,-383.955C272.486,-370.2 298.342,-350.53 320,-332 324.663,-328.011 329.496,-323.638 334.124,-319.325"/>
<polygon fill="black" stroke="black" points="336.796,-321.615 341.65,-312.198 331.982,-316.532 336.796,-321.615"/>
<text text-anchor="middle" x="316.5" y="-352.9" font-family="Times,serif" font-size="14.00">Chain</text>
</g>
<!-- HEAD1 -->
<g id="node5" class="node"><title>HEAD1</title>
<ellipse fill="none" stroke="black" cx="211" cy="-294" rx="99.9096" ry="37.4767"/>
<text text-anchor="middle" x="211" y="-303.9" font-family="Times,serif" font-size="14.00">brick: footab_ch1_b1</text>
<text text-anchor="middle" x="211" y="-288.9" font-family="Times,serif" font-size="14.00">key: string1</text>
<text text-anchor="middle" x="211" y="-273.9" font-family="Times,serif" font-size="14.00">key: string4</text>
</g>
<!-- CHAIN1&#45;&gt;HEAD1 -->
<g id="edge7" class="edge"><title>CHAIN1&#45;&gt;HEAD1</title>
<path fill="none" stroke="black" d="M62.3536,-294C73.3767,-294 86.4787,-294 100.267,-294"/>
<polygon fill="black" stroke="black" points="100.409,-297.5 110.409,-294 100.409,-290.5 100.409,-297.5"/>
<text text-anchor="middle" x="86" y="-296.4" font-family="Times,serif" font-size="14.00">Head</text>
</g>
<!-- HEAD2 -->
<g id="node6" class="node"><title>HEAD2</title>
<ellipse fill="none" stroke="black" cx="540" cy="-294" rx="99.9096" ry="37.4767"/>
<text text-anchor="middle" x="540" y="-303.9" font-family="Times,serif" font-size="14.00">brick: footab_ch2_b1</text>
<text text-anchor="middle" x="540" y="-288.9" font-family="Times,serif" font-size="14.00">key: string2</text>
<text text-anchor="middle" x="540" y="-273.9" font-family="Times,serif" font-size="14.00">key: string3</text>
</g>
<!-- CHAIN2&#45;&gt;HEAD2 -->
<g id="edge13" class="edge"><title>CHAIN2&#45;&gt;HEAD2</title>
<path fill="none" stroke="black" d="M391.354,-294C402.377,-294 415.479,-294 429.267,-294"/>
<polygon fill="black" stroke="black" points="429.409,-297.5 439.409,-294 429.409,-290.5 429.409,-297.5"/>
<text text-anchor="middle" x="416" y="-296.4" font-family="Times,serif" font-size="14.00">Head</text>
</g>
<!-- MIDDLE1 -->
<g id="node7" class="node"><title>MIDDLE1</title>
<ellipse fill="none" stroke="black" cx="211" cy="-166" rx="99.9096" ry="37.4767"/>
<text text-anchor="middle" x="211" y="-175.9" font-family="Times,serif" font-size="14.00">brick: footab_ch1_b2</text>
<text text-anchor="middle" x="211" y="-160.9" font-family="Times,serif" font-size="14.00">key: string1</text>
<text text-anchor="middle" x="211" y="-145.9" font-family="Times,serif" font-size="14.00">key: string4</text>
</g>
<!-- HEAD1&#45;&gt;MIDDLE1 -->
<g id="edge9" class="edge"><title>HEAD1&#45;&gt;MIDDLE1</title>
<path fill="none" stroke="black" d="M211,-256.288C211,-243.125 211,-228.166 211,-214.263"/>
<polygon fill="black" stroke="black" points="214.5,-213.885 211,-203.885 207.5,-213.885 214.5,-213.885"/>
<text text-anchor="middle" x="244" y="-224.9" font-family="Times,serif" font-size="14.00">Replication</text>
</g>
<!-- MIDDLE2 -->
<g id="node9" class="node"><title>MIDDLE2</title>
<ellipse fill="none" stroke="black" cx="540" cy="-166" rx="99.9096" ry="37.4767"/>
<text text-anchor="middle" x="540" y="-175.9" font-family="Times,serif" font-size="14.00">brick: footab_ch2_b2</text>
<text text-anchor="middle" x="540" y="-160.9" font-family="Times,serif" font-size="14.00">key: string2</text>
<text text-anchor="middle" x="540" y="-145.9" font-family="Times,serif" font-size="14.00">key: string3</text>
</g>
<!-- HEAD2&#45;&gt;MIDDLE2 -->
<g id="edge15" class="edge"><title>HEAD2&#45;&gt;MIDDLE2</title>
<path fill="none" stroke="black" d="M540,-256.288C540,-243.125 540,-228.166 540,-214.263"/>
<polygon fill="black" stroke="black" points="543.5,-213.885 540,-203.885 536.5,-213.885 543.5,-213.885"/>
<text text-anchor="middle" x="573" y="-224.9" font-family="Times,serif" font-size="14.00">Replication</text>
</g>
<!-- TAIL1 -->
<g id="node8" class="node"><title>TAIL1</title>
<ellipse fill="none" stroke="black" cx="211" cy="-38" rx="99.9096" ry="37.4767"/>
<text text-anchor="middle" x="211" y="-47.9" font-family="Times,serif" font-size="14.00">brick: footab_ch1_b3</text>
<text text-anchor="middle" x="211" y="-32.9" font-family="Times,serif" font-size="14.00">key: string1</text>
<text text-anchor="middle" x="211" y="-17.9" font-family="Times,serif" font-size="14.00">key: string4</text>
</g>
<!-- MIDDLE1&#45;&gt;TAIL1 -->
<g id="edge11" class="edge"><title>MIDDLE1&#45;&gt;TAIL1</title>
<path fill="none" stroke="black" d="M211,-128.288C211,-115.125 211,-100.166 211,-86.2631"/>
<polygon fill="black" stroke="black" points="214.5,-85.8847 211,-75.8847 207.5,-85.8847 214.5,-85.8847"/>
<text text-anchor="middle" x="244" y="-96.9" font-family="Times,serif" font-size="14.00">Replication</text>
</g>
<!-- TAIL2 -->
<g id="node10" class="node"><title>TAIL2</title>
<ellipse fill="none" stroke="black" cx="540" cy="-38" rx="99.9096" ry="37.4767"/>
<text text-anchor="middle" x="540" y="-47.9" font-family="Times,serif" font-size="14.00">brick: footab_ch2_b3</text>
<text text-anchor="middle" x="540" y="-32.9" font-family="Times,serif" font-size="14.00">key: string2</text>
<text text-anchor="middle" x="540" y="-17.9" font-family="Times,serif" font-size="14.00">key: string3</text>
</g>
<!-- MIDDLE2&#45;&gt;TAIL2 -->
<g id="edge17" class="edge"><title>MIDDLE2&#45;&gt;TAIL2</title>
<path fill="none" stroke="black" d="M540,-128.288C540,-115.125 540,-100.166 540,-86.2631"/>
<polygon fill="black" stroke="black" points="543.5,-85.8847 540,-75.8847 536.5,-85.8847 543.5,-85.8847"/>
<text text-anchor="middle" x="573" y="-96.9" font-family="Times,serif" font-size="14.00">Replication</text>
</g>
</g>
</svg>
