<?xml version="1.0" encoding="UTF-8" standalone="no"?>
<!DOCTYPE svg PUBLIC "-//W3C//DTD SVG 1.1//EN"
 "http://www.w3.org/Graphics/SVG/1.1/DTD/svg11.dtd">
<!-- Generated by graphviz version 2.26.3 (20100126.1600)
 -->
<!-- Title: data_flow Pages: 1 -->
<svg width="612pt" height="488pt"
 viewBox="0.00 0.00 612.00 488.00" xmlns="http://www.w3.org/2000/svg" xmlns:xlink="http://www.w3.org/1999/xlink">
<g id="graph1" class="graph" transform="scale(1 1) rotate(0) translate(4 484)">
<title>data_flow</title>
<polygon fill="white" stroke="white" points="-4,5 -4,-484 609,-484 609,5 -4,5"/>
<!-- TABLE -->
<g id="node1" class="node"><title>TABLE</title>
<polygon fill="none" stroke="black" points="261,-480 171,-480 171,-444 261,-444 261,-480"/>
<text text-anchor="middle" x="216" y="-458.9" font-family="Times Roman,serif" font-size="14.00">Table &#39;footab&#39;</text>
</g>
<!-- CHAIN1 -->
<g id="node2" class="node"><title>CHAIN1</title>
<polygon fill="none" stroke="black" points="58,-360 2.13163e-14,-360 0,-324 58,-324 58,-360"/>
<text text-anchor="middle" x="29" y="-338.9" font-family="Times Roman,serif" font-size="14.00">Chain 1</text>
</g>
<!-- TABLE&#45;&gt;CHAIN1 -->
<g id="edge3" class="edge"><title>TABLE&#45;&gt;CHAIN1</title>
<path fill="none" stroke="black" d="M185.66,-443.854C161.244,-429.117 126.152,-407.631 96,-388 85.2842,-381.023 73.7589,-373.222 63.3401,-366.053"/>
<polygon fill="black" stroke="black" points="65.1069,-363.02 54.8907,-360.213 61.1266,-368.778 65.1069,-363.02"/>
<text text-anchor="middle" x="171.5" y="-412.9" font-family="Times Roman,serif" font-size="14.00">Chain</text>
</g>
<!-- CHAIN2 -->
<g id="node3" class="node"><title>CHAIN2</title>
<polygon fill="none" stroke="black" points="369,-360 311,-360 311,-324 369,-324 369,-360"/>
<text text-anchor="middle" x="340" y="-338.9" font-family="Times Roman,serif" font-size="14.00">Chain 2</text>
</g>
<!-- TABLE&#45;&gt;CHAIN2 -->
<g id="edge5" class="edge"><title>TABLE&#45;&gt;CHAIN2</title>
<path fill="none" stroke="black" d="M239.209,-443.832C257.073,-429.429 282.008,-408.397 302,-388 308.016,-381.862 314.124,-374.871 319.632,-368.224"/>
<polygon fill="black" stroke="black" points="322.657,-370.051 326.237,-360.08 317.22,-365.642 322.657,-370.051"/>
<text text-anchor="middle" x="298.5" y="-412.9" font-family="Times Roman,serif" font-size="14.00">Chain</text>
</g>
<!-- HEAD1 -->
<g id="node5" class="node"><title>HEAD1</title>
<ellipse fill="none" stroke="black" cx="199" cy="-342" rx="94.0452" ry="45.9619"/>
<text text-anchor="middle" x="199" y="-357.9" font-family="Times Roman,serif" font-size="14.00">brick: footab_ch1_b1</text>
<text text-anchor="middle" x="199" y="-338.9" font-family="Times Roman,serif" font-size="14.00">key: string1</text>
<text text-anchor="middle" x="199" y="-319.9" font-family="Times Roman,serif" font-size="14.00">key: string4</text>
</g>
<!-- CHAIN1&#45;&gt;HEAD1 -->
<g id="edge7" class="edge"><title>CHAIN1&#45;&gt;HEAD1</title>
<path fill="none" stroke="black" d="M58.6117,-342C69.073,-342 81.5168,-342 94.6089,-342"/>
<polygon fill="black" stroke="black" points="94.7248,-345.5 104.725,-342 94.7247,-338.5 94.7248,-345.5"/>
<text text-anchor="middle" x="81" y="-348.4" font-family="Times Roman,serif" font-size="14.00">Head</text>
</g>
<!-- HEAD2 -->
<g id="node6" class="node"><title>HEAD2</title>
<ellipse fill="none" stroke="black" cx="510" cy="-342" rx="94.0452" ry="45.9619"/>
<text text-anchor="middle" x="510" y="-357.9" font-family="Times Roman,serif" font-size="14.00">brick: footab_ch2_b1</text>
<text text-anchor="middle" x="510" y="-338.9" font-family="Times Roman,serif" font-size="14.00">key: string2</text>
<text text-anchor="middle" x="510" y="-319.9" font-family="Times Roman,serif" font-size="14.00">key: string3</text>
</g>
<!-- CHAIN2&#45;&gt;HEAD2 -->
<g id="edge13" class="edge"><title>CHAIN2&#45;&gt;HEAD2</title>
<path fill="none" stroke="black" d="M434.446,-342C434.522,-342 434.598,-342 434.675,-342"/>
<polygon fill="black" stroke="black" points="424.905,-345.504 434.904,-342 424.902,-338.504 424.905,-345.504"/>
<text text-anchor="middle" x="393" y="-348.4" font-family="Times Roman,serif" font-size="14.00">Head</text>
</g>
<!-- MIDDLE1 -->
<g id="node7" class="node"><title>MIDDLE1</title>
<ellipse fill="none" stroke="black" cx="199" cy="-194" rx="94.0452" ry="45.9619"/>
<text text-anchor="middle" x="199" y="-209.9" font-family="Times Roman,serif" font-size="14.00">brick: footab_ch1_b2</text>
<text text-anchor="middle" x="199" y="-190.9" font-family="Times Roman,serif" font-size="14.00">key: string1</text>
<text text-anchor="middle" x="199" y="-171.9" font-family="Times Roman,serif" font-size="14.00">key: string4</text>
</g>
<!-- HEAD1&#45;&gt;MIDDLE1 -->
<g id="edge9" class="edge"><title>HEAD1&#45;&gt;MIDDLE1</title>
<path fill="none" stroke="black" d="M199,-295.983C199,-281.574 199,-265.504 199,-250.461"/>
<polygon fill="black" stroke="black" points="202.5,-250.243 199,-240.243 195.5,-250.243 202.5,-250.243"/>
<text text-anchor="middle" x="230.5" y="-264.9" font-family="Times Roman,serif" font-size="14.00">Replication</text>
</g>
<!-- MIDDLE2 -->
<g id="node9" class="node"><title>MIDDLE2</title>
<ellipse fill="none" stroke="black" cx="510" cy="-194" rx="94.0452" ry="45.9619"/>
<text text-anchor="middle" x="510" y="-209.9" font-family="Times Roman,serif" font-size="14.00">brick: footab_ch2_b2</text>
<text text-anchor="middle" x="510" y="-190.9" font-family="Times Roman,serif" font-size="14.00">key: string2</text>
<text text-anchor="middle" x="510" y="-171.9" font-family="Times Roman,serif" font-size="14.00">key: string3</text>
</g>
<!-- HEAD2&#45;&gt;MIDDLE2 -->
<g id="edge15" class="edge"><title>HEAD2&#45;&gt;MIDDLE2</title>
<path fill="none" stroke="black" d="M510,-295.983C510,-281.574 510,-265.504 510,-250.461"/>
<polygon fill="black" stroke="black" points="513.5,-250.243 510,-240.243 506.5,-250.243 513.5,-250.243"/>
<text text-anchor="middle" x="541.5" y="-264.9" font-family="Times Roman,serif" font-size="14.00">Replication</text>
</g>
<!-- TAIL1 -->
<g id="node8" class="node"><title>TAIL1</title>
<ellipse fill="none" stroke="black" cx="199" cy="-46" rx="94.0452" ry="45.9619"/>
<text text-anchor="middle" x="199" y="-61.9" font-family="Times Roman,serif" font-size="14.00">brick: footab_ch1_b3</text>
<text text-anchor="middle" x="199" y="-42.9" font-family="Times Roman,serif" font-size="14.00">key: string1</text>
<text text-anchor="middle" x="199" y="-23.9" font-family="Times Roman,serif" font-size="14.00">key: string4</text>
</g>
<!-- MIDDLE1&#45;&gt;TAIL1 -->
<g id="edge11" class="edge"><title>MIDDLE1&#45;&gt;TAIL1</title>
<path fill="none" stroke="black" d="M199,-147.983C199,-133.574 199,-117.504 199,-102.461"/>
<polygon fill="black" stroke="black" points="202.5,-102.243 199,-92.2431 195.5,-102.243 202.5,-102.243"/>
<text text-anchor="middle" x="230.5" y="-116.9" font-family="Times Roman,serif" font-size="14.00">Replication</text>
</g>
<!-- TAIL2 -->
<g id="node10" class="node"><title>TAIL2</title>
<ellipse fill="none" stroke="black" cx="510" cy="-46" rx="94.0452" ry="45.9619"/>
<text text-anchor="middle" x="510" y="-61.9" font-family="Times Roman,serif" font-size="14.00">brick: footab_ch2_b3</text>
<text text-anchor="middle" x="510" y="-42.9" font-family="Times Roman,serif" font-size="14.00">key: string2</text>
<text text-anchor="middle" x="510" y="-23.9" font-family="Times Roman,serif" font-size="14.00">key: string3</text>
</g>
<!-- MIDDLE2&#45;&gt;TAIL2 -->
<g id="edge17" class="edge"><title>MIDDLE2&#45;&gt;TAIL2</title>
<path fill="none" stroke="black" d="M510,-147.983C510,-133.574 510,-117.504 510,-102.461"/>
<polygon fill="black" stroke="black" points="513.5,-102.243 510,-92.2431 506.5,-102.243 513.5,-102.243"/>
<text text-anchor="middle" x="541.5" y="-116.9" font-family="Times Roman,serif" font-size="14.00">Replication</text>
</g>
</g>
</svg>
