<?xml version="1.0" encoding="UTF-8" standalone="no"?>
<!DOCTYPE svg PUBLIC "-//W3C//DTD SVG 1.1//EN"
 "http://www.w3.org/Graphics/SVG/1.1/DTD/svg11.dtd">
<!-- Generated by graphviz version 2.28.0 (20120122.0658)
 -->
<!-- Title: data_flow Pages: 1 -->
<svg width="625pt" height="458pt"
 viewBox="0.00 0.00 625.00 458.00" xmlns="http://www.w3.org/2000/svg" xmlns:xlink="http://www.w3.org/1999/xlink">
<g id="graph1" class="graph" transform="scale(1 1) rotate(0) translate(4 454)">
<title>data_flow</title>
<polygon fill="white" stroke="white" points="-4,5 -4,-454 622,-454 622,5 -4,5"/>
<!-- TABLE -->
<g id="node1" class="node"><title>TABLE</title>
<polygon fill="none" stroke="black" points="265.401,-450 174.599,-450 174.599,-414 265.401,-414 265.401,-450"/>
<text text-anchor="middle" x="220" y="-426.4" font-family="Times,serif" font-size="14.00">Table &#39;footab&#39;</text>
</g>
<!-- CHAIN1 -->
<g id="node2" class="node"><title>CHAIN1</title>
<polygon fill="none" stroke="black" points="58.4566,-336 -0.456557,-336 -0.456557,-300 58.4566,-300 58.4566,-336"/>
<text text-anchor="middle" x="29" y="-312.4" font-family="Times,serif" font-size="14.00">Chain 1</text>
</g>
<!-- TABLE&#45;&gt;CHAIN1 -->
<g id="edge3" class="edge"><title>TABLE&#45;&gt;CHAIN1</title>
<path fill="none" stroke="black" d="M190.373,-413.859C165.64,-399.525 129.475,-378.51 98,-360 87.688,-353.936 76.5324,-347.328 66.2587,-341.223"/>
<polygon fill="black" stroke="black" points="67.8845,-338.118 57.5006,-336.014 64.3061,-344.134 67.8845,-338.118"/>
<text text-anchor="middle" x="174.721" y="-381.4" font-family="Times,serif" font-size="14.00">Chain</text>
</g>
<!-- CHAIN2 -->
<g id="node3" class="node"><title>CHAIN2</title>
<polygon fill="none" stroke="black" points="376.457,-336 317.543,-336 317.543,-300 376.457,-300 376.457,-336"/>
<text text-anchor="middle" x="347" y="-312.4" font-family="Times,serif" font-size="14.00">Chain 2</text>
</g>
<!-- TABLE&#45;&gt;CHAIN2 -->
<g id="edge5" class="edge"><title>TABLE&#45;&gt;CHAIN2</title>
<path fill="none" stroke="black" d="M242.735,-413.982C260.915,-400.064 286.781,-379.556 308,-360 313.562,-354.874 319.307,-349.122 324.621,-343.584"/>
<polygon fill="black" stroke="black" points="327.227,-345.922 331.543,-336.246 322.135,-341.119 327.227,-345.922"/>
<text text-anchor="middle" x="304.721" y="-381.4" font-family="Times,serif" font-size="14.00">Chain</text>
</g>
<!-- HEAD1 -->
<g id="node5" class="node"><title>HEAD1</title>
<ellipse fill="none" stroke="black" cx="203" cy="-318" rx="95.8936" ry="41.0911"/>
<text text-anchor="middle" x="203" y="-329.2" font-family="Times,serif" font-size="14.00">brick: footab_ch1_b1</text>
<text text-anchor="middle" x="203" y="-312.4" font-family="Times,serif" font-size="14.00">key: string1</text>
<text text-anchor="middle" x="203" y="-295.6" font-family="Times,serif" font-size="14.00">key: string4</text>
</g>
<!-- CHAIN1&#45;&gt;HEAD1 -->
<g id="edge7" class="edge"><title>CHAIN1&#45;&gt;HEAD1</title>
<path fill="none" stroke="black" d="M58.5167,-318C69.4398,-318 82.551,-318 96.3586,-318"/>
<polygon fill="black" stroke="black" points="96.5145,-321.5 106.514,-318 96.5144,-314.5 96.5145,-321.5"/>
<text text-anchor="middle" x="82.3691" y="-323.8" font-family="Times,serif" font-size="14.00">Head</text>
</g>
<!-- HEAD2 -->
<g id="node6" class="node"><title>HEAD2</title>
<ellipse fill="none" stroke="black" cx="521" cy="-318" rx="95.8936" ry="41.0911"/>
<text text-anchor="middle" x="521" y="-329.2" font-family="Times,serif" font-size="14.00">brick: footab_ch2_b1</text>
<text text-anchor="middle" x="521" y="-312.4" font-family="Times,serif" font-size="14.00">key: string2</text>
<text text-anchor="middle" x="521" y="-295.6" font-family="Times,serif" font-size="14.00">key: string3</text>
</g>
<!-- CHAIN2&#45;&gt;HEAD2 -->
<g id="edge13" class="edge"><title>CHAIN2&#45;&gt;HEAD2</title>
<path fill="none" stroke="black" d="M376.517,-318C387.44,-318 400.551,-318 414.359,-318"/>
<polygon fill="black" stroke="black" points="414.514,-321.5 424.514,-318 414.514,-314.5 414.514,-321.5"/>
<text text-anchor="middle" x="400.369" y="-323.8" font-family="Times,serif" font-size="14.00">Head</text>
</g>
<!-- MIDDLE1 -->
<g id="node7" class="node"><title>MIDDLE1</title>
<ellipse fill="none" stroke="black" cx="203" cy="-180" rx="95.8936" ry="41.0911"/>
<text text-anchor="middle" x="203" y="-191.2" font-family="Times,serif" font-size="14.00">brick: footab_ch1_b2</text>
<text text-anchor="middle" x="203" y="-174.4" font-family="Times,serif" font-size="14.00">key: string1</text>
<text text-anchor="middle" x="203" y="-157.6" font-family="Times,serif" font-size="14.00">key: string4</text>
</g>
<!-- HEAD1&#45;&gt;MIDDLE1 -->
<g id="edge9" class="edge"><title>HEAD1&#45;&gt;MIDDLE1</title>
<path fill="none" stroke="black" d="M203,-276.564C203,-262.441 203,-246.408 203,-231.564"/>
<polygon fill="black" stroke="black" points="206.5,-231.515 203,-221.515 199.5,-231.515 206.5,-231.515"/>
<text text-anchor="middle" x="235.269" y="-243.4" font-family="Times,serif" font-size="14.00">Replication</text>
</g>
<!-- MIDDLE2 -->
<g id="node9" class="node"><title>MIDDLE2</title>
<ellipse fill="none" stroke="black" cx="521" cy="-180" rx="95.8936" ry="41.0911"/>
<text text-anchor="middle" x="521" y="-191.2" font-family="Times,serif" font-size="14.00">brick: footab_ch2_b2</text>
<text text-anchor="middle" x="521" y="-174.4" font-family="Times,serif" font-size="14.00">key: string2</text>
<text text-anchor="middle" x="521" y="-157.6" font-family="Times,serif" font-size="14.00">key: string3</text>
</g>
<!-- HEAD2&#45;&gt;MIDDLE2 -->
<g id="edge15" class="edge"><title>HEAD2&#45;&gt;MIDDLE2</title>
<path fill="none" stroke="black" d="M521,-276.564C521,-262.441 521,-246.408 521,-231.564"/>
<polygon fill="black" stroke="black" points="524.5,-231.515 521,-221.515 517.5,-231.515 524.5,-231.515"/>
<text text-anchor="middle" x="553.269" y="-243.4" font-family="Times,serif" font-size="14.00">Replication</text>
</g>
<!-- TAIL1 -->
<g id="node8" class="node"><title>TAIL1</title>
<ellipse fill="none" stroke="black" cx="203" cy="-42" rx="95.8936" ry="41.0911"/>
<text text-anchor="middle" x="203" y="-53.2" font-family="Times,serif" font-size="14.00">brick: footab_ch1_b3</text>
<text text-anchor="middle" x="203" y="-36.4" font-family="Times,serif" font-size="14.00">key: string1</text>
<text text-anchor="middle" x="203" y="-19.6" font-family="Times,serif" font-size="14.00">key: string4</text>
</g>
<!-- MIDDLE1&#45;&gt;TAIL1 -->
<g id="edge11" class="edge"><title>MIDDLE1&#45;&gt;TAIL1</title>
<path fill="none" stroke="black" d="M203,-138.564C203,-124.441 203,-108.408 203,-93.5639"/>
<polygon fill="black" stroke="black" points="206.5,-93.5153 203,-83.5153 199.5,-93.5153 206.5,-93.5153"/>
<text text-anchor="middle" x="235.269" y="-105.4" font-family="Times,serif" font-size="14.00">Replication</text>
</g>
<!-- TAIL2 -->
<g id="node10" class="node"><title>TAIL2</title>
<ellipse fill="none" stroke="black" cx="521" cy="-42" rx="95.8936" ry="41.0911"/>
<text text-anchor="middle" x="521" y="-53.2" font-family="Times,serif" font-size="14.00">brick: footab_ch2_b3</text>
<text text-anchor="middle" x="521" y="-36.4" font-family="Times,serif" font-size="14.00">key: string2</text>
<text text-anchor="middle" x="521" y="-19.6" font-family="Times,serif" font-size="14.00">key: string3</text>
</g>
<!-- MIDDLE2&#45;&gt;TAIL2 -->
<g id="edge17" class="edge"><title>MIDDLE2&#45;&gt;TAIL2</title>
<path fill="none" stroke="black" d="M521,-138.564C521,-124.441 521,-108.408 521,-93.5639"/>
<polygon fill="black" stroke="black" points="524.5,-93.5153 521,-83.5153 517.5,-93.5153 524.5,-93.5153"/>
<text text-anchor="middle" x="553.269" y="-105.4" font-family="Times,serif" font-size="14.00">Replication</text>
</g>
</g>
</svg>
