<?xml version="1.0" encoding="UTF-8" standalone="no"?>
<!DOCTYPE svg PUBLIC "-//W3C//DTD SVG 1.1//EN"
 "http://www.w3.org/Graphics/SVG/1.1/DTD/svg11.dtd">
<!-- Generated by graphviz version 2.38.0 (20140413.2041)
 -->
<!-- Title: data_flow Pages: 1 -->
<svg width="618pt" height="422pt"
 viewBox="0.00 0.00 617.75 421.86" xmlns="http://www.w3.org/2000/svg" xmlns:xlink="http://www.w3.org/1999/xlink">
<g id="graph0" class="graph" transform="scale(1 1) rotate(0) translate(4 417.86)">
<title>data_flow</title>
<polygon fill="white" stroke="none" points="-4,4 -4,-417.86 613.752,-417.86 613.752,4 -4,4"/>
<!-- TABLE -->
<g id="node1" class="node"><title>TABLE</title>
<polygon fill="none" stroke="black" points="264,-413.86 172,-413.86 172,-377.86 264,-377.86 264,-413.86"/>
<text text-anchor="middle" x="218" y="-392.16" font-family="Times,serif" font-size="14.00">Table &#39;footab&#39;</text>
</g>
<!-- CHAIN1 -->
<g id="node2" class="node"><title>CHAIN1</title>
<polygon fill="none" stroke="black" points="60,-307.383 3.55271e-15,-307.383 3.55271e-15,-271.383 60,-271.383 60,-307.383"/>
<text text-anchor="middle" x="30" y="-285.683" font-family="Times,serif" font-size="14.00">Chain 1</text>
</g>
<!-- TABLE&#45;&gt;CHAIN1 -->
<g id="edge1" class="edge"><title>TABLE&#45;&gt;CHAIN1</title>
<path fill="none" stroke="black" d="M187.376,-377.841C155.189,-359.954 104.444,-331.754 69.3176,-312.233"/>
<polygon fill="black" stroke="black" points="70.7404,-309.02 60.2992,-307.221 67.34,-315.138 70.7404,-309.02"/>
<text text-anchor="middle" x="169" y="-348.66" font-family="Times,serif" font-size="14.00">Chain</text>
</g>
<!-- CHAIN2 -->
<g id="node3" class="node"><title>CHAIN2</title>
<polygon fill="none" stroke="black" points="374,-307.383 314,-307.383 314,-271.383 374,-271.383 374,-307.383"/>
<text text-anchor="middle" x="344" y="-285.683" font-family="Times,serif" font-size="14.00">Chain 2</text>
</g>
<!-- TABLE&#45;&gt;CHAIN2 -->
<g id="edge2" class="edge"><title>TABLE&#45;&gt;CHAIN2</title>
<path fill="none" stroke="black" d="M240.972,-377.786C258.772,-364.346 283.878,-344.931 305,-326.86 309.603,-322.922 314.397,-318.618 318.985,-314.391"/>
<polygon fill="black" stroke="black" points="321.521,-316.811 326.441,-307.428 316.743,-311.695 321.521,-316.811"/>
<text text-anchor="middle" x="302" y="-348.66" font-family="Times,serif" font-size="14.00">Chain</text>
</g>
<!-- HEAD1 -->
<g id="node4" class="node"><title>HEAD1</title>
<ellipse fill="none" stroke="black" cx="201" cy="-289.383" rx="94.5053" ry="37.4533"/>
<text text-anchor="middle" x="201" y="-300.683" font-family="Times,serif" font-size="14.00">brick: footab_ch1_b1</text>
<text text-anchor="middle" x="201" y="-285.683" font-family="Times,serif" font-size="14.00">key: string1</text>
<text text-anchor="middle" x="201" y="-270.683" font-family="Times,serif" font-size="14.00">key: string4</text>
</g>
<!-- CHAIN1&#45;&gt;HEAD1 -->
<g id="edge3" class="edge"><title>CHAIN1&#45;&gt;HEAD1</title>
<path fill="none" stroke="black" d="M60.1777,-289.383C70.6452,-289.383 83.0513,-289.383 96.0934,-289.383"/>
<polygon fill="black" stroke="black" points="96.1693,-292.883 106.169,-289.383 96.1692,-285.883 96.1693,-292.883"/>
<text text-anchor="middle" x="83.1238" y="-296.183" font-family="Times,serif" font-size="14.00">Head</text>
</g>
<!-- HEAD2 -->
<g id="node5" class="node"><title>HEAD2</title>
<ellipse fill="none" stroke="black" cx="515" cy="-289.383" rx="94.5053" ry="37.4533"/>
<text text-anchor="middle" x="515" y="-300.683" font-family="Times,serif" font-size="14.00">brick: footab_ch2_b1</text>
<text text-anchor="middle" x="515" y="-285.683" font-family="Times,serif" font-size="14.00">key: string2</text>
<text text-anchor="middle" x="515" y="-270.683" font-family="Times,serif" font-size="14.00">key: string3</text>
</g>
<!-- CHAIN2&#45;&gt;HEAD2 -->
<g id="edge6" class="edge"><title>CHAIN2&#45;&gt;HEAD2</title>
<path fill="none" stroke="black" d="M374.178,-289.383C384.645,-289.383 397.051,-289.383 410.093,-289.383"/>
<polygon fill="black" stroke="black" points="410.169,-292.883 420.169,-289.383 410.169,-285.883 410.169,-292.883"/>
<text text-anchor="middle" x="397.124" y="-296.183" font-family="Times,serif" font-size="14.00">Head</text>
</g>
<!-- MIDDLE1 -->
<g id="node6" class="node"><title>MIDDLE1</title>
<ellipse fill="none" stroke="black" cx="201" cy="-163.43" rx="94.5053" ry="37.4533"/>
<text text-anchor="middle" x="201" y="-174.73" font-family="Times,serif" font-size="14.00">brick: footab_ch1_b2</text>
<text text-anchor="middle" x="201" y="-159.73" font-family="Times,serif" font-size="14.00">key: string1</text>
<text text-anchor="middle" x="201" y="-144.73" font-family="Times,serif" font-size="14.00">key: string4</text>
</g>
<!-- HEAD1&#45;&gt;MIDDLE1 -->
<g id="edge4" class="edge"><title>HEAD1&#45;&gt;MIDDLE1</title>
<path fill="none" stroke="black" d="M201,-251.864C201,-239.117 201,-224.63 201,-211.167"/>
<polygon fill="black" stroke="black" points="204.5,-211.117 201,-201.117 197.5,-211.117 204.5,-211.117"/>
<text text-anchor="middle" x="233" y="-222.707" font-family="Times,serif" font-size="14.00">Replication</text>
</g>
<!-- MIDDLE2 -->
<g id="node8" class="node"><title>MIDDLE2</title>
<ellipse fill="none" stroke="black" cx="515" cy="-163.43" rx="94.5053" ry="37.4533"/>
<text text-anchor="middle" x="515" y="-174.73" font-family="Times,serif" font-size="14.00">brick: footab_ch2_b2</text>
<text text-anchor="middle" x="515" y="-159.73" font-family="Times,serif" font-size="14.00">key: string2</text>
<text text-anchor="middle" x="515" y="-144.73" font-family="Times,serif" font-size="14.00">key: string3</text>
</g>
<!-- HEAD2&#45;&gt;MIDDLE2 -->
<g id="edge7" class="edge"><title>HEAD2&#45;&gt;MIDDLE2</title>
<path fill="none" stroke="black" d="M515,-251.864C515,-239.117 515,-224.63 515,-211.167"/>
<polygon fill="black" stroke="black" points="518.5,-211.117 515,-201.117 511.5,-211.117 518.5,-211.117"/>
<text text-anchor="middle" x="547" y="-222.707" font-family="Times,serif" font-size="14.00">Replication</text>
</g>
<!-- TAIL1 -->
<g id="node7" class="node"><title>TAIL1</title>
<ellipse fill="none" stroke="black" cx="201" cy="-37.4767" rx="94.5053" ry="37.4533"/>
<text text-anchor="middle" x="201" y="-48.7767" font-family="Times,serif" font-size="14.00">brick: footab_ch1_b3</text>
<text text-anchor="middle" x="201" y="-33.7767" font-family="Times,serif" font-size="14.00">key: string1</text>
<text text-anchor="middle" x="201" y="-18.7767" font-family="Times,serif" font-size="14.00">key: string4</text>
</g>
<!-- MIDDLE1&#45;&gt;TAIL1 -->
<g id="edge5" class="edge"><title>MIDDLE1&#45;&gt;TAIL1</title>
<path fill="none" stroke="black" d="M201,-125.91C201,-113.163 201,-98.6771 201,-85.2139"/>
<polygon fill="black" stroke="black" points="204.5,-85.1636 201,-75.1636 197.5,-85.1637 204.5,-85.1636"/>
<text text-anchor="middle" x="233" y="-96.7533" font-family="Times,serif" font-size="14.00">Replication</text>
</g>
<!-- TAIL2 -->
<g id="node9" class="node"><title>TAIL2</title>
<ellipse fill="none" stroke="black" cx="515" cy="-37.4767" rx="94.5053" ry="37.4533"/>
<text text-anchor="middle" x="515" y="-48.7767" font-family="Times,serif" font-size="14.00">brick: footab_ch2_b3</text>
<text text-anchor="middle" x="515" y="-33.7767" font-family="Times,serif" font-size="14.00">key: string2</text>
<text text-anchor="middle" x="515" y="-18.7767" font-family="Times,serif" font-size="14.00">key: string3</text>
</g>
<!-- MIDDLE2&#45;&gt;TAIL2 -->
<g id="edge8" class="edge"><title>MIDDLE2&#45;&gt;TAIL2</title>
<path fill="none" stroke="black" d="M515,-125.91C515,-113.163 515,-98.6771 515,-85.2139"/>
<polygon fill="black" stroke="black" points="518.5,-85.1636 515,-75.1636 511.5,-85.1637 518.5,-85.1636"/>
<text text-anchor="middle" x="547" y="-96.7533" font-family="Times,serif" font-size="14.00">Replication</text>
</g>
</g>
</svg>
