<?xml version="1.0" encoding="UTF-8" standalone="no"?>
<!DOCTYPE svg PUBLIC "-//W3C//DTD SVG 1.1//EN"
 "http://www.w3.org/Graphics/SVG/1.1/DTD/svg11.dtd">
<!-- Generated by graphviz version 2.26.0 (20091210.2329)
 -->
<!-- Title: data_flow Pages: 1 -->
<svg width="566pt" height="352pt"
 viewBox="0.00 0.00 566.00 352.00" xmlns="http://www.w3.org/2000/svg" xmlns:xlink="http://www.w3.org/1999/xlink">
<g id="graph1" class="graph" transform="scale(1 1) rotate(0) translate(4 348)">
<title>data_flow</title>
<polygon fill="white" stroke="white" points="-4,5 -4,-348 563,-348 563,5 -4,5"/>
<!-- BRICK1 -->
<g id="node2" class="node"><title>BRICK1</title>
<ellipse fill="none" stroke="black" cx="134" cy="-325" rx="39.8075" ry="19.0919"/>
<text text-anchor="middle" x="134" y="-321.9" font-family="Times Roman,serif" font-size="14.00">Brick 1</text>
</g>
<!-- COMMON -->
<g id="node5" class="node"><title>COMMON</title>
<ellipse fill="none" stroke="black" cx="279" cy="-186" rx="70.2092" ry="45.9619"/>
<text text-anchor="middle" x="279" y="-201.9" font-family="Times Roman,serif" font-size="14.00">Common Log:</text>
<text text-anchor="middle" x="279" y="-182.9" font-family="Times Roman,serif" font-size="14.00">* key metadata</text>
<text text-anchor="middle" x="279" y="-163.9" font-family="Times Roman,serif" font-size="14.00">* value blobs</text>
</g>
<!-- BRICK1&#45;&gt;COMMON -->
<g id="edge3" class="edge"><title>BRICK1&#45;&gt;COMMON</title>
<path fill="none" stroke="black" d="M104.469,-311.901C94.8859,-306.055 85.3517,-298.154 80,-288 72.1256,-273.059 70.0525,-263.649 80,-250 94.8794,-229.585 152.428,-212.446 201.837,-201.059"/>
<polygon fill="black" stroke="black" points="202.61,-204.472 211.595,-198.859 201.07,-197.644 202.61,-204.472"/>
<text text-anchor="middle" x="108.5" y="-275.4" font-family="Times Roman,serif" font-size="14.00">sync write</text>
<text text-anchor="middle" x="108.5" y="-256.4" font-family="Times Roman,serif" font-size="14.00">request</text>
</g>
<!-- BRICK2 -->
<g id="node3" class="node"><title>BRICK2</title>
<ellipse fill="none" stroke="black" cx="263" cy="-325" rx="39.8075" ry="19.0919"/>
<text text-anchor="middle" x="263" y="-321.9" font-family="Times Roman,serif" font-size="14.00">Brick 2</text>
</g>
<!-- BRICK2&#45;&gt;COMMON -->
<g id="edge7" class="edge"><title>BRICK2&#45;&gt;COMMON</title>
<path fill="none" stroke="black" d="M249.128,-307.139C245.418,-301.352 241.91,-294.691 240,-288 235.364,-271.76 235.436,-266.261 240,-250 241.22,-245.655 242.825,-241.312 244.689,-237.05"/>
<polygon fill="black" stroke="black" points="247.92,-238.408 249.133,-227.883 241.621,-235.355 247.92,-238.408"/>
<text text-anchor="middle" x="268.5" y="-275.4" font-family="Times Roman,serif" font-size="14.00">sync write</text>
<text text-anchor="middle" x="268.5" y="-256.4" font-family="Times Roman,serif" font-size="14.00">request</text>
</g>
<!-- BRICK3 -->
<g id="node4" class="node"><title>BRICK3</title>
<ellipse fill="none" stroke="black" cx="439" cy="-325" rx="39.8075" ry="19.0919"/>
<text text-anchor="middle" x="439" y="-321.9" font-family="Times Roman,serif" font-size="14.00">Brick 3</text>
</g>
<!-- BRICK3&#45;&gt;COMMON -->
<g id="edge11" class="edge"><title>BRICK3&#45;&gt;COMMON</title>
<path fill="none" stroke="black" d="M420.652,-307.781C414.099,-301.582 406.686,-294.512 400,-288 382.89,-271.335 379.939,-265.769 362,-250 353.138,-242.21 343.441,-234.26 333.899,-226.731"/>
<polygon fill="black" stroke="black" points="335.979,-223.914 325.943,-220.519 331.671,-229.432 335.979,-223.914"/>
<text text-anchor="middle" x="428.5" y="-275.4" font-family="Times Roman,serif" font-size="14.00">sync write</text>
<text text-anchor="middle" x="428.5" y="-256.4" font-family="Times Roman,serif" font-size="14.00">request</text>
</g>
<!-- COMMON&#45;&gt;BRICK1 -->
<g id="edge5" class="edge"><title>COMMON&#45;&gt;BRICK1</title>
<path fill="none" stroke="black" d="M222.719,-213.412C206.017,-223.35 188.579,-235.705 175,-250 162.257,-263.415 152.201,-281.555 145.237,-296.634"/>
<polygon fill="black" stroke="black" points="141.931,-295.457 141.111,-306.02 148.339,-298.275 141.931,-295.457"/>
<text text-anchor="middle" x="203.5" y="-275.4" font-family="Times Roman,serif" font-size="14.00">sync write</text>
<text text-anchor="middle" x="203.5" y="-256.4" font-family="Times Roman,serif" font-size="14.00">reply</text>
</g>
<!-- COMMON&#45;&gt;BRICK2 -->
<g id="edge9" class="edge"><title>COMMON&#45;&gt;BRICK2</title>
<path fill="none" stroke="black" d="M297.096,-230.459C301.93,-248.729 304.084,-269.821 297,-288 295.232,-292.537 292.619,-296.854 289.613,-300.832"/>
<polygon fill="black" stroke="black" points="286.902,-298.617 283.037,-308.482 292.21,-303.18 286.902,-298.617"/>
<text text-anchor="middle" x="329.5" y="-275.4" font-family="Times Roman,serif" font-size="14.00">sync write</text>
<text text-anchor="middle" x="329.5" y="-256.4" font-family="Times Roman,serif" font-size="14.00">reply</text>
</g>
<!-- COMMON&#45;&gt;BRICK3 -->
<g id="edge13" class="edge"><title>COMMON&#45;&gt;BRICK3</title>
<path fill="none" stroke="black" d="M345.478,-201.424C390.289,-213.321 443.589,-230.927 457,-250 466.822,-263.97 462.391,-282.634 455.47,-297.848"/>
<polygon fill="black" stroke="black" points="452.332,-296.299 450.944,-306.803 458.579,-299.457 452.332,-296.299"/>
<text text-anchor="middle" x="490.5" y="-275.4" font-family="Times Roman,serif" font-size="14.00">sync write</text>
<text text-anchor="middle" x="490.5" y="-256.4" font-family="Times Roman,serif" font-size="14.00">reply</text>
</g>
<!-- PLOG1 -->
<g id="node6" class="node"><title>PLOG1</title>
<ellipse fill="none" stroke="black" cx="87" cy="-33" rx="87.1802" ry="32.5269"/>
<text text-anchor="middle" x="87" y="-39.4" font-family="Times Roman,serif" font-size="14.00">Private log Brick 1:</text>
<text text-anchor="middle" x="87" y="-20.4" font-family="Times Roman,serif" font-size="14.00">* key metadata</text>
</g>
<!-- COMMON&#45;&gt;PLOG1 -->
<g id="edge15" class="edge"><title>COMMON&#45;&gt;PLOG1</title>
<path fill="none" stroke="black" d="M230.845,-152.56C217.441,-142.933 202.998,-132.256 190,-122 169.221,-105.604 146.908,-86.5198 128.382,-70.2373"/>
<polygon fill="black" stroke="black" points="130.502,-67.4406 120.689,-63.4466 125.87,-72.6884 130.502,-67.4406"/>
<text text-anchor="middle" x="232.5" y="-109.4" font-family="Times Roman,serif" font-size="14.00">async metadata</text>
<text text-anchor="middle" x="232.5" y="-90.4" font-family="Times Roman,serif" font-size="14.00">copy</text>
</g>
<!-- PLOG2 -->
<g id="node7" class="node"><title>PLOG2</title>
<ellipse fill="none" stroke="black" cx="279" cy="-33" rx="87.1802" ry="32.5269"/>
<text text-anchor="middle" x="279" y="-39.4" font-family="Times Roman,serif" font-size="14.00">Private log Brick 2:</text>
<text text-anchor="middle" x="279" y="-20.4" font-family="Times Roman,serif" font-size="14.00">* key metadata</text>
</g>
<!-- COMMON&#45;&gt;PLOG2 -->
<g id="edge17" class="edge"><title>COMMON&#45;&gt;PLOG2</title>
<path fill="none" stroke="black" d="M279,-139.68C279,-119.308 279,-95.535 279,-75.6078"/>
<polygon fill="black" stroke="black" points="282.5,-75.5761 279,-65.5761 275.5,-75.5761 282.5,-75.5761"/>
<text text-anchor="middle" x="321.5" y="-109.4" font-family="Times Roman,serif" font-size="14.00">async metadata</text>
<text text-anchor="middle" x="321.5" y="-90.4" font-family="Times Roman,serif" font-size="14.00">copy</text>
</g>
<!-- PLOG3 -->
<g id="node8" class="node"><title>PLOG3</title>
<ellipse fill="none" stroke="black" cx="471" cy="-33" rx="87.1802" ry="32.5269"/>
<text text-anchor="middle" x="471" y="-39.4" font-family="Times Roman,serif" font-size="14.00">Private log Brick 3:</text>
<text text-anchor="middle" x="471" y="-20.4" font-family="Times Roman,serif" font-size="14.00">* key metadata</text>
</g>
<!-- COMMON&#45;&gt;PLOG3 -->
<g id="edge19" class="edge"><title>COMMON&#45;&gt;PLOG3</title>
<path fill="none" stroke="black" d="M327.155,-152.56C340.559,-142.933 355.002,-132.256 368,-122 388.779,-105.604 411.092,-86.5198 429.618,-70.2373"/>
<polygon fill="black" stroke="black" points="432.13,-72.6884 437.311,-63.4466 427.498,-67.4406 432.13,-72.6884"/>
<text text-anchor="middle" x="453.5" y="-109.4" font-family="Times Roman,serif" font-size="14.00">async metadata</text>
<text text-anchor="middle" x="453.5" y="-90.4" font-family="Times Roman,serif" font-size="14.00">copy</text>
</g>
</g>
</svg>
