<?xml version="1.0" encoding="UTF-8" standalone="no"?>
<!DOCTYPE svg PUBLIC "-//W3C//DTD SVG 1.1//EN"
 "http://www.w3.org/Graphics/SVG/1.1/DTD/svg11.dtd">
<!-- Generated by graphviz version 2.38.0 (20140413.2041)
 -->
<!-- Title: data_flow Pages: 1 -->
<svg width="563pt" height="305pt"
 viewBox="0.00 0.00 562.53 304.69" xmlns="http://www.w3.org/2000/svg" xmlns:xlink="http://www.w3.org/1999/xlink">
<g id="graph0" class="graph" transform="scale(1 1) rotate(0) translate(4 300.693)">
<title>data_flow</title>
<polygon fill="white" stroke="none" points="-4,4 -4,-300.693 558.534,-300.693 558.534,4 -4,4"/>
<!-- BRICK1 -->
<g id="node1" class="node"><title>BRICK1</title>
<ellipse fill="none" stroke="black" cx="134.267" cy="-278.693" rx="37.0935" ry="18"/>
<text text-anchor="middle" x="134.267" y="-274.993" font-family="Times,serif" font-size="14.00">Brick 1</text>
</g>
<!-- COMMON -->
<g id="node4" class="node"><title>COMMON</title>
<ellipse fill="none" stroke="black" cx="277.267" cy="-157.217" rx="70.0071" ry="37.4533"/>
<text text-anchor="middle" x="277.267" y="-168.517" font-family="Times,serif" font-size="14.00">Common Log:</text>
<text text-anchor="middle" x="277.267" y="-153.517" font-family="Times,serif" font-size="14.00">* key metadata</text>
<text text-anchor="middle" x="277.267" y="-138.517" font-family="Times,serif" font-size="14.00">* value blobs</text>
</g>
<!-- BRICK1&#45;&gt;COMMON -->
<g id="edge1" class="edge"><title>BRICK1&#45;&gt;COMMON</title>
<path fill="none" stroke="black" d="M105.777,-266.984C95.1742,-261.445 84.2695,-253.523 78.267,-242.693 71.8034,-231.032 70.1788,-223.293 78.267,-212.693 93.3608,-192.912 150.68,-178.557 199.949,-169.565"/>
<polygon fill="black" stroke="black" points="200.765,-172.974 210.001,-167.782 199.543,-166.082 200.765,-172.974"/>
<text text-anchor="middle" x="106.767" y="-231.493" font-family="Times,serif" font-size="14.00">sync write</text>
<text text-anchor="middle" x="106.767" y="-216.493" font-family="Times,serif" font-size="14.00">request</text>
</g>
<!-- BRICK2 -->
<g id="node2" class="node"><title>BRICK2</title>
<ellipse fill="none" stroke="black" cx="260.267" cy="-278.693" rx="37.0935" ry="18"/>
<text text-anchor="middle" x="260.267" y="-274.993" font-family="Times,serif" font-size="14.00">Brick 2</text>
</g>
<!-- BRICK2&#45;&gt;COMMON -->
<g id="edge3" class="edge"><title>BRICK2&#45;&gt;COMMON</title>
<path fill="none" stroke="black" d="M247.464,-261.526C243.746,-255.891 240.175,-249.314 238.267,-242.693 234.575,-229.882 234.191,-225.389 238.267,-212.693 239.587,-208.582 241.344,-204.517 243.385,-200.572"/>
<polygon fill="black" stroke="black" points="246.589,-202.024 248.585,-191.619 240.536,-198.508 246.589,-202.024"/>
<text text-anchor="middle" x="266.767" y="-231.493" font-family="Times,serif" font-size="14.00">sync write</text>
<text text-anchor="middle" x="266.767" y="-216.493" font-family="Times,serif" font-size="14.00">request</text>
</g>
<!-- BRICK3 -->
<g id="node3" class="node"><title>BRICK3</title>
<ellipse fill="none" stroke="black" cx="437.267" cy="-278.693" rx="37.0935" ry="18"/>
<text text-anchor="middle" x="437.267" y="-274.993" font-family="Times,serif" font-size="14.00">Brick 3</text>
</g>
<!-- BRICK3&#45;&gt;COMMON -->
<g id="edge5" class="edge"><title>BRICK3&#45;&gt;COMMON</title>
<path fill="none" stroke="black" d="M420.322,-262.367C405.034,-248.79 381.721,-228.699 360.267,-212.693 350.971,-205.758 340.827,-198.705 330.924,-192.075"/>
<polygon fill="black" stroke="black" points="332.58,-188.974 322.31,-186.371 328.716,-194.811 332.58,-188.974"/>
<text text-anchor="middle" x="424.767" y="-231.493" font-family="Times,serif" font-size="14.00">sync write</text>
<text text-anchor="middle" x="424.767" y="-216.493" font-family="Times,serif" font-size="14.00">request</text>
</g>
<!-- COMMON&#45;&gt;BRICK1 -->
<g id="edge2" class="edge"><title>COMMON&#45;&gt;BRICK1</title>
<path fill="none" stroke="black" d="M222.76,-180.746C206.321,-189.195 189.01,-199.908 175.267,-212.693 163.397,-223.736 153.559,-238.939 146.497,-251.866"/>
<polygon fill="black" stroke="black" points="143.368,-250.298 141.857,-260.784 149.577,-253.529 143.368,-250.298"/>
<text text-anchor="middle" x="203.767" y="-231.493" font-family="Times,serif" font-size="14.00">sync write</text>
<text text-anchor="middle" x="203.767" y="-216.493" font-family="Times,serif" font-size="14.00">reply</text>
</g>
<!-- COMMON&#45;&gt;BRICK2 -->
<g id="edge4" class="edge"><title>COMMON&#45;&gt;BRICK2</title>
<path fill="none" stroke="black" d="M294.046,-193.605C299.052,-209.068 301.694,-227.177 295.267,-242.693 293.354,-247.313 290.502,-251.641 287.237,-255.571"/>
<polygon fill="black" stroke="black" points="284.482,-253.388 280.124,-263.045 289.553,-258.214 284.482,-253.388"/>
<text text-anchor="middle" x="327.767" y="-231.493" font-family="Times,serif" font-size="14.00">sync write</text>
<text text-anchor="middle" x="327.767" y="-216.493" font-family="Times,serif" font-size="14.00">reply</text>
</g>
<!-- COMMON&#45;&gt;BRICK3 -->
<g id="edge6" class="edge"><title>COMMON&#45;&gt;BRICK3</title>
<path fill="none" stroke="black" d="M347.367,-160.451C385.818,-165.712 430.57,-179.307 455.267,-212.693 463.84,-224.283 460.004,-239.759 453.712,-252.703"/>
<polygon fill="black" stroke="black" points="450.578,-251.138 448.838,-261.589 456.716,-254.504 450.578,-251.138"/>
<text text-anchor="middle" x="487.767" y="-231.493" font-family="Times,serif" font-size="14.00">sync write</text>
<text text-anchor="middle" x="487.767" y="-216.493" font-family="Times,serif" font-size="14.00">reply</text>
</g>
<!-- PLOG1 -->
<g id="node5" class="node"><title>PLOG1</title>
<ellipse fill="none" stroke="black" cx="86.267" cy="-26.8701" rx="86.0347" ry="26.7407"/>
<text text-anchor="middle" x="86.267" y="-30.6701" font-family="Times,serif" font-size="14.00">Private log Brick 1:</text>
<text text-anchor="middle" x="86.267" y="-15.6701" font-family="Times,serif" font-size="14.00">* key metadata</text>
</g>
<!-- COMMON&#45;&gt;PLOG1 -->
<g id="edge7" class="edge"><title>COMMON&#45;&gt;PLOG1</title>
<path fill="none" stroke="black" d="M231.104,-128.894C217.195,-120.412 201.984,-110.885 188.267,-101.74 167.601,-87.9617 145.19,-71.8653 126.653,-58.2214"/>
<polygon fill="black" stroke="black" points="128.551,-55.2719 118.429,-52.1424 124.39,-60.9011 128.551,-55.2719"/>
<text text-anchor="middle" x="230.767" y="-90.5401" font-family="Times,serif" font-size="14.00">async metadata</text>
<text text-anchor="middle" x="230.767" y="-75.5401" font-family="Times,serif" font-size="14.00">copy</text>
</g>
<!-- PLOG2 -->
<g id="node6" class="node"><title>PLOG2</title>
<ellipse fill="none" stroke="black" cx="277.267" cy="-26.8701" rx="86.0347" ry="26.7407"/>
<text text-anchor="middle" x="277.267" y="-30.6701" font-family="Times,serif" font-size="14.00">Private log Brick 2:</text>
<text text-anchor="middle" x="277.267" y="-15.6701" font-family="Times,serif" font-size="14.00">* key metadata</text>
</g>
<!-- COMMON&#45;&gt;PLOG2 -->
<g id="edge8" class="edge"><title>COMMON&#45;&gt;PLOG2</title>
<path fill="none" stroke="black" d="M277.267,-119.438C277.267,-102.139 277.267,-81.5708 277.267,-64.3146"/>
<polygon fill="black" stroke="black" points="280.767,-64.0569 277.267,-54.0569 273.767,-64.057 280.767,-64.0569"/>
<text text-anchor="middle" x="319.767" y="-90.5401" font-family="Times,serif" font-size="14.00">async metadata</text>
<text text-anchor="middle" x="319.767" y="-75.5401" font-family="Times,serif" font-size="14.00">copy</text>
</g>
<!-- PLOG3 -->
<g id="node7" class="node"><title>PLOG3</title>
<ellipse fill="none" stroke="black" cx="468.267" cy="-26.8701" rx="86.0347" ry="26.7407"/>
<text text-anchor="middle" x="468.267" y="-30.6701" font-family="Times,serif" font-size="14.00">Private log Brick 3:</text>
<text text-anchor="middle" x="468.267" y="-15.6701" font-family="Times,serif" font-size="14.00">* key metadata</text>
</g>
<!-- COMMON&#45;&gt;PLOG3 -->
<g id="edge9" class="edge"><title>COMMON&#45;&gt;PLOG3</title>
<path fill="none" stroke="black" d="M323.43,-128.894C337.34,-120.412 352.55,-110.885 366.267,-101.74 386.933,-87.9617 409.344,-71.8653 427.881,-58.2214"/>
<polygon fill="black" stroke="black" points="430.144,-60.9011 436.105,-52.1424 425.983,-55.2719 430.144,-60.9011"/>
<text text-anchor="middle" x="450.767" y="-90.5401" font-family="Times,serif" font-size="14.00">async metadata</text>
<text text-anchor="middle" x="450.767" y="-75.5401" font-family="Times,serif" font-size="14.00">copy</text>
</g>
</g>
</svg>
