<?xml version="1.0" encoding="UTF-8" standalone="no"?>
<!DOCTYPE svg PUBLIC "-//W3C//DTD SVG 1.1//EN"
 "http://www.w3.org/Graphics/SVG/1.1/DTD/svg11.dtd">
<!-- Generated by graphviz version 2.26.3 (20100126.1600)
 -->
<!-- Title: data_flow Pages: 1 -->
<svg width="596pt" height="306pt"
 viewBox="0.00 0.00 596.00 306.00" xmlns="http://www.w3.org/2000/svg" xmlns:xlink="http://www.w3.org/1999/xlink">
<g id="graph1" class="graph" transform="scale(1 1) rotate(0) translate(4 302)">
<title>data_flow</title>
<polygon fill="white" stroke="white" points="-4,5 -4,-302 593,-302 593,5 -4,5"/>
<!-- BRICK1 -->
<g id="node2" class="node"><title>BRICK1</title>
<ellipse fill="none" stroke="black" cx="144" cy="-280" rx="38.9965" ry="18"/>
<text text-anchor="middle" x="144" y="-274.9" font-family="Times,serif" font-size="14.00">Brick 1</text>
</g>
<!-- COMMON -->
<g id="node5" class="node"><title>COMMON</title>
<ellipse fill="none" stroke="black" cx="294" cy="-158" rx="72.832" ry="37.4767"/>
<text text-anchor="middle" x="294" y="-167.9" font-family="Times,serif" font-size="14.00">Common Log:</text>
<text text-anchor="middle" x="294" y="-152.9" font-family="Times,serif" font-size="14.00">* key metadata</text>
<text text-anchor="middle" x="294" y="-137.9" font-family="Times,serif" font-size="14.00">* value blobs</text>
</g>
<!-- BRICK1&#45;&gt;COMMON -->
<g id="edge3" class="edge"><title>BRICK1&#45;&gt;COMMON</title>
<path fill="none" stroke="black" d="M113.382,-268.829C102.411,-263.17 91.2255,-255.092 85,-244 78.4739,-232.373 76.8831,-224.578 85,-214 100.951,-193.212 161.585,-178.45 213.465,-169.32"/>
<polygon fill="black" stroke="black" points="214.106,-172.762 223.372,-167.625 212.925,-165.862 214.106,-172.762"/>
<text text-anchor="middle" x="115.5" y="-231.4" font-family="Times,serif" font-size="14.00">sync write</text>
<text text-anchor="middle" x="115.5" y="-216.4" font-family="Times,serif" font-size="14.00">request</text>
</g>
<!-- BRICK2 -->
<g id="node3" class="node"><title>BRICK2</title>
<ellipse fill="none" stroke="black" cx="276" cy="-280" rx="38.9965" ry="18"/>
<text text-anchor="middle" x="276" y="-274.9" font-family="Times,serif" font-size="14.00">Brick 2</text>
</g>
<!-- BRICK2&#45;&gt;COMMON -->
<g id="edge7" class="edge"><title>BRICK2&#45;&gt;COMMON</title>
<path fill="none" stroke="black" d="M262.375,-263.036C258.576,-257.323 254.955,-250.692 253,-244 249.261,-231.202 248.857,-226.673 253,-214 254.429,-209.63 256.342,-205.319 258.565,-201.146"/>
<polygon fill="black" stroke="black" points="261.746,-202.644 263.854,-192.261 255.731,-199.063 261.746,-202.644"/>
<text text-anchor="middle" x="283.5" y="-231.4" font-family="Times,serif" font-size="14.00">sync write</text>
<text text-anchor="middle" x="283.5" y="-216.4" font-family="Times,serif" font-size="14.00">request</text>
</g>
<!-- BRICK3 -->
<g id="node4" class="node"><title>BRICK3</title>
<ellipse fill="none" stroke="black" cx="462" cy="-280" rx="38.9965" ry="18"/>
<text text-anchor="middle" x="462" y="-274.9" font-family="Times,serif" font-size="14.00">Brick 3</text>
</g>
<!-- BRICK3&#45;&gt;COMMON -->
<g id="edge11" class="edge"><title>BRICK3&#45;&gt;COMMON</title>
<path fill="none" stroke="black" d="M443.767,-263.863C427.877,-250.071 403.997,-229.98 382,-214 371.827,-206.61 360.698,-199.108 349.881,-192.1"/>
<polygon fill="black" stroke="black" points="351.604,-189.047 341.296,-186.597 347.826,-194.94 351.604,-189.047"/>
<text text-anchor="middle" x="450.5" y="-231.4" font-family="Times,serif" font-size="14.00">sync write</text>
<text text-anchor="middle" x="450.5" y="-216.4" font-family="Times,serif" font-size="14.00">request</text>
</g>
<!-- COMMON&#45;&gt;BRICK1 -->
<g id="edge5" class="edge"><title>COMMON&#45;&gt;BRICK1</title>
<path fill="none" stroke="black" d="M235.679,-180.748C218.108,-189.413 199.626,-200.517 185,-214 173.108,-224.962 163.362,-240.134 156.36,-253.167"/>
<polygon fill="black" stroke="black" points="153.184,-251.69 151.755,-262.188 159.419,-254.872 153.184,-251.69"/>
<text text-anchor="middle" x="215.5" y="-231.4" font-family="Times,serif" font-size="14.00">sync write</text>
<text text-anchor="middle" x="215.5" y="-216.4" font-family="Times,serif" font-size="14.00">reply</text>
</g>
<!-- COMMON&#45;&gt;BRICK2 -->
<g id="edge9" class="edge"><title>COMMON&#45;&gt;BRICK2</title>
<path fill="none" stroke="black" d="M312.451,-194.472C317.856,-210.125 320.723,-228.369 314,-244 311.899,-248.884 308.774,-253.415 305.203,-257.501"/>
<polygon fill="black" stroke="black" points="302.523,-255.231 297.937,-264.782 307.478,-260.176 302.523,-255.231"/>
<text text-anchor="middle" x="347.5" y="-231.4" font-family="Times,serif" font-size="14.00">sync write</text>
<text text-anchor="middle" x="347.5" y="-216.4" font-family="Times,serif" font-size="14.00">reply</text>
</g>
<!-- COMMON&#45;&gt;BRICK3 -->
<g id="edge13" class="edge"><title>COMMON&#45;&gt;BRICK3</title>
<path fill="none" stroke="black" d="M363.543,-169.791C410.888,-179.399 467.496,-194.547 482,-214 490.638,-225.586 486.684,-240.919 480.092,-253.89"/>
<polygon fill="black" stroke="black" points="476.904,-252.413 474.968,-262.83 482.978,-255.894 476.904,-252.413"/>
<text text-anchor="middle" x="516.5" y="-231.4" font-family="Times,serif" font-size="14.00">sync write</text>
<text text-anchor="middle" x="516.5" y="-216.4" font-family="Times,serif" font-size="14.00">reply</text>
</g>
<!-- PLOG1 -->
<g id="node6" class="node"><title>PLOG1</title>
<ellipse fill="none" stroke="black" cx="92" cy="-27" rx="91.9239" ry="26.8701"/>
<text text-anchor="middle" x="92" y="-29.4" font-family="Times,serif" font-size="14.00">Private log Brick 1:</text>
<text text-anchor="middle" x="92" y="-14.4" font-family="Times,serif" font-size="14.00">* key metadata</text>
</g>
<!-- COMMON&#45;&gt;PLOG1 -->
<g id="edge15" class="edge"><title>COMMON&#45;&gt;PLOG1</title>
<path fill="none" stroke="black" d="M246.53,-129.314C232.442,-120.659 217.029,-111.051 203,-102 180.855,-87.7137 156.567,-71.3805 136.371,-57.6114"/>
<polygon fill="black" stroke="black" points="138.216,-54.6329 127.985,-51.8808 134.267,-60.4125 138.216,-54.6329"/>
<text text-anchor="middle" x="246.5" y="-89.4" font-family="Times,serif" font-size="14.00">async metadata</text>
<text text-anchor="middle" x="246.5" y="-74.4" font-family="Times,serif" font-size="14.00">copy</text>
</g>
<!-- PLOG2 -->
<g id="node7" class="node"><title>PLOG2</title>
<ellipse fill="none" stroke="black" cx="294" cy="-27" rx="91.9239" ry="26.8701"/>
<text text-anchor="middle" x="294" y="-29.4" font-family="Times,serif" font-size="14.00">Private log Brick 2:</text>
<text text-anchor="middle" x="294" y="-14.4" font-family="Times,serif" font-size="14.00">* key metadata</text>
</g>
<!-- COMMON&#45;&gt;PLOG2 -->
<g id="edge17" class="edge"><title>COMMON&#45;&gt;PLOG2</title>
<path fill="none" stroke="black" d="M294,-120.461C294,-102.93 294,-82.1085 294,-64.5732"/>
<polygon fill="black" stroke="black" points="297.5,-64.1383 294,-54.1383 290.5,-64.1383 297.5,-64.1383"/>
<text text-anchor="middle" x="337.5" y="-89.4" font-family="Times,serif" font-size="14.00">async metadata</text>
<text text-anchor="middle" x="337.5" y="-74.4" font-family="Times,serif" font-size="14.00">copy</text>
</g>
<!-- PLOG3 -->
<g id="node8" class="node"><title>PLOG3</title>
<ellipse fill="none" stroke="black" cx="496" cy="-27" rx="91.9239" ry="26.8701"/>
<text text-anchor="middle" x="496" y="-29.4" font-family="Times,serif" font-size="14.00">Private log Brick 3:</text>
<text text-anchor="middle" x="496" y="-14.4" font-family="Times,serif" font-size="14.00">* key metadata</text>
</g>
<!-- COMMON&#45;&gt;PLOG3 -->
<g id="edge19" class="edge"><title>COMMON&#45;&gt;PLOG3</title>
<path fill="none" stroke="black" d="M341.47,-129.314C355.558,-120.659 370.971,-111.051 385,-102 407.145,-87.7137 431.433,-71.3805 451.629,-57.6114"/>
<polygon fill="black" stroke="black" points="453.733,-60.4125 460.015,-51.8808 449.784,-54.6329 453.733,-60.4125"/>
<text text-anchor="middle" x="471.5" y="-89.4" font-family="Times,serif" font-size="14.00">async metadata</text>
<text text-anchor="middle" x="471.5" y="-74.4" font-family="Times,serif" font-size="14.00">copy</text>
</g>
</g>
</svg>
