<?xml version="1.0" encoding="UTF-8" standalone="no"?>
<!DOCTYPE svg PUBLIC "-//W3C//DTD SVG 1.1//EN"
 "http://www.w3.org/Graphics/SVG/1.1/DTD/svg11.dtd">
<!-- Generated by graphviz version 2.28.0 (20120122.0658)
 -->
<!-- Title: data_flow Pages: 1 -->
<svg width="578pt" height="328pt"
 viewBox="0.00 0.00 578.00 328.00" xmlns="http://www.w3.org/2000/svg" xmlns:xlink="http://www.w3.org/1999/xlink">
<g id="graph1" class="graph" transform="scale(1 1) rotate(0) translate(4 324)">
<title>data_flow</title>
<polygon fill="white" stroke="white" points="-4,5 -4,-324 575,-324 575,5 -4,5"/>
<!-- BRICK1 -->
<g id="node2" class="node"><title>BRICK1</title>
<ellipse fill="none" stroke="black" cx="140" cy="-302" rx="39.6" ry="18"/>
<text text-anchor="middle" x="140" y="-296.4" font-family="Times,serif" font-size="14.00">Brick 1</text>
</g>
<!-- COMMON -->
<g id="node5" class="node"><title>COMMON</title>
<ellipse fill="none" stroke="black" cx="285" cy="-172" rx="71.3495" ry="41.0911"/>
<text text-anchor="middle" x="285" y="-183.2" font-family="Times,serif" font-size="14.00">Common Log:</text>
<text text-anchor="middle" x="285" y="-166.4" font-family="Times,serif" font-size="14.00">* key metadata</text>
<text text-anchor="middle" x="285" y="-149.6" font-family="Times,serif" font-size="14.00">* value blobs</text>
</g>
<!-- BRICK1&#45;&gt;COMMON -->
<g id="edge3" class="edge"><title>BRICK1&#45;&gt;COMMON</title>
<path fill="none" stroke="black" d="M110.662,-289.815C100.355,-284.299 89.8995,-276.521 84.0723,-266 76.7507,-252.781 75.0166,-244.097 84.0723,-232 99.2127,-211.775 157.137,-196.12 206.926,-186.035"/>
<polygon fill="black" stroke="black" points="207.629,-189.464 216.761,-184.092 206.272,-182.596 207.629,-189.464"/>
<text text-anchor="middle" x="113.964" y="-251.8" font-family="Times,serif" font-size="14.00">sync write</text>
<text text-anchor="middle" x="113.964" y="-235" font-family="Times,serif" font-size="14.00">request</text>
</g>
<!-- BRICK2 -->
<g id="node3" class="node"><title>BRICK2</title>
<ellipse fill="none" stroke="black" cx="269" cy="-302" rx="39.6" ry="18"/>
<text text-anchor="middle" x="269" y="-296.4" font-family="Times,serif" font-size="14.00">Brick 2</text>
</g>
<!-- BRICK2&#45;&gt;COMMON -->
<g id="edge7" class="edge"><title>BRICK2&#45;&gt;COMMON</title>
<path fill="none" stroke="black" d="M255.663,-284.905C251.789,-279.275 248.066,-272.682 246.072,-266 241.752,-251.52 241.728,-246.473 246.072,-232 247.434,-227.464 249.27,-222.954 251.406,-218.567"/>
<polygon fill="black" stroke="black" points="254.488,-220.225 256.156,-209.762 248.328,-216.901 254.488,-220.225"/>
<text text-anchor="middle" x="275.964" y="-251.8" font-family="Times,serif" font-size="14.00">sync write</text>
<text text-anchor="middle" x="275.964" y="-235" font-family="Times,serif" font-size="14.00">request</text>
</g>
<!-- BRICK3 -->
<g id="node4" class="node"><title>BRICK3</title>
<ellipse fill="none" stroke="black" cx="447" cy="-302" rx="39.6" ry="18"/>
<text text-anchor="middle" x="447" y="-296.4" font-family="Times,serif" font-size="14.00">Brick 3</text>
</g>
<!-- BRICK3&#45;&gt;COMMON -->
<g id="edge11" class="edge"><title>BRICK3&#45;&gt;COMMON</title>
<path fill="none" stroke="black" d="M429.973,-285.695C407.771,-265.745 371.558,-233.231 370,-232 360.324,-224.355 349.726,-216.567 339.395,-209.263"/>
<polygon fill="black" stroke="black" points="341.39,-206.387 331.19,-203.521 337.376,-212.122 341.39,-206.387"/>
<text text-anchor="middle" x="435.964" y="-251.8" font-family="Times,serif" font-size="14.00">sync write</text>
<text text-anchor="middle" x="435.964" y="-235" font-family="Times,serif" font-size="14.00">request</text>
</g>
<!-- COMMON&#45;&gt;BRICK1 -->
<g id="edge5" class="edge"><title>COMMON&#45;&gt;BRICK1</title>
<path fill="none" stroke="black" d="M229.287,-197.728C212.529,-206.895 194.93,-218.425 181.072,-232 168.612,-244.207 158.52,-260.965 151.458,-274.909"/>
<polygon fill="black" stroke="black" points="148.254,-273.495 147.061,-284.022 154.559,-276.537 148.254,-273.495"/>
<text text-anchor="middle" x="210.964" y="-251.8" font-family="Times,serif" font-size="14.00">sync write</text>
<text text-anchor="middle" x="210.964" y="-235" font-family="Times,serif" font-size="14.00">reply</text>
</g>
<!-- COMMON&#45;&gt;BRICK2 -->
<g id="edge9" class="edge"><title>COMMON&#45;&gt;BRICK2</title>
<path fill="none" stroke="black" d="M302.976,-211.987C308.309,-229.016 311.063,-248.948 304,-266 302.086,-270.62 299.235,-274.947 295.97,-278.877"/>
<polygon fill="black" stroke="black" points="293.215,-276.695 288.857,-286.351 298.286,-281.52 293.215,-276.695"/>
<text text-anchor="middle" x="337.964" y="-251.8" font-family="Times,serif" font-size="14.00">sync write</text>
<text text-anchor="middle" x="337.964" y="-235" font-family="Times,serif" font-size="14.00">reply</text>
</g>
<!-- COMMON&#45;&gt;BRICK3 -->
<g id="edge13" class="edge"><title>COMMON&#45;&gt;BRICK3</title>
<path fill="none" stroke="black" d="M355.949,-176.678C395.192,-182.783 440.956,-197.495 466,-232 475.192,-244.664 470.741,-261.566 463.847,-275.473"/>
<polygon fill="black" stroke="black" points="460.612,-274.09 458.821,-284.532 466.733,-277.486 460.612,-274.09"/>
<text text-anchor="middle" x="499.964" y="-251.8" font-family="Times,serif" font-size="14.00">sync write</text>
<text text-anchor="middle" x="499.964" y="-235" font-family="Times,serif" font-size="14.00">reply</text>
</g>
<!-- PLOG1 -->
<g id="node6" class="node"><title>PLOG1</title>
<ellipse fill="none" stroke="black" cx="89" cy="-30" rx="89.1837" ry="29.3315"/>
<text text-anchor="middle" x="89" y="-32.8" font-family="Times,serif" font-size="14.00">Private log Brick 1:</text>
<text text-anchor="middle" x="89" y="-16" font-family="Times,serif" font-size="14.00">* key metadata</text>
</g>
<!-- COMMON&#45;&gt;PLOG1 -->
<g id="edge15" class="edge"><title>COMMON&#45;&gt;PLOG1</title>
<path fill="none" stroke="black" d="M237.914,-141.002C223.991,-131.889 208.809,-121.713 195.1,-112 173.425,-96.6433 149.889,-78.7994 130.504,-63.7745"/>
<polygon fill="black" stroke="black" points="132.509,-60.9006 122.467,-57.5233 128.212,-66.4258 132.509,-60.9006"/>
<text text-anchor="middle" x="238.95" y="-97.8" font-family="Times,serif" font-size="14.00">async metadata</text>
<text text-anchor="middle" x="238.95" y="-81" font-family="Times,serif" font-size="14.00">copy</text>
</g>
<!-- PLOG2 -->
<g id="node7" class="node"><title>PLOG2</title>
<ellipse fill="none" stroke="black" cx="285" cy="-30" rx="89.1837" ry="29.3315"/>
<text text-anchor="middle" x="285" y="-32.8" font-family="Times,serif" font-size="14.00">Private log Brick 2:</text>
<text text-anchor="middle" x="285" y="-16" font-family="Times,serif" font-size="14.00">* key metadata</text>
</g>
<!-- COMMON&#45;&gt;PLOG2 -->
<g id="edge17" class="edge"><title>COMMON&#45;&gt;PLOG2</title>
<path fill="none" stroke="black" d="M285,-130.506C285,-111.427 285,-88.7693 285,-69.8972"/>
<polygon fill="black" stroke="black" points="288.5,-69.8489 285,-59.8489 281.5,-69.849 288.5,-69.8489"/>
<text text-anchor="middle" x="327.95" y="-97.8" font-family="Times,serif" font-size="14.00">async metadata</text>
<text text-anchor="middle" x="327.95" y="-81" font-family="Times,serif" font-size="14.00">copy</text>
</g>
<!-- PLOG3 -->
<g id="node8" class="node"><title>PLOG3</title>
<ellipse fill="none" stroke="black" cx="481" cy="-30" rx="89.1837" ry="29.3315"/>
<text text-anchor="middle" x="481" y="-32.8" font-family="Times,serif" font-size="14.00">Private log Brick 3:</text>
<text text-anchor="middle" x="481" y="-16" font-family="Times,serif" font-size="14.00">* key metadata</text>
</g>
<!-- COMMON&#45;&gt;PLOG3 -->
<g id="edge19" class="edge"><title>COMMON&#45;&gt;PLOG3</title>
<path fill="none" stroke="black" d="M332.025,-140.617C345.682,-131.58 360.54,-121.542 374,-112 395.787,-96.5548 419.515,-78.7017 439.078,-63.6935"/>
<polygon fill="black" stroke="black" points="441.4,-66.3236 447.19,-57.451 437.13,-60.7762 441.4,-66.3236"/>
<text text-anchor="middle" x="460.95" y="-97.8" font-family="Times,serif" font-size="14.00">async metadata</text>
<text text-anchor="middle" x="460.95" y="-81" font-family="Times,serif" font-size="14.00">copy</text>
</g>
</g>
</svg>
