<?xml version="1.0" encoding="UTF-8" standalone="no"?>
<!DOCTYPE svg PUBLIC "-//W3C//DTD SVG 1.1//EN"
 "http://www.w3.org/Graphics/SVG/1.1/DTD/svg11.dtd">
<!-- Generated by graphviz version 2.28.0 (20120122.0658)
 -->
<!-- Title: data_flow Pages: 1 -->
<svg width="512pt" height="158pt"
 viewBox="0.00 0.00 512.00 158.00" xmlns="http://www.w3.org/2000/svg" xmlns:xlink="http://www.w3.org/1999/xlink">
<g id="graph1" class="graph" transform="scale(1 1) rotate(0) translate(4 154)">
<title>data_flow</title>
<polygon fill="white" stroke="white" points="-4,5 -4,-154 509,-154 509,5 -4,5"/>
<!-- CLIENT1 -->
<g id="node1" class="node"><title>CLIENT1</title>
<ellipse fill="none" stroke="black" cx="135" cy="-132" rx="39.2049" ry="18"/>
<text text-anchor="middle" x="135" y="-126.4" font-family="Times,serif" font-size="14.00">Client1</text>
</g>
<!-- HEAD -->
<g id="node3" class="node"><title>HEAD</title>
<ellipse fill="none" stroke="black" cx="55" cy="-30" rx="54.9217" ry="18"/>
<text text-anchor="middle" x="55" y="-24.4" font-family="Times,serif" font-size="14.00">Head Brick</text>
</g>
<!-- CLIENT1&#45;&gt;HEAD -->
<g id="edge4" class="edge"><title>CLIENT1&#45;&gt;HEAD</title>
<path fill="none" stroke="black" d="M99.205,-124.387C83.0452,-119.431 65.4213,-110.836 55.6445,-96 48.416,-85.0308 47.6281,-70.5976 48.918,-58.1188"/>
<polygon fill="black" stroke="black" points="52.3816,-58.6219 50.3945,-48.2151 45.4581,-57.5897 52.3816,-58.6219"/>
<text text-anchor="middle" x="98.1777" y="-81.4" font-family="Times,serif" font-size="14.00">Update request</text>
</g>
<!-- CLIENT2 -->
<g id="node2" class="node"><title>CLIENT2</title>
<ellipse fill="none" stroke="black" cx="285" cy="-132" rx="39.2049" ry="18"/>
<text text-anchor="middle" x="285" y="-126.4" font-family="Times,serif" font-size="14.00">Client2</text>
</g>
<!-- MIDDLE -->
<g id="node4" class="node"><title>MIDDLE</title>
<ellipse fill="none" stroke="black" cx="258" cy="-30" rx="64.5313" ry="29.3315"/>
<text text-anchor="middle" x="258" y="-32.8" font-family="Times,serif" font-size="14.00">Middle Brick</text>
<text text-anchor="middle" x="258" y="-16" font-family="Times,serif" font-size="14.00">+Official Tail</text>
</g>
<!-- CLIENT2&#45;&gt;MIDDLE -->
<g id="edge16" class="edge"><title>CLIENT2&#45;&gt;MIDDLE</title>
<path fill="none" stroke="black" d="M270.157,-115.106C265.822,-109.489 261.629,-102.854 259.307,-96 256.495,-87.7018 255.269,-78.4597 254.924,-69.609"/>
<polygon fill="black" stroke="black" points="258.424,-69.4646 254.883,-59.4789 251.424,-69.493 258.424,-69.4646"/>
<text text-anchor="middle" x="295.347" y="-81.4" font-family="Times,serif" font-size="14.00">Read request</text>
</g>
<!-- HEAD&#45;&gt;MIDDLE -->
<g id="edge6" class="edge"><title>HEAD&#45;&gt;MIDDLE</title>
<path fill="none" stroke="black" d="M110.203,-30C132.701,-30 159.061,-30 183.241,-30"/>
<polygon fill="black" stroke="black" points="183.453,-33.5001 193.453,-30 183.453,-26.5001 183.453,-33.5001"/>
<text text-anchor="middle" x="151.656" y="-35.8" font-family="Times,serif" font-size="14.00">Replication</text>
</g>
<!-- MIDDLE&#45;&gt;CLIENT1 -->
<g id="edge8" class="edge"><title>MIDDLE&#45;&gt;CLIENT1</title>
<path fill="none" stroke="black" d="M216.203,-52.4519C203.738,-59.7536 190.443,-68.4965 179.307,-78 169.569,-86.3095 160.25,-96.903 152.692,-106.432"/>
<polygon fill="black" stroke="black" points="149.852,-104.384 146.538,-114.447 155.404,-108.647 149.852,-104.384"/>
<text text-anchor="middle" x="216.347" y="-81.4" font-family="Times,serif" font-size="14.00">Update reply</text>
</g>
<!-- MIDDLE&#45;&gt;CLIENT2 -->
<g id="edge18" class="edge"><title>MIDDLE&#45;&gt;CLIENT2</title>
<path fill="none" stroke="black" d="M304.218,-50.476C315.277,-57.4611 325.697,-66.5291 332,-78 338.899,-90.5548 329.789,-102.657 317.81,-112.12"/>
<polygon fill="black" stroke="black" points="315.769,-109.277 309.663,-117.935 319.836,-114.974 315.769,-109.277"/>
<text text-anchor="middle" x="364.516" y="-81.4" font-family="Times,serif" font-size="14.00">Read reply</text>
</g>
<!-- TAIL -->
<g id="node5" class="node"><title>TAIL</title>
<ellipse fill="none" stroke="black" cx="455" cy="-30" rx="49.1759" ry="18"/>
<text text-anchor="middle" x="455" y="-24.4" font-family="Times,serif" font-size="14.00">Tail Brick</text>
</g>
<!-- MIDDLE&#45;&gt;TAIL -->
<g id="edge10" class="edge"><title>MIDDLE&#45;&gt;TAIL</title>
<path fill="none" stroke="black" d="M322.505,-30C345.86,-30 372.12,-30 395.065,-30"/>
<polygon fill="black" stroke="black" points="395.352,-33.5001 405.352,-30 395.352,-26.5001 395.352,-33.5001"/>
<text text-anchor="middle" x="363.609" y="-35.8" font-family="Times,serif" font-size="14.00">Replication</text>
</g>
<!-- MIDDLE&#45;&gt;TAIL -->
<g id="edge12" class="edge"><title>MIDDLE&#45;&gt;TAIL</title>
<path fill="none" stroke="black" d="M312.662,-14.3501C334.302,-9.97194 359.423,-7.14605 382.268,-10.2 390.752,-11.3342 399.648,-13.1813 408.193,-15.303"/>
<polygon fill="black" stroke="black" points="407.454,-18.7277 418.016,-17.8936 409.239,-11.9591 407.454,-18.7277"/>
<text text-anchor="middle" x="363.609" y="-13" font-family="Times,serif" font-size="14.00">Repair</text>
</g>
<!-- TAIL&#45;&gt;MIDDLE -->
<g id="edge14" class="edge"><title>TAIL&#45;&gt;MIDDLE</title>
<path fill="none" stroke="black" d="M421.398,-43.3341C413.179,-46.0121 404.318,-48.4243 395.878,-49.8 367.568,-54.4146 359.775,-53.5708 331.34,-49.8 328.137,-49.3752 324.875,-48.8504 321.595,-48.2486"/>
<polygon fill="black" stroke="black" points="322.24,-44.8081 311.742,-46.2351 320.839,-51.6664 322.24,-44.8081"/>
<text text-anchor="middle" x="363.609" y="-58.6" font-family="Times,serif" font-size="14.00">Repair</text>
</g>
</g>
</svg>
