<?xml version="1.0" encoding="UTF-8" standalone="no"?>
<!DOCTYPE svg PUBLIC "-//W3C//DTD SVG 1.1//EN"
 "http://www.w3.org/Graphics/SVG/1.1/DTD/svg11.dtd">
<!-- Generated by graphviz version 2.38.0 (20140413.2041)
 -->
<!-- Title: data_flow Pages: 1 -->
<svg width="500pt" height="149pt"
 viewBox="0.00 0.00 499.79 148.74" xmlns="http://www.w3.org/2000/svg" xmlns:xlink="http://www.w3.org/1999/xlink">
<g id="graph0" class="graph" transform="scale(1 1) rotate(0) translate(4 144.74)">
<title>data_flow</title>
<polygon fill="white" stroke="none" points="-4,4 -4,-144.74 495.791,-144.74 495.791,4 -4,4"/>
<!-- CLIENT1 -->
<g id="node1" class="node"><title>CLIENT1</title>
<ellipse fill="none" stroke="black" cx="104.345" cy="-122.74" rx="37.8943" ry="18"/>
<text text-anchor="middle" x="104.345" y="-119.04" font-family="Times,serif" font-size="14.00">Client1</text>
</g>
<!-- HEAD -->
<g id="node3" class="node"><title>HEAD</title>
<ellipse fill="none" stroke="black" cx="51.3454" cy="-26.8701" rx="51.1914" ry="18"/>
<text text-anchor="middle" x="51.3454" y="-23.1701" font-family="Times,serif" font-size="14.00">Head Brick</text>
</g>
<!-- CLIENT1&#45;&gt;HEAD -->
<g id="edge1" class="edge"><title>CLIENT1&#45;&gt;HEAD</title>
<path fill="none" stroke="black" d="M76.7843,-110.375C66.9217,-104.803 56.8831,-97.0333 51.3454,-86.7401 46.1884,-77.1545 45.3222,-65.3558 46.0692,-54.8444"/>
<polygon fill="black" stroke="black" points="49.5473,-55.2355 47.2548,-44.8917 42.5964,-54.4075 49.5473,-55.2355"/>
<text text-anchor="middle" x="93.3454" y="-75.5401" font-family="Times,serif" font-size="14.00">Update request</text>
</g>
<!-- CLIENT2 -->
<g id="node2" class="node"><title>CLIENT2</title>
<ellipse fill="none" stroke="black" cx="298.345" cy="-122.74" rx="37.8943" ry="18"/>
<text text-anchor="middle" x="298.345" y="-119.04" font-family="Times,serif" font-size="14.00">Client2</text>
</g>
<!-- MIDDLE -->
<g id="node4" class="node"><title>MIDDLE</title>
<ellipse fill="none" stroke="black" cx="250.345" cy="-26.8701" rx="65.1077" ry="26.7407"/>
<text text-anchor="middle" x="250.345" y="-30.6701" font-family="Times,serif" font-size="14.00">Middle Brick</text>
<text text-anchor="middle" x="250.345" y="-15.6701" font-family="Times,serif" font-size="14.00">+Official Tail</text>
</g>
<!-- CLIENT2&#45;&gt;MIDDLE -->
<g id="edge7" class="edge"><title>CLIENT2&#45;&gt;MIDDLE</title>
<path fill="none" stroke="black" d="M273.537,-108.852C265.304,-103.236 257.046,-95.8324 252.345,-86.7401 248.753,-79.7922 247.129,-71.7411 246.617,-63.8661"/>
<polygon fill="black" stroke="black" points="250.116,-63.6865 246.514,-53.7227 243.116,-63.758 250.116,-63.6865"/>
<text text-anchor="middle" x="288.345" y="-75.5401" font-family="Times,serif" font-size="14.00">Read request</text>
</g>
<!-- HEAD&#45;&gt;MIDDLE -->
<g id="edge2" class="edge"><title>HEAD&#45;&gt;MIDDLE</title>
<path fill="none" stroke="black" d="M102.852,-26.8701C124.819,-26.8701 150.89,-26.8701 174.958,-26.8701"/>
<polygon fill="black" stroke="black" points="175.133,-30.3702 185.133,-26.8701 175.133,-23.3702 175.133,-30.3702"/>
<text text-anchor="middle" x="143.991" y="-33.6701" font-family="Times,serif" font-size="14.00">Replication</text>
</g>
<!-- MIDDLE&#45;&gt;CLIENT1 -->
<g id="edge3" class="edge"><title>MIDDLE&#45;&gt;CLIENT1</title>
<path fill="none" stroke="black" d="M211.312,-48.6021C198.685,-55.6308 184.746,-63.7358 172.345,-71.7401 158.441,-80.7149 143.57,-91.5022 131.292,-100.756"/>
<polygon fill="black" stroke="black" points="129.088,-98.0353 123.25,-106.877 133.327,-103.606 129.088,-98.0353"/>
<text text-anchor="middle" x="207.845" y="-75.5401" font-family="Times,serif" font-size="14.00">Update reply</text>
</g>
<!-- MIDDLE&#45;&gt;CLIENT2 -->
<g id="edge8" class="edge"><title>MIDDLE&#45;&gt;CLIENT2</title>
<path fill="none" stroke="black" d="M296.877,-45.6776C307.792,-52.1676 318.062,-60.7096 324.345,-71.7401 329.162,-80.1949 326.312,-89.6267 321.026,-98.0004"/>
<polygon fill="black" stroke="black" points="318.037,-96.1529 314.854,-106.258 323.644,-100.344 318.037,-96.1529"/>
<text text-anchor="middle" x="355.845" y="-75.5401" font-family="Times,serif" font-size="14.00">Read reply</text>
</g>
<!-- TAIL -->
<g id="node5" class="node"><title>TAIL</title>
<ellipse fill="none" stroke="black" cx="444.345" cy="-26.8701" rx="47.3916" ry="18"/>
<text text-anchor="middle" x="444.345" y="-23.1701" font-family="Times,serif" font-size="14.00">Tail Brick</text>
</g>
<!-- MIDDLE&#45;&gt;TAIL -->
<g id="edge4" class="edge"><title>MIDDLE&#45;&gt;TAIL</title>
<path fill="none" stroke="black" d="M315.484,-26.8701C338.585,-26.8701 364.397,-26.8701 386.818,-26.8701"/>
<polygon fill="black" stroke="black" points="386.859,-30.3702 396.859,-26.8701 386.859,-23.3702 386.859,-30.3702"/>
<text text-anchor="middle" x="356.149" y="-33.6701" font-family="Times,serif" font-size="14.00">Replication</text>
</g>
<!-- MIDDLE&#45;&gt;TAIL -->
<g id="edge5" class="edge"><title>MIDDLE&#45;&gt;TAIL</title>
<path fill="none" stroke="black" d="M305.362,-12.4585C326.943,-8.49396 351.936,-5.98437 374.649,-8.87006 382.149,-9.82285 389.996,-11.3304 397.607,-13.0774"/>
<polygon fill="black" stroke="black" points="396.882,-16.5033 407.428,-15.4853 398.549,-9.70464 396.882,-16.5033"/>
<text text-anchor="middle" x="356.149" y="-12.6701" font-family="Times,serif" font-size="14.00">Repair</text>
</g>
<!-- TAIL&#45;&gt;MIDDLE -->
<g id="edge6" class="edge"><title>TAIL&#45;&gt;MIDDLE</title>
<path fill="none" stroke="black" d="M410.579,-39.544C403.283,-41.7559 395.538,-43.7156 388.149,-44.8701 360.046,-49.2611 352.391,-48.2642 324.149,-44.8701 321.105,-44.5042 318.005,-44.0563 314.884,-43.5443"/>
<polygon fill="black" stroke="black" points="315.358,-40.0728 304.89,-41.7129 314.096,-46.9582 315.358,-40.0728"/>
<text text-anchor="middle" x="356.149" y="-54.6701" font-family="Times,serif" font-size="14.00">Repair</text>
</g>
</g>
</svg>
