<?xml version="1.0" encoding="UTF-8" standalone="no"?>
<!DOCTYPE svg PUBLIC "-//W3C//DTD SVG 1.1//EN"
 "http://www.w3.org/Graphics/SVG/1.1/DTD/svg11.dtd">
<!-- Generated by graphviz version 2.38.0 (20140413.2041)
 -->
<!-- Title: data_flow Pages: 1 -->
<svg width="531pt" height="164pt"
 viewBox="0.00 0.00 531.35 163.74" xmlns="http://www.w3.org/2000/svg" xmlns:xlink="http://www.w3.org/1999/xlink">
<g id="graph0" class="graph" transform="scale(1 1) rotate(0) translate(4 159.74)">
<title>data_flow</title>
<polygon fill="white" stroke="none" points="-4,4 -4,-159.74 527.345,-159.74 527.345,4 -4,4"/>
<!-- CLIENT -->
<g id="node1" class="node"><title>CLIENT</title>
<ellipse fill="none" stroke="black" cx="446.345" cy="-137.74" rx="33.2948" ry="18"/>
<text text-anchor="middle" x="446.345" y="-134.04" font-family="Times,serif" font-size="14.00">Client</text>
</g>
<!-- TAIL -->
<g id="node4" class="node"><title>TAIL</title>
<ellipse fill="none" stroke="black" cx="446.345" cy="-26.8701" rx="65.1077" ry="26.7407"/>
<text text-anchor="middle" x="446.345" y="-30.6701" font-family="Times,serif" font-size="14.00">Tail Brick</text>
<text text-anchor="middle" x="446.345" y="-15.6701" font-family="Times,serif" font-size="14.00">+Official Tail</text>
</g>
<!-- CLIENT&#45;&gt;TAIL -->
<g id="edge1" class="edge"><title>CLIENT&#45;&gt;TAIL</title>
<path fill="none" stroke="black" d="M425.503,-123.514C418.36,-117.777 411.201,-110.38 407.345,-101.74 401.912,-89.564 402.607,-84.2029 407.345,-71.7401 408.937,-67.5549 411.131,-63.514 413.674,-59.6911"/>
<polygon fill="black" stroke="black" points="416.473,-61.7913 419.699,-51.6993 410.884,-57.5771 416.473,-61.7913"/>
<text text-anchor="middle" x="435.845" y="-90.5401" font-family="Times,serif" font-size="14.00">Read&#45;only</text>
<text text-anchor="middle" x="435.845" y="-75.5401" font-family="Times,serif" font-size="14.00">request</text>
</g>
<!-- HEAD -->
<g id="node2" class="node"><title>HEAD</title>
<ellipse fill="none" stroke="black" cx="51.3454" cy="-26.8701" rx="51.1914" ry="18"/>
<text text-anchor="middle" x="51.3454" y="-23.1701" font-family="Times,serif" font-size="14.00">Head Brick</text>
</g>
<!-- MIDDLE -->
<g id="node3" class="node"><title>MIDDLE</title>
<ellipse fill="none" stroke="black" cx="242.345" cy="-26.8701" rx="57.6901" ry="18"/>
<text text-anchor="middle" x="242.345" y="-23.1701" font-family="Times,serif" font-size="14.00">Middle Brick</text>
</g>
<!-- HEAD&#45;&gt;MIDDLE -->
<g id="edge2" class="edge"><title>HEAD&#45;&gt;MIDDLE</title>
<path fill="none" stroke="black" d="M102.781,-26.8701C124.726,-26.8701 150.646,-26.8701 174.155,-26.8701"/>
<polygon fill="black" stroke="black" points="174.413,-30.3702 184.413,-26.8701 174.413,-23.3702 174.413,-30.3702"/>
<text text-anchor="middle" x="143.596" y="-33.6701" font-family="Times,serif" font-size="14.00">Replication</text>
</g>
<!-- MIDDLE&#45;&gt;TAIL -->
<g id="edge3" class="edge"><title>MIDDLE&#45;&gt;TAIL</title>
<path fill="none" stroke="black" d="M300.258,-26.8701C322.217,-26.8701 347.551,-26.8701 370.892,-26.8701"/>
<polygon fill="black" stroke="black" points="371.106,-30.3702 381.106,-26.8701 371.106,-23.3702 371.106,-30.3702"/>
<text text-anchor="middle" x="340.741" y="-33.6701" font-family="Times,serif" font-size="14.00">Replication</text>
</g>
<!-- TAIL&#45;&gt;CLIENT -->
<g id="edge4" class="edge"><title>TAIL&#45;&gt;CLIENT</title>
<path fill="none" stroke="black" d="M458.733,-53.332C461.057,-59.2414 463.135,-65.6016 464.345,-71.7401 466.925,-84.8216 467.482,-88.7811 464.345,-101.74 463.598,-104.828 462.528,-107.949 461.278,-110.989"/>
<polygon fill="black" stroke="black" points="457.99,-109.753 456.842,-120.286 464.307,-112.768 457.99,-109.753"/>
<text text-anchor="middle" x="494.845" y="-90.5401" font-family="Times,serif" font-size="14.00">Read&#45;only</text>
<text text-anchor="middle" x="494.845" y="-75.5401" font-family="Times,serif" font-size="14.00">reply</text>
</g>
</g>
</svg>
