<?xml version="1.0" encoding="UTF-8" standalone="no"?>
<!DOCTYPE svg PUBLIC "-//W3C//DTD SVG 1.1//EN"
 "http://www.w3.org/Graphics/SVG/1.1/DTD/svg11.dtd">
<!-- Generated by graphviz version 2.28.0 (20120122.0658)
 -->
<!-- Title: data_flow Pages: 1 -->
<svg width="552pt" height="174pt"
 viewBox="0.00 0.00 552.32 174.00" xmlns="http://www.w3.org/2000/svg" xmlns:xlink="http://www.w3.org/1999/xlink">
<g id="graph1" class="graph" transform="scale(1 1) rotate(0) translate(4 170)">
<title>data_flow</title>
<polygon fill="white" stroke="white" points="-4,5 -4,-170 549.317,-170 549.317,5 -4,5"/>
<!-- CLIENT -->
<g id="node1" class="node"><title>CLIENT</title>
<ellipse fill="none" stroke="black" cx="465" cy="-148" rx="34.4613" ry="18"/>
<text text-anchor="middle" x="465" y="-142.4" font-family="Times,serif" font-size="14.00">Client</text>
</g>
<!-- TAIL -->
<g id="node4" class="node"><title>TAIL</title>
<ellipse fill="none" stroke="black" cx="466" cy="-30" rx="64.5313" ry="29.3315"/>
<text text-anchor="middle" x="466" y="-32.8" font-family="Times,serif" font-size="14.00">Tail Brick</text>
<text text-anchor="middle" x="466" y="-16" font-family="Times,serif" font-size="14.00">+Official Tail</text>
</g>
<!-- CLIENT&#45;&gt;TAIL -->
<g id="edge3" class="edge"><title>CLIENT&#45;&gt;TAIL</title>
<path fill="none" stroke="black" d="M443.576,-133.474C436.515,-127.789 429.498,-120.505 425.683,-112 419.497,-98.2128 420.437,-92.1715 425.683,-78 427.367,-73.4505 429.71,-69.0445 432.427,-64.8728"/>
<polygon fill="black" stroke="black" points="435.352,-66.803 438.439,-56.668 429.705,-62.6654 435.352,-66.803"/>
<text text-anchor="middle" x="454.159" y="-97.8" font-family="Times,serif" font-size="14.00">Read&#45;only</text>
<text text-anchor="middle" x="454.159" y="-81" font-family="Times,serif" font-size="14.00">request</text>
</g>
<!-- HEAD -->
<g id="node2" class="node"><title>HEAD</title>
<ellipse fill="none" stroke="black" cx="55" cy="-30" rx="54.9217" ry="18"/>
<text text-anchor="middle" x="55" y="-24.4" font-family="Times,serif" font-size="14.00">Head Brick</text>
</g>
<!-- MIDDLE -->
<g id="node3" class="node"><title>MIDDLE</title>
<ellipse fill="none" stroke="black" cx="256" cy="-30" rx="62.2036" ry="18"/>
<text text-anchor="middle" x="256" y="-24.4" font-family="Times,serif" font-size="14.00">Middle Brick</text>
</g>
<!-- HEAD&#45;&gt;MIDDLE -->
<g id="edge5" class="edge"><title>HEAD&#45;&gt;MIDDLE</title>
<path fill="none" stroke="black" d="M110.19,-30C132.765,-30 159.199,-30 183.313,-30"/>
<polygon fill="black" stroke="black" points="183.488,-33.5001 193.488,-30 183.488,-26.5001 183.488,-33.5001"/>
<text text-anchor="middle" x="151.599" y="-35.8" font-family="Times,serif" font-size="14.00">Replication</text>
</g>
<!-- MIDDLE&#45;&gt;TAIL -->
<g id="edge7" class="edge"><title>MIDDLE&#45;&gt;TAIL</title>
<path fill="none" stroke="black" d="M318.438,-30C341.395,-30 367.619,-30 391.529,-30"/>
<polygon fill="black" stroke="black" points="391.619,-33.5001 401.618,-30 391.618,-26.5001 391.619,-33.5001"/>
<text text-anchor="middle" x="359.656" y="-35.8" font-family="Times,serif" font-size="14.00">Replication</text>
</g>
<!-- TAIL&#45;&gt;CLIENT -->
<g id="edge9" class="edge"><title>TAIL&#45;&gt;CLIENT</title>
<path fill="none" stroke="black" d="M478.666,-59.0991C480.878,-65.2111 482.84,-71.7279 484,-78 486.748,-92.8591 487.719,-97.3537 484,-112 483.183,-115.217 482.005,-118.458 480.629,-121.6"/>
<polygon fill="black" stroke="black" points="477.461,-120.11 476.074,-130.613 483.708,-123.267 477.461,-120.11"/>
<text text-anchor="middle" x="515.159" y="-97.8" font-family="Times,serif" font-size="14.00">Read&#45;only</text>
<text text-anchor="middle" x="515.159" y="-81" font-family="Times,serif" font-size="14.00">reply</text>
</g>
</g>
</svg>
