<?xml version="1.0" encoding="UTF-8" standalone="no"?>
<!DOCTYPE svg PUBLIC "-//W3C//DTD SVG 1.1//EN"
 "http://www.w3.org/Graphics/SVG/1.1/DTD/svg11.dtd">
<!-- Generated by graphviz version 2.26.3 (20100126.1600)
 -->
<!-- Title: data_flow Pages: 1 -->
<svg width="550pt" height="186pt"
 viewBox="0.00 0.00 550.00 186.00" xmlns="http://www.w3.org/2000/svg" xmlns:xlink="http://www.w3.org/1999/xlink">
<g id="graph1" class="graph" transform="scale(1 1) rotate(0) translate(4 182)">
<title>data_flow</title>
<polygon fill="white" stroke="white" points="-4,5 -4,-182 547,-182 547,5 -4,5"/>
<!-- CLIENT -->
<g id="node1" class="node"><title>CLIENT</title>
<ellipse fill="none" stroke="black" cx="465" cy="-159" rx="34.8574" ry="19.0919"/>
<text text-anchor="middle" x="465" y="-155.9" font-family="Times Roman,serif" font-size="14.00">Client</text>
</g>
<!-- TAIL -->
<g id="node4" class="node"><title>TAIL</title>
<ellipse fill="none" stroke="black" cx="465" cy="-33" rx="65.0538" ry="32.5269"/>
<text text-anchor="middle" x="465" y="-39.4" font-family="Times Roman,serif" font-size="14.00">Tail Brick</text>
<text text-anchor="middle" x="465" y="-20.4" font-family="Times Roman,serif" font-size="14.00">+Official Tail</text>
</g>
<!-- CLIENT&#45;&gt;TAIL -->
<g id="edge3" class="edge"><title>CLIENT&#45;&gt;TAIL</title>
<path fill="none" stroke="black" d="M443.308,-144.079C436.442,-138.096 429.685,-130.575 426,-122 419.332,-106.483 420.584,-99.9971 426,-84 427.467,-79.6664 429.466,-75.4113 431.789,-71.321"/>
<polygon fill="black" stroke="black" points="434.885,-72.9766 437.311,-62.6633 428.983,-69.2123 434.885,-72.9766"/>
<text text-anchor="middle" x="454.5" y="-109.4" font-family="Times Roman,serif" font-size="14.00">Read&#45;only</text>
<text text-anchor="middle" x="454.5" y="-90.4" font-family="Times Roman,serif" font-size="14.00">request</text>
</g>
<!-- HEAD -->
<g id="node2" class="node"><title>HEAD</title>
<ellipse fill="none" stroke="black" cx="56" cy="-33" rx="55.8614" ry="19.0919"/>
<text text-anchor="middle" x="56" y="-29.9" font-family="Times Roman,serif" font-size="14.00">Head Brick</text>
</g>
<!-- MIDDLE -->
<g id="node3" class="node"><title>MIDDLE</title>
<ellipse fill="none" stroke="black" cx="256" cy="-33" rx="63.1385" ry="19.0919"/>
<text text-anchor="middle" x="256" y="-29.9" font-family="Times Roman,serif" font-size="14.00">Middle Brick</text>
</g>
<!-- HEAD&#45;&gt;MIDDLE -->
<g id="edge5" class="edge"><title>HEAD&#45;&gt;MIDDLE</title>
<path fill="none" stroke="black" d="M112.243,-33C133.982,-33 159.158,-33 182.309,-33"/>
<polygon fill="black" stroke="black" points="182.435,-36.5001 192.435,-33 182.435,-29.5001 182.435,-36.5001"/>
<text text-anchor="middle" x="153" y="-39.4" font-family="Times Roman,serif" font-size="14.00">Replication</text>
</g>
<!-- MIDDLE&#45;&gt;TAIL -->
<g id="edge7" class="edge"><title>MIDDLE&#45;&gt;TAIL</title>
<path fill="none" stroke="black" d="M319.558,-33C341.736,-33 366.837,-33 389.867,-33"/>
<polygon fill="black" stroke="black" points="389.939,-36.5001 399.939,-33 389.939,-29.5001 389.939,-36.5001"/>
<text text-anchor="middle" x="360" y="-39.4" font-family="Times Roman,serif" font-size="14.00">Replication</text>
</g>
<!-- TAIL&#45;&gt;CLIENT -->
<g id="edge9" class="edge"><title>TAIL&#45;&gt;CLIENT</title>
<path fill="none" stroke="black" d="M478.121,-64.9346C480.147,-71.1585 481.922,-77.7068 483,-84 485.851,-100.646 486.791,-105.542 483,-122 482.262,-125.202 481.209,-128.448 479.976,-131.619"/>
<polygon fill="black" stroke="black" points="476.764,-130.228 475.881,-140.786 483.155,-133.084 476.764,-130.228"/>
<text text-anchor="middle" x="513.5" y="-109.4" font-family="Times Roman,serif" font-size="14.00">Read&#45;only</text>
<text text-anchor="middle" x="513.5" y="-90.4" font-family="Times Roman,serif" font-size="14.00">reply</text>
</g>
</g>
</svg>
