<?xml version="1.0" encoding="UTF-8" standalone="no"?>
<!DOCTYPE svg PUBLIC "-//W3C//DTD SVG 1.1//EN"
 "http://www.w3.org/Graphics/SVG/1.1/DTD/svg11.dtd">
<!-- Generated by graphviz version 2.26.3 (20100126.1600)
 -->
<!-- Title: data_flow Pages: 1 -->
<svg width="554pt" height="164pt"
 viewBox="0.00 0.00 554.00 164.00" xmlns="http://www.w3.org/2000/svg" xmlns:xlink="http://www.w3.org/1999/xlink">
<g id="graph1" class="graph" transform="scale(1 1) rotate(0) translate(4 160)">
<title>data_flow</title>
<polygon fill="white" stroke="white" points="-4,5 -4,-160 551,-160 551,5 -4,5"/>
<!-- CLIENT -->
<g id="node1" class="node"><title>CLIENT</title>
<ellipse fill="none" stroke="black" cx="463" cy="-138" rx="33.1471" ry="18"/>
<text text-anchor="middle" x="463" y="-132.9" font-family="Times,serif" font-size="14.00">Client</text>
</g>
<!-- TAIL -->
<g id="node4" class="node"><title>TAIL</title>
<ellipse fill="none" stroke="black" cx="463" cy="-27" rx="65.0538" ry="26.8701"/>
<text text-anchor="middle" x="463" y="-29.4" font-family="Times,serif" font-size="14.00">Tail Brick</text>
<text text-anchor="middle" x="463" y="-14.4" font-family="Times,serif" font-size="14.00">+Official Tail</text>
</g>
<!-- CLIENT&#45;&gt;TAIL -->
<g id="edge3" class="edge"><title>CLIENT&#45;&gt;TAIL</title>
<path fill="none" stroke="black" d="M441.099,-124.488C433.591,-118.599 426.063,-110.975 422,-102 416.501,-89.8535 417.185,-84.4336 422,-72 423.633,-67.7836 425.865,-63.7197 428.45,-59.8751"/>
<polygon fill="black" stroke="black" points="431.3,-61.9095 434.579,-51.8348 425.733,-57.6658 431.3,-61.9095"/>
<text text-anchor="middle" x="452.5" y="-89.4" font-family="Times,serif" font-size="14.00">Read&#45;only</text>
<text text-anchor="middle" x="452.5" y="-74.4" font-family="Times,serif" font-size="14.00">request</text>
</g>
<!-- HEAD -->
<g id="node2" class="node"><title>HEAD</title>
<ellipse fill="none" stroke="black" cx="54" cy="-27" rx="53.9452" ry="18"/>
<text text-anchor="middle" x="54" y="-21.9" font-family="Times,serif" font-size="14.00">Head Brick</text>
</g>
<!-- MIDDLE -->
<g id="node3" class="node"><title>MIDDLE</title>
<ellipse fill="none" stroke="black" cx="253" cy="-27" rx="61.0946" ry="18"/>
<text text-anchor="middle" x="253" y="-21.9" font-family="Times,serif" font-size="14.00">Middle Brick</text>
</g>
<!-- HEAD&#45;&gt;MIDDLE -->
<g id="edge5" class="edge"><title>HEAD&#45;&gt;MIDDLE</title>
<path fill="none" stroke="black" d="M108.115,-27C130.774,-27 157.429,-27 181.658,-27"/>
<polygon fill="black" stroke="black" points="181.874,-30.5001 191.874,-27 181.874,-23.5001 181.874,-30.5001"/>
<text text-anchor="middle" x="150" y="-29.4" font-family="Times,serif" font-size="14.00">Replication</text>
</g>
<!-- MIDDLE&#45;&gt;TAIL -->
<g id="edge7" class="edge"><title>MIDDLE&#45;&gt;TAIL</title>
<path fill="none" stroke="black" d="M314.023,-27C337.017,-27 363.445,-27 387.597,-27"/>
<polygon fill="black" stroke="black" points="387.793,-30.5001 397.793,-27 387.793,-23.5001 387.793,-30.5001"/>
<text text-anchor="middle" x="356" y="-29.4" font-family="Times,serif" font-size="14.00">Replication</text>
</g>
<!-- TAIL&#45;&gt;CLIENT -->
<g id="edge9" class="edge"><title>TAIL&#45;&gt;CLIENT</title>
<path fill="none" stroke="black" d="M476.961,-53.5097C479.461,-59.4404 481.687,-65.8113 483,-72 485.768,-85.0429 486.345,-89.093 483,-102 482.157,-105.253 480.95,-108.525 479.54,-111.699"/>
<polygon fill="black" stroke="black" points="476.315,-110.317 474.865,-120.813 482.543,-113.512 476.315,-110.317"/>
<text text-anchor="middle" x="515.5" y="-89.4" font-family="Times,serif" font-size="14.00">Read&#45;only</text>
<text text-anchor="middle" x="515.5" y="-74.4" font-family="Times,serif" font-size="14.00">reply</text>
</g>
</g>
</svg>
