<?xml version="1.0" encoding="UTF-8" standalone="no"?>
<!DOCTYPE svg PUBLIC "-//W3C//DTD SVG 1.1//EN"
 "http://www.w3.org/Graphics/SVG/1.1/DTD/svg11.dtd">
<!-- Generated by graphviz version 2.26.0 (20091210.2329)
 -->
<!-- Title: data_flow Pages: 1 -->
<svg width="514pt" height="192pt"
 viewBox="0.00 0.00 514.00 191.89" xmlns="http://www.w3.org/2000/svg" xmlns:xlink="http://www.w3.org/1999/xlink">
<g id="graph1" class="graph" transform="scale(1 1) rotate(0) translate(4 187.887)">
<title>data_flow</title>
<polygon fill="white" stroke="white" points="-4,5 -4,-187.887 511,-187.887 511,5 -4,5"/>
<!-- CLIENT1 -->
<g id="node1" class="node"><title>CLIENT1</title>
<ellipse fill="none" stroke="black" cx="135" cy="-164.887" rx="39.0967" ry="19.0919"/>
<text text-anchor="middle" x="135" y="-161.787" font-family="Times Roman,serif" font-size="14.00">Client1</text>
</g>
<!-- HEAD -->
<g id="node3" class="node"><title>HEAD</title>
<ellipse fill="none" stroke="black" cx="56" cy="-56.8871" rx="55.8614" ry="19.0919"/>
<text text-anchor="middle" x="56" y="-53.7871" font-family="Times Roman,serif" font-size="14.00">Head Brick</text>
</g>
<!-- CLIENT1&#45;&gt;HEAD -->
<g id="edge4" class="edge"><title>CLIENT1&#45;&gt;HEAD</title>
<path fill="none" stroke="black" d="M99.503,-156.743C84.0513,-151.27 67.3636,-142.32 58,-127.887 50.0847,-115.687 49.038,-99.6585 50.2111,-85.919"/>
<polygon fill="black" stroke="black" points="53.6884,-86.3183 51.464,-75.9597 46.7431,-85.4446 53.6884,-86.3183"/>
<text text-anchor="middle" x="99" y="-114.787" font-family="Times Roman,serif" font-size="14.00">Update request</text>
</g>
<!-- CLIENT2 -->
<g id="node2" class="node"><title>CLIENT2</title>
<ellipse fill="none" stroke="black" cx="283" cy="-164.887" rx="39.0967" ry="19.0919"/>
<text text-anchor="middle" x="283" y="-161.787" font-family="Times Roman,serif" font-size="14.00">Client2</text>
</g>
<!-- MIDDLE -->
<g id="node4" class="node"><title>MIDDLE</title>
<ellipse fill="none" stroke="black" cx="258" cy="-56.8871" rx="65.0538" ry="32.5269"/>
<text text-anchor="middle" x="258" y="-63.2871" font-family="Times Roman,serif" font-size="14.00">Middle Brick</text>
<text text-anchor="middle" x="258" y="-44.2871" font-family="Times Roman,serif" font-size="14.00">+Official Tail</text>
</g>
<!-- CLIENT2&#45;&gt;MIDDLE -->
<g id="edge16" class="edge"><title>CLIENT2&#45;&gt;MIDDLE</title>
<path fill="none" stroke="black" d="M267.936,-147.185C263.904,-141.403 260.088,-134.707 258,-127.887 255.27,-118.972 254.154,-109.126 253.935,-99.6789"/>
<polygon fill="black" stroke="black" points="257.435,-99.6745 254.017,-89.6463 250.436,-99.6175 257.435,-99.6745"/>
<text text-anchor="middle" x="293.5" y="-114.787" font-family="Times Roman,serif" font-size="14.00">Read request</text>
</g>
<!-- HEAD&#45;&gt;MIDDLE -->
<g id="edge6" class="edge"><title>HEAD&#45;&gt;MIDDLE</title>
<path fill="none" stroke="black" d="M107.234,-56.8871C130.04,-56.8871 157.36,-56.8871 182.44,-56.8871"/>
<polygon fill="black" stroke="black" points="182.662,-60.3872 192.662,-56.8871 182.662,-53.3872 182.662,-60.3872"/>
<text text-anchor="middle" x="152" y="-63.2871" font-family="Times Roman,serif" font-size="14.00">Replication</text>
</g>
<!-- MIDDLE&#45;&gt;CLIENT1 -->
<g id="edge8" class="edge"><title>MIDDLE&#45;&gt;CLIENT1</title>
<path fill="none" stroke="black" d="M214.888,-81.5367C203.007,-89.2492 190.507,-98.2783 180,-107.887 170.115,-116.928 160.683,-128.283 153.032,-138.473"/>
<polygon fill="black" stroke="black" points="150.11,-136.54 147.053,-146.683 155.769,-140.661 150.11,-136.54"/>
<text text-anchor="middle" x="215.5" y="-114.787" font-family="Times Roman,serif" font-size="14.00">Update reply</text>
</g>
<!-- MIDDLE&#45;&gt;CLIENT2 -->
<g id="edge18" class="edge"><title>MIDDLE&#45;&gt;CLIENT2</title>
<path fill="none" stroke="black" d="M303.941,-80.1947C313.994,-87.6018 323.32,-96.8138 329,-107.887 333.057,-115.796 332.84,-119.87 329,-127.887 326.153,-133.832 321.833,-139.125 316.96,-143.718"/>
<polygon fill="black" stroke="black" points="314.431,-141.269 308.979,-150.354 318.906,-146.651 314.431,-141.269"/>
<text text-anchor="middle" x="361" y="-114.787" font-family="Times Roman,serif" font-size="14.00">Read reply</text>
</g>
<!-- TAIL -->
<g id="node5" class="node"><title>TAIL</title>
<ellipse fill="none" stroke="black" cx="455" cy="-56.8871" rx="50.9117" ry="19.0919"/>
<text text-anchor="middle" x="455" y="-53.7871" font-family="Times Roman,serif" font-size="14.00">Tail Brick</text>
</g>
<!-- MIDDLE&#45;&gt;TAIL -->
<g id="edge10" class="edge"><title>MIDDLE&#45;&gt;TAIL</title>
<path fill="none" stroke="black" d="M323.051,-56.8871C345.793,-56.8871 371.235,-56.8871 393.664,-56.8871"/>
<polygon fill="black" stroke="black" points="393.737,-60.3872 403.737,-56.8871 393.737,-53.3872 393.737,-60.3872"/>
<text text-anchor="middle" x="364" y="-63.2871" font-family="Times Roman,serif" font-size="14.00">Replication</text>
</g>
<!-- MIDDLE&#45;&gt;TAIL -->
<g id="edge12" class="edge"><title>MIDDLE&#45;&gt;TAIL</title>
<path fill="none" stroke="black" d="M311.31,-38.2431C318.199,-36.4493 325.216,-34.917 332,-33.8871 360.122,-29.6175 368.045,-28.6309 396,-33.8871 401.814,-34.9803 407.791,-36.6302 413.605,-38.5544"/>
<polygon fill="black" stroke="black" points="412.585,-41.9069 423.179,-42.0019 414.956,-35.3209 412.585,-41.9069"/>
<text text-anchor="middle" x="364" y="-40.2871" font-family="Times Roman,serif" font-size="14.00">Repair</text>
</g>
<!-- TAIL&#45;&gt;MIDDLE -->
<g id="edge14" class="edge"><title>TAIL&#45;&gt;MIDDLE</title>
<path fill="none" stroke="black" d="M439.801,-38.625C428.953,-27.0948 413.27,-13.2205 396,-6.88706 369.295,2.90676 359.198,1.44019 332,-6.88706 320.417,-10.4333 309.013,-16.4717 298.756,-23.1509"/>
<polygon fill="black" stroke="black" points="296.69,-20.3233 290.431,-28.8715 300.655,-26.0924 296.69,-20.3233"/>
<text text-anchor="middle" x="364" y="-13.2871" font-family="Times Roman,serif" font-size="14.00">Repair</text>
</g>
</g>
</svg>
