<?xml version="1.0" encoding="UTF-8" standalone="no"?>
<!DOCTYPE svg PUBLIC "-//W3C//DTD SVG 1.1//EN"
 "http://www.w3.org/Graphics/SVG/1.1/DTD/svg11.dtd">
<!-- Generated by graphviz version 2.26.3 (20100126.1600)
 -->
<!-- Title: data_flow Pages: 1 -->
<svg width="517pt" height="171pt"
 viewBox="0.00 0.00 517.00 171.43" xmlns="http://www.w3.org/2000/svg" xmlns:xlink="http://www.w3.org/1999/xlink">
<g id="graph1" class="graph" transform="scale(1 1) rotate(0) translate(4 167.431)">
<title>data_flow</title>
<polygon fill="white" stroke="white" points="-4,5 -4,-167.431 514,-167.431 514,5 -4,5"/>
<!-- CLIENT1 -->
<g id="node1" class="node"><title>CLIENT1</title>
<ellipse fill="none" stroke="black" cx="109" cy="-145.431" rx="37.8486" ry="18"/>
<text text-anchor="middle" x="109" y="-140.331" font-family="Times,serif" font-size="14.00">Client1</text>
</g>
<!-- HEAD -->
<g id="node3" class="node"><title>HEAD</title>
<ellipse fill="none" stroke="black" cx="54" cy="-48.4305" rx="53.9452" ry="18"/>
<text text-anchor="middle" x="54" y="-43.3305" font-family="Times,serif" font-size="14.00">Head Brick</text>
</g>
<!-- CLIENT1&#45;&gt;HEAD -->
<g id="edge4" class="edge"><title>CLIENT1&#45;&gt;HEAD</title>
<path fill="none" stroke="black" d="M80.4324,-133.306C70.5784,-127.586 60.6137,-119.716 55,-109.431 49.6721,-99.6685 48.5466,-87.6525 49.0724,-76.8737"/>
<polygon fill="black" stroke="black" points="52.5834,-76.9251 50.0542,-66.6366 45.6154,-76.2568 52.5834,-76.9251"/>
<text text-anchor="middle" x="98.5" y="-96.3305" font-family="Times,serif" font-size="14.00">Update request</text>
</g>
<!-- CLIENT2 -->
<g id="node2" class="node"><title>CLIENT2</title>
<ellipse fill="none" stroke="black" cx="312" cy="-145.431" rx="37.8486" ry="18"/>
<text text-anchor="middle" x="312" y="-140.331" font-family="Times,serif" font-size="14.00">Client2</text>
</g>
<!-- MIDDLE -->
<g id="node4" class="node"><title>MIDDLE</title>
<ellipse fill="none" stroke="black" cx="263" cy="-48.4305" rx="65.9683" ry="26.8701"/>
<text text-anchor="middle" x="263" y="-50.8305" font-family="Times,serif" font-size="14.00">Middle Brick</text>
<text text-anchor="middle" x="263" y="-35.8305" font-family="Times,serif" font-size="14.00">+Official Tail</text>
</g>
<!-- CLIENT2&#45;&gt;MIDDLE -->
<g id="edge16" class="edge"><title>CLIENT2&#45;&gt;MIDDLE</title>
<path fill="none" stroke="black" d="M285.778,-132.126C277.262,-126.382 268.782,-118.802 264,-109.431 260.31,-102.2 258.74,-93.8315 258.351,-85.6545"/>
<polygon fill="black" stroke="black" points="261.852,-85.5229 258.42,-75.4995 254.852,-85.4756 261.852,-85.5229"/>
<text text-anchor="middle" x="301.5" y="-96.3305" font-family="Times,serif" font-size="14.00">Read request</text>
</g>
<!-- HEAD&#45;&gt;MIDDLE -->
<g id="edge6" class="edge"><title>HEAD&#45;&gt;MIDDLE</title>
<path fill="none" stroke="black" d="M108.094,-48.4305C131.905,-48.4305 160.307,-48.4305 186.25,-48.4305"/>
<polygon fill="black" stroke="black" points="186.434,-51.9306 196.434,-48.4305 186.434,-44.9306 186.434,-51.9306"/>
<text text-anchor="middle" x="152" y="-50.8305" font-family="Times,serif" font-size="14.00">Replication</text>
</g>
<!-- MIDDLE&#45;&gt;CLIENT1 -->
<g id="edge8" class="edge"><title>MIDDLE&#45;&gt;CLIENT1</title>
<path fill="none" stroke="black" d="M220.865,-69.4481C207.26,-76.6429 192.271,-85.0106 179,-93.4305 164.563,-102.59 149.24,-113.788 136.623,-123.444"/>
<polygon fill="black" stroke="black" points="134.129,-120.949 128.365,-129.838 138.415,-126.483 134.129,-120.949"/>
<text text-anchor="middle" x="217" y="-96.3305" font-family="Times,serif" font-size="14.00">Update reply</text>
</g>
<!-- MIDDLE&#45;&gt;CLIENT2 -->
<g id="edge18" class="edge"><title>MIDDLE&#45;&gt;CLIENT2</title>
<path fill="none" stroke="black" d="M311.183,-66.921C322.246,-73.5489 332.621,-82.2405 339,-93.4305 344.116,-102.404 340.924,-112.441 335.212,-121.285"/>
<polygon fill="black" stroke="black" points="332.375,-119.233 329.151,-129.326 337.965,-123.447 332.375,-119.233"/>
<text text-anchor="middle" x="373" y="-96.3305" font-family="Times,serif" font-size="14.00">Read reply</text>
</g>
<!-- TAIL -->
<g id="node5" class="node"><title>TAIL</title>
<ellipse fill="none" stroke="black" cx="461" cy="-48.4305" rx="48.0957" ry="18"/>
<text text-anchor="middle" x="461" y="-43.3305" font-family="Times,serif" font-size="14.00">Tail Brick</text>
</g>
<!-- MIDDLE&#45;&gt;TAIL -->
<g id="edge10" class="edge"><title>MIDDLE&#45;&gt;TAIL</title>
<path fill="none" stroke="black" d="M329.758,-48.4305C353.416,-48.4305 379.831,-48.4305 402.727,-48.4305"/>
<polygon fill="black" stroke="black" points="402.976,-51.9306 412.976,-48.4305 402.976,-44.9306 402.976,-51.9306"/>
<text text-anchor="middle" x="371" y="-50.8305" font-family="Times,serif" font-size="14.00">Replication</text>
</g>
<!-- MIDDLE&#45;&gt;TAIL -->
<g id="edge12" class="edge"><title>MIDDLE&#45;&gt;TAIL</title>
<path fill="none" stroke="black" d="M317.588,-32.9361C324.413,-31.4928 331.336,-30.2616 338,-29.4305 367.108,-25.8009 375.045,-24.7319 404,-29.4305 408.524,-30.1647 413.174,-31.2065 417.774,-32.4288"/>
<polygon fill="black" stroke="black" points="417.113,-35.8826 427.694,-35.3434 419.086,-29.1664 417.113,-35.8826"/>
<text text-anchor="middle" x="371" y="-31.8305" font-family="Times,serif" font-size="14.00">Repair</text>
</g>
<!-- TAIL&#45;&gt;MIDDLE -->
<g id="edge14" class="edge"><title>TAIL&#45;&gt;MIDDLE</title>
<path fill="none" stroke="black" d="M444.201,-31.5484C433.643,-22.1722 419.181,-11.4195 404,-6.43054 376.133,2.72748 366.383,0.975587 338,-6.43054 326.832,-9.34478 315.566,-14.3318 305.281,-19.8731"/>
<polygon fill="black" stroke="black" points="303.489,-16.8655 296.522,-24.8473 306.946,-22.9524 303.489,-16.8655"/>
<text text-anchor="middle" x="371" y="-8.83054" font-family="Times,serif" font-size="14.00">Repair</text>
</g>
</g>
</svg>
