<?xml version="1.0" encoding="UTF-8" standalone="no"?>
<!DOCTYPE svg PUBLIC "-//W3C//DTD SVG 1.1//EN"
 "http://www.w3.org/Graphics/SVG/1.1/DTD/svg11.dtd">
<!-- Generated by graphviz version 2.26.3 (20100126.1600)
 -->
<!-- Title: data_flow Pages: 1 -->
<svg width="602pt" height="212pt"
 viewBox="0.00 0.00 602.00 212.00" xmlns="http://www.w3.org/2000/svg" xmlns:xlink="http://www.w3.org/1999/xlink">
<g id="graph1" class="graph" transform="scale(1 1) rotate(0) translate(4 208)">
<title>data_flow</title>
<polygon fill="white" stroke="white" points="-4,5 -4,-208 599,-208 599,5 -4,5"/>
<!-- BRICK11 -->
<g id="node2" class="node"><title>BRICK11</title>
<ellipse fill="none" stroke="black" cx="144" cy="-166" rx="144.25" ry="37.4767"/>
<text text-anchor="middle" x="144" y="-175.9" font-family="Times,serif" font-size="14.00">Role: Head</text>
<text text-anchor="middle" x="144" y="-160.9" font-family="Times,serif" font-size="14.00">BrickName: tab1_ch1_b1</text>
<text text-anchor="middle" x="144" y="-145.9" font-family="Times,serif" font-size="14.00">NodeName: &#39;gdss1@machine&#45;1&#39;</text>
</g>
<!-- BRICK12 -->
<g id="node5" class="node"><title>BRICK12</title>
<ellipse fill="none" stroke="black" cx="144" cy="-38" rx="144.25" ry="37.4767"/>
<text text-anchor="middle" x="144" y="-47.9" font-family="Times,serif" font-size="14.00">Role: Tail</text>
<text text-anchor="middle" x="144" y="-32.9" font-family="Times,serif" font-size="14.00">BrickName: tab1_ch1_b2</text>
<text text-anchor="middle" x="144" y="-17.9" font-family="Times,serif" font-size="14.00">NodeName: &#39;gdss1@machine&#45;2&#39;</text>
</g>
<!-- BRICK11&#45;&gt;BRICK12 -->
<g id="edge4" class="edge"><title>BRICK11&#45;&gt;BRICK12</title>
<path fill="none" stroke="black" d="M144,-128.288C144,-115.125 144,-100.166 144,-86.2631"/>
<polygon fill="black" stroke="black" points="147.5,-85.8847 144,-75.8847 140.5,-85.8847 147.5,-85.8847"/>
<text text-anchor="middle" x="177" y="-96.9" font-family="Times,serif" font-size="14.00">Replication</text>
</g>
<!-- BRICK22 -->
<g id="node3" class="node"><title>BRICK22</title>
<ellipse fill="none" stroke="black" cx="450" cy="-166" rx="144.25" ry="37.4767"/>
<text text-anchor="middle" x="450" y="-175.9" font-family="Times,serif" font-size="14.00">Role: Tail</text>
<text text-anchor="middle" x="450" y="-160.9" font-family="Times,serif" font-size="14.00">BrickName: tab1_ch2_b2</text>
<text text-anchor="middle" x="450" y="-145.9" font-family="Times,serif" font-size="14.00">NodeName: &#39;gdss1@machine&#45;1&#39;</text>
</g>
<!-- BRICK21 -->
<g id="node6" class="node"><title>BRICK21</title>
<ellipse fill="none" stroke="black" cx="450" cy="-38" rx="144.25" ry="37.4767"/>
<text text-anchor="middle" x="450" y="-47.9" font-family="Times,serif" font-size="14.00">Role: Head</text>
<text text-anchor="middle" x="450" y="-32.9" font-family="Times,serif" font-size="14.00">BrickName: tab1_ch2_b1</text>
<text text-anchor="middle" x="450" y="-17.9" font-family="Times,serif" font-size="14.00">NodeName: &#39;gdss1@machine&#45;2&#39;</text>
</g>
<!-- BRICK21&#45;&gt;BRICK22 -->
<g id="edge6" class="edge"><title>BRICK21&#45;&gt;BRICK22</title>
<path fill="none" stroke="black" d="M450,-75.8847C450,-89.0636 450,-104.026 450,-117.919"/>
<polygon fill="black" stroke="black" points="446.5,-118.288 450,-128.288 453.5,-118.288 446.5,-118.288"/>
<text text-anchor="middle" x="483" y="-96.9" font-family="Times,serif" font-size="14.00">Replication</text>
</g>
</g>
</svg>
