<?xml version="1.0" encoding="UTF-8" standalone="no"?>
<!DOCTYPE svg PUBLIC "-//W3C//DTD SVG 1.1//EN"
 "http://www.w3.org/Graphics/SVG/1.1/DTD/svg11.dtd">
<!-- Generated by graphviz version 2.26.0 (20091210.2329)
 -->
<!-- Title: data_flow Pages: 1 -->
<svg width="570pt" height="248pt"
 viewBox="0.00 0.00 570.00 248.00" xmlns="http://www.w3.org/2000/svg" xmlns:xlink="http://www.w3.org/1999/xlink">
<g id="graph1" class="graph" transform="scale(1 1) rotate(0) translate(4 244)">
<title>data_flow</title>
<polygon fill="white" stroke="white" points="-4,5 -4,-244 567,-244 567,5 -4,5"/>
<!-- BRICK11 -->
<g id="node2" class="node"><title>BRICK11</title>
<ellipse fill="none" stroke="black" cx="136" cy="-194" rx="135.765" ry="45.9619"/>
<text text-anchor="middle" x="136" y="-209.9" font-family="Times Roman,serif" font-size="14.00">Role: Head</text>
<text text-anchor="middle" x="136" y="-190.9" font-family="Times Roman,serif" font-size="14.00">BrickName: tab1_ch1_b1</text>
<text text-anchor="middle" x="136" y="-171.9" font-family="Times Roman,serif" font-size="14.00">NodeName: &#39;gdss1@machine&#45;1&#39;</text>
</g>
<!-- BRICK12 -->
<g id="node5" class="node"><title>BRICK12</title>
<ellipse fill="none" stroke="black" cx="136" cy="-46" rx="135.765" ry="45.9619"/>
<text text-anchor="middle" x="136" y="-61.9" font-family="Times Roman,serif" font-size="14.00">Role: Tail</text>
<text text-anchor="middle" x="136" y="-42.9" font-family="Times Roman,serif" font-size="14.00">BrickName: tab1_ch1_b2</text>
<text text-anchor="middle" x="136" y="-23.9" font-family="Times Roman,serif" font-size="14.00">NodeName: &#39;gdss1@machine&#45;2&#39;</text>
</g>
<!-- BRICK11&#45;&gt;BRICK12 -->
<g id="edge4" class="edge"><title>BRICK11&#45;&gt;BRICK12</title>
<path fill="none" stroke="black" d="M136,-147.983C136,-133.574 136,-117.504 136,-102.461"/>
<polygon fill="black" stroke="black" points="139.5,-102.243 136,-92.2431 132.5,-102.243 139.5,-102.243"/>
<text text-anchor="middle" x="167.5" y="-116.9" font-family="Times Roman,serif" font-size="14.00">Replication</text>
</g>
<!-- BRICK22 -->
<g id="node3" class="node"><title>BRICK22</title>
<ellipse fill="none" stroke="black" cx="426" cy="-194" rx="135.765" ry="45.9619"/>
<text text-anchor="middle" x="426" y="-209.9" font-family="Times Roman,serif" font-size="14.00">Role: Tail</text>
<text text-anchor="middle" x="426" y="-190.9" font-family="Times Roman,serif" font-size="14.00">BrickName: tab1_ch2_b2</text>
<text text-anchor="middle" x="426" y="-171.9" font-family="Times Roman,serif" font-size="14.00">NodeName: &#39;gdss1@machine&#45;1&#39;</text>
</g>
<!-- BRICK21 -->
<g id="node6" class="node"><title>BRICK21</title>
<ellipse fill="none" stroke="black" cx="426" cy="-46" rx="135.765" ry="45.9619"/>
<text text-anchor="middle" x="426" y="-61.9" font-family="Times Roman,serif" font-size="14.00">Role: Head</text>
<text text-anchor="middle" x="426" y="-42.9" font-family="Times Roman,serif" font-size="14.00">BrickName: tab1_ch2_b1</text>
<text text-anchor="middle" x="426" y="-23.9" font-family="Times Roman,serif" font-size="14.00">NodeName: &#39;gdss1@machine&#45;2&#39;</text>
</g>
<!-- BRICK21&#45;&gt;BRICK22 -->
<g id="edge6" class="edge"><title>BRICK21&#45;&gt;BRICK22</title>
<path fill="none" stroke="black" d="M426,-92.2431C426,-106.67 426,-122.743 426,-137.775"/>
<polygon fill="black" stroke="black" points="422.5,-137.983 426,-147.983 429.5,-137.983 422.5,-137.983"/>
<text text-anchor="middle" x="457.5" y="-116.9" font-family="Times Roman,serif" font-size="14.00">Replication</text>
</g>
</g>
</svg>
