<?xml version="1.0" encoding="UTF-8" standalone="no"?>
<!DOCTYPE svg PUBLIC "-//W3C//DTD SVG 1.1//EN"
 "http://www.w3.org/Graphics/SVG/1.1/DTD/svg11.dtd">
<!-- Generated by graphviz version 2.28.0 (20120122.0658)
 -->
<!-- Title: data_flow Pages: 1 -->
<svg width="579pt" height="230pt"
 viewBox="0.00 0.00 579.00 230.00" xmlns="http://www.w3.org/2000/svg" xmlns:xlink="http://www.w3.org/1999/xlink">
<g id="graph1" class="graph" transform="scale(1 1) rotate(0) translate(4 226)">
<title>data_flow</title>
<polygon fill="white" stroke="white" points="-4,5 -4,-226 576,-226 576,5 -4,5"/>
<!-- BRICK11 -->
<g id="node2" class="node"><title>BRICK11</title>
<ellipse fill="none" stroke="black" cx="138" cy="-180" rx="138.451" ry="41.0911"/>
<text text-anchor="middle" x="138" y="-191.2" font-family="Times,serif" font-size="14.00">Role: Head</text>
<text text-anchor="middle" x="138" y="-174.4" font-family="Times,serif" font-size="14.00">BrickName: tab1_ch1_b1</text>
<text text-anchor="middle" x="138" y="-157.6" font-family="Times,serif" font-size="14.00">NodeName: &#39;gdss1@machine&#45;1&#39;</text>
</g>
<!-- BRICK12 -->
<g id="node5" class="node"><title>BRICK12</title>
<ellipse fill="none" stroke="black" cx="138" cy="-42" rx="138.451" ry="41.0911"/>
<text text-anchor="middle" x="138" y="-53.2" font-family="Times,serif" font-size="14.00">Role: Tail</text>
<text text-anchor="middle" x="138" y="-36.4" font-family="Times,serif" font-size="14.00">BrickName: tab1_ch1_b2</text>
<text text-anchor="middle" x="138" y="-19.6" font-family="Times,serif" font-size="14.00">NodeName: &#39;gdss1@machine&#45;2&#39;</text>
</g>
<!-- BRICK11&#45;&gt;BRICK12 -->
<g id="edge4" class="edge"><title>BRICK11&#45;&gt;BRICK12</title>
<path fill="none" stroke="black" d="M138,-138.564C138,-124.441 138,-108.408 138,-93.5639"/>
<polygon fill="black" stroke="black" points="141.5,-93.5153 138,-83.5153 134.5,-93.5153 141.5,-93.5153"/>
<text text-anchor="middle" x="170.269" y="-105.4" font-family="Times,serif" font-size="14.00">Replication</text>
</g>
<!-- BRICK22 -->
<g id="node3" class="node"><title>BRICK22</title>
<ellipse fill="none" stroke="black" cx="433" cy="-180" rx="138.451" ry="41.0911"/>
<text text-anchor="middle" x="433" y="-191.2" font-family="Times,serif" font-size="14.00">Role: Tail</text>
<text text-anchor="middle" x="433" y="-174.4" font-family="Times,serif" font-size="14.00">BrickName: tab1_ch2_b2</text>
<text text-anchor="middle" x="433" y="-157.6" font-family="Times,serif" font-size="14.00">NodeName: &#39;gdss1@machine&#45;1&#39;</text>
</g>
<!-- BRICK21 -->
<g id="node6" class="node"><title>BRICK21</title>
<ellipse fill="none" stroke="black" cx="433" cy="-42" rx="138.451" ry="41.0911"/>
<text text-anchor="middle" x="433" y="-53.2" font-family="Times,serif" font-size="14.00">Role: Head</text>
<text text-anchor="middle" x="433" y="-36.4" font-family="Times,serif" font-size="14.00">BrickName: tab1_ch2_b1</text>
<text text-anchor="middle" x="433" y="-19.6" font-family="Times,serif" font-size="14.00">NodeName: &#39;gdss1@machine&#45;2&#39;</text>
</g>
<!-- BRICK21&#45;&gt;BRICK22 -->
<g id="edge6" class="edge"><title>BRICK21&#45;&gt;BRICK22</title>
<path fill="none" stroke="black" d="M433,-83.5153C433,-97.6456 433,-113.68 433,-128.519"/>
<polygon fill="black" stroke="black" points="429.5,-128.564 433,-138.564 436.5,-128.564 429.5,-128.564"/>
<text text-anchor="middle" x="465.269" y="-105.4" font-family="Times,serif" font-size="14.00">Replication</text>
</g>
</g>
</svg>
