<?xml version="1.0" encoding="UTF-8" standalone="no"?>
<!DOCTYPE svg PUBLIC "-//W3C//DTD SVG 1.1//EN"
 "http://www.w3.org/Graphics/SVG/1.1/DTD/svg11.dtd">
<!-- Generated by graphviz version 2.38.0 (20140413.2041)
 -->
<!-- Title: data_flow Pages: 1 -->
<svg width="572pt" height="209pt"
 viewBox="0.00 0.00 571.94 208.91" xmlns="http://www.w3.org/2000/svg" xmlns:xlink="http://www.w3.org/1999/xlink">
<g id="graph0" class="graph" transform="scale(1 1) rotate(0) translate(4 204.907)">
<title>data_flow</title>
<polygon fill="white" stroke="none" points="-4,4 -4,-204.907 567.943,-204.907 567.943,4 -4,4"/>
<!-- BRICK11 -->
<g id="node1" class="node"><title>BRICK11</title>
<ellipse fill="none" stroke="black" cx="136.472" cy="-163.43" rx="136.443" ry="37.4533"/>
<text text-anchor="middle" x="136.472" y="-174.73" font-family="Times,serif" font-size="14.00">Role: Head</text>
<text text-anchor="middle" x="136.472" y="-159.73" font-family="Times,serif" font-size="14.00">BrickName: tab1_ch1_b1</text>
<text text-anchor="middle" x="136.472" y="-144.73" font-family="Times,serif" font-size="14.00">NodeName: &#39;gdss1@machine&#45;1&#39;</text>
</g>
<!-- BRICK12 -->
<g id="node3" class="node"><title>BRICK12</title>
<ellipse fill="none" stroke="black" cx="136.472" cy="-37.4767" rx="136.443" ry="37.4533"/>
<text text-anchor="middle" x="136.472" y="-48.7767" font-family="Times,serif" font-size="14.00">Role: Tail</text>
<text text-anchor="middle" x="136.472" y="-33.7767" font-family="Times,serif" font-size="14.00">BrickName: tab1_ch1_b2</text>
<text text-anchor="middle" x="136.472" y="-18.7767" font-family="Times,serif" font-size="14.00">NodeName: &#39;gdss1@machine&#45;2&#39;</text>
</g>
<!-- BRICK11&#45;&gt;BRICK12 -->
<g id="edge1" class="edge"><title>BRICK11&#45;&gt;BRICK12</title>
<path fill="none" stroke="black" d="M136.472,-125.91C136.472,-113.163 136.472,-98.6771 136.472,-85.2139"/>
<polygon fill="black" stroke="black" points="139.972,-85.1636 136.472,-75.1636 132.972,-85.1637 139.972,-85.1636"/>
<text text-anchor="middle" x="168.472" y="-96.7533" font-family="Times,serif" font-size="14.00">Replication</text>
</g>
<!-- BRICK22 -->
<g id="node2" class="node"><title>BRICK22</title>
<ellipse fill="none" stroke="black" cx="427.472" cy="-163.43" rx="136.443" ry="37.4533"/>
<text text-anchor="middle" x="427.472" y="-174.73" font-family="Times,serif" font-size="14.00">Role: Tail</text>
<text text-anchor="middle" x="427.472" y="-159.73" font-family="Times,serif" font-size="14.00">BrickName: tab1_ch2_b2</text>
<text text-anchor="middle" x="427.472" y="-144.73" font-family="Times,serif" font-size="14.00">NodeName: &#39;gdss1@machine&#45;1&#39;</text>
</g>
<!-- BRICK21 -->
<g id="node4" class="node"><title>BRICK21</title>
<ellipse fill="none" stroke="black" cx="427.472" cy="-37.4767" rx="136.443" ry="37.4533"/>
<text text-anchor="middle" x="427.472" y="-48.7767" font-family="Times,serif" font-size="14.00">Role: Head</text>
<text text-anchor="middle" x="427.472" y="-33.7767" font-family="Times,serif" font-size="14.00">BrickName: tab1_ch2_b1</text>
<text text-anchor="middle" x="427.472" y="-18.7767" font-family="Times,serif" font-size="14.00">NodeName: &#39;gdss1@machine&#45;2&#39;</text>
</g>
<!-- BRICK21&#45;&gt;BRICK22 -->
<g id="edge2" class="edge"><title>BRICK21&#45;&gt;BRICK22</title>
<path fill="none" stroke="black" d="M427.472,-75.1636C427.472,-87.9259 427.472,-102.415 427.472,-115.869"/>
<polygon fill="black" stroke="black" points="423.972,-115.91 427.472,-125.91 430.972,-115.91 423.972,-115.91"/>
<text text-anchor="middle" x="459.472" y="-96.7533" font-family="Times,serif" font-size="14.00">Replication</text>
</g>
</g>
</svg>
