<?xml version="1.0" encoding="UTF-8" standalone="no"?>
<!DOCTYPE svg PUBLIC "-//W3C//DTD SVG 1.1//EN"
 "http://www.w3.org/Graphics/SVG/1.1/DTD/svg11.dtd">
<!-- Generated by graphviz version 2.28.0 (20120122.0658)
 -->
<!-- Title: data_flow Pages: 1 -->
<svg width="538pt" height="158pt"
 viewBox="0.00 0.00 538.00 158.00" xmlns="http://www.w3.org/2000/svg" xmlns:xlink="http://www.w3.org/1999/xlink">
<g id="graph1" class="graph" transform="scale(1 1) rotate(0) translate(4 154)">
<title>data_flow</title>
<polygon fill="white" stroke="white" points="-4,5 -4,-154 535,-154 535,5 -4,5"/>
<!-- CLIENT -->
<g id="node1" class="node"><title>CLIENT</title>
<ellipse fill="none" stroke="black" cx="260" cy="-132" rx="34.4613" ry="18"/>
<text text-anchor="middle" x="260" y="-126.4" font-family="Times,serif" font-size="14.00">Client</text>
</g>
<!-- HEAD -->
<g id="node2" class="node"><title>HEAD</title>
<ellipse fill="none" stroke="black" cx="55" cy="-30" rx="54.9217" ry="18"/>
<text text-anchor="middle" x="55" y="-24.4" font-family="Times,serif" font-size="14.00">Head Brick</text>
</g>
<!-- CLIENT&#45;&gt;HEAD -->
<g id="edge3" class="edge"><title>CLIENT&#45;&gt;HEAD</title>
<path fill="none" stroke="black" d="M235.679,-119.136C200.478,-101.965 134.99,-70.0197 93.2742,-49.6703"/>
<polygon fill="black" stroke="black" points="94.7627,-46.5022 84.2405,-45.2636 91.6937,-52.7936 94.7627,-46.5022"/>
<text text-anchor="middle" x="230.178" y="-81.4" font-family="Times,serif" font-size="14.00">Update request</text>
</g>
<!-- MIDDLE -->
<g id="node3" class="node"><title>MIDDLE</title>
<ellipse fill="none" stroke="black" cx="256" cy="-30" rx="62.2036" ry="18"/>
<text text-anchor="middle" x="256" y="-24.4" font-family="Times,serif" font-size="14.00">Middle Brick</text>
</g>
<!-- HEAD&#45;&gt;MIDDLE -->
<g id="edge5" class="edge"><title>HEAD&#45;&gt;MIDDLE</title>
<path fill="none" stroke="black" d="M110.19,-30C132.765,-30 159.199,-30 183.313,-30"/>
<polygon fill="black" stroke="black" points="183.488,-33.5001 193.488,-30 183.488,-26.5001 183.488,-33.5001"/>
<text text-anchor="middle" x="151.599" y="-35.8" font-family="Times,serif" font-size="14.00">Replication</text>
</g>
<!-- TAIL -->
<g id="node4" class="node"><title>TAIL</title>
<ellipse fill="none" stroke="black" cx="466" cy="-30" rx="64.5313" ry="29.3315"/>
<text text-anchor="middle" x="466" y="-32.8" font-family="Times,serif" font-size="14.00">Tail Brick</text>
<text text-anchor="middle" x="466" y="-16" font-family="Times,serif" font-size="14.00">+Official Tail</text>
</g>
<!-- MIDDLE&#45;&gt;TAIL -->
<g id="edge7" class="edge"><title>MIDDLE&#45;&gt;TAIL</title>
<path fill="none" stroke="black" d="M318.438,-30C341.395,-30 367.619,-30 391.529,-30"/>
<polygon fill="black" stroke="black" points="391.619,-33.5001 401.618,-30 391.618,-26.5001 391.619,-33.5001"/>
<text text-anchor="middle" x="359.656" y="-35.8" font-family="Times,serif" font-size="14.00">Replication</text>
</g>
<!-- TAIL&#45;&gt;CLIENT -->
<g id="edge9" class="edge"><title>TAIL&#45;&gt;CLIENT</title>
<path fill="none" stroke="black" d="M422.941,-51.9024C384.55,-70.539 329.118,-97.4476 293.828,-114.578"/>
<polygon fill="black" stroke="black" points="291.907,-111.62 284.44,-119.136 294.964,-117.918 291.907,-111.62"/>
<text text-anchor="middle" x="406.347" y="-81.4" font-family="Times,serif" font-size="14.00">Update reply</text>
</g>
</g>
</svg>
