<?xml version="1.0" encoding="UTF-8" standalone="no"?>
<!DOCTYPE svg PUBLIC "-//W3C//DTD SVG 1.1//EN"
 "http://www.w3.org/Graphics/SVG/1.1/DTD/svg11.dtd">
<!-- Generated by graphviz version 2.38.0 (20140413.2041)
 -->
<!-- Title: data_flow Pages: 1 -->
<svg width="185pt" height="131pt"
 viewBox="0.00 0.00 185.44 131.00" xmlns="http://www.w3.org/2000/svg" xmlns:xlink="http://www.w3.org/1999/xlink">
<g id="graph0" class="graph" transform="scale(1 1) rotate(0) translate(4 127)">
<title>data_flow</title>
<polygon fill="white" stroke="none" points="-4,4 -4,-127 181.443,-127 181.443,4 -4,4"/>
<!-- CLIENT -->
<g id="node1" class="node"><title>CLIENT</title>
<ellipse fill="none" stroke="black" cx="73.4435" cy="-105" rx="33.2948" ry="18"/>
<text text-anchor="middle" x="73.4435" y="-101.3" font-family="Times,serif" font-size="14.00">Client</text>
</g>
<!-- HEAD -->
<g id="node2" class="node"><title>HEAD</title>
<ellipse fill="none" stroke="black" cx="73.4435" cy="-18" rx="73.387" ry="18"/>
<text text-anchor="middle" x="73.4435" y="-14.3" font-family="Times,serif" font-size="14.00">Standalone Brick</text>
</g>
<!-- CLIENT&#45;&gt;HEAD -->
<g id="edge1" class="edge"><title>CLIENT&#45;&gt;HEAD</title>
<path fill="none" stroke="black" d="M47.7572,-93.2964C37.6497,-87.6588 27.1196,-79.6626 21.4435,-69 15.6282,-58.0761 22.0494,-48.1358 32.1273,-40.0474"/>
<polygon fill="black" stroke="black" points="34.2304,-42.8474 40.4045,-34.2375 30.2087,-37.1179 34.2304,-42.8474"/>
<text text-anchor="middle" x="63.4435" y="-57.8" font-family="Times,serif" font-size="14.00">Update request</text>
</g>
<!-- HEAD&#45;&gt;CLIENT -->
<g id="edge2" class="edge"><title>HEAD&#45;&gt;CLIENT</title>
<path fill="none" stroke="black" d="M93.8823,-35.6694C102.705,-44.9835 110.069,-57.0867 105.443,-69 103.674,-73.5571 101.004,-77.8831 97.9467,-81.84"/>
<polygon fill="black" stroke="black" points="95.272,-79.5814 91.2902,-89.3996 100.526,-84.2074 95.272,-79.5814"/>
<text text-anchor="middle" x="141.943" y="-57.8" font-family="Times,serif" font-size="14.00">Update reply</text>
</g>
</g>
</svg>
