<?xml version="1.0" encoding="UTF-8" standalone="no"?>
<!DOCTYPE svg PUBLIC "-//W3C//DTD SVG 1.1//EN"
 "http://www.w3.org/Graphics/SVG/1.1/DTD/svg11.dtd">
<!-- Generated by graphviz version 2.28.0 (20120122.0658)
 -->
<!-- Title: data_flow Pages: 1 -->
<svg width="192pt" height="134pt"
 viewBox="0.00 0.00 191.69 134.00" xmlns="http://www.w3.org/2000/svg" xmlns:xlink="http://www.w3.org/1999/xlink">
<g id="graph1" class="graph" transform="scale(1 1) rotate(0) translate(4 130)">
<title>data_flow</title>
<polygon fill="white" stroke="white" points="-4,5 -4,-130 188.693,-130 188.693,5 -4,5"/>
<!-- CLIENT -->
<g id="node1" class="node"><title>CLIENT</title>
<ellipse fill="none" stroke="black" cx="77" cy="-108" rx="34.4613" ry="18"/>
<text text-anchor="middle" x="77" y="-102.4" font-family="Times,serif" font-size="14.00">Client</text>
</g>
<!-- HEAD -->
<g id="node2" class="node"><title>HEAD</title>
<ellipse fill="none" stroke="black" cx="77" cy="-18" rx="77.2234" ry="18"/>
<text text-anchor="middle" x="77" y="-12.4" font-family="Times,serif" font-size="14.00">Standalone Brick</text>
</g>
<!-- CLIENT&#45;&gt;HEAD -->
<g id="edge3" class="edge"><title>CLIENT&#45;&gt;HEAD</title>
<path fill="none" stroke="black" d="M50.8677,-96.1833C40.7763,-90.5611 30.3127,-82.6074 24.6445,-72 20.8742,-64.9442 20.8742,-61.0558 24.6445,-54 27.3176,-48.9977 31.0572,-44.5855 35.3212,-40.7297"/>
<polygon fill="black" stroke="black" points="37.72,-43.2972 43.4459,-34.3829 33.4107,-37.7808 37.72,-43.2972"/>
<text text-anchor="middle" x="67.1777" y="-57.4" font-family="Times,serif" font-size="14.00">Update request</text>
</g>
<!-- HEAD&#45;&gt;CLIENT -->
<g id="edge5" class="edge"><title>HEAD&#45;&gt;CLIENT</title>
<path fill="none" stroke="black" d="M96.868,-35.7098C101.777,-40.9995 106.378,-47.2459 109,-54 111.895,-61.4577 111.895,-64.5423 109,-72 107.231,-76.5571 104.561,-80.8831 101.503,-84.84"/>
<polygon fill="black" stroke="black" points="98.8285,-82.5814 94.8467,-92.3996 104.082,-87.2074 98.8285,-82.5814"/>
<text text-anchor="middle" x="147.347" y="-57.4" font-family="Times,serif" font-size="14.00">Update reply</text>
</g>
</g>
</svg>
