<?xml version="1.0" encoding="UTF-8" standalone="no"?>
<!DOCTYPE svg PUBLIC "-//W3C//DTD SVG 1.1//EN"
 "http://www.w3.org/Graphics/SVG/1.1/DTD/svg11.dtd">
<!-- Generated by graphviz version 2.38.0 (20140413.2041)
 -->
<!-- Title: data_flow Pages: 1 -->
<svg width="519pt" height="149pt"
 viewBox="0.00 0.00 519.40 148.74" xmlns="http://www.w3.org/2000/svg" xmlns:xlink="http://www.w3.org/1999/xlink">
<g id="graph0" class="graph" transform="scale(1 1) rotate(0) translate(4 144.74)">
<title>data_flow</title>
<polygon fill="white" stroke="none" points="-4,4 -4,-144.74 515.399,-144.74 515.399,4 -4,4"/>
<!-- CLIENT -->
<g id="node1" class="node"><title>CLIENT</title>
<ellipse fill="none" stroke="black" cx="248.345" cy="-122.74" rx="33.2948" ry="18"/>
<text text-anchor="middle" x="248.345" y="-119.04" font-family="Times,serif" font-size="14.00">Client</text>
</g>
<!-- HEAD -->
<g id="node2" class="node"><title>HEAD</title>
<ellipse fill="none" stroke="black" cx="51.3454" cy="-26.8701" rx="51.1914" ry="18"/>
<text text-anchor="middle" x="51.3454" y="-23.1701" font-family="Times,serif" font-size="14.00">Head Brick</text>
</g>
<!-- CLIENT&#45;&gt;HEAD -->
<g id="edge1" class="edge"><title>CLIENT&#45;&gt;HEAD</title>
<path fill="none" stroke="black" d="M224.189,-110.23C190.613,-94.2306 129.481,-65.1017 89.65,-46.1221"/>
<polygon fill="black" stroke="black" points="91.0393,-42.9071 80.5062,-41.7651 88.0282,-49.2264 91.0393,-42.9071"/>
<text text-anchor="middle" x="215.345" y="-75.5401" font-family="Times,serif" font-size="14.00">Update request</text>
</g>
<!-- MIDDLE -->
<g id="node3" class="node"><title>MIDDLE</title>
<ellipse fill="none" stroke="black" cx="242.345" cy="-26.8701" rx="57.6901" ry="18"/>
<text text-anchor="middle" x="242.345" y="-23.1701" font-family="Times,serif" font-size="14.00">Middle Brick</text>
</g>
<!-- HEAD&#45;&gt;MIDDLE -->
<g id="edge2" class="edge"><title>HEAD&#45;&gt;MIDDLE</title>
<path fill="none" stroke="black" d="M102.781,-26.8701C124.726,-26.8701 150.646,-26.8701 174.155,-26.8701"/>
<polygon fill="black" stroke="black" points="174.413,-30.3702 184.413,-26.8701 174.413,-23.3702 174.413,-30.3702"/>
<text text-anchor="middle" x="143.596" y="-33.6701" font-family="Times,serif" font-size="14.00">Replication</text>
</g>
<!-- TAIL -->
<g id="node4" class="node"><title>TAIL</title>
<ellipse fill="none" stroke="black" cx="446.345" cy="-26.8701" rx="65.1077" ry="26.7407"/>
<text text-anchor="middle" x="446.345" y="-30.6701" font-family="Times,serif" font-size="14.00">Tail Brick</text>
<text text-anchor="middle" x="446.345" y="-15.6701" font-family="Times,serif" font-size="14.00">+Official Tail</text>
</g>
<!-- MIDDLE&#45;&gt;TAIL -->
<g id="edge3" class="edge"><title>MIDDLE&#45;&gt;TAIL</title>
<path fill="none" stroke="black" d="M300.258,-26.8701C322.217,-26.8701 347.551,-26.8701 370.892,-26.8701"/>
<polygon fill="black" stroke="black" points="371.106,-30.3702 381.106,-26.8701 371.106,-23.3702 371.106,-30.3702"/>
<text text-anchor="middle" x="340.741" y="-33.6701" font-family="Times,serif" font-size="14.00">Replication</text>
</g>
<!-- TAIL&#45;&gt;CLIENT -->
<g id="edge4" class="edge"><title>TAIL&#45;&gt;CLIENT</title>
<path fill="none" stroke="black" d="M404.566,-47.6771C368.121,-64.9554 315.921,-89.7029 282.077,-105.748"/>
<polygon fill="black" stroke="black" points="280.161,-102.783 272.624,-110.23 283.159,-109.108 280.161,-102.783"/>
<text text-anchor="middle" x="388.845" y="-75.5401" font-family="Times,serif" font-size="14.00">Update reply</text>
</g>
</g>
</svg>
