<?xml version="1.0" encoding="UTF-8" standalone="no"?>
<!DOCTYPE svg PUBLIC "-//W3C//DTD SVG 1.1//EN"
 "http://www.w3.org/Graphics/SVG/1.1/DTD/svg11.dtd">
<!-- Generated by graphviz version 2.26.3 (20100126.1600)
 -->
<!-- Title: data_flow Pages: 1 -->
<svg width="190pt" height="140pt"
 viewBox="0.00 0.00 190.00 140.00" xmlns="http://www.w3.org/2000/svg" xmlns:xlink="http://www.w3.org/1999/xlink">
<g id="graph1" class="graph" transform="scale(1 1) rotate(0) translate(4 136)">
<title>data_flow</title>
<polygon fill="white" stroke="white" points="-4,5 -4,-136 187,-136 187,5 -4,5"/>
<!-- CLIENT -->
<g id="node1" class="node"><title>CLIENT</title>
<ellipse fill="none" stroke="black" cx="78" cy="-113" rx="34.8574" ry="19.0919"/>
<text text-anchor="middle" x="78" y="-109.9" font-family="Times Roman,serif" font-size="14.00">Client</text>
</g>
<!-- HEAD -->
<g id="node2" class="node"><title>HEAD</title>
<ellipse fill="none" stroke="black" cx="78" cy="-19" rx="77.7817" ry="19.0919"/>
<text text-anchor="middle" x="78" y="-15.9" font-family="Times Roman,serif" font-size="14.00">Standalone Brick</text>
</g>
<!-- CLIENT&#45;&gt;HEAD -->
<g id="edge3" class="edge"><title>CLIENT&#45;&gt;HEAD</title>
<path fill="none" stroke="black" d="M51.4161,-100.417C41.9169,-94.4486 32.2677,-86.3296 27,-76 22.9618,-68.0813 22.9618,-63.9187 27,-56 29.4226,-51.2494 32.772,-46.9663 36.6073,-43.145"/>
<polygon fill="black" stroke="black" points="39.1813,-45.5469 44.4659,-36.3641 34.6083,-40.2471 39.1813,-45.5469"/>
<text text-anchor="middle" x="68" y="-62.9" font-family="Times Roman,serif" font-size="14.00">Update request</text>
</g>
<!-- HEAD&#45;&gt;CLIENT -->
<g id="edge5" class="edge"><title>HEAD&#45;&gt;CLIENT</title>
<path fill="none" stroke="black" d="M97.9202,-37.704C102.43,-43.1264 106.595,-49.3842 109,-56 112.037,-64.3539 112.037,-67.6461 109,-76 107.411,-80.3711 105.054,-84.586 102.336,-88.5069"/>
<polygon fill="black" stroke="black" points="99.4216,-86.5505 95.9702,-96.5674 104.915,-90.8891 99.4216,-86.5505"/>
<text text-anchor="middle" x="146.5" y="-62.9" font-family="Times Roman,serif" font-size="14.00">Update reply</text>
</g>
</g>
</svg>
