<?xml version="1.0" encoding="UTF-8" standalone="no"?>
<!DOCTYPE svg PUBLIC "-//W3C//DTD SVG 1.1//EN"
 "http://www.w3.org/Graphics/SVG/1.1/DTD/svg11.dtd">
<!-- Generated by graphviz version 2.26.3 (20100126.1600)
 -->
<!-- Title: data_flow Pages: 1 -->
<svg width="536pt" height="150pt"
 viewBox="0.00 0.00 536.00 150.00" xmlns="http://www.w3.org/2000/svg" xmlns:xlink="http://www.w3.org/1999/xlink">
<g id="graph1" class="graph" transform="scale(1 1) rotate(0) translate(4 146)">
<title>data_flow</title>
<polygon fill="white" stroke="white" points="-4,5 -4,-146 533,-146 533,5 -4,5"/>
<!-- CLIENT -->
<g id="node1" class="node"><title>CLIENT</title>
<ellipse fill="none" stroke="black" cx="258" cy="-124" rx="33.1471" ry="18"/>
<text text-anchor="middle" x="258" y="-118.9" font-family="Times,serif" font-size="14.00">Client</text>
</g>
<!-- HEAD -->
<g id="node2" class="node"><title>HEAD</title>
<ellipse fill="none" stroke="black" cx="54" cy="-27" rx="53.9452" ry="18"/>
<text text-anchor="middle" x="54" y="-21.9" font-family="Times,serif" font-size="14.00">Head Brick</text>
</g>
<!-- CLIENT&#45;&gt;HEAD -->
<g id="edge3" class="edge"><title>CLIENT&#45;&gt;HEAD</title>
<path fill="none" stroke="black" d="M232.986,-112.106C198.439,-95.6791 135.722,-65.8582 94.4612,-46.2389"/>
<polygon fill="black" stroke="black" points="95.7671,-42.9844 85.2331,-41.851 92.7612,-49.3061 95.7671,-42.9844"/>
<text text-anchor="middle" x="224.5" y="-74.9" font-family="Times,serif" font-size="14.00">Update request</text>
</g>
<!-- MIDDLE -->
<g id="node3" class="node"><title>MIDDLE</title>
<ellipse fill="none" stroke="black" cx="253" cy="-27" rx="61.0946" ry="18"/>
<text text-anchor="middle" x="253" y="-21.9" font-family="Times,serif" font-size="14.00">Middle Brick</text>
</g>
<!-- HEAD&#45;&gt;MIDDLE -->
<g id="edge5" class="edge"><title>HEAD&#45;&gt;MIDDLE</title>
<path fill="none" stroke="black" d="M108.115,-27C130.774,-27 157.429,-27 181.658,-27"/>
<polygon fill="black" stroke="black" points="181.874,-30.5001 191.874,-27 181.874,-23.5001 181.874,-30.5001"/>
<text text-anchor="middle" x="150" y="-29.4" font-family="Times,serif" font-size="14.00">Replication</text>
</g>
<!-- TAIL -->
<g id="node4" class="node"><title>TAIL</title>
<ellipse fill="none" stroke="black" cx="463" cy="-27" rx="65.0538" ry="26.8701"/>
<text text-anchor="middle" x="463" y="-29.4" font-family="Times,serif" font-size="14.00">Tail Brick</text>
<text text-anchor="middle" x="463" y="-14.4" font-family="Times,serif" font-size="14.00">+Official Tail</text>
</g>
<!-- MIDDLE&#45;&gt;TAIL -->
<g id="edge7" class="edge"><title>MIDDLE&#45;&gt;TAIL</title>
<path fill="none" stroke="black" d="M314.023,-27C337.017,-27 363.445,-27 387.597,-27"/>
<polygon fill="black" stroke="black" points="387.793,-30.5001 397.793,-27 387.793,-23.5001 387.793,-30.5001"/>
<text text-anchor="middle" x="356" y="-29.4" font-family="Times,serif" font-size="14.00">Replication</text>
</g>
<!-- TAIL&#45;&gt;CLIENT -->
<g id="edge9" class="edge"><title>TAIL&#45;&gt;CLIENT</title>
<path fill="none" stroke="black" d="M419.744,-47.4675C381.848,-65.3986 327.501,-91.1142 292.474,-107.688"/>
<polygon fill="black" stroke="black" points="290.679,-104.665 283.137,-112.106 293.673,-110.992 290.679,-104.665"/>
<text text-anchor="middle" x="405" y="-74.9" font-family="Times,serif" font-size="14.00">Update reply</text>
</g>
</g>
</svg>
