<?xml version="1.0" encoding="UTF-8" standalone="no"?>
<!DOCTYPE svg PUBLIC "-//W3C//DTD SVG 1.1//EN"
 "http://www.w3.org/Graphics/SVG/1.1/DTD/svg11.dtd">
<!-- Generated by graphviz version 2.26.3 (20100126.1600)
 -->
<!-- Title: data_flow Pages: 1 -->
<svg width="193pt" height="132pt"
 viewBox="0.00 0.00 193.00 132.00" xmlns="http://www.w3.org/2000/svg" xmlns:xlink="http://www.w3.org/1999/xlink">
<g id="graph1" class="graph" transform="scale(1 1) rotate(0) translate(4 128)">
<title>data_flow</title>
<polygon fill="white" stroke="white" points="-4,5 -4,-128 190,-128 190,5 -4,5"/>
<!-- CLIENT -->
<g id="node1" class="node"><title>CLIENT</title>
<ellipse fill="none" stroke="black" cx="75" cy="-106" rx="33.1471" ry="18"/>
<text text-anchor="middle" x="75" y="-100.9" font-family="Times,serif" font-size="14.00">Client</text>
</g>
<!-- HEAD -->
<g id="node2" class="node"><title>HEAD</title>
<ellipse fill="none" stroke="black" cx="75" cy="-18" rx="74.894" ry="18"/>
<text text-anchor="middle" x="75" y="-12.9" font-family="Times,serif" font-size="14.00">Standalone Brick</text>
</g>
<!-- CLIENT&#45;&gt;HEAD -->
<g id="edge3" class="edge"><title>CLIENT&#45;&gt;HEAD</title>
<path fill="none" stroke="black" d="M48.3325,-95.048C37.8374,-89.2595 26.9014,-81.0269 21,-70 14.9216,-58.6424 21.6153,-48.2941 32.1136,-39.8725"/>
<polygon fill="black" stroke="black" points="34.1499,-42.7193 40.3022,-34.0938 30.1138,-37 34.1499,-42.7193"/>
<text text-anchor="middle" x="64.5" y="-56.9" font-family="Times,serif" font-size="14.00">Update request</text>
</g>
<!-- HEAD&#45;&gt;CLIENT -->
<g id="edge5" class="edge"><title>HEAD&#45;&gt;CLIENT</title>
<path fill="none" stroke="black" d="M96.1069,-35.3627C105.214,-45.0572 112.806,-57.6435 108,-70 106.175,-74.6917 103.421,-79.1436 100.268,-83.2146"/>
<polygon fill="black" stroke="black" points="97.3977,-81.1775 93.4036,-90.9907 102.646,-85.8101 97.3977,-81.1775"/>
<text text-anchor="middle" x="147" y="-56.9" font-family="Times,serif" font-size="14.00">Update reply</text>
</g>
</g>
</svg>
