<?xml version="1.0" encoding="UTF-8" standalone="no"?>
<!DOCTYPE svg PUBLIC "-//W3C//DTD SVG 1.1//EN"
 "http://www.w3.org/Graphics/SVG/1.1/DTD/svg11.dtd">
<!-- Generated by graphviz version 2.26.3 (20100126.1600)
 -->
<!-- Title: data_flow Pages: 1 -->
<svg width="538pt" height="168pt"
 viewBox="0.00 0.00 538.00 168.00" xmlns="http://www.w3.org/2000/svg" xmlns:xlink="http://www.w3.org/1999/xlink">
<g id="graph1" class="graph" transform="scale(1 1) rotate(0) translate(4 164)">
<title>data_flow</title>
<polygon fill="white" stroke="white" points="-4,5 -4,-164 535,-164 535,5 -4,5"/>
<!-- CLIENT -->
<g id="node1" class="node"><title>CLIENT</title>
<ellipse fill="none" stroke="black" cx="260" cy="-141" rx="34.8574" ry="19.0919"/>
<text text-anchor="middle" x="260" y="-137.9" font-family="Times Roman,serif" font-size="14.00">Client</text>
</g>
<!-- HEAD -->
<g id="node2" class="node"><title>HEAD</title>
<ellipse fill="none" stroke="black" cx="56" cy="-33" rx="55.8614" ry="19.0919"/>
<text text-anchor="middle" x="56" y="-29.9" font-family="Times Roman,serif" font-size="14.00">Head Brick</text>
</g>
<!-- CLIENT&#45;&gt;HEAD -->
<g id="edge3" class="edge"><title>CLIENT&#45;&gt;HEAD</title>
<path fill="none" stroke="black" d="M234.576,-127.54C199.623,-109.036 136.398,-75.5637 95.3212,-53.8171"/>
<polygon fill="black" stroke="black" points="96.8786,-50.6814 86.4031,-49.0958 93.6034,-56.868 96.8786,-50.6814"/>
<text text-anchor="middle" x="230" y="-90.9" font-family="Times Roman,serif" font-size="14.00">Update request</text>
</g>
<!-- MIDDLE -->
<g id="node3" class="node"><title>MIDDLE</title>
<ellipse fill="none" stroke="black" cx="256" cy="-33" rx="63.1385" ry="19.0919"/>
<text text-anchor="middle" x="256" y="-29.9" font-family="Times Roman,serif" font-size="14.00">Middle Brick</text>
</g>
<!-- HEAD&#45;&gt;MIDDLE -->
<g id="edge5" class="edge"><title>HEAD&#45;&gt;MIDDLE</title>
<path fill="none" stroke="black" d="M112.243,-33C133.982,-33 159.158,-33 182.309,-33"/>
<polygon fill="black" stroke="black" points="182.435,-36.5001 192.435,-33 182.435,-29.5001 182.435,-36.5001"/>
<text text-anchor="middle" x="152" y="-39.4" font-family="Times Roman,serif" font-size="14.00">Replication</text>
</g>
<!-- TAIL -->
<g id="node4" class="node"><title>TAIL</title>
<ellipse fill="none" stroke="black" cx="465" cy="-33" rx="65.0538" ry="32.5269"/>
<text text-anchor="middle" x="465" y="-39.4" font-family="Times Roman,serif" font-size="14.00">Tail Brick</text>
<text text-anchor="middle" x="465" y="-20.4" font-family="Times Roman,serif" font-size="14.00">+Official Tail</text>
</g>
<!-- MIDDLE&#45;&gt;TAIL -->
<g id="edge7" class="edge"><title>MIDDLE&#45;&gt;TAIL</title>
<path fill="none" stroke="black" d="M319.558,-33C341.736,-33 366.837,-33 389.867,-33"/>
<polygon fill="black" stroke="black" points="389.939,-36.5001 399.939,-33 389.939,-29.5001 389.939,-36.5001"/>
<text text-anchor="middle" x="359" y="-39.4" font-family="Times Roman,serif" font-size="14.00">Replication</text>
</g>
<!-- TAIL&#45;&gt;CLIENT -->
<g id="edge9" class="edge"><title>TAIL&#45;&gt;CLIENT</title>
<path fill="none" stroke="black" d="M420.17,-56.6176C382.311,-76.563 328.891,-104.706 294.35,-122.903"/>
<polygon fill="black" stroke="black" points="292.353,-119.999 285.137,-127.757 295.616,-126.193 292.353,-119.999"/>
<text text-anchor="middle" x="398.5" y="-90.9" font-family="Times Roman,serif" font-size="14.00">Update reply</text>
</g>
</g>
</svg>
